<?xml version="1.0" encoding="UTF-8" standalone="no"?>
<!-- Created with Inkscape (http://www.inkscape.org/) -->

<svg
   version="1.1"
   id="svg2"
   width="350.36084"
   height="448.08685"
   viewBox="0 0 350.36084 448.08685"
   sodipodi:docname="safe.png"
   inkscape:export-filename="safe.svg"
   inkscape:export-xdpi="96"
   inkscape:export-ydpi="96"
   xml:space="preserve"
   xmlns:inkscape="http://www.inkscape.org/namespaces/inkscape"
   xmlns:sodipodi="http://sodipodi.sourceforge.net/DTD/sodipodi-0.dtd"
   xmlns="http://www.w3.org/2000/svg"
   xmlns:svg="http://www.w3.org/2000/svg"><defs
     id="defs6" /><sodipodi:namedview
     id="namedview4"
     pagecolor="#ffffff"
     bordercolor="#000000"
     borderopacity="0.25"
     inkscape:showpageshadow="2"
     inkscape:pageopacity="0.0"
     inkscape:pagecheckerboard="0"
     inkscape:deskcolor="#d1d1d1"
     showgrid="false" /><g
     inkscape:groupmode="layer"
     inkscape:label="Image"
     id="g8"
     transform="translate(-1663.3871,1113.9536)"><path
       style="fill:#020202;stroke:none"
       d="m 1821.7985,-1113.3168 c -21.41,2.8194 -41.214,8.4641 -59,21.321 -11.653,8.4235 -21.543,19.1998 -29.308,31.2546 -29.975,46.538 -20.361,110.47 21.308,146.711 25.248,21.958 59.119,31.094 92,27.003 15.896,-1.978 31.435,-7.694 45,-16.139 65.554,-40.811 71.725,-135.983 12,-184.9592 -11.646,-9.5498 -25.588,-16.6 -40,-20.8951 -13.114,-3.9082 -28.357,-6.0929 -42,-4.2963 m 39,443.5756 c -9.873,-21.172 -35.061,-28.47 -36.91,-55 -2.092,-30.001 27.551,-55.593 56.91,-49.331 15.477,3.301 25.285,14.616 36,25.331 h 1 l 36,-36 c 12.982,-12.982 24.517,-24.946 44,-25 0,-29.306 -13.19,-57.423 -36,-75.905 -4.686,-3.797 -16.688,-14.838 -23,-14.073 -4.289,0.521 -7.999,6.107 -11,8.807 -7.575,6.818 -16.166,12.687 -25,17.744 -26.342,15.076 -58.877,22.102 -89,18.002 -25.332,-3.448 -49.317,-12.562 -70,-27.73 -6.143,-4.505 -17.121,-19.544 -25,-15.579 -7.402,3.725 -14.658,9.203 -21,14.489 -40.7026,33.921 -34,85.888 -34,133.245 0,26.364 -4.1176,55.71 21,72.64 16.637,11.214 38.954,8.36 58,8.36 h 118 m 57,-34 c -11.498,-11.498 -24.476,-30.135 -39,-37.547 -9.067,-4.627 -20.833,0.274 -22.671,10.547 -2.762,15.441 20.042,30.371 29.671,40 7.995,7.995 19.463,25.285 32,24.867 10.349,-0.346 18.324,-11.191 25,-17.867 18.323,-18.323 36.302,-36.923 54.59,-55.275 6.842,-6.866 17.231,-13.751 16.301,-24.725 -0.895,-10.573 -12.123,-16.945 -21.891,-12.991 -13.975,5.658 -27.42,25.411 -38,35.991 -11.823,11.823 -26.37,23.33 -36,37 z"
       id="path2940" /></g></svg>
