<?xml version="1.0" encoding="UTF-8" standalone="no"?>
<!-- Created with Inkscape (http://www.inkscape.org/) -->

<svg
   version="1.1"
   id="svg2"
   width="410.04932"
   height="448.49908"
   viewBox="0 0 410.04932 448.49908"
   sodipodi:docname="safe.png"
   inkscape:export-filename="safe.svg"
   inkscape:export-xdpi="96"
   inkscape:export-ydpi="96"
   xml:space="preserve"
   xmlns:inkscape="http://www.inkscape.org/namespaces/inkscape"
   xmlns:sodipodi="http://sodipodi.sourceforge.net/DTD/sodipodi-0.dtd"
   xmlns="http://www.w3.org/2000/svg"
   xmlns:svg="http://www.w3.org/2000/svg"><defs
     id="defs6" /><sodipodi:namedview
     id="namedview4"
     pagecolor="#ffffff"
     bordercolor="#000000"
     borderopacity="0.25"
     inkscape:showpageshadow="2"
     inkscape:pageopacity="0.0"
     inkscape:pagecheckerboard="0"
     inkscape:deskcolor="#d1d1d1"
     showgrid="false" /><g
     inkscape:groupmode="layer"
     inkscape:label="Image"
     id="g8"
     transform="translate(-2978.2056,1014.9984)"><path
       style="fill:#020202;stroke:none;stroke-width:0.872727"
       d="m 3171.9509,-977.64475 c -57.332,2.46196 -117.4403,22.93117 -154.472,68.94545 -10.1145,12.56814 -27.1094,34.11753 -25.0539,51.49091 4.3085,36.41629 52.3887,39.49091 65.1987,6.98182 3.4411,7.26283 6.8893,13.67214 13.9636,18.08989 18.0698,11.28523 43.7271,2.80145 49.7454,-18.08989 h 0.8728 c 4.5085,18.80552 27.3408,28.03112 44.5091,20.65047 9.7413,-4.18822 14.8163,-11.40218 19.2,-20.65047 10.3671,30.39621 53.3847,30.26967 63.7091,0 9.6349,20.32843 33.517,31.49934 53.2328,16.12014 5.4904,-4.28334 8.1626,-10.16902 11.349,-16.12014 10.5198,30.89541 58.3706,30.5856 64.3016,-3.49091 3.5433,-20.35462 -14.3912,-43.22444 -26.7744,-57.6 -37.8266,-43.91145 -95.1761,-63.89333 -151.8545,-66.32727 0,-8.44931 3.2945,-25.68335 -1.1503,-32.97705 -3.4743,-5.7006 -22.368,-5.9448 -25.748,-0.07 -4.3017,7.4756 -1.029,24.49459 -1.029,33.04715 m 0,179.78181 v 128.29091 30.54545 c 0,3.38968 1.0691,9.05193 -2.023,11.39957 -2.9803,2.26211 -8.3703,2.16174 -11.9406,2.78225 -7.625,1.3248 -15.2649,3.21949 -22.6909,5.38822 -15.2239,4.44742 -30.7113,13.33178 -46.2546,15.92727 -21.9648,3.66808 -44.3116,1.38502 -66.3272,7.16509 -14.6244,3.84 -43.5235,9.94124 -44.5091,28.90124 h 302.8363 76.8 c 6.8073,0 23.0924,2.97076 28.5225,-1.52029 5.1378,-4.24931 -1.4452,-9.53193 -4.9588,-11.73207 -10.6176,-6.64844 -22.1778,-11.84989 -34.0364,-15.83826 -15.2631,-5.13251 -31.2585,-4.12363 -46.2545,-8.24902 -34.1909,-9.408 -64.8786,-23.75127 -101.2364,-23.75127 v -123.05454 -32.29091 c 0,-3.47957 1.1695,-9.65498 -0.8972,-12.65542 -6.754,-9.80596 -18.7496,-3.22473 -27.0301,-1.30822 z"
       id="path2944" /></g></svg>
