<?xml version="1.0" encoding="UTF-8" standalone="no"?>
<!-- Created with Inkscape (http://www.inkscape.org/) -->

<svg
   version="1.1"
   id="svg2"
   width="685.24634"
   height="685.4046"
   viewBox="0 0 685.24634 685.4046"
   sodipodi:docname="safe.png"
   inkscape:export-filename="safe.svg"
   inkscape:export-xdpi="96"
   inkscape:export-ydpi="96"
   xml:space="preserve"
   xmlns:inkscape="http://www.inkscape.org/namespaces/inkscape"
   xmlns:sodipodi="http://sodipodi.sourceforge.net/DTD/sodipodi-0.dtd"
   xmlns="http://www.w3.org/2000/svg"
   xmlns:svg="http://www.w3.org/2000/svg"><defs
     id="defs6" /><sodipodi:namedview
     id="namedview4"
     pagecolor="#ffffff"
     bordercolor="#000000"
     borderopacity="0.25"
     inkscape:showpageshadow="2"
     inkscape:pageopacity="0.0"
     inkscape:pagecheckerboard="0"
     inkscape:deskcolor="#d1d1d1"
     showgrid="false" /><g
     inkscape:groupmode="layer"
     inkscape:label="Image"
     id="g8"
     transform="translate(2260.4409,1113.5388)"><path
       style="fill:#020202;stroke:none;stroke-width:1.33333"
       d="m -1927.2202,-1111.8714 c -34.32,4.9165 -64.6173,28.6598 -72.4467,63.429 -7.3333,32.5653 -2.22,70.70534 -2.22,104.00001 v 200 c 0,33.84134 -3.9986,70.44667 0.2467,104.00001 1.456,11.50533 11.1293,18.336 22.42,17.188 9.5213,-0.968 17.992,-9.51334 25.3333,-15.01867 l 45.3334,-34 c 6.3506,-4.764 13.5066,-12.216 21.3333,-14.26267 18.1467,-4.74667 42.5653,-0.57333 61.3333,-0.57333 h 132.0001 c 34.3853,0 68.2613,1.86266 93.88,-25.56 27.424,-29.35467 23.4533,-66.59734 23.4533,-103.77334 0,-71.77067 3.092,-144.30667 -0.052,-216.00001 -1.132,-25.8003 -15.5587,-51.8665 -37.2813,-65.9361 -29.3027,-18.9793 -65.4667,-14.0639 -98.6667,-14.0639 h -141.3334 c -23.8573,0 -49.716,-2.8123 -73.3333,0.571 m 28,106.535 c 28.8067,-5.2013 62.7027,-0.4393 92,-0.4393 41.196,0 85.8254,-4.9214 126.6667,0.2469 18.0053,2.2785 25.5707,26.7824 9.276,37.0744 -13.0373,8.23334 -42.164,2.67867 -57.276,2.67867 h -122.6667 c -15.3413,0 -39.0507,4.46667 -53.332,-1.34533 -18.7293,-7.62267 -13.2853,-34.85384 5.332,-38.21534 m 4,85.27934 c 28.3893,-3.73467 59.356,-0.38533 88,-0.38533 40.132,0 81.308,-2.688 121.3334,0.12 19.8573,1.392 35.148,25.848 13.328,38.17466 -14.3867,8.128 -41.1974,3.03867 -57.328,3.03867 h -121.3334 c -15.5667,0 -38.928,4.32 -53.332,-2.204 -21.9413,-9.936 -10.3293,-36.15733 9.332,-38.744 m -5.3333,86.72 c 20.1173,-3.63333 43.5533,-0.43866 64,-0.43866 10.24,0 23.5013,-2.21334 33.3333,0.87066 17.7707,5.57334 17.688,32.50267 0,38.05734 -20.1947,6.34266 -49.5187,1.072 -70.6667,1.072 -9.0253,0 -20.7893,1.96133 -29.328,-1.32667 -18.0386,-6.94533 -17.1653,-34.65333 2.6614,-38.23467 m -237.3334,230.22801 v 1.33333 c -61.616,1.272 -113.302,51.77867 -120.0668,112.00001 -1.6522,14.708 -6.9212,44.07867 5.8395,54.93333 13.0637,11.112 44.6909,5.06667 60.894,5.06667 54.8929,0 110.5133,2.636 165.3333,-0.0533 33.4667,-1.64267 21.3027,-60.69867 15.4307,-81.28001 -14.5067,-50.836 -63.2867,-90.224 -116.764,-90.66667 34.8347,-10.32 63.824,-18.07066 80.9027,-54.66666 32.5786,-69.80801 -30.532,-146.98934 -104.9027,-132.71868 -87.976,16.88 -101.6387,144.86268 -18.6667,179.36934 10.2999,4.284 20.8434,6.652 32,6.68267 z"
       id="path2932" /></g></svg>
