<?xml version="1.0" encoding="UTF-8" standalone="no"?>
<!-- Created with Inkscape (http://www.inkscape.org/) -->

<svg
   version="1.1"
   id="svg2"
   width="449.99615"
   height="385.10211"
   viewBox="0 0 449.99615 385.10211"
   sodipodi:docname="safe.png"
   inkscape:export-filename="safe.svg"
   inkscape:export-xdpi="96"
   inkscape:export-ydpi="96"
   xml:space="preserve"
   xmlns:inkscape="http://www.inkscape.org/namespaces/inkscape"
   xmlns:sodipodi="http://sodipodi.sourceforge.net/DTD/sodipodi-0.dtd"
   xmlns="http://www.w3.org/2000/svg"
   xmlns:svg="http://www.w3.org/2000/svg"><defs
     id="defs6" /><sodipodi:namedview
     id="namedview4"
     pagecolor="#ffffff"
     bordercolor="#000000"
     borderopacity="0.25"
     inkscape:showpageshadow="2"
     inkscape:pageopacity="0.0"
     inkscape:pagecheckerboard="0"
     inkscape:deskcolor="#d1d1d1"
     showgrid="false" /><g
     inkscape:groupmode="layer"
     inkscape:label="Image"
     id="g8"
     transform="translate(1134.7184,1062.5203)"><path
       style="fill:#010101;stroke:none"
       d="m -925.5133,-933.9692 v 48 h -84 c -14.589,0 -29.539,0.333 -38.451,14.004 -11.107,17.038 -5.549,46.474 -5.549,65.996 -19.3333,0 -51.8955,-6.277 -67.9992,6.39 -18.8237,14.808 -12.0008,48.472 -12.0008,69.61 0,8.443 -1.0369,17.673 0.4645,26 1.4767,8.19 5.7055,15.487 12.5355,20.362 12.3211,8.794 30.7429,5.638 45,5.638 34.298,0 68.714,0.839 103,-0.015 39.613,-0.985 31,-50.334 31,-76.985 0,-12.201 1.986,-26.201 -4.969,-37 -14.097,-21.889 -52.789,-14 -75.031,-14 v -48 h 224 v 48 c -19.333,0 -51.895,-6.277 -67.999,6.39 -18.824,14.808 -12.001,48.472 -12.001,69.61 0,8.443 -1.037,17.673 0.465,26 1.476,8.19 5.705,15.487 12.535,20.362 12.321,8.794 30.743,5.638 45,5.638 34.298,0 68.714,0.839 103,-0.015 39.613,-0.985 31,-50.334 31,-76.985 0,-12.201 1.986,-26.201 -4.969,-37 -14.097,-21.889 -52.789,-14 -75.031,-14 0,-19.522 5.558,-48.958 -5.549,-65.996 -8.912,-13.671 -23.862,-14.004 -38.451,-14.004 h -84 v -48 c 19.333,0 51.895,6.277 67.999,-6.39 18.824,-14.808 12.001,-48.472 12.001,-69.61 0,-8.443 1.037,-17.6727 -0.465,-26 -1.476,-8.1902 -5.705,-15.4868 -12.535,-20.3619 -12.321,-8.7944 -30.743,-5.6381 -45,-5.6381 -34.298,0 -68.714,-0.8386 -103,0.015 -39.613,0.9859 -31,50.3344 -31,76.9854 0,12.201 -1.986,26.201 4.969,37 14.097,21.889 52.789,14 75.031,14 z"
       id="path2934" /></g></svg>
