<?xml version="1.0" encoding="UTF-8" standalone="no"?>
<!-- Created with Inkscape (http://www.inkscape.org/) -->

<svg
   version="1.1"
   id="svg2"
   width="344.26514"
   height="381.8924"
   viewBox="0 0 344.26514 381.8924"
   sodipodi:docname="safe.png"
   inkscape:export-filename="safe.svg"
   inkscape:export-xdpi="96"
   inkscape:export-ydpi="96"
   xml:space="preserve"
   xmlns:inkscape="http://www.inkscape.org/namespaces/inkscape"
   xmlns:sodipodi="http://sodipodi.sourceforge.net/DTD/sodipodi-0.dtd"
   xmlns="http://www.w3.org/2000/svg"
   xmlns:svg="http://www.w3.org/2000/svg"><defs
     id="defs6" /><sodipodi:namedview
     id="namedview4"
     pagecolor="#ffffff"
     bordercolor="#000000"
     borderopacity="0.25"
     inkscape:showpageshadow="2"
     inkscape:pageopacity="0.0"
     inkscape:pagecheckerboard="0"
     inkscape:deskcolor="#d1d1d1"
     showgrid="false" /><g
     inkscape:groupmode="layer"
     inkscape:label="Image"
     id="g8"
     transform="translate(-2436.8049,101.89485)"><path
       style="fill:#020202;stroke:none;stroke-width:0.743342"
       d="m 2436.8109,-33.77955 v 220.77269 51.29063 c 0,11.24602 -0.4953,22.23337 7.5711,31.20923 9.3209,10.3726 22.0894,9.6746 34.7994,9.6746 h 70.6175 104.068 c 17.1816,0 35.7466,2.00331 52.7773,-0.21487 16.2353,-2.11556 26.0163,-15.21251 26.0169,-31.00556 0,-3.20455 0.7113,-7.45647 -0.7642,-10.40679 -2.6686,-5.33794 -9.1735,-9.93775 -13.3593,-14.12351 l -28.247,-28.24701 c -11.6198,-11.61993 -22.996,-26.2214 -36.4237,-35.68044 -0.1162,13.87523 -18.362,34.51488 -33.4505,30.6547 -8.2041,-2.0992 -13.5801,-9.29772 -19.3269,-15.0445 -11.5262,-11.52627 -23.4092,-22.66526 -34.937,-34.19376 -6.8885,-6.88929 -13.8032,-13.95105 -11.5077,-24.53029 2.3548,-10.85503 16.7728,-24.46043 27.8612,-25.78284 4.3759,-0.52182 10.4128,4.07278 14.1235,2.19212 3.9299,-1.99216 7.3189,-6.77185 10.4068,-9.85969 6.835,-6.83504 14.5235,-13.37942 20.7007,-20.81359 3.9471,-4.7507 -1.4296,-11.8853 -0.3859,-17.84022 2.3341,-13.31549 21.533,-30.46663 35.4359,-25.49664 7.255,2.59352 12.5357,9.78536 17.8402,15.08985 9.1408,9.14088 18.0446,18.62593 27.5036,27.43677 6.2901,5.85977 14.5449,11.71805 17.5518,20.13714 5.5952,15.66817 -13.5066,34.28964 -27.9585,36.42378 8.4271,11.9641 22.973,26.50982 34.937,34.93709 v -180.6322 c 0,-19.71404 6.5354,-51.78873 -9.7905,-66.30029 -8.7024,-7.73568 -19.4518,-7.29061 -30.3499,-7.29061 h -49.804 -36.4238 c -4.4147,0 -11.3596,-1.31474 -15.454,0.44854 -6.1245,2.63743 -11.6861,16.34833 -15.2788,21.85173 -10.5101,16.09834 -21.4201,31.98714 -31.5653,48.31726 -4.9588,7.98201 -10.4558,19.35738 -19.4695,23.2785101 -9.6175,4.18353 -19.2614,-1.13508 -28.247,-4.4578201 -18.7776,-6.94431 -39.6843,-18.83079 -59.4674,-21.79406 m 4.46,-8.92011 v 0.74334 c 18.1346,4.94992 35.945,13.24383 53.5207,19.92753 7.5159,2.85815 16.9765,8.44883 25.2736,6.53992 7.8957,-1.81672 12.7423,-14.32978 16.8493,-20.52071 13.7713,-20.7579 29.0187,-41.42772 41.1314,-63.1841 l -32.707,13.37213 -104.068,43.12189 m 61.6974,135.28832 c 0,2.91613 0.6714,6.94133 -0.8764,9.55344 -1.8553,3.13244 -6.1414,2.5504 -7.4922,-0.67719 -1.0904,-2.60541 -0.5515,-6.10804 -0.5515,-8.87625 -7.6973,-1.37295 -17.9382,-11.33523 -14.3151,-20.02639 1.2249,-2.93843 4.9309,-3.70036 7.0738,-1.20793 2.0551,2.38985 1.5801,6.02107 3.7316,8.56479 5.2373,6.19204 14.5535,4.72543 17.5224,-2.94066 1.4391,-3.71597 0.2774,-8.06304 -3.0024,-10.41051 -6.1056,-4.37011 -14.674,-3.22536 -20.5957,-8.45552 -11.2154,-9.9043 -4.4173,-29.92697 9.5854,-32.4246 0,-3.29598 1.1515,-17.6722199 7.6253,-10.08418 2.3332,2.73476 0.067,6.97478 2.4865,9.56459 5.4248,5.80624 16.4174,8.82124 13.3495,19.81379 -0.9031,3.238 -5.0092,4.79604 -7.4051,2.02561 -2.0472,-2.36606 -1.6822,-6.08872 -3.7308,-8.65028 -5.0971,-6.37342 -14.6864,-4.79158 -17.6073,2.94066 -1.3861,3.66914 -0.035,8.15744 3.1323,10.4291 6.1637,4.4214 14.6334,3.29895 20.5957,8.54769 11.0052,9.69021 4.3063,29.84669 -9.526,32.31384 m 153.1286,-67.19072 c -10.0544,0.62292 -24.5824,15.92983 -20.8359,26.30689 2.355,6.52431 9.3796,11.58722 14.1458,16.35353 l 30.477,30.47704 c 4.9642,4.96404 10.0314,11.91355 17.8403,11.44004 10.5896,-0.64299 25.2759,-16.01011 20.8068,-27.05023 -2.3408,-5.78172 -9.0532,-10.54654 -13.3734,-14.86685 l -31.2204,-31.22038 c -4.9588,-4.95884 -10.0351,-11.92321 -17.8402,-11.44004 m -20.8136,38.94371 -25.2736,25.27364 -8.023,9.66345 10.253,11.89348 32.707,32.70706 h 0.7434 l 23.7869,-23.78695 c 2.6784,-2.67826 8.4593,-6.60757 9.4063,-10.4068 0.9685,-3.88322 -6.9955,-9.48281 -9.4063,-11.89347 -10.9122,-10.91227 -21.5822,-24.56673 -34.1937,-33.45041 m -55.0073,34.60853 c -9.4709,2.48425 -22.4014,16.94375 -17.3287,27.08889 2.7406,5.48066 8.5951,9.85003 12.8686,14.1235 l 27.5037,27.50367 c 6.0782,6.07831 13.809,17.54511 23.7869,14.9174 9.9682,-2.62549 23.3842,-16.60181 18.1576,-27.55422 -2.6038,-5.45762 -8.7357,-9.90504 -12.9542,-14.12351 l -26.7603,-26.76032 c -6.8178,-6.81794 -14.2083,-18.09742 -25.2736,-15.19541 m 103.3246,17.68263 c -3.09,0.7701 -6.0181,5.01756 -8.1768,7.17623 -6.4053,6.40538 -16.732,13.59499 -21.0649,21.55693 -1.8747,3.44465 3.974,10.33172 7.6847,9.40625 3.09,-0.7701 6.0181,-5.01756 8.1768,-7.17622 6.4053,-6.40538 16.7319,-13.59499 21.0649,-21.55693 1.8746,-3.44465 -3.9741,-10.33172 -7.6847,-9.40626 m 50.5472,112.73085 c 8.5619,-6.03148 15.4713,-14.97612 23.0146,-22.23114 2.3766,-2.28578 7.8476,-5.46357 8.2646,-8.98998 0.5605,-4.74624 -10.3459,-12.5164 -13.4389,-15.60945 -12.4236,-12.42348 -25.3048,-24.48198 -37.379,-37.23402 -3.2596,-3.44168 -9.7341,-12.79144 -14.655,-13.37199 -4.7477,-0.55973 -12.5156,10.34435 -15.6102,13.43889 -3.4765,3.47661 -15.4564,11.9693 -15.4564,17.09687 0,3.44465 5.8041,7.44458 8.023,9.66346 l 26.017,26.01698 31.2203,31.22038 m 38.6538,-25.27364 -31.9637,31.22038 v 0.74334 c 6.3935,6.11474 13.9549,10.2165 23.0436,7.59027 17.453,-5.04358 23.6711,-28.26485 8.9201,-39.55399 m -246.0351,6.94579 c 9.8395,-2.08285 21.8944,-0.25571 31.9525,-0.25571 h 65.4142 c 7.3033,0 15.8838,-1.23989 23.0399,0.25571 3.3687,0.70395 6.0396,4.46154 3.2721,7.53898 -2.0099,2.23449 -5.7698,1.8643 -8.4718,1.86876 h -22.3003 -63.9274 c -8.9188,0 -21.1616,2.18766 -29.701,-0.42593 -5.1223,-1.56697 -4.1732,-7.94559 0.7218,-8.98181 m -24.4976,26.20951 c 3.5042,-1.41532 8.8627,-0.44824 12.5929,-0.44824 h 27.5037 95.1478 c 10.5889,0 21.3964,-0.63258 31.963,0.0328 3.7212,0.23415 7.9292,4.12852 4.0757,7.5925 -2.6099,2.34599 -8.2741,1.2949 -11.5084,1.2949 h -29.7337 -103.3246 c -7.9493,0 -18.3152,1.77807 -26.0028,-0.23638 -4.0698,-1.0667 -4.811,-6.58007 -0.7136,-8.23549 z"
       id="path2942"
       inkscape:export-filename="..\..\hr\employees Penalties Names.svg"
       inkscape:export-xdpi="96"
       inkscape:export-ydpi="96" /></g></svg>
