<?xml version="1.0" encoding="UTF-8" standalone="no"?>
<!-- Created with Inkscape (http://www.inkscape.org/) -->

<svg
   version="1.1"
   id="svg2"
   width="511.48755"
   height="513.30682"
   viewBox="0 0 511.48755 513.30682"
   sodipodi:docname="safe.png"
   inkscape:export-filename="safe.svg"
   inkscape:export-xdpi="96"
   inkscape:export-ydpi="96"
   xml:space="preserve"
   xmlns:inkscape="http://www.inkscape.org/namespaces/inkscape"
   xmlns:sodipodi="http://sodipodi.sourceforge.net/DTD/sodipodi-0.dtd"
   xmlns="http://www.w3.org/2000/svg"
   xmlns:svg="http://www.w3.org/2000/svg"><defs
     id="defs6" /><sodipodi:namedview
     id="namedview4"
     pagecolor="#ffffff"
     bordercolor="#000000"
     borderopacity="0.25"
     inkscape:showpageshadow="2"
     inkscape:pageopacity="0.0"
     inkscape:pagecheckerboard="0"
     inkscape:deskcolor="#d1d1d1"
     showgrid="false" /><g
     inkscape:groupmode="layer"
     inkscape:label="Image"
     id="g8"
     transform="translate(2984.344,1046.8815)"><path
       style="fill:#020202;stroke:none"
       d="m -2729.5398,-978.8811 -16,6 c -5.365,-13.8289 -11.6,-27.3568 -17.421,-41 -1.707,-3.9992 -3.594,-12.4492 -7.854,-14.3966 -10.734,-4.907 -31.643,4.4495 -40.725,9.8495 -3.5,2.0811 -11.185,5.4847 -9.574,10.5617 1.768,5.5709 7.013,11.1443 10.241,15.9854 l 22,33 c 3.357,5.0364 7.14,13.913 12.517,16.972 8.831,5.025 29.694,1.028 39.816,1.028 h 38 c 5.02,0 12.188,1.289 16.907,-0.603 5.847,-2.346 10.075,-12.3705 13.426,-17.397 l 22.667,-34 c 3.941,-5.9116 9.357,-12.0077 11,-19 -27.243,-19.1722 -51.086,-35.1542 -86,-34.9992 -7.799,0.035 -28.319,2.1824 -31.292,11.3248 -1.399,4.3028 3.636,11.7816 5.292,15.6744 5.693,13.3856 13.161,26.9643 17,41 m -167,-6 v 35 h 18 v -35 h -18 m -42,13 17,27 c 3.5746,-1.99 12.2808,-5.7662 13.1188,-10.1844 1.2845,-6.7721 -11.8393,-19.9249 -15.1188,-25.8156 l -15,9 m 71,18 13,9 h 1 l 17,-27 c -3.285,-2.3525 -8.628,-7.8588 -12.907,-7.6945 -6.24,0.2397 -16.373,20.2965 -18.093,25.6945 m 95,31 v 17 h 88 v -17 h -88 m -127,9.428 c -10.6696,1.532 -20.8572,5.303 -30,10.997 -9.1021,5.669 -16.7874,12.784 -22.9576,21.575 -38.6066,55.008 7.8012,133.433 74.9576,124.711 10.934,-1.421 21.469,-5.066 31,-10.587 8.419,-4.876 15.711,-11.519 21.714,-19.124 44.074,-55.842 -5.422,-137.521 -74.714,-127.572 m 21,16.572 v 18 c 15.113,0.127 25.873,10.888 26,26 -4.581,0 -11.49,1.296 -15.726,-0.603 -2.717,-1.217 -3.828,-4.535 -6.382,-6.118 -5.09,-3.156 -13.1501,-2.759 -18.892,-2.105 -7.7824,0.887 -15.7333,9.892 -6.8912,15.817 10.0734,6.749 24.8992,-1.073 35.8912,5.979 22.353,14.341 11.604,47.914 -14,49.03 v 18 h -18 v -18 c -15.1659,-0.661 -25.8734,-11.902 -26,-27 4.5644,0 11.5135,-1.308 15.7261,0.603 3.172,1.439 4.1359,5.526 7.3179,7.218 4.8514,2.58 13.5995,1.47 18.956,1.135 8.794,-0.55 14.412,-10.871 4.981,-15.777 -10.4678,-5.446 -23.819,1.12 -34.9802,-5.532 -22.7267,-13.544 -11.0113,-48.114 13.9992,-48.647 v -18 h 18 m 106,9 c 0,3.911 -0.898,9.153 0.603,12.83 3.83,9.381 20.685,18.655 28.397,25.09 3.585,2.991 10.071,10.83 15,10.892 4.957,0.062 11.432,-7.755 15,-10.732 7.695,-6.42 24.671,-15.76 28.397,-25.17 1.479,-3.736 0.603,-8.95 0.603,-12.91 h -88 m -21,27 2.807,40 11.193,24 c 11.493,-3.194 29.956,-20.429 37,-30 -14.892,-11.305 -31.419,-33.998 -51,-34 m 79,34 c 7.282,9.893 25.341,26.044 37,30 8.177,-19.64 25.267,-40.058 29,-61 -7.281,-1.502 -16.604,-4.839 -24,-2.436 -14.944,4.855 -29.459,23.985 -42,33.436 m 83,-24 -41,83 -24,-20 c -6.981,15.75 -3.128,29.564 -1.155,46 2.603,21.683 5.531,43.374 8.579,65 1.559,11.062 5.731,24.892 4.529,36 -0.543,5.021 -5.621,8.667 -8.953,12 l -24,24 c -2.627,2.627 -7.674,9.929 -12,8.793 -4.439,-1.165 -8.864,-7.657 -12,-10.793 -9.072,-9.072 -24.259,-19.564 -30.111,-31 -4.432,-8.661 2.349,-29.511 3.687,-39 3.096,-21.969 5.813,-44.003 8.706,-66 2.113,-16.074 5.536,-29.618 -1.282,-45 l -24,20 -13,-27 h -2 c -8.974,21.548 -27.893,39.173 -49,48.688 -6.311,2.845 -13.224,4.932 -20,6.308 -2.575,0.523 -7.206,0.359 -8.972,2.607 -1.795,2.284 -1.028,6.695 -1.028,9.397 v 25 97 c -6.7034,0 -36.1214,-0.182 -24.2577,14.606 3.9619,4.938 12.7138,3.394 18.2577,3.394 h 49 200 60 c 6.101,0 16.904,2.033 21.258,-3.394 11.863,-14.788 -17.555,-14.606 -24.258,-14.606 v -115 c 0,-22.078 2.248,-45.377 -2.884,-67 -6.189,-26.077 -25.077,-52.197 -50.116,-63 m -98,37.89 c -11.965,2.671 -21.782,21.451 -9.49,30.082 3.507,2.463 15.332,1.869 19.357,0.71 14.795,-4.261 4.084,-33.907 -9.867,-30.792 m -9,49.11 c -3.541,28.018 -7.789,55.958 -11.155,84 -1.256,10.46 -5.626,23.539 -4.242,34 0.99,7.477 13.24,15.946 18.397,20.995 1.815,1.777 4.19,4.798 7,4.798 3.17,0 5.977,-3.786 8,-5.794 5.064,-5.027 17.278,-13.333 17.427,-20.999 0.239,-12.3 -3.285,-25.812 -5.003,-38 -3.684,-26.143 -8.348,-52.69 -10.424,-79 h -20 m 178,122 v 19 c 31.175,1.424 34.563,45.574 4,52.181 -9.856,2.13 -20.956,0.819 -31,0.819 h -58 -185 -50 c -9.9414,0 -20.1661,0.981 -29,-4.468 -22.3612,-13.794 -12.8154,-47.352 13,-48.532 v -19 c -23.6534,3.185 -50.75,12.294 -71,24.915 -7.216,4.498 -18.2645,12.168 -16.6443,22.085 1.4937,9.142 11.38,15.41 18.6443,19.796 19.8727,12 43.603,18.011 66,23.32 92.509,21.926 195.211,22.679 289,9.46 34.282,-4.832 69.962,-10.78 102,-24.426 11.932,-5.083 26.935,-11.398 33.772,-23.15 6.537,-11.237 -5.097,-20.967 -13.772,-26.385 -20.738,-12.952 -47.698,-22.477 -72,-25.615 z"
       id="path2930" /></g></svg>
