<?xml version="1.0" encoding="UTF-8" standalone="no"?>
<!-- Created with Inkscape (http://www.inkscape.org/) -->

<svg
   version="1.1"
   id="svg2"
   width="471.27344"
   height="600.1073"
   viewBox="0 0 471.27344 600.1073"
   sodipodi:docname="safe.png"
   inkscape:export-filename="safe.svg"
   inkscape:export-xdpi="96"
   inkscape:export-ydpi="96"
   xml:space="preserve"
   xmlns:inkscape="http://www.inkscape.org/namespaces/inkscape"
   xmlns:sodipodi="http://sodipodi.sourceforge.net/DTD/sodipodi-0.dtd"
   xmlns="http://www.w3.org/2000/svg"
   xmlns:svg="http://www.w3.org/2000/svg"><defs
     id="defs6" /><sodipodi:namedview
     id="namedview4"
     pagecolor="#ffffff"
     bordercolor="#000000"
     borderopacity="0.25"
     inkscape:showpageshadow="2"
     inkscape:pageopacity="0.0"
     inkscape:pagecheckerboard="0"
     inkscape:deskcolor="#d1d1d1"
     showgrid="false" /><g
     inkscape:groupmode="layer"
     inkscape:label="Image"
     id="g8"
     transform="translate(4605.7686,1091.0138)"><path
       style="fill:#030303;stroke:none;stroke-width:1.17073"
       d="m -4604.935,-576.6372 c 22.4653,0 60.3208,-7.62381 77.0517,10.58341 15.5954,16.97093 8.4118,53.44156 8.4118,74.88 h 238.8292 58.5366 c 6.5011,0 16.56,1.80644 21.1973,-3.97346 4.1724,-5.20039 2.2173,-15.5321 2.2173,-21.78264 v -46.82926 c 0,-5.94381 1.522,-14.45151 -1.2035,-19.90244 -3.3588,-6.71766 -11.1067,-12.31024 -16.3574,-17.56098 l -36.2927,-36.29268 -121.7561,-121.75609 h -1.1708 c -17.7401,17.7401 -43.2819,36.17561 -56.6599,57.36585 -4.0097,6.35122 -1.3978,16.24624 -1.9855,23.41463 -1.0197,12.41913 -10.519,23.35844 -22.135,27.21952 -17.8841,5.94497 -30.3536,-6.06088 -42.1464,-17.85366 -23.4146,-23.41464 -46.8854,-46.77307 -70.2429,-70.2439 -10.5171,-10.5682 -20.7127,-22.85034 -15.8727,-38.63415 3.4363,-11.20624 14.5369,-21.71473 26.4083,-23.19804 7.0232,-0.87688 15.5415,1.5477 22.2439,-0.92254 7.2246,-2.66459 13.4084,-11.53171 18.7317,-16.85502 43.9481,-43.9481 93.2066,-85.99727 133.2902,-133.46341 11.0762,-13.11688 -1.0596,-32.64164 14.3309,-46.44445 11.8443,-10.62219 28.5448,-10.42889 40.8667,-0.93588 27.2148,20.96721 50.6271,50.00745 74.9268,74.30715 10.491,10.49093 25.5442,22.27903 25.5442,38.63415 0,15.39044 -14.0733,29.77756 -29.0564,31.40605 -7.214,0.78439 -17.0142,-1.95981 -23.4146,2.08039 -17.335,10.944 -32.3251,31.61912 -46.8293,46.12331 v 1.17073 l 84.2927,84.29268 44.4878,43.31707 v -278.63413 c -10.5846,7.45522 -20.2454,28.368 -32.7524,15.21717 -1.5231,-1.60156 -3.6655,-3.51688 -3.9723,-5.85132 -0.583,-4.44058 5.8935,-8.97248 8.6272,-11.70731 8.3766,-8.38127 19.8825,-16.88769 26.2208,-26.92683 3.8248,-6.05866 1.8767,-16.51362 1.8767,-23.41462 v -53.8537 c 0,-6.4906 2.1062,-17.5645 -2.2173,-22.953 -4.9499,-6.1701 -16.5963,-3.9738 -23.5388,-3.9738 h -65.5609 -230.6342 -57.3658 c -6.8275,0 -17.6325,-2.0498 -23.1473,2.8492 -7.2587,6.4482 -3.7796,24.6048 -3.7796,33.4435 v 94.82925 382.82925 m 139.3171,-460.0975 v -22.2439 h 85.4634 c 11.8326,0 28.2954,-2.9933 39.6316,0.3721 5.2566,1.5606 4.9979,15.0566 2.9795,19.1581 -2.9244,5.9418 -25.0115,2.7137 -30.9038,2.7137 h -97.1707 m 184.9756,4.925 c 22.3984,0 7.6952,34.36729 -7.0244,32.63051 -21.9442,-2.58921 -6.9752,-32.63051 7.0244,-32.63051 m 25.7561,66.48959 h -1.1707 l -14.0488,-14.04878 c 9.4267,-13.3831 26.1178,-31.47101 39.8049,-40.53481 5.5247,-3.6589 16.1479,5.255 16.1479,11.2665 0,4.8011 -7.2305,9.81438 -10.2943,12.87806 l -30.439,30.43903 m -146.3414,-39.80489 c 0,4.8398 2.2829,17.74596 -1.8767,21.04063 -6.7914,5.3787 -30.4964,1.20328 -39.099,1.20328 h -91.317 c -9.7686,0 -28.3127,3.61323 -37.0913,-0.70642 -5.1518,-2.53498 -2.7136,-16.67729 -2.7136,-21.53749 h 172.0976 m 49.1929,20.77242 c -9.4103,3.68687 -9.5812,23.73413 -4.3329,30.73978 12.8032,17.08683 31.3546,31.72683 46.457,46.82927 9.0978,9.09776 18.3723,21.68312 29.2683,28.56234 5.6031,3.53678 19.7643,3.23239 25.5348,0.0351 13.7433,-7.61092 -3.2827,-22.73561 -9.1445,-28.59746 l -62.0488,-62.04878 c -6.233,-6.23356 -15.3202,-19.6005 -25.7339,-15.52027 m -92.51,33.08125 v 21.07317 h -128.7805 v -21.07317 h 128.7805 m -70.2439,159.2195 c 13.4201,19.05132 33.9547,34.93347 50.3368,51.5122 4.6501,4.70634 11.7014,16.82341 18.7363,17.65346 4.1913,0.49405 7.9294,-4.52839 10.5366,-7.11805 l 23.4147,-23.41346 81.9512,-81.95122 c 6.6966,-6.69658 27.0556,-20.8238 28.19,-30.43902 0.4941,-4.19122 -4.5284,-7.92937 -7.118,-10.53659 l -23.4135,-23.41463 -25.7561,-25.7561 c -2.839,-2.83785 -7.2445,-9.12351 -11.7073,-9.12351 -6.8066,0 -16.5658,13.98205 -21.0732,18.48937 l -55.0244,55.02439 -69.0731,69.07316 m -58.5366,-84.29268 c 0,-4.8398 -2.2827,-17.74595 1.8771,-21.04039 3.9764,-3.14926 14.3666,-1.20351 19.1961,-1.20351 h 46.8292 c 4.368,0 13.2316,-1.66595 16.8551,1.20351 2.5369,2.00898 1.872,6.50108 1.8766,9.33308 0.026,16.1959 -14.2068,11.70731 -26.9268,11.70731 h -23.4146 -36.2927 m 32.7805,31.60976 v 22.2439 h -32.7805 v -22.2439 h 32.7805 m 196.6829,55.42946 c -4.9381,1.23044 -15.7534,11.72488 -13.1684,17.1559 5.4872,11.53639 21.7089,22.58927 30.7294,31.60976 l 129.9512,129.95121 c 11.7061,11.70615 23.3362,23.4919 35.1219,35.11727 4.9721,4.90419 11.0447,10.97327 18.7142,8.60136 7.4974,-2.31805 10.1608,-11.50712 6.1733,-17.96253 -7.0198,-11.36664 -20.1448,-21.01347 -29.5704,-30.43903 l -128.7805,-128.78048 -35.1219,-35.12195 c -3.1329,-3.13288 -8.8788,-11.42049 -14.0488,-10.13151 m -213.0262,9.72527 c -14.8798,4.91356 -2.6412,20.04527 3.4652,26.16234 l 64.3903,64.39024 c 6.4121,6.4121 16.1608,20.90107 26.9046,16.69112 10.1771,-3.98751 9.2569,-24.92956 3.3611,-31.91063 -17.5797,-20.81795 -39.0919,-39.26517 -58.3633,-58.53659 -11.4439,-11.4439 -21.9992,-22.66185 -39.7579,-16.79648 m 283.2701,149.08916 v 22.2439 h -228.2927 -52.6829 l -17.5284,-1.87668 -1.2033,-20.36722 h 299.7073 m 43.3171,43.31707 v 21.07317 h -257.561 v -21.07317 h 257.561 m -359.4146,31.60976 30.439,31.60975 18.7317,16.39025 c 0,-10.92059 4.7426,-36.89912 -4.0027,-44.89405 -8.5494,-7.8158 -34.1474,-3.10595 -45.168,-3.10595 m 359.4146,10.53658 v 22.24391 h -195.5122 -45.6585 l -15.1868,-1.87669 -1.2035,-20.36722 z"
       id="path2926"
       inkscape:export-filename="..\..\hr\employees Penalties.svg"
       inkscape:export-xdpi="96"
       inkscape:export-ydpi="96" /></g></svg>
