<?xml version="1.0" encoding="UTF-8" standalone="no"?>
<!-- Created with Inkscape (http://www.inkscape.org/) -->

<svg
   version="1.1"
   id="svg2"
   width="501.08667"
   height="443.14447"
   viewBox="0 0 501.08667 443.14447"
   sodipodi:docname="safe.png"
   inkscape:export-filename="safe.svg"
   inkscape:export-xdpi="96"
   inkscape:export-ydpi="96"
   xml:space="preserve"
   xmlns:inkscape="http://www.inkscape.org/namespaces/inkscape"
   xmlns:sodipodi="http://sodipodi.sourceforge.net/DTD/sodipodi-0.dtd"
   xmlns="http://www.w3.org/2000/svg"
   xmlns:svg="http://www.w3.org/2000/svg"><defs
     id="defs6" /><sodipodi:namedview
     id="namedview4"
     pagecolor="#ffffff"
     bordercolor="#000000"
     borderopacity="0.25"
     inkscape:showpageshadow="2"
     inkscape:pageopacity="0.0"
     inkscape:pagecheckerboard="0"
     inkscape:deskcolor="#d1d1d1"
     showgrid="false" /><g
     inkscape:groupmode="layer"
     inkscape:label="Image"
     id="g8"
     transform="translate(-717.82922,1091.2)"><path
       style="fill:#030303;stroke:none"
       d="m 1125.8292,-1090.5047 c -45.011,8.1011 -30.999,90.0605 13,82.0705 29.027,-5.27 39.646,-51.602 21.331,-72.3614 -8.17,-9.26 -22.579,-11.8242 -34.331,-9.7091 m -128.99998,72.0685 c -14.566,3.518 -9.178,15.683 -15.407,24.428 -8.659,12.154 -24.452,22.257 -35.593,32.205 -4.971,4.438 -10.789,11.971 -17,14.485 -3.69,1.494 -8.118,-0.105 -12,0.739 -4.423,0.962 -7.648,4.786 -12,5.583 -10.247,1.877 -32.27,-4.465 -41.981,-8.236 -4.573,-1.776 -5.765,-6.355 -9.127,-9.523 -6.243,-5.883 -16.93,-7.172 -23.877,-1.795 -7.572,5.861 -4.353,14.022 -9.422,20.117 -11.2471,13.526 -30.6486,24.27 -44.593,35.039 -9.2712,7.16 -21.7568,0.959 -29.6065,10.469 -7.7962,9.445 -4.2836,26.6 8.6065,29.562 9.2566,2.127 18.8195,-1.563 22.517,-10.606 1.6793,-4.107 0.6896,-9.113 3.8009,-12.536 8.3865,-9.228 20.8186,-16.483 30.6821,-24.114 5.929,-4.588 12.151,-11.201 19,-14.311 4.02,-1.826 8.704,0.284 13,-0.507 5.102,-0.94 9.059,-5.399 14,-5.929 10.929,-1.172 31.668,4.574 41.945,8.541 3.988,1.54 4.911,5.597 7.587,8.552 5.66,6.248 15.061,7.767 22.467,3.862 11.662,-6.149 7.257,-19.381 16.003,-27.388 14.381,-13.167 30.123,-31.818 46.998,-41.531 7.81898,-4.501 16.22498,1.283 23.21098,-7.732 10.715,-13.83 -2.359,-33.443 -19.21098,-29.374 m 74.99998,179.467 v -80 c 0,-5.767 -1.062,-26.989 10.956,-20.099 5.873,3.367 5.044,10.332 5.044,16.099 v 44 185 h 39 v -95 c 0,-7.157 -3.581,-28.543 8,-28.543 11.581,0 8,21.386 8,28.543 v 95 h 37 v -185 -44 c 0,-5.339 -1.24,-12.672 4.109,-15.951 11.591,-7.105 11.891,12.978 11.891,18.951 v 80 c 8.313,-2.826 14.534,-11.561 16.471,-20 4.594,-20.022 0.529,-45.441 0.529,-66 0,-16.085 4.989,-41.652 -5.529,-54.985 -8.416,-10.668 -22.791,-14.386 -35.471,-17.012 -25.506,-5.283 -51.494,-5.283 -77,0 -12.861,2.664 -25.975,6.649 -34.787,16.998 -6.632,7.788 -6.213,17.377 -6.213,26.999 v 45 c 0,23.088 -7.046,57.524 18,70 m -91.99998,-109 v 184 h 42.99998 v -184 h -42.99998 m -118,184 v -128 h -30 c -3.122,0 -8.779,-1.046 -11.397,1.028 -4.545,3.6 -1.603,22.451 -1.603,27.972 v 72 c 0,5.846 -2.684,20.71 1.028,25.397 2.119,2.676 7.992,1.603 10.972,1.603 h 31 m 38,-98 v 98 h 43 v -98 h -43 m -161,43 v 55 h 43 v -55 h -43 m -21,71 v 22 h 326.99998 v -22 H 717.82922 m 477.99998,23 c 0,5.227 -1.409,12.833 0.603,17.715 3.11,7.547 11.255,11.276 5.147,20.246 -5.974,8.773 -17.067,13.181 -26.75,16.368 -24.832,8.174 -53.92,7.834 -79,1.031 -10.941,-2.969 -26.135,-8.525 -31.543,-19.36 -4.327,-8.669 4.351,-11.972 6.94,-19 1.805,-4.901 0.603,-11.827 0.603,-17 -17.689,5.637 -31.182,26.26 -21.865,44 5.427,10.333 15.659,16.435 25.865,21.218 34.36,16.106 83.892,15.394 118,-1.002 30.126,-14.482 35.872,-49.601 2,-64.216 z"
       id="path2938" /></g></svg>
