<?xml version="1.0" encoding="UTF-8" standalone="no"?>
<!-- Created with Inkscape (http://www.inkscape.org/) -->

<svg
   version="1.1"
   id="svg2"
   width="448"
   height="449.16147"
   viewBox="0 0 448 449.16147"
   sodipodi:docname="safe.png"
   inkscape:export-filename="safe.svg"
   inkscape:export-xdpi="96"
   inkscape:export-ydpi="96"
   xml:space="preserve"
   xmlns:inkscape="http://www.inkscape.org/namespaces/inkscape"
   xmlns:sodipodi="http://sodipodi.sourceforge.net/DTD/sodipodi-0.dtd"
   xmlns="http://www.w3.org/2000/svg"
   xmlns:svg="http://www.w3.org/2000/svg"><defs
     id="defs6" /><sodipodi:namedview
     id="namedview4"
     pagecolor="#ffffff"
     bordercolor="#000000"
     borderopacity="0.25"
     inkscape:showpageshadow="2"
     inkscape:pageopacity="0.0"
     inkscape:pagecheckerboard="0"
     inkscape:deskcolor="#d1d1d1"
     showgrid="false" /><g
     inkscape:groupmode="layer"
     inkscape:label="Image"
     id="g8"
     transform="translate(3782.9648,936.12616)"><path
       style="fill:#010101;stroke:none"
       d="m -3734.9648,-671.79297 c 20.114,0 45.505,4.164 65,-0.76 24.311,-6.14 50.807,-23.116 76,-23.239 22.332,-0.109 44.668,-10e-4 67,-10e-4 11.717,0 24.413,-1.371 36,0.439 23.687,3.7 44.913,17.121 68,22.952 12.107,3.058 27.527,0.609 40,0.609 v -192 -49 c 0,-5.6888 1.696,-14.8103 -2.009,-19.6057 -3.839,-4.9687 -12.509,-3.3943 -17.991,-3.3943 h -50 -205 -55 c -5.8496,0 -15.8962,-1.9048 -19.9907,3.3943 -3.7054,4.7954 -2.0093,13.917 -2.0093,19.6057 v 49 192 m 232,-240 v 16 h -112 v -16 h 112 m 96,40 v 16 h -304 v -16 h 304 m 0,32 v 16 h -304 v -16 h 304 m -136,32 v 16 h -168 v -16 h 168 m -72,48 v 16 h -96 v -16 h 96 m 208,0 v 16 h -96 v -16 h 96 m -240,32 v 16 h -40 v -16 h 40 m 208,0 v 16 h -40 v -16 h 40 m -344,72 v 88 h 79 c 1.45,-17.729 26.882,-44.724 46,-40.319 9.902,2.281 11.75,11.095 19.379,15.202 3.31,1.781 8.828,-0.076 12.621,0.798 11.254,2.592 18.504,12.265 20,23.319 13.032,1.764 22.236,10.968 24,24 16.14,2.184 17.579,12.746 25.513,24 3.919,5.558 9.691,10.204 14.487,15 4.942,4.942 13.087,15.21 20.721,8.486 4.287,-3.775 3.185,-9.469 0,-13.486 -7.736,-9.76 -17.927,-18.184 -26.721,-27 -5.638,-5.652 -9.493,-13.083 1,-17.079 4.448,-1.694 9.321,5.4 12,8.079 10.301,10.3 20.306,21.055 31,30.945 5.19,4.8 15.113,7.514 17.387,-1.95 1.512,-6.29 -4.476,-11.076 -8.387,-14.995 l -32,-32 c -4.008,-4.008 -14.532,-10.799 -9.793,-16.999 8.261,-10.81 15.062,0.268 21.793,6.999 14.285,14.285 29.61,35.876 47,46.141 6.127,3.617 14.457,-0.544 13.562,-8.141 -0.68,-5.768 -6.745,-10.183 -10.562,-14 l -13,-13 -20,-20 -29,-29 h -1 c -11.757,9.542 -24.707,25.219 -40,28.482 -21.782,4.648 -41.865,-18.651 -34.451,-39.482 3.622,-10.177 12.491,-16.278 20.451,-22.92 12.794,-10.674 25.252,-22.679 39,-32.08 l -27,-1 -29,0.518 -70,22.964 -38,0.518 h -76 m 256,21 h 1 c 18.137,25.731 44.586,17.768 67,5 l 9,13 c -14.431,7.187 -24.971,15.649 -42,16 7.564,10.738 18.718,19.718 28,29 3.755,3.755 7.884,9.51 13,11.397 9.259,3.413 29.333,1.853 38,-2.531 7.134,-3.609 13.22,-9.841 21,-12.077 16.656,-4.787 39.674,-0.789 57,-0.789 v -80 c -28.367,0 -61.109,4.564 -89,-0.465 -30.738,-5.541 -61.773,-33.095 -94,-20.082 -9.985,4.032 -17.836,11.339 -26,18.133 l -33,27.494 c -5.997,5.008 -12.122,10.272 -10.667,18.92 1.521,9.036 11.216,14.289 19.667,10.772 13.206,-5.497 32.064,-22.698 41,-33.772 m -138,42.613 c -7.09,1.674 -19.686,14.617 -22.092,21.387 -2.264,6.369 3.441,12.958 10.092,11.387 7.09,-1.674 19.686,-14.617 22.092,-21.387 2.264,-6.369 -3.441,-12.958 -10.092,-11.387 m 32,16 c -8.745,2.065 -25.885,20.39 -29.678,28.387 -3.075,6.483 2.457,14.093 9.678,12.387 8.745,-2.065 25.885,-20.39 29.678,-28.387 3.075,-6.483 -2.457,-14.093 -9.678,-12.387 m 194,32.387 c 1.727,13.663 -2.362,27.091 -17,31.776 -4.429,1.418 -10.828,-0.7 -14.621,1.341 -6.023,3.243 -8.283,10.918 -15.379,13.928 -8.79,3.728 -17.032,-1.825 -21,8.955 h 91 c 7.617,0 25.787,3.34 30.991,-3.394 3.705,-4.796 2.009,-13.917 2.009,-19.606 v -49 c -10.336,0.249 -16.896,8.7 -26,12.535 -9.722,4.096 -19.69,3.465 -30,3.465 m -170,-8.387 c -8.745,2.065 -25.885,20.39 -29.678,28.387 -3.075,6.483 2.457,14.093 9.678,12.387 8.745,-2.065 25.885,-20.39 29.678,-28.387 3.075,-6.483 -2.457,-14.093 -9.678,-12.387 m -126,0.387 v 43 c 0,5.255 -1.4236,13.163 2.0093,17.606 5.0247,6.503 21.6757,3.394 28.9907,3.394 h 85 c -3.883,-10.549 -11.328,-5.35 -20,-8.559 -9.758,-3.612 -15.646,-12.437 -17,-22.441 -13.032,-1.764 -22.236,-10.968 -24,-24 l -20,-8.686 -35,-0.314 m 150,23.613 c -7.09,1.674 -19.686,14.617 -22.092,21.387 -2.264,6.369 3.441,12.958 10.092,11.387 7.09,-1.674 19.686,-14.617 22.092,-21.387 2.264,-6.369 -3.441,-12.958 -10.092,-11.387 m 20.981,25.733 c -8.639,2.239 -14.029,18.176 -0.986,15.041 7.509,-1.804 8.758,-17.056 0.986,-15.041 z"
       id="path2928" /></g></svg>
