<?xml version="1.0" encoding="UTF-8" standalone="no"?>
<!-- Created with Inkscape (http://www.inkscape.org/) -->

<svg
   version="1.1"
   id="svg2"
   width="477.80267"
   height="429.5979"
   viewBox="0 0 477.80267 429.5979"
   sodipodi:docname="safe.png"
   inkscape:export-filename="safe.svg"
   inkscape:export-xdpi="96"
   inkscape:export-ydpi="96"
   xml:space="preserve"
   xmlns:inkscape="http://www.inkscape.org/namespaces/inkscape"
   xmlns:sodipodi="http://sodipodi.sourceforge.net/DTD/sodipodi-0.dtd"
   xmlns="http://www.w3.org/2000/svg"
   xmlns:svg="http://www.w3.org/2000/svg"><defs
     id="defs6" /><sodipodi:namedview
     id="namedview4"
     pagecolor="#ffffff"
     bordercolor="#000000"
     borderopacity="0.25"
     inkscape:showpageshadow="2"
     inkscape:pageopacity="0.0"
     inkscape:pagecheckerboard="0"
     inkscape:deskcolor="#d1d1d1"
     showgrid="false" /><g
     inkscape:groupmode="layer"
     inkscape:label="Image"
     id="g8"
     transform="translate(120.15914,1123.7035)"><path
       style="fill:#020202;stroke:none"
       d="m 221.6321,-1122.9839 c -12.93,2.9682 -20.973,15.6475 -33,20.3519 -15.568,6.0893 -35.295,-2.1188 -47.671,12.1589 -9.678,11.1654 -6.53,27.9259 -14.437,39.9599 -8.32,12.661 -24.401,18.942 -27.424,35 -2.994,15.902 10.687,27.553 14.003,42 3.364,14.659 -6.185,30.822 0.907,45 7.337,14.668 24.718,14.7 36.622,23.557 11.756,8.748 15.284,25.688 28,33.08 17.329,10.073 32.753,-4.99 50,-4.507 14.476,0.405 26.998,10.606 42,7.351 17.287,-3.75 20.965,-23.938 33.004,-34.268 10.468,-8.982 26.592,-9.313 35.656,-20.228 12.363,-14.887 0.674,-32.375 3.808,-48.985 3.031,-16.068 18.707,-28.425 13.488,-46 -4.484,-15.101 -21.108,-20.616 -27.96,-34 -6.916,-13.5086 -3.871,-31.3289 -17,-41.4676 -12.396,-9.5725 -29.225,-3.2476 -42.996,-8.3433 -16.745,-6.1966 -26.774,-25.3028 -47,-20.6598 m 5,41.7955 c 56.27,-4.1751 97.07,55.0682 84.105,106.6752 -9.383,37.351 -42.643,61.405 -80.105,63.91 -56.325,3.767 -99.433,-55.239 -84.572,-107.91 10.625,-37.657 42.652,-59.8615 80.572,-62.6752 m -8,21.1142 c -9.197,1.436 -18.148,4.616 -26,9.651 -57.907,37.138 -20.946,128.927 46,118.471 8.915,-1.392 17.426,-4.509 25,-9.426 56.822,-36.891 22.299,-129.2069 -45,-118.696 m 18,102.561 c -0.56,6.168 -5.711,14.097 -12.775,9.138 -2.965,-2.081 -3.163,-5.971 -5.735,-8.323 -6.946,-6.353 -21.504,-10.941 -18.052,-23.8 4.496,-16.752 18.228,5.651 23.563,7.332 4.858,1.531 14.826,0.86 16.247,-5.389 2.091,-9.189 -18.892,-10.47 -24.248,-12.835 -12.172,-5.372 -18.385,-20.234 -11.005,-32.123 3.289,-5.3 8.161,-7.276 12.777,-10.965 4.376,-3.497 4.632,-11.804 12.223,-10.358 5.582,1.064 5.255,6.326 8.568,9.625 2.022,2.013 5.115,2.854 7.433,4.498 6.134,4.352 16.298,19.873 3,22.722 -7.763,1.664 -10.844,-9.575 -17.996,-11.124 -4.327,-0.937 -12.116,1.083 -12.248,6.614 -0.158,6.593 9.645,7.772 14.248,8.872 8.475,2.025 16.918,5.129 21.467,13.117 8.06,14.155 -1.743,31.388 -17.467,32.999 m -233,-9.561 c -9.564,1.505 -18.961,5.236 -27,10.565 -59.2367,39.266 -24.8569,137.862 47,127.568 10.579,-1.516 20.992,-4.783 30,-10.673 62.006,-40.548 22.265,-138.835 -50,-127.46 m 133,72.561 c -7.604,18.289 -16.8,35.912 -24.861,54 -1.552,3.482 -9.433,14.72 -6.326,18.307 2.012,2.322 7.676,0.358 10.187,-0.06 9.246,-1.54 19.061,-2.42 28,-5.247 l 14.201,25 6.77,7.793 8.248,-12.793 19.781,-44 c -13.455,-1.709 -24.702,-6.241 -33.535,-17 -7.425,-9.043 -11.091,-21.219 -22.465,-26 m 182,0 c -10.34,6.589 -14.296,18.065 -22.184,26.999 -8.903,10.081 -19.787,14.346 -32.816,16.001 5.493,19.069 16.989,40.849 27,58 9.547,-4.696 17.856,-24.383 22,-34 8.863,2.803 18.816,3.714 28,5.247 2.631,0.439 8.118,2.353 10.292,0.06 3.029,-3.196 -4.492,-14.96 -6.073,-18.307 -7.954,-16.84 -14.346,-39.671 -26.219,-54 m -311,76.424 c -47.286,6.209 -90.7731,27.186 -113.7415,71.576 -5.6176,10.857 -10.254,22.057 -13.0232,34 -1.2339,5.322 -2.3332,11.635 2.8735,15.258 4.967,3.456 14.1294,1.742 19.8912,1.742 h 47 130 c 19.681,0 42.661,3.314 61.999,-0.228 9.093,-1.666 8.344,-10.859 6.626,-17.772 -4.018,-16.172 -11.033,-32.441 -20.78,-46 -26.109,-36.32 -74.563,-64.652 -120.845,-58.576 z"
       id="path2936" /></g></svg>
