<?xml version="1.0" encoding="UTF-8" standalone="no"?>
<!-- Created with Inkscape (http://www.inkscape.org/) -->

<svg
   version="1.1"
   id="svg2"
   width="406.18744"
   height="482.02173"
   viewBox="0 0 406.18744 482.02173"
   sodipodi:docname="safe.png"
   inkscape:export-filename="safe.svg"
   inkscape:export-xdpi="96"
   inkscape:export-ydpi="96"
   xml:space="preserve"
   xmlns:inkscape="http://www.inkscape.org/namespaces/inkscape"
   xmlns:sodipodi="http://sodipodi.sourceforge.net/DTD/sodipodi-0.dtd"
   xmlns="http://www.w3.org/2000/svg"
   xmlns:svg="http://www.w3.org/2000/svg"><defs
     id="defs6" /><sodipodi:namedview
     id="namedview4"
     pagecolor="#ffffff"
     bordercolor="#000000"
     borderopacity="0.25"
     inkscape:showpageshadow="2"
     inkscape:pageopacity="0.0"
     inkscape:pagecheckerboard="0"
     inkscape:deskcolor="#d1d1d1"
     showgrid="false" /><g
     inkscape:groupmode="layer"
     inkscape:label="Image"
     id="g8"
     transform="translate(-231.75165,1051.3641)"><path
       style="fill:#020202;stroke:none"
       d="m 419.98459,-604.6531 c 3.054,-38.376 36.532,-83.206 74,-94 -4.141,-5.626 -10.134,-9.665 -14.7,-15 -9.953,-11.628 -16.652,-26.72 -18.13,-42 -4.373,-45.184 33.097,-89.447 79.83,-87.957 21.21,0.677 35.461,10.867 53,20.957 v -120 c 0,-26.6737 1.98,-52.153 -14.428,-75 -13.747,-19.142 -35.274,-30.6041 -58.572,-32.8302 -19.648,-1.8774 -40.258,-0.1698 -60,-0.1698 h -119 c -34.466,0 -66.099,-0.1277 -90.8156,28 -22.9721,26.1424 -19.1844,61.773 -19.1844,94 v 205 c 0,36.018 -2.472,72.511 27,98.826 22.807,20.365 50.307,20.174 79,20.174 h 82 m -93,-366.6713 c 22.923,-4.0284 49.705,-0.3287 73,-0.3287 32.2,0 67.076,-3.8424 99,0.1852 15.057,1.8995 20.61,21.7398 6.996,29.9568 -10.306,6.22 -33.146,1.858 -44.996,1.858 h -98 c -11.53,0 -30.384,3.602 -40.985,-1.09 -14.976,-6.627 -9.79,-27.9849 4.985,-30.5813 m 1,84.9723 c 24.281,-3.588 51.441,-0.301 76,-0.301 30.768,0 63.429,-3.16 94,0.174 15.031,1.639 22.587,21.849 7.96,30.268 -11.527,6.635 -33.008,2.558 -45.96,2.558 h -94 c -12.798,0 -31.013,3.285 -42.999,-1.613 -16.227,-6.633 -11,-28.722 4.999,-31.086 m 202,68.138 c -35.645,5.611 -55.372,46.618 -39.627,78.561 11.066,22.448 35.438,33.477 59.627,29.704 53.986,-8.422 60.046,-86.701 10,-105.638 -9.188,-3.477 -20.309,-4.152 -30,-2.627 m -202,16.862 c 16.977,-2.509 35.835,-0.301 53,-0.301 9.107,0 20.208,-1.697 29,0.943 15.448,4.638 15.331,26.28 0,30.883 -17.596,5.283 -41.674,1.174 -60,1.174 -8.58,0 -18.83,1.473 -26.999,-1.664 -16.485,-6.328 -10.775,-28.704 4.999,-31.035 m 210,117.163 c -40.576,3.551 -75.493,24.766 -89.946,64.536 -4.301,11.833 -11.379,36.986 1.12,45.867 10.719,7.616 34.153,3.133 46.826,3.133 h 84 c 14.024,0 29.088,1.57 43,-0.185 25.052,-3.161 12.572,-42.662 5.742,-56.815 -15.982,-33.117 -52.412,-59.891 -90.742,-56.536 z"
       id="path3847" /></g></svg>
