<?xml version="1.0" encoding="UTF-8" standalone="no"?>
<!-- Created with Inkscape (http://www.inkscape.org/) -->

<svg
   version="1.1"
   id="svg2"
   width="478.8811"
   height="480.12708"
   viewBox="0 0 478.8811 480.12708"
   sodipodi:docname="safe.png"
   inkscape:export-filename="safe.svg"
   inkscape:export-xdpi="96"
   inkscape:export-ydpi="96"
   xml:space="preserve"
   xmlns:inkscape="http://www.inkscape.org/namespaces/inkscape"
   xmlns:sodipodi="http://sodipodi.sourceforge.net/DTD/sodipodi-0.dtd"
   xmlns="http://www.w3.org/2000/svg"
   xmlns:svg="http://www.w3.org/2000/svg"><defs
     id="defs6" /><sodipodi:namedview
     id="namedview4"
     pagecolor="#ffffff"
     bordercolor="#000000"
     borderopacity="0.25"
     inkscape:showpageshadow="2"
     inkscape:pageopacity="0.0"
     inkscape:pagecheckerboard="0"
     inkscape:deskcolor="#d1d1d1"
     showgrid="false" /><g
     inkscape:groupmode="layer"
     inkscape:label="Image"
     id="g8"
     transform="translate(-1006.0032,1050.9099)"><path
       style="fill:#030303;stroke:none"
       d="m 1120.6377,-1050.2287 c -23.838,3.1391 -45.2998,10.0791 -65,24.321 -12.0351,8.7005 -21.872,19.9077 -29.9969,32.2546 -7.907,12.0158 -13.7772,25.9221 -16.7925,40 -18.17324,84.849 53.3357,163.358 139.7894,151.711 17.596,-2.37 35.2,-8.928 50,-18.715 70.727,-46.769 76.106,-152.498 8,-204.4929 -12.191,-9.3075 -26.293,-16.2383 -41,-20.5023 -14.164,-4.1066 -30.28,-6.5148 -45,-4.5764 m 6,18.8611 c 58.695,-6.9029 109.971,49.9582 109.971,105.7145 0,52.036 -40.711,99.522 -92.971,104.831 -32.182,3.27 -64.7235,-6.633 -87.9606,-29.87 -40.5925,-40.593 -40.8856,-110.915 0.9753,-150.8715 19.9214,-19.0153 43.3143,-26.6674 69.9853,-29.804 m -9,15.1428 c -12.747,1.8261 -24.991,6.3295 -36,13.0354 -9.5784,5.8345 -17.5844,13.6651 -24.3457,22.5363 -48.5136,63.653 7.7928,156.825 86.3457,145.572 12.747,-1.826 24.991,-6.33 36,-13.036 9.578,-5.834 17.584,-13.665 24.346,-22.536 48.513,-63.653 -7.793,-156.825 -86.346,-145.5717 m 12.005,8.1141 c 9.802,-1.6195 11.278,17.0303 1.98,18.1852 -10.122,1.2573 -11.045,-16.6875 -1.98,-18.1852 m -52.9896,22.0764 c 9.4833,-0.5809 15.6536,16.4124 3.9807,17.0193 -9.1311,0.4748 -15.3287,-16.3241 -3.9807,-17.0193 m 106.9806,0.0139 c 11.509,-1.067 7.288,16.0875 -1.996,16.98 -11.79,1.1335 -7.685,-16.0824 1.996,-16.98 m -53.991,10.9097 c 4.674,-0.7722 7.575,3.3293 7.936,7.4584 1.217,13.9012 -3.451,29.0102 6.618,40.6202 4.879,5.625 14.076,6.524 18.428,12.708 2.563,3.642 1.213,8.457 -3.031,10.064 -7.797,2.952 -15.842,-6.808 -22.671,-9.033 -4.003,-1.304 -8.349,0.485 -12.27,-1.539 -2.703,-1.395 -4.776,-3.888 -5.581,-6.822 -2.304,-8.389 4.562,-15.514 4.566,-23.999 0,-7.007 -3.695,-27.8549 6.005,-29.4576 m 260.995,100.4576 c -5.01,-3.832 -8.586,-9.179 -12.615,-13.996 -3.853,-4.607 -17.901,-11.289 -15.907,0.996 1.747,10.768 18.161,24.822 25.112,32.999 2.681,3.154 5.8,7.11 10.41,6.794 4.545,-0.312 7.42,-4.613 10.08,-7.793 6.658,-7.959 22.806,-21.545 24.381,-31.999 0.69,-4.578 -3.99,-8.731 -8.46,-7.354 -4.571,1.409 -7.85,6.868 -10.754,10.353 -3.067,3.68 -6.097,7.392 -9.247,11 0,-30.572 8.644,-75.471 -26,-90.96 -20.726,-9.2662 -50.657,-4.04 -73,-4.04 -6.087,0 -22.493,-2.9543 -21.793,6.996 0.613,8.723 14.922,6.004 20.793,6.004 20.093,0 47.114,-4.666 66,3.094 28.894,11.872 21,53.19 21,77.906 m -337.956,-57.397 c 8.9103,-3.504 20.5903,8.034 9.8472,12.655 -9.3208,4.008 -21.3881,-8.116 -9.8472,-12.655 m 147,-0.169 c 8.912,-2.6 20.341,8.468 8.912,12.963 -10.092,3.969 -20.259,-9.653 -8.912,-12.963 m -121.0401,50.124 c 11.6171,-2.8 9.6991,14.298 0,16.634 -11.38,2.74 -9.3114,-14.389 0,-16.634 m 101.0111,-0.07 c 8.88,-1.819 16.792,14.372 5.942,16.751 -9.121,2 -17.178,-14.449 -5.942,-16.751 m -50.971,20.961 c 10.302,-2.666 12.417,14.932 3.937,17.765 -9.887,3.302 -12.71,-15.495 -3.937,-17.765 m 221.956,40.975 c -23.732,3.126 -45.47,9.968 -65,24.332 -12.278,9.031 -22.388,20.511 -30.655,33.244 -32.526,50.099 -22.543,120.051 21.655,159.829 27.646,24.882 65.347,35.82 102,30.882 17.596,-2.37 35.2,-8.928 50,-18.715 69.77,-46.136 76.757,-151.935 9,-203.76 -12.542,-9.592 -26.844,-16.841 -42,-21.235 -14.164,-4.107 -30.28,-6.515 -45,-4.577 m -263,72.576 c 0,30.932 -8.5588,73.938 25,90.73 20.968,10.492 51.154,5.27 74,5.27 6.175,0 22.312,2.801 22.312,-7 0,-9.406 -14.338,-7 -20.312,-7 -19.773,0 -48.628,5.279 -67,-2.683 -28.867,-12.51 -21,-53.011 -21,-78.317 5.01,3.832 8.586,9.179 12.615,13.996 3.907,4.671 17.546,11.279 15.857,-0.996 -1.457,-10.594 -18.256,-24.992 -25.062,-32.999 -2.681,-3.154 -5.8,-7.11 -10.41,-6.794 -4.5447,0.312 -7.4199,4.613 -10.0802,7.793 -6.6578,7.959 -22.806,21.545 -24.3812,31.999 -0.7012,4.654 3.984,8.654 8.4606,7.215 4.6013,-1.48 7.814,-6.687 10.7539,-10.214 3.067,-3.68 6.097,-7.392 9.2469,-11 m 267,-20.674 c 38.443,-6.422 49.343,51.299 11,58.209 -36.906,6.652 -48.335,-51.972 -11,-58.209 m -3,65.963 c 29.23,-3.798 57.454,12.245 68.547,39.711 3.764,9.32 7.735,24.194 1.034,32.996 -7.961,10.458 -24.242,13.969 -36.581,15.719 -23.832,3.378 -66.192,5.4 -83.775,-14.755 -6.584,-7.547 -4.283,-19.152 -1.797,-27.96 6.755,-23.934 27.852,-42.498 52.572,-45.711 z"
       id="path3849" /></g></svg>
