<?xml version="1.0" encoding="UTF-8" standalone="no"?>
<!-- Created with Inkscape (http://www.inkscape.org/) -->

<svg
   version="1.1"
   id="svg2"
   width="512.94458"
   height="476.22644"
   viewBox="0 0 512.94458 476.22644"
   sodipodi:docname="safe.png"
   inkscape:export-filename="safe.svg"
   inkscape:export-xdpi="96"
   inkscape:export-ydpi="96"
   xml:space="preserve"
   xmlns:inkscape="http://www.inkscape.org/namespaces/inkscape"
   xmlns:sodipodi="http://sodipodi.sourceforge.net/DTD/sodipodi-0.dtd"
   xmlns="http://www.w3.org/2000/svg"
   xmlns:svg="http://www.w3.org/2000/svg"><defs
     id="defs6" /><sodipodi:namedview
     id="namedview4"
     pagecolor="#ffffff"
     bordercolor="#000000"
     borderopacity="0.25"
     inkscape:showpageshadow="2"
     inkscape:pageopacity="0.0"
     inkscape:pagecheckerboard="0"
     inkscape:deskcolor="#d1d1d1"
     showgrid="false" /><g
     inkscape:groupmode="layer"
     inkscape:label="Image"
     id="g8"
     transform="translate(-2550.1877,1029.2333)"><path
       style="fill:#020202;stroke:none"
       d="m 2695.6277,-967.8811 h 13 v -30 c 0,-4.5323 -0.663,-10.059 2.514,-13.7716 4.788,-5.595 16.886,-3.2284 23.486,-3.2284 h 59 c 6.347,0 16.87,-2.0583 21.566,3.2284 3.259,3.6684 2.434,9.2409 2.434,13.7716 v 30 h 14 c 0,-14.7047 5.619,-44.4065 -5.214,-55.892 -6.88,-7.2951 -18.718,-5.108 -27.786,-5.108 h -70 c -9.275,0 -21.749,-2.3538 -28.786,5.108 -5.024,5.3265 -4.214,12.1249 -4.214,18.892 v 37 m 32,148 c 0,-10.889 -3.586,-29.623 2.703,-38.996 8.769,-13.07 41.624,-11.935 55.297,-7.83 4.31,1.294 7.796,4.134 10.347,7.827 6.201,8.974 2.653,27.456 2.653,37.999 43.218,0 86.386,-5.637 129,-12.753 10.736,-1.793 21.365,-4.161 32,-6.457 3.759,-0.811 10.462,-1.078 13.397,-3.728 4.28,-3.865 1.603,-19.606 1.603,-25.062 v -62 c 0,-8.354 0.382,-18.526 -10,-20.6559 -8.437,-1.7308 -18.401,-0.3441 -27,-0.3441 h -55 -171 -102 c -14.9514,0 -33.4361,-2.9572 -48,0.3943 -10.208,2.3491 -10,12.2287 -10,20.6057 v 62 c 0,5.348 -2.7569,22.264 2.3179,25.348 11.2842,6.857 31.7517,7.74 44.6821,9.899 27.1371,4.531 54.551,8.782 82,10.663 15.066,1.033 32.366,-0.394 47,3.09 m 16,-31 v 44 c 0,7.364 -1.225,16.031 1.613,23 5.366,13.171 23.965,15.932 32.993,4.957 5.391,-6.554 4.394,-15.043 4.394,-22.957 v -49 h -39 m -192,24 v 129 c 0,11.522 -4.8605,37.949 3.2786,46.867 8.3834,9.185 36.1169,4.133 47.7214,4.133 h 137 c -4.736,-11.389 -6,-20.687 -6,-33 0,-16.15 -2.227,-33.5 8.518,-46.996 13.085,-16.437 33.778,-14.004 52.482,-14.004 35.318,0 70.242,2.61 104,-9.695 18.279,-6.663 35.98,-17.932 49.985,-31.395 9.206,-8.849 10.723,-21.55 26.015,-21.91 v -23 l -60,11.728 -116,11.272 c 0,10.029 0.707,19.907 -4.349,29 -12.099,21.763 -42.045,25.357 -58.183,5.985 -8.72,-10.467 -8.468,-22.135 -8.468,-34.985 l -88,-7.285 -88,-15.715 m 209.043,27.519 c 10.349,-3.111 15.26,13.004 4.917,15.952 -10.236,2.917 -15.033,-12.912 -4.917,-15.952 m 211.27,12.567 c -3.112,1.759 -2.312,6.961 -2.313,9.914 v 29 123 c 0,10.996 -0.15,22.005 0,33 0.039,2.801 0.744,10.412 5.578,7.712 3.297,-1.841 2.417,-7.608 2.418,-10.712 v -29 -123 c 0,-10.994 0.202,-22.009 -0.01,-33 -0.054,-2.908 -1.067,-9.522 -5.682,-6.914 m -19.313,21.914 c -33.774,29.226 -74.303,40 -118,40 v 78 c 29.602,0 58.361,4.602 85,18.259 11.891,6.096 22.012,16.399 34,21.741 v -111 c 0,-13.253 4.107,-34.83 -1,-47 m 78,14.667 c -6.595,1.318 -16.965,12.465 -19.817,18.333 -2.68,5.514 1.789,11.45 7.817,10.728 6.741,-0.808 17.988,-12.571 20.254,-18.728 2.015,-5.474 -2.221,-11.539 -8.254,-10.333 m -212,103.333 v -56 c 0,-4.897 2.124,-16.418 -1.028,-20.397 -3.447,-4.352 -20.733,-1.603 -25.972,-1.603 -11.297,0 -27.015,-2.609 -35.812,6.188 -10.509,10.509 -8.912,45.455 -4.554,58.812 1.668,5.113 5.438,9.32 10.367,11.467 5.765,2.51 12.861,1.533 18.999,1.533 h 38 m 175,-63 v 49 c 18.009,-9.368 19.113,-40.081 0,-49 m 41.015,16.533 c -6.629,1.655 -9.775,10.422 -2.906,14.288 5.247,2.954 20.143,2.364 25.876,0.745 7.165,-2.023 7.234,-10.997 0.971,-14.248 -5.561,-2.887 -17.963,-2.278 -23.941,-0.785 m -19,43.252 c -15.954,5.342 8.578,32.459 18.966,28.608 14.829,-5.499 -9.305,-31.841 -18.966,-28.608 m -229.015,19.215 c 2.571,20.343 5.3,40.689 8.13,61 1.101,7.897 2.655,17.358 12.87,16.855 10.011,-0.493 10.997,-9.963 11,-17.855 v -60 z"
       id="path3853" /></g></svg>
