<?xml version="1.0" encoding="UTF-8" standalone="no"?>
<!-- Created with Inkscape (http://www.inkscape.org/) -->

<svg
   version="1.1"
   id="svg2"
   width="513.00562"
   height="512.35986"
   viewBox="0 0 513.00562 512.35986"
   sodipodi:docname="safe.png"
   inkscape:export-filename="safe.svg"
   inkscape:export-xdpi="96"
   inkscape:export-ydpi="96"
   xml:space="preserve"
   xmlns:inkscape="http://www.inkscape.org/namespaces/inkscape"
   xmlns:sodipodi="http://sodipodi.sourceforge.net/DTD/sodipodi-0.dtd"
   xmlns="http://www.w3.org/2000/svg"
   xmlns:svg="http://www.w3.org/2000/svg"><defs
     id="defs6" /><sodipodi:namedview
     id="namedview4"
     pagecolor="#ffffff"
     bordercolor="#000000"
     borderopacity="0.25"
     inkscape:showpageshadow="2"
     inkscape:pageopacity="0.0"
     inkscape:pagecheckerboard="0"
     inkscape:deskcolor="#d1d1d1"
     showgrid="false" /><g
     inkscape:groupmode="layer"
     inkscape:label="Image"
     id="g8"
     transform="translate(632.62341,1106.3401)"><path
       style="fill:#020202;stroke:none"
       d="m -448.66852,-1105.7727 c -21.242,2.8232 -41.141,9.2372 -58,23.0401 -66.2693,54.2566 -43.6521,161.5855 38,185.8145 12.559,3.727 26.971,4.994 40,3.436 17.527,-2.097 34.349,-7.749 49,-17.744 73.751,-50.31 54.538,-172.2555 -35,-191.9571 -10.997,-2.4198 -22.756,-4.0839 -34,-2.5895 m 30,447.5756 c 0,-45.528 -8.621,-96.248 29,-129.826 7.214,-6.439 15.929,-11.442 25,-14.738 4.184,-1.52 10.826,-1.618 14.301,-4.424 3.874,-3.129 5.605,-10.742 8.152,-15.012 5.407,-9.065 12.848,-17.052 21.547,-23 -5.09,-3.627 -11.983,-3.546 -18,-4.285 -17.666,-2.169 -36.201,-0.715 -54,-0.715 h -104 c -38.1285,0 -74.4912,-0.302 -103.9992,28.039 -33.53017,32.205 -31.0008,74.281 -31.0008,116.961 0,11.852 -4.51914,35.112 6.10494,43.351 5.44886,4.226 12.42126,3.649 18.89506,3.649 h 38 150 m 107,-107 c -17.069,0 -41.144,-3.352 -53,12 27.139,15.84 55.984,29.514 84,43.756 8.838,4.493 23.037,16.173 33,16.435 9.552,0.252 25.594,-12.336 34,-16.882 27.405,-14.822 56.092,-27.603 83,-43.309 -11.869,-15.379 -35.885,-12 -53,-12 0,-13.573 1.212,-27.897 -8.213,-39 -17.103,-20.148 -48.16,-14 -71.787,-14 -12.661,0 -25.012,0.051 -34.999,9.105 -13.435,12.179 -13.001,27.156 -13.001,43.895 m 96,0 h -64 c 0,-5.118 -2.027,-15.736 2.318,-19.397 3.122,-2.63 8.902,-1.603 12.682,-1.603 h 33 c 3.993,0 10.39,-1.171 13.682,1.603 4.345,3.661 2.318,14.279 2.318,19.397 m -160,43 v 75 c 0,13.573 -1.212,27.897 8.213,39 14.118,16.631 34.115,14 53.787,14 h 130 c 20.161,0 41.285,3.083 55.787,-14 9.425,-11.103 8.213,-25.427 8.213,-39 v -75 c -9.916,2.857 -18.821,9.161 -28,13.753 -19.745,9.879 -39.768,19.831 -59,30.671 -10.803,6.09 -28.379,19.389 -41,19.389 -12.323,0 -29.389,-13.07 -40,-18.952 -19.653,-10.894 -39.929,-21.002 -60,-31.109 -9.172,-4.618 -18.071,-10.891 -28,-13.752 z"
       id="path3845" /></g></svg>
