<?xml version="1.0" encoding="UTF-8" standalone="no"?>
<!-- Created with Inkscape (http://www.inkscape.org/) -->

<svg
   version="1.1"
   id="svg2"
   width="511.79272"
   height="511.49719"
   viewBox="0 0 511.79272 511.49719"
   sodipodi:docname="safe.png"
   inkscape:export-filename="safe.svg"
   inkscape:export-xdpi="96"
   inkscape:export-ydpi="96"
   xml:space="preserve"
   xmlns:inkscape="http://www.inkscape.org/namespaces/inkscape"
   xmlns:sodipodi="http://sodipodi.sourceforge.net/DTD/sodipodi-0.dtd"
   xmlns="http://www.w3.org/2000/svg"
   xmlns:svg="http://www.w3.org/2000/svg"><defs
     id="defs6" /><sodipodi:namedview
     id="namedview4"
     pagecolor="#ffffff"
     bordercolor="#000000"
     borderopacity="0.25"
     inkscape:showpageshadow="2"
     inkscape:pageopacity="0.0"
     inkscape:pagecheckerboard="0"
     inkscape:deskcolor="#d1d1d1"
     showgrid="false" /><g
     inkscape:groupmode="layer"
     inkscape:label="Image"
     id="g8"
     transform="translate(-1780.6978,1066.527)"><path
       style="fill:#030303;stroke:none"
       d="m 1958.5188,-1066.2287 c -13.037,1.7318 -26.263,3.8363 -35.957,13.6157 -14.456,14.584 -12.107,43.8964 3.961,56.4306 11.673,9.1061 29.617,11.5141 43.996,9.3163 11.651,-1.7807 18.955,-13.3025 21.842,-23.787 6.378,-23.1639 -4.035,-59.5352 -33.842,-55.5756 m -130,16.5756 c 22.9122,20.5822 32.233,43.8256 24,74 48.952,-14.4048 23.833,-88.1386 -24,-74 m -26,30 c 6.4782,-1.9056 12.1298,-7.425 19,-8.0147 13.397,-1.1499 22.7242,21.3785 18.7361,32.0101 -3.4463,9.1872 -31.8259,14.6228 -11.7361,24.1798 1.9133,0.9102 3.8749,1.5589 6,1.7044 12.4266,0.851 16.8756,-12.7987 16.9961,-22.8796 0.2181,-18.2294 -6.1173,-43.0606 -23.9961,-52 -18.0956,-9.0478 -24.3992,11.006 -25,25 m 196,-16 -3,30 c 14.413,6.2998 25.902,21.8483 32,36 8.712,-3.8531 14.141,-6.9989 24,-7 -4.023,-26.8381 -28.152,-50.9012 -53,-59 m -210,114 c 7.5416,-5.152 13.5305,-10.226 23,-11 -1.21,-14.814 -6.5275,-28.783 1.1242,-43 7.14,-13.2666 28.9777,-16.1387 23.0224,-34 -8.9878,-26.9566 -36.9517,-3.3341 -45.6829,11 -14.5222,23.8413 -9.6213,51.921 -1.4637,77 m 251,-49.3511 c -25.621,7.7401 -6.571,39.2991 -1.344,54.3511 13.371,38.509 40.793,102.267 -6.656,128.1 -13.167,7.168 -28.516,10.273 -43,13.55 -12.599,2.851 -25.98,7.271 -39,7.271 -24.208,0 -47.031,-13.368 -62.829,-30.921 -15.4584,-17.175 -22.4921,-39.159 -31.4519,-60 -5.6587,-13.163 -10.7654,-26.578 -15.7693,-40 -2.3064,-6.186 -4.0279,-14.748 -8.3688,-19.816 -8.7535,-10.219 -25.6095,-12.483 -35.5409,-3.079 -3.9953,3.783 -9.8303,10.965 -9.2176,16.895 0.9704,9.391 7.6751,20.243 11.1775,29 l 24.8002,62 c 8.8377,22.094 17.2359,43.638 34.2392,60.985 26.8896,27.435 69.1996,39.366 106.9606,34.729 17.836,-2.191 35.88,-9.369 53,-14.689 14.715,-4.572 30.143,-7.698 44,-14.627 7.611,-3.805 14.815,-8.603 20.985,-14.488 42.04,-40.09 20.517,-103.45 5.015,-149.91 -7.27,-21.788 -14.558,-69.1522 -47,-59.3511 m 171,28.7791 c -29.007,4.145 -45.779,28.73 -48.95,56.572 -5.207,45.727 25.332,119.068 81.95,111.711 26.833,-3.487 42.892,-26.51 47.385,-51.711 6.212,-34.84 -6.14,-72.359 -31.385,-96.985 -12.433,-12.128 -31.039,-22.153 -49,-19.587 m 26,151.572 c -11.623,-3.855 -21.292,-16.226 -27.971,-26 -19.927,-29.156 -26.477,-68.613 -14.029,-102 6.22,2.085 -0.602,22.809 -1.424,29 -3.411,25.659 7.806,55.049 23.439,75 4.781,6.102 21.094,16.312 19.985,24 m -76,-116 c -34.807,21.399 -33.584,70.009 -11.791,101 8.993,12.788 35.507,35.808 52.791,24 -25.554,-18.373 -44.203,-51.081 -44.985,-83 -0.213,-8.686 -0.352,-17.439 1.246,-26 0.918,-4.919 4.172,-11.158 2.739,-16 m 36,132 c 7.579,23.293 14.852,47.479 17,72 1.571,17.932 2.578,35.209 -1.211,53 -9.263,43.498 -55.225,72.863 -97.789,53.688 -28.096,-12.657 -48.154,-38.567 -63.15,-64.688 -8.307,-14.471 -15.491,-29.57 -21.839,-45 -2.41,-5.859 -4.08,-17.059 -8.829,-21.356 -2.434,-2.203 -6.502,-0.269 -9.182,0.497 -7.992,2.285 -15.893,5.001 -24,6.859 15.048,53.027 38.547,111.432 85,144.573 52.698,37.595 137.968,21.721 161.305,-42.573 13.778,-37.959 8.907,-83.536 -0.435,-122 -2.069,-8.52 -3.157,-22.747 -8.713,-29.697 -6.162,-7.705 -19.831,-8.127 -28.157,-5.303 z"
       id="path3851" /></g></svg>
