<?xml version="1.0" encoding="UTF-8" standalone="no"?>
<!-- Created with Inkscape (http://www.inkscape.org/) -->

<svg
   version="1.1"
   id="svg2"
   width="511.49799"
   height="512.14447"
   viewBox="0 0 511.49799 512.14447"
   sodipodi:docname="safe.png"
   inkscape:export-filename="safe.svg"
   inkscape:export-xdpi="96"
   inkscape:export-ydpi="96"
   xml:space="preserve"
   xmlns:inkscape="http://www.inkscape.org/namespaces/inkscape"
   xmlns:sodipodi="http://sodipodi.sourceforge.net/DTD/sodipodi-0.dtd"
   xmlns="http://www.w3.org/2000/svg"
   xmlns:svg="http://www.w3.org/2000/svg"><defs
     id="defs6" /><sodipodi:namedview
     id="namedview4"
     pagecolor="#ffffff"
     bordercolor="#000000"
     borderopacity="0.25"
     inkscape:showpageshadow="2"
     inkscape:pageopacity="0.0"
     inkscape:pagecheckerboard="0"
     inkscape:deskcolor="#d1d1d1"
     showgrid="false" /><g
     inkscape:groupmode="layer"
     inkscape:label="Image"
     id="g8"
     transform="translate(1442.1597,1047.2578)"><path
       style="fill:#030303;stroke:none"
       d="m -1211.3217,-1046.4567 c -38.309,5.0299 -74.301,10.1157 -109,28.8843 -90.8622,49.147 -138.0464,157.1473 -116.7894,257.6913 15.6773,74.152 64.7692,136.097 134.7894,166.15 14.023,6.019 28.284,10.824 43,14.839 7.087,1.934 15.768,4.653 23,2.041 15.907,-5.745 16.09,-29.77 1,-36.501 -10.785,-4.81 -23.747,-5.966 -35,-9.873 -24.176,-8.394 -48.166,-21.231 -67,-38.746 -83.6736,-77.809 -85.4279,-215.207 -1,-293.8205 77.171,-71.8563 207.075,-66.3195 277.83,11.9105 17.184,18.999 31.27,40.896 40.117,65 4.723,12.868 5.588,29.007 11.737,41 4.619,9.008 14.837,12.856 24.316,9.775 14.388,-4.675 13.926,-19.642 11.339,-31.775 -5.759,-26.998 -16.066,-52.754 -31.031,-76 -34.494,-53.5811 -90.528,-93.7684 -153.308,-106.3997 -17.148,-3.4501 -36.528,-6.4699 -54,-4.1759 m 2,89.044 c -19.313,3.6819 -16,24.8196 -16,39.5316 v 56 c 0,8.389 1.685,18.844 -0.317,27 -1.24,5.052 -5.823,9.081 -7.756,14 -1.745,4.441 -0.995,9.987 -3.53,14 -10.449,16.541 -30.574,30.177 -44.397,44 -5.378,5.378 -12.572,10.794 -15.517,18 -5.56,13.603 4.703,28.739 19.517,27.892 7.8,-0.446 12.642,-5.82 18,-10.802 9.18,-8.537 18.129,-17.219 27,-26.09 7.787,-7.787 15.694,-18.478 25,-24.397 10.898,-6.933 21.78,-4.421 28.597,-18.603 7.441,-15.48 -2.962,-23.484 -6.28,-37 -2.938,-11.969 -0.317,-27.668 -0.317,-40 0,-21.559 3.656,-46.932 -1.015,-68 -2.329,-10.502 -12.219,-17.5842 -22.985,-15.5316 m 137,152.9556 c -37.948,4.985 -72.335,16.917 -97.536,47.576 -39.791,48.406 -40.078,127.073 0.835,175 29.516,34.575 76.918,51.286 121.701,45.714 66.168,-8.233 116.66,-67.571 116.66,-133.714 0,-71.907 -65.914,-144.526 -141.66,-134.576 m 0,39.861 c 54.77,-6.483 104.317,43.821 101.961,97.715 -2.097,47.939 -38.701,86.062 -85.961,91.715 -87.195,10.428 -136.685,-100.048 -77.91,-161.7 16.388,-17.192 38.887,-25.004 61.91,-27.73 m -13,74.715 c -9.153,0 -20.88,-1.96 -28.996,3.144 -12.783,8.04 -11.664,28.302 1.996,34.806 7.878,3.751 18.51,2.05 27,2.05 0,8.731 -1.941,20.079 2.417,27.996 7.067,12.836 25.917,12.862 33.88,1 5.374,-8.006 3.703,-19.873 3.703,-28.996 8.872,0 20.124,1.911 27.999,-2.995 13.203,-8.224 12.089,-28.414 -1.999,-35.085 -7.579,-3.589 -17.823,-1.92 -26,-1.92 0,-9.123 1.671,-20.99 -3.703,-28.996 -7.963,-11.862 -26.813,-11.836 -33.88,1 -4.358,7.917 -2.417,19.265 -2.417,27.996 z"
       id="path3843" /></g></svg>
