<?xml version="1.0" encoding="UTF-8" standalone="no"?>
<!-- Created with Inkscape (http://www.inkscape.org/) -->

<svg
   version="1.1"
   id="svg2"
   width="410.88074"
   height="480.04358"
   viewBox="0 0 410.88074 480.04358"
   sodipodi:docname="safe.png"
   inkscape:export-filename="safe.svg"
   inkscape:export-xdpi="96"
   inkscape:export-ydpi="96"
   xml:space="preserve"
   xmlns:inkscape="http://www.inkscape.org/namespaces/inkscape"
   xmlns:sodipodi="http://sodipodi.sourceforge.net/DTD/sodipodi-0.dtd"
   xmlns="http://www.w3.org/2000/svg"
   xmlns:svg="http://www.w3.org/2000/svg"><defs
     id="defs6" /><sodipodi:namedview
     id="namedview4"
     pagecolor="#ffffff"
     bordercolor="#000000"
     borderopacity="0.25"
     inkscape:showpageshadow="2"
     inkscape:pageopacity="0.0"
     inkscape:pagecheckerboard="0"
     inkscape:deskcolor="#d1d1d1"
     showgrid="false" /><g
     inkscape:groupmode="layer"
     inkscape:label="Image"
     id="g8"
     transform="translate(2241.9192,1110.3621)"><path
       style="fill:#030303;stroke:none"
       d="m -2201.5188,-1085.9691 h 160 c 17.291,0 47.12,-5.8382 61,6.1883 12.35,10.7003 23.446,23.2573 35,34.8117 6.519,6.5193 14.163,12.6073 16.319,22 2.019,8.792 0.681,19.016 0.681,28 v 53 c 0,7.581 -3.129,24.159 1.028,30.606 3.424,5.312 17.053,8.988 22.972,10.394 v -155 -37 c 0,-5.1015 0.547,-11.8722 -4.144,-15.2577 -4.67,-3.37 -13.399,-1.7423 -18.856,-1.7423 h -47 -171 -39 c -4.869,0 -11.8968,-1.2191 -15.2577,3.2284 -3.6748,4.8628 -1.7423,14.9796 -1.7423,20.7716 m 147,400 c -3.459,-10.93 -9.954,-20.841 -13.279,-32 -1.031,-3.459 -1.288,-10.67 -4.31,-12.972 -4.997,-3.808 -20.25,-1.028 -26.411,-1.028 h -73 c -7.558,0 -23.7589,3.045 -29.5772,-2.573 -4.1284,-3.986 -2.0839,-9.811 2.5957,-12.248 5.5588,-2.895 14.8665,-1.179 20.9815,-1.179 h 104 v -39 h -100 c -7.147,0 -29.8549,3.666 -29.8549,-8.001 0,-11.767 22.6069,-7.999 29.8549,-7.999 h 100 v -39 h -101 c -6.884,0 -32.1551,3.376 -28.6628,-9.985 1.5591,-5.964 7.6564,-6.007 12.6628,-6.015 h 39 51 c 7.253,0 16.868,1.67 23.856,-0.317 5.421,-1.541 12.29,-7.876 18.144,-10.402 21.256,-9.171 42.418,-18.908 64,-27.281 v -1 h -18 c -3.657,0 -7.347,0.139 -11,-0.04 -7.686,-0.377 -17.415,-8.569 -7.891,-14.951 4.453,-2.984 10.811,-2.009 15.891,-2.009 11.63,0 32.601,-4.513 33,12 l 27,-10.85 9.972,-5.544 1.028,-24.606 v -63 c -15.739,0 -45.901,5.873 -57.895,-6.105 -11.997,-11.981 -6.105,-42.1046 -6.105,-57.895 h -169 -43 c -5.0649,0 -13.4692,-1.5712 -17.7215,1.7423 -5.0624,3.9448 -3.2785,13.6522 -3.2785,19.2577 v 55 224 61 c 0,5.958 -2.0898,17.075 3.2785,21.258 3.728,2.905 10.3034,1.742 14.7215,1.742 h 34 135 m 62,-383 v 33 l 1.603,12.397 12.397,1.603 h 33 c -11.337,-16.0946 -30.905,-35.6627 -47,-47 m -145,42.2863 c 65.465,-8.0398 100.407,79.1347 48,118.8137 -11.259,8.525 -24.12,12.297 -38,13.6 -36.98,3.471 -68.9213,-31.167 -68.9213,-66.7 0,-33.365 26.2043,-61.696 58.9213,-65.7137 m 7.004,16.5517 c -6.79,0.564 -5.232,6.802 -9.321,10.091 -4.496,3.616 -9.49,5.062 -13.034,10.075 -11.941,16.889 3.142,32.501 19.351,36.342 4.952,1.173 17.677,2.842 16.168,10.639 -1.149,5.939 -10.309,7.579 -15.168,6.479 -8.311,-1.882 -10.987,-14.698 -19,-14.127 -7.652,0.546 -7.804,9.271 -5.467,14.663 3.908,9.017 12.13,9.174 17.879,15.498 3.238,3.563 3.127,9.626 9.588,9.165 6.412,-0.457 6.552,-7.524 11.133,-10.388 4.569,-2.856 8.927,-4 12.653,-8.29 12.842,-14.786 0.026,-32.8 -15.786,-37.239 -5.671,-1.592 -17.756,-1.797 -18.534,-9.746 -0.593,-6.061 7.873,-8.554 12.534,-7.768 7.705,1.3 10.6,13.354 18.985,11.316 19.181,-4.663 -7.926,-23.508 -11.422,-27.185 -3.64,-3.83 -3.561,-10.107 -10.559,-9.525 m 101.011,41.596 c 9.662,-2.729 31.31,-2.696 40.98,0 7.064,1.969 8.124,12.212 0.986,14.963 -8.33,3.21 -22.083,0.603 -30.981,0.603 -3.709,0 -8.459,0.754 -11.981,-0.603 -7.064,-2.723 -5.986,-12.992 0.996,-14.963 m 82.985,69.294 c -8.724,1.687 -17.834,7.366 -26,10.851 l -57,24.421 c -6.365,2.707 -24.355,6.934 -27.397,13.39 -1.933,4.103 -0.603,11.154 -0.603,15.61 v 38 c 0,16.37 -1.658,33.746 0.285,50 5.18,43.308 28.721,79.296 66.715,100.999 13.107,7.488 34.465,17.979 50,15.192 48.269,-8.659 90.078,-44.902 103.573,-92.191 6.53,-22.887 5.427,-46.462 5.427,-70 v -42 c 0,-4.323 1.595,-12.679 -1.028,-16.351 -2.858,-4.002 -11.578,-5.913 -15.972,-7.799 l -42,-18 -39,-16.7 c -4.908,-2.106 -11.486,-6.489 -17,-5.422 m 46,109.272 c 4.891,0 12.047,-1.333 15.397,3.148 3.456,4.623 1.603,14.364 1.603,19.852 v 51 c 0,8.926 3.786,26.427 -9,26.981 -27.22,1.178 -54.752,0.019 -82,0.019 -7.3,0 -24.046,3.086 -29.566,-2.434 -4.686,-4.685 -2.434,-16.479 -2.434,-22.566 v -51 c 0,-5.93 -1.812,-15.578 1.179,-20.891 3.164,-5.621 11.418,-4.109 16.821,-4.109 0,-15.236 -2.655,-32.937 4.377,-47 14.915,-29.831 57.107,-32.065 75.849,-5 10.362,14.964 7.774,34.778 7.774,52 m -68,0 h 47 c 0,-10.972 2.885,-26.806 -1.533,-37 -7.359,-16.978 -32.19,-18.74 -41.854,-2.985 -6.667,10.868 -3.613,27.752 -3.613,39.985 m 20,20.468 c -10.957,2.107 -17.37,14.225 -13.437,24.532 1.683,4.41 5.98,7.426 7.119,12 1.905,7.65 -2.967,25.729 11.317,23.613 11.87,-1.759 6.332,-15.846 8.318,-23.574 1.266,-4.924 6.352,-7.965 7.883,-13.039 4.075,-13.504 -7.392,-26.186 -21.2,-23.532 z"
       id="path3841" /></g></svg>
