<?xml version="1.0" encoding="UTF-8" standalone="no"?>
<!-- Created with Inkscape (http://www.inkscape.org/) -->

<svg
   version="1.1"
   id="svg2"
   width="514.37744"
   height="486.48981"
   viewBox="0 0 514.37744 486.48981"
   sodipodi:docname="safe.png"
   inkscape:export-filename="safe.svg"
   inkscape:export-xdpi="96"
   inkscape:export-ydpi="96"
   xml:space="preserve"
   xmlns:inkscape="http://www.inkscape.org/namespaces/inkscape"
   xmlns:sodipodi="http://sodipodi.sourceforge.net/DTD/sodipodi-0.dtd"
   xmlns="http://www.w3.org/2000/svg"
   xmlns:svg="http://www.w3.org/2000/svg"><defs
     id="defs6" /><sodipodi:namedview
     id="namedview4"
     pagecolor="#ffffff"
     bordercolor="#000000"
     borderopacity="0.25"
     inkscape:showpageshadow="2"
     inkscape:pageopacity="0.0"
     inkscape:pagecheckerboard="0"
     inkscape:deskcolor="#d1d1d1"
     showgrid="false" /><g
     inkscape:groupmode="layer"
     inkscape:label="Image"
     id="g8"
     transform="translate(3974.302,1053.7069)"><path
       style="fill:#020202;stroke:none"
       d="m -3863.1411,-993.6531 h 68 c -2.44,-12.9519 -4.406,-26.002 -6.586,-39 -1.034,-6.1592 -1.466,-13.2448 -6.522,-17.6057 -8.097,-6.9837 -19.495,-2.0675 -26.891,3.3627 -16.118,11.8331 -27.14,33.2529 -28.001,53.243 m 69,290 c -12.236,-2.28 -23.892,-2.61 -36,0.745 -9.199,2.55 -17.563,7.103 -25,13.063 -6.827,5.471 -12.494,12.511 -16.688,20.192 -30.1947,55.305 26.949,120.23 85.688,97.934 12.114,-4.598 21.34,-12.558 30,-21.934 15.446,29.771 63.364,32.142 89,16.792 36.111,-21.621 44.519,-71.329 17.905,-103.788 -8.107,-9.888 -18.855,-17.144 -30.905,-21.308 -13.657,-4.719 -28.197,-4.575 -42,-0.696 12.926,-52.47 17.998,-107.751 27.25,-161 6.325,-36.403 17.736,-76.03 17.75,-113 0.01,-23.1591 -4.886,-46.447 -21.428,-63.8295 -6.832,-7.1784 -17.12,-14.5886 -27.572,-12.9568 -10.272,1.6038 -11.678,11.3188 -13.08,19.7863 -3.424,20.67 -6.868,41.3369 -10.334,62 -9.949,59.331 -19.942,118.657 -29.833,178 -4.945,29.671 -12.384,60.025 -14.753,90 m -16,-91 c -9.913,0 -24.907,2.789 -33.999,-1.573 -12.19,-5.847 -10.611,-21.645 1.003,-27.01 10.249,-4.733 27.818,-1.417 38.996,-1.417 1.997,-46.506 21.615,-92.442 22,-139 h -132 c -13.6964,0 -40.2448,-5.0563 -51.9846,2.728 -12.3289,8.174 -7.0154,35.405 -7.0154,48.272 v 127 c 0,11.913 -4.7956,37.046 5.108,45.606 8.1734,7.064 22.9193,4.394 32.892,4.394 h 81 c 7.506,0 27.399,3.556 33.411,-1.028 3.359,-2.56 3.193,-11.114 3.836,-14.972 2.343,-14.057 6.459,-28.743 6.753,-43 m 125,59 h 158 40 c 6.721,0 14.22,0.57 19.956,-3.652 11.288,-8.31 6.044,-35.871 6.044,-48.348 v -126 c 0,-12.253 4.727,-36.714 -5.108,-45.772 -6.228,-5.737 -16.114,-4.228 -23.892,-4.228 h -58 -72 c -6.159,0 -21.416,-2.781 -26.411,1.028 -3.359,2.56 -3.193,11.114 -3.836,14.972 l -6.833,41 c -6.242,37.683 -12.759,75.319 -19,113 -3.122,18.847 -8.762,38.889 -8.92,58 m -217,-168.606 c 10.6978,-2.458 24.0315,-0.394 35,-0.394 4.907,0 10.461,-0.677 14.96,1.688 11.635,6.118 9.179,23.696 -2.96,27.508 -10.505,3.299 -25.036,0.805 -36,0.804 -5.1353,0 -10.354,0.277 -14.9066,-2.533 -10.5899,-6.537 -8.6892,-24.178 3.9066,-27.073 m 330,9.895 c 57.706,-7.517 70.06,81.858 12,89.422 -57.691,7.515 -70.049,-81.859 -12,-89.422 m 2.001,30.36 c -18.279,5.51 -10.224,34.173 7.999,28.546 18.314,-5.655 10.111,-34.005 -7.999,-28.546 m -331.001,39.745 c 18.1078,-3.985 25.2711,24.66 7,29.073 -19.6232,4.74 -26.3771,-24.808 -7,-29.073 m 85,148.895 c 40.356,-5.257 60.579,49.057 27,71.795 -5.984,4.052 -12.887,5.795 -20,6.451 -48.625,4.49 -55.259,-71.959 -7,-78.246 m 108,0.011 c 49.044,-7.067 62.416,70.343 13,77.53 -8.004,1.164 -16.53,0.651 -24,-2.734 -35.048,-15.886 -26.654,-69.37 11,-74.796 z"
       id="path3837" /></g></svg>
