<?xml version="1.0" encoding="UTF-8" standalone="no"?>
<!-- Created with Inkscape (http://www.inkscape.org/) -->

<svg
   version="1.1"
   id="svg2"
   width="422.56592"
   height="456.66162"
   viewBox="0 0 422.56592 456.66162"
   sodipodi:docname="safe.png"
   inkscape:export-filename="safe.svg"
   inkscape:export-xdpi="96"
   inkscape:export-ydpi="96"
   xml:space="preserve"
   xmlns:inkscape="http://www.inkscape.org/namespaces/inkscape"
   xmlns:sodipodi="http://sodipodi.sourceforge.net/DTD/sodipodi-0.dtd"
   xmlns="http://www.w3.org/2000/svg"
   xmlns:svg="http://www.w3.org/2000/svg"><defs
     id="defs6" /><sodipodi:namedview
     id="namedview4"
     pagecolor="#ffffff"
     bordercolor="#000000"
     borderopacity="0.25"
     inkscape:showpageshadow="2"
     inkscape:pageopacity="0.0"
     inkscape:pagecheckerboard="0"
     inkscape:deskcolor="#d1d1d1"
     showgrid="false" /><g
     inkscape:groupmode="layer"
     inkscape:label="Image"
     id="g8"
     transform="translate(4803.0166,1120.4286)"><path
       style="fill:#020202;stroke:none"
       d="m -4609.1104,-1046.7412 c -20.652,5.949 -35.346,26.474 -45.799,44 -25.878,43.385 -46.906,110.652 2.799,144.975 6.452,4.455 13.417,8.841 21,11.025 v 1 c -14.663,0 -29.338,-0.177 -44,0.004 -3.934,0.048 -13.006,1.446 -8.968,7.679 1.987,3.067 6.856,2.316 9.968,2.317 h 28 118 36 c 3.401,0 9.825,1.149 11.953,-2.317 2.936,-4.783 -3.312,-7.411 -6.953,-7.639 -11.574,-0.726 -23.402,-0.044 -35,-0.044 v -1 c 8.791,-2.088 16.874,-7.478 24,-12.899 58.517,-44.512 12.557,-134.544 -28,-175.101 17.872,0 36.79,-0.924 53,-9.259 3.653,-1.8789 19.4,-11.5308 11.562,-16.6978 -5.094,-3.3586 -13.334,6.4515 -17.562,8.5795 -14.102,7.0973 -30.611,7.3773 -46,7.3773 11.009,-9.6175 21.53,-19.7385 29.644,-32 1.954,-2.9526 7.895,-14.4107 -0.648,-13.534 -5.108,0.5243 -8.631,8.8852 -11.371,12.534 -8.309,11.0663 -17.726,19.5923 -28.625,28 4.107,-14.5821 7.907,-29.3143 11.626,-44 1.06,-4.1881 4.376,-11.7771 0.056,-15.0617 -14.638,-11.1293 -38.126,6.7881 -52.682,7.6828 -12.698,0.7805 -25.378,-8.1062 -35,-15.2708 -2.951,-2.1973 -8.777,-6.7041 -11.782,-1.9166 -2.752,4.3861 1.792,14.9023 2.898,19.5663 4.093,17.2699 8.297,34.6212 11.884,52 m -64.985,-29.2538 c -11.383,4.3301 -4.993,22.1832 6.97,17.6504 11.259,-4.2665 4.064,-21.8474 -6.97,-17.6504 m 267.986,38.9618 c -12.646,1.641 -9.441,21.115 2.995,18.858 11.764,-2.136 8.73,-20.38 -2.995,-18.858 m -336.001,4.746 c -32.8267,4.363 -25.8236,52.462 7,48.361 30.077,-3.758 22.959,-52.343 -7,-48.361 m 172,27.546 v 14 c 11.184,1.444 21.29,5.333 31,11 l -10.213,17.582 -22.787,-7.582 c 0,4.785 -1.882,14.7 1.603,18.436 6.988,7.49 21.292,5.601 28.868,14.657 19.141,22.884 -5.282,47.074 -28.471,48.907 v 16 h -10 l -1.028,-14.566 -11.972,-3.809 -24,-9.625 10,-21 c 8.881,4.727 17.735,10.104 28,11 v -19 c -9.705,-0.847 -22.111,-5.423 -28.468,-13.093 -10.262,-12.384 -4.783,-33.277 7.472,-42.118 5.807,-4.189 13.01,-5.887 19.996,-6.789 v -14 h 10 m 159,31.515 c -39.539,2.662 -34.544,61.583 5,58.392 36.507,-2.946 31.249,-60.833 -5,-58.392 m -168,20.485 v -17 c -12.029,1.912 -10.593,13.851 0,17 m -42,4 -1.603,18.972 -18.397,1.028 v -20 h 20 m 108,0 v 20 h -20 v -20 h 20 m -59,23 v 17 c 13.951,-1.89 12.435,-13.409 0,-17 m -148.999,16.718 c -12.279,1.439 -10.083,20.458 1.999,19.01 12.367,-1.483 10.328,-20.454 -1.999,-19.01 m -67.001,24.811 c -25.0744,5.747 -16.0987,43.742 9,37.942 24.1863,-5.59 15.1068,-43.466 -9,-37.942 m 1,141.471 v 1 l 53,53 c 4.017,4.017 12.965,16.793 19,16.793 5.944,0 12.777,-11.14 17,-14.793 -6.133,-13.151 -22.776,-24.759 -33,-35 -2.616,-2.62 -11.21,-9.225 -6.522,-13.377 5.313,-4.706 16.273,10.128 19.522,13.377 8.126,8.126 19.135,24.391 30,28.397 6.786,2.501 18.685,1.409 26,1.588 32.421,0.795 65.724,0.113 98,3.185 8.99,0.855 18.034,0.146 27,1 6.142,0.584 15.214,2.695 21,-0.198 8.256,-4.128 15.514,-14.486 22,-20.972 l 47,-47 51,-51 c 8.329,-8.329 17.929,-16.996 15.18,-30 -3.069,-14.514 -18.356,-22.908 -32.18,-17.045 -14.124,5.991 -25.538,22.512 -37,32.469 -18.628,16.183 -38.187,33.47 -54.945,51.576 -8.276,8.941 -9.537,20.897 -22.055,26.471 -18.274,8.137 -45.529,0.53 -65,0.529 -12.292,-10e-4 -24.743,-1.071 -37,-1.91 -4.089,-0.28 -10.195,1.105 -13.562,-1.832 -3.854,-3.364 -0.41,-7.479 3.567,-8.11 8.451,-1.34 17.486,0.852 25.995,0.852 25.011,0 53.312,7.01 78,2.671 11.699,-2.056 19.174,-14.338 16.072,-25.671 -4.963,-18.13 -26.063,-16.559 -41.072,-18.166 -39.301,-4.207 -78.602,-9.753 -118,-12.92 -10.403,-0.836 -30.49,-7.637 -40,-2.886 -8.255,4.124 -15.516,14.488 -22,20.972 l -47,47 m 372,6.532 c -23.531,5.607 -14.647,43.042 9,37.949 25.738,-5.542 16.508,-44.026 -9,-37.949 m -41.985,54.125 c -11.986,3.706 -5.891,21.192 5.97,17.909 11.747,-3.253 5.731,-21.527 -5.97,-17.909 z"
       id="path3835" /></g></svg>
