<?xml version="1.0" encoding="UTF-8" standalone="no"?>
<!-- Created with Inkscape (http://www.inkscape.org/) -->

<svg
   version="1.1"
   id="svg2"
   width="514.36255"
   height="513.59564"
   viewBox="0 0 514.36255 513.59564"
   sodipodi:docname="safe.png"
   inkscape:export-filename="safe.svg"
   inkscape:export-xdpi="96"
   inkscape:export-ydpi="96"
   xml:space="preserve"
   xmlns:inkscape="http://www.inkscape.org/namespaces/inkscape"
   xmlns:sodipodi="http://sodipodi.sourceforge.net/DTD/sodipodi-0.dtd"
   xmlns="http://www.w3.org/2000/svg"
   xmlns:svg="http://www.w3.org/2000/svg"><defs
     id="defs6" /><sodipodi:namedview
     id="namedview4"
     pagecolor="#ffffff"
     bordercolor="#000000"
     borderopacity="0.25"
     inkscape:showpageshadow="2"
     inkscape:pageopacity="0.0"
     inkscape:pagecheckerboard="0"
     inkscape:deskcolor="#d1d1d1"
     showgrid="false" /><g
     inkscape:groupmode="layer"
     inkscape:label="Image"
     id="g8"
     transform="translate(3164.1401,1027.918)"><path
       style="fill:#010101;stroke:none"
       d="m -3130.488,-1026.6699 c -29.1857,4.5958 -32,30.4668 -32,54.5609 v 167 199 c 0,22.133 -7.1236,58.934 8.213,77 13.9196,16.397 33.3664,14 52.787,14 h 94 c 15.481,0 32.752,2.128 48,-0.616 29.502,-5.309 32,-31.613 32,-56.384 v -171 -195 c 0,-23.1824 6.628,-58.3451 -10.184,-76.9854 -13.574,-15.0494 -34.563,-12.0146 -52.816,-12.0146 h -93 c -15.2325,0 -31.9481,-1.9311 -47,0.4391 m 277,0.025 c -36.3,6.5332 -32,44.4997 -32,72.5355 0,17.8681 -0.195,36.652 16,48.211 14.341,10.235 35.414,6.789 52,6.789 h 92 c 15.04,0 32.328,2.338 47,-1.239 10.041,-2.448 19.016,-9.559 23.726,-18.761 5.152,-10.065 4.274,-21.0452 4.274,-32 0,-23.5009 6.022,-55.0416 -17,-70.0339 -14.786,-9.6293 -36.213,-5.9661 -53,-5.9661 h -88 c -14.458,0 -30.764,-2.0978 -45,0.4645 m 0,192.0005 c -36.3,6.533 -32,44.499 -32,72.535 0,17.868 -0.195,36.652 16,48.211 14.341,10.235 35.414,6.789 52,6.789 h 92 c 15.04,0 32.328,2.338 47,-1.239 10.041,-2.448 19.016,-9.559 23.726,-18.761 5.152,-10.065 4.274,-21.045 4.274,-32 0,-23.501 6.022,-55.042 -17,-70.034 -14.786,-9.629 -36.213,-5.966 -53,-5.966 h -88 c -14.458,0 -30.764,-2.098 -45,0.465 m 0,192 c -36.3,6.533 -32,44.499 -32,72.535 0,17.868 -0.195,36.652 16,48.211 14.341,10.235 35.414,6.789 52,6.789 h 92 c 15.04,0 32.328,2.338 47,-1.239 10.041,-2.448 19.016,-9.559 23.726,-18.761 5.152,-10.065 4.274,-21.045 4.274,-32 0,-23.501 6.021,-55.042 -17,-70.034 -14.786,-9.629 -36.213,-5.966 -53,-5.966 h -88 c -14.458,0 -30.763,-2.098 -45,0.465 z"
       id="path3839" /></g></svg>
