<?xml version="1.0" encoding="UTF-8" standalone="no"?>
<!-- Created with Inkscape (http://www.inkscape.org/) -->

<svg
   version="1.1"
   id="svg2"
   width="459.55957"
   height="415.98596"
   viewBox="0 0 459.55957 415.98596"
   sodipodi:docname="safe.png"
   inkscape:export-filename="safe.svg"
   inkscape:export-xdpi="96"
   inkscape:export-ydpi="96"
   xml:space="preserve"
   xmlns:inkscape="http://www.inkscape.org/namespaces/inkscape"
   xmlns:sodipodi="http://sodipodi.sourceforge.net/DTD/sodipodi-0.dtd"
   xmlns="http://www.w3.org/2000/svg"
   xmlns:svg="http://www.w3.org/2000/svg"><defs
     id="defs6" /><sodipodi:namedview
     id="namedview4"
     pagecolor="#ffffff"
     bordercolor="#000000"
     borderopacity="0.25"
     inkscape:showpageshadow="2"
     inkscape:pageopacity="0.0"
     inkscape:pagecheckerboard="0"
     inkscape:deskcolor="#d1d1d1"
     showgrid="false" /><g
     inkscape:groupmode="layer"
     inkscape:label="Image"
     id="g8"
     transform="translate(6279.9473,1057.5085)"><path
       style="fill:#040404;stroke:none;stroke-width:0.897196"
       d="m -6138.1654,-998.23454 c -38.6736,0 -91.959,-10.29496 -122.0055,19.75178 -20.7478,20.74766 -19.7515,47.32172 -19.7515,74.45383 v 162.39253 c 0,30.69937 -1.7139,60.0341 23.3271,82.38595 27.8529,24.8622 73.1861,16.30564 107.6636,16.30564 88.7318,0 177.7659,2.16583 266.4673,-0.0135 26.3874,-0.64777 51.1123,-21.9185 58.568,-46.64074 4.6484,-15.41384 3.3385,-31.6486 3.3385,-47.55141 v -72.6729 -89.71963 c 0,-37.74594 -0.9986,-77.17233 -42.1682,-93.79927 -13.9236,-5.62335 -28.3658,-4.89232 -43.0654,-4.89232 h -56.5234 c 0,-17.79482 2.6736,-36.81462 -11.6672,-50.15912 -10.4056,-9.6828 -22.6443,-9.0558 -35.8842,-9.0558 h -76.2617 c -14.4951,0 -28.7444,-1.3838 -40.2931,9.2419 -13.9245,12.8124 -11.7443,32.8347 -11.7443,49.97302 m 158.8038,0 h -17.0468 c 0,-4.57332 -0.2108,-9.05262 -1.5925,-13.45792 -7.3346,-23.3956 -41.751,-17.0467 -60.314,-17.0467 -11.6097,0 -25.8527,-2.1267 -35.887,5.0585 -8.64,6.1868 -10.7394,15.409 -10.7672,25.44612 h -17.0468 c 0,-11.45012 -2.8907,-28.77542 6.3746,-37.49112 7.7366,-7.2779 19.7877,-5.5743 29.5133,-5.5743 h 69.9813 c 10.0002,0 22.4227,-1.8347 30.4203,5.5743 9.5489,8.8468 6.3648,25.7786 6.3648,37.49112 m -33.1963,0 h -75.3645 c 9e-4,-4.34952 -0.7438,-9.65722 3.6866,-12.15082 4.407,-2.4807 11.1791,-1.3071 16.0517,-1.3071 h 35.8879 c 5.1086,0 12.4934,-1.3127 16.9139,1.8027 3.7054,2.6119 2.8244,7.6873 2.8244,11.65522 m -207.2523,17.31589 c 28.4186,-4.05981 60.0924,-0.26916 88.8224,-0.26916 h 180.3364 c 30.6725,0 74.4593,-8.65615 98.5382,14.61443 19.183,18.53877 14.5086,47.41055 14.5086,71.51642 v 130.99065 c 0,20.37443 3.2155,43.69615 -0.4172,63.70094 -3.6247,19.96351 -20.2058,36.23507 -39.9567,39.96112 -29.5375,5.57249 -63.2774,1.30991 -93.3084,1.30991 h -181.2336 c -31.1803,0 -74.0405,8.2237 -97.6387,-17.08172 -17.4665,-18.73077 -12.7165,-47.41772 -12.7165,-70.84352 v -129.19626 c 0,-20.98363 -3.1748,-44.92621 1.1541,-65.49533 4.2444,-20.16808 21.5279,-36.29518 41.9114,-39.20748 m 96,133.41309 c -5.9637,26.0151 -15.4058,51.59327 -23.0759,77.15888 -2.7553,9.1828 -9.7624,22.64165 -8.1179,32.29907 0.7061,4.14504 4.1514,7.03491 6.9704,9.86916 6.0201,6.05248 19.5857,25.71723 29.4154,16.77487 6.554,-5.96276 10.2092,-17.2136 14.5463,-24.84964 11.2921,-19.88187 22.5501,-39.87768 33.1962,-60.11215 h 0.8972 c 8.4077,9.72022 18.7093,17.856 27.8131,26.91499 3.0146,3.00022 9.0097,6.58452 10.2801,10.78071 3.3645,11.11536 -10.9467,24.35888 -8.0837,35.87439 1.4086,5.66311 8.2075,10.40569 12.1588,14.35514 2.9481,2.94729 5.9564,6.73346 9.8691,8.42288 9.4798,4.09211 14.1928,-8.37174 17.6694,-14.70325 5.769,-10.50348 11.4384,-27.43088 20.204,-35.53795 8.1941,-7.57861 21.4851,-12.28172 31.2107,-17.77704 6.1288,-3.46318 20.6696,-8.34213 18.3136,-17.56352 -1.1278,-4.416 -5.3634,-7.68448 -8.4444,-10.76635 -4.0132,-4.01496 -8.6562,-10.62191 -14.3552,-12.17137 -8.0756,-2.19633 -19.208,3.79873 -26.9158,6.0175 -2.653,0.76441 -6.7173,2.99394 -9.4888,2.07521 -4.1163,-1.36374 -8.177,-7.24486 -11.1333,-10.27648 -8.753,-8.97197 -16.6861,-20.5772 -26.9293,-27.81309 17.8479,-14.66647 42.5459,-24.48807 62.8037,-35.61331 6.6016,-3.62647 20.6221,-8.33405 23.7999,-15.56276 1.4831,-3.37346 0.1508,-7.02595 -1.8805,-9.83328 -5.0898,-7.03581 -18.2741,-24.12202 -27.3026,-25.02011 -8.3601,-0.8317 -18.1036,4.37742 -26.0187,6.69578 -18.6006,5.44598 -37.0255,11.46437 -55.6261,16.91035 -7.296,2.13712 -15.7279,6.5298 -23.3262,6.96135 -6.24,0.35439 -14.7867,-12.04666 -18.7613,-16.31372 -15.5484,-16.69054 -34.761,-40.93907 -60.1929,-25.58894 -3.9522,2.38565 -7.4835,5.79051 -10.2918,9.43941 -19.7123,25.61674 6.598,48.93488 24.6469,64.85383 5.2639,4.64389 9.7247,11.1037 16.1496,14.09944 m 162.3925,-49.3458 v 0.8972 c -20.3045,14.45742 -44.4848,25.56202 -66.3925,37.47499 -5.9314,3.22542 -20.8096,8.40314 -21.1586,16.35679 -0.2127,4.85293 4.6394,8.44172 7.5481,11.66355 7.9429,8.79701 16.0087,17.62363 24.3768,26.01869 6.642,6.66348 13.0874,17.17234 21.5327,21.57937 14.2663,7.44403 31.9079,-18.89227 43.9626,-1.84105 -12.0394,5.18759 -31.6719,13.53151 -40.9211,22.77981 -9.3882,9.38916 -17.1391,28.83948 -22.7798,40.92113 -16.7506,-11.84928 8.8822,-29.59582 1.7684,-43.96262 -4.181,-8.44531 -14.8056,-15.15993 -21.5067,-21.5677 -8.6185,-8.24075 -17.0091,-16.89421 -26.0187,-24.7061 -3.1581,-2.73734 -7.0367,-7.5831 -11.6627,-7.25562 -7.653,0.5419 -12.3687,14.63058 -15.6309,20.33315 -12.6011,22.02707 -24.4145,44.53503 -37.3045,66.39253 -3.7476,-2.64045 -9.749,-7.00172 -10.9665,-11.66355 -1.771,-6.77742 4.9176,-19.38124 6.8609,-26.01869 5.4496,-18.60965 11.5972,-37.01384 17.0467,-55.62617 2.1946,-7.49339 6.851,-16.36307 6.8465,-24.2243 0,-6.57197 -6.5325,-10.44606 -10.8157,-14.43589 -9.1092,-8.48479 -17.9385,-17.27641 -26.915,-25.90296 -7.1192,-6.84022 -14.1075,-14.91319 -8.4722,-25.15559 5.1149,-9.29764 18.1996,-11.9991 26.4153,-5.1822 11.5218,9.55873 21.2949,22.05847 31.4826,32.99439 3.4596,3.71439 8.6938,11.02924 14.2744,11.0418 7.6863,0.0179 16.8987,-4.6089 24.2243,-6.80703 17.6487,-5.29525 35.3235,-10.50527 52.9346,-15.92075 7.0097,-2.15507 23.5271,-10.51335 30.5046,-7.86213 4.1567,1.57996 7.6854,6.59798 10.7664,9.67895 z"
       id="path3831" /></g></svg>
