<?xml version="1.0" encoding="UTF-8" standalone="no"?>
<!-- Created with Inkscape (http://www.inkscape.org/) -->

<svg
   version="1.1"
   id="svg2"
   width="512"
   height="462"
   viewBox="0 0 512 462"
   sodipodi:docname="safe.png"
   inkscape:export-filename="safe.svg"
   inkscape:export-xdpi="96"
   inkscape:export-ydpi="96"
   xml:space="preserve"
   xmlns:inkscape="http://www.inkscape.org/namespaces/inkscape"
   xmlns:sodipodi="http://sodipodi.sourceforge.net/DTD/sodipodi-0.dtd"
   xmlns="http://www.w3.org/2000/svg"
   xmlns:svg="http://www.w3.org/2000/svg"><defs
     id="defs6" /><sodipodi:namedview
     id="namedview4"
     pagecolor="#ffffff"
     bordercolor="#000000"
     borderopacity="0.25"
     inkscape:showpageshadow="2"
     inkscape:pageopacity="0.0"
     inkscape:pagecheckerboard="0"
     inkscape:deskcolor="#d1d1d1"
     showgrid="false" /><g
     inkscape:groupmode="layer"
     inkscape:label="Image"
     id="g8"
     transform="translate(5614.2192,1100.9691)"><path
       style="fill:#020202;stroke:none"
       d="m -5328.2192,-1100.9691 v 29 h 30 v -29 h -30 m -50,21 c -4.999,4.9993 -16.92,13.0411 -18.654,20 -1.206,4.8357 14.818,20.8598 19.654,19.6543 6.959,-1.7347 15.001,-13.655 20,-18.6543 v -1 l -21,-20 m 129,0 -20,20 v 1 c 4.999,4.9993 13.041,16.9196 20,18.6543 4.836,1.2055 20.86,-14.8186 19.654,-19.6543 -1.68,-6.7404 -14.143,-16.1182 -19.654,-20 m -71,28.4283 c -8.869,1.2704 -17.439,4.2226 -25,9.1196 -50.959,33.0061 -17.231,113.1061 41,104.3181 8.093,-1.222 16.187,-4.037 23,-8.615 48.38,-32.515 20,-113.275 -39,-104.8227 m -99,41.5717 v 30 h 29 v -30 h -29 m 183,0 v 30 h 29 v -30 h -29 m -142,59 c -4.4,4.4 -18.793,14.502 -18.793,21 0,6.498 14.393,16.6 18.793,21 h 1 c 4.4,-4.4 18.793,-14.501 18.793,-21 0,-6.415 -14.89,-17.546 -19.793,-21 m 129,0 -20,20 20,22 h 1 c 4.4,-4.4 18.793,-14.502 18.793,-21 0,-6.415 -14.89,-17.546 -19.793,-21 m -79,33 v 29 h 30 v -29 h -30 m 32,108 1,93 h 56 v 48 h -290 v -48 h 45 l 1,-93 h -69 c -15.3717,0 -29.9914,-0.915 -43,8.761 -23.8663,17.752 -25.2365,54.827 -1.9992,73.771 11.2561,9.177 24.0791,10.468 37.9992,10.468 v 48 h -55 v 30 h 512 v -30 h -107 v -38 c 0,-5.078 -1.299,-12.343 1.028,-17 4.932,-9.871 16.401,-18.725 23.687,-27 18.007,-20.456 36.223,-40.744 54.454,-61 10.053,-11.169 22.047,-21.979 26.074,-37 10.534,-39.295 -32.813,-72.86 -68.243,-52.662 -10.229,5.831 -17.502,15.969 -25.155,24.662 -13.525,15.363 -27.047,30.732 -40.679,46 -5.476,6.133 -11.228,15.877 -18.451,19.972 -8.844,5.014 -29.574,1.028 -39.715,1.028 m -157,101 h 127 v -71 c 0,-8.898 2.489,-22.259 -2.703,-29.996 -6.417,-9.563 -17.248,-8.004 -27.297,-8.004 h -67 c -10.172,0 -20.736,-1.493 -27.347,8.004 -5.126,7.363 -2.653,20.425 -2.653,28.996 z"
       id="path3833" /></g></svg>
