<?xml version="1.0" encoding="UTF-8" standalone="no"?>
<!-- Created with Inkscape (http://www.inkscape.org/) -->

<svg
   version="1.1"
   id="svg2"
   width="353.71851"
   height="449.4671"
   viewBox="0 0 353.71851 449.4671"
   sodipodi:docname="safe.png"
   inkscape:export-filename="safe.svg"
   inkscape:export-xdpi="96"
   inkscape:export-ydpi="96"
   xml:space="preserve"
   xmlns:inkscape="http://www.inkscape.org/namespaces/inkscape"
   xmlns:sodipodi="http://sodipodi.sourceforge.net/DTD/sodipodi-0.dtd"
   xmlns="http://www.w3.org/2000/svg"
   xmlns:svg="http://www.w3.org/2000/svg"><defs
     id="defs6" /><sodipodi:namedview
     id="namedview4"
     pagecolor="#ffffff"
     bordercolor="#000000"
     borderopacity="0.25"
     inkscape:showpageshadow="2"
     inkscape:pageopacity="0.0"
     inkscape:pagecheckerboard="0"
     inkscape:deskcolor="#d1d1d1"
     showgrid="false" /><g
     inkscape:groupmode="layer"
     inkscape:label="Image"
     id="g8"
     transform="translate(-3302.6694,975.73151)"><path
       style="fill:#010101;stroke:none"
       d="m 3319.8767,-959.337 h 288 v 16 h -195 -49 c -7.285,0 -15.829,-1.3442 -21.906,3.5579 -7.975,6.4339 -6.094,17.3552 -6.094,26.4421 v 65 273 h -16 c 0,-10.326 1.4167,-21.799 -0.2137,-31.996 -0.6989,-4.371 -3.9914,-8.148 -8.7716,-7.505 -4.4119,0.594 -6.5029,4.449 -6.9098,8.502 -1.0051,10.013 -3.0138,28.926 1.5834,37.995 5.765,11.374 19.7437,9.004 30.3117,9.004 0,9.392 -2.332,21.81 6.094,28.362 9.91,7.705 30.964,3.638 42.906,3.638 h 112 116 c 12.138,0 33.402,4.316 40.772,-8.015 4.333,-7.251 2.228,-18.847 2.228,-26.985 v -63 -235 -56 c 0,-8.3351 1.125,-17.528 -6.105,-23.4421 -6.784,-5.5495 -17.722,-3.5579 -25.895,-3.5579 0,-10.864 2.386,-25.5641 -10.001,-30.7716 -6.387,-2.6852 -15.2,-1.2284 -21.999,-1.2284 h -46 -162 -56 c -8.8298,0 -17.7139,-0.0783 -22.3117,9.0038 -3.2928,6.5043 -1.6883,15.9101 -1.6883,22.9962 v 51 184 60 c 0,6.148 -0.5455,17.784 8.9853,16.501 8.6178,-1.16 7.0147,-12.324 7.0147,-18.501 v -58 -251 m 168,64 v 88 h -16 c -2.094,-10.116 -6.752,-18.582 -15,-25 4.779,-7.939 8.508,-15.468 6.319,-25 -6.389,-27.835 -48.095,-28.7 -53.939,0 -2.077,10.197 3.501,16.741 5.62,26 -8.01,5.658 -13.143,14.189 -14,24 h -17 v -88 h 104 m 46.015,8.434 c 8.259,-2.332 19.423,-0.434 27.985,-0.434 17.456,0 37.847,-2.941 54.996,0.228 6.993,1.293 9.558,10.843 2.895,14.593 -5.517,3.106 -15.725,1.179 -21.891,1.179 h -45 c -5.924,0 -14.396,1.523 -19.956,-0.742 -6.899,-2.812 -6.033,-12.846 0.971,-14.824 m -101.011,23.986 c 14.989,-3.699 20.978,19.462 5.992,23.16 -14.989,3.699 -20.978,-19.462 -5.992,-23.16 m 101.011,16.014 c 8.259,-2.332 19.423,-0.434 27.985,-0.434 17.456,0 37.847,-2.941 54.996,0.228 6.993,1.293 9.558,10.843 2.895,14.593 -5.517,3.106 -15.725,1.179 -21.891,1.179 h -45 c -5.924,0 -14.396,1.523 -19.956,-0.742 -6.899,-2.812 -6.033,-12.846 0.971,-14.824 m -78.015,39.566 h -39 c 3.896,-21.512 34.169,-20.096 39,0 m -81.985,40.434 c 10.519,-2.971 25.061,-0.434 35.985,-0.434 h 78 c 5.693,0 14.782,-1.697 19.891,1.179 4.738,2.667 5.234,9.788 0.881,13.079 -6.723,5.08 -24.603,1.742 -32.772,1.742 h -72 c -8.862,0 -22.702,2.621 -30.956,-0.742 -6.899,-2.812 -6.033,-12.846 0.971,-14.824 m 160,0 c 8.259,-2.332 19.423,-0.434 27.985,-0.434 17.456,0 37.847,-2.941 54.996,0.228 6.993,1.293 9.558,10.843 2.895,14.593 -5.517,3.106 -15.725,1.179 -21.891,1.179 h -45 c -5.924,0 -14.396,1.523 -19.956,-0.742 -6.899,-2.812 -6.033,-12.846 0.971,-14.824 m -160,40 c 5.992,-1.692 13.79,-0.434 19.985,-0.434 h 41 134 c 15.25,0 33.011,-2.541 47.996,0.228 6.097,1.127 9.27,8.636 4.57,13.338 -3.862,3.865 -11.606,2.434 -16.566,2.434 h -44 -128 c -17.708,0 -41.976,4.37 -58.985,-0.434 -7.59,-2.143 -7.59,-12.989 0,-15.132 m 8,40 c 6.582,-1.859 22.593,-2.279 28.941,0.308 6.349,2.587 6.349,11.929 0,14.516 -5.955,2.426 -25.219,2.731 -30.847,-0.437 -6.082,-3.424 -4.59,-12.553 1.906,-14.387 m 56,0 c 13.342,-3.768 32.111,-0.434 45.985,-0.434 h 101 c 10.038,0 23.313,-2.298 32.985,0.434 5.618,1.586 7.847,8.864 3.581,13.132 -3.186,3.189 -8.464,2.434 -12.566,2.434 h -32 -95 c -13.284,0 -31.207,3.175 -43.985,-0.434 -7.59,-2.143 -7.59,-12.989 0,-15.132 m -56,32 c 10.519,-2.971 25.061,-0.434 35.985,-0.434 h 78 c 5.693,0 14.782,-1.697 19.891,1.179 4.738,2.667 5.234,9.788 0.881,13.079 -6.723,5.08 -24.603,1.742 -32.772,1.742 h -72 c -8.862,0 -22.702,2.621 -30.956,-0.742 -6.899,-2.812 -6.033,-12.846 0.971,-14.824 m 160,0 c 7.693,-2.173 18.014,-0.434 25.985,-0.434 15.565,0 33.702,-2.598 48.996,0.228 6.993,1.293 9.558,10.843 2.895,14.593 -5.108,2.876 -14.198,1.179 -19.891,1.179 h -40 c -5.655,0 -13.644,1.423 -18.956,-0.742 -6.899,-2.812 -6.033,-12.846 0.971,-14.824 m -8,48 c 8.259,-2.332 19.423,-0.434 27.985,-0.434 17.457,0 37.847,-2.941 54.996,0.228 6.993,1.293 9.558,10.843 2.895,14.593 -5.517,3.106 -15.725,1.179 -21.891,1.179 h -45 c -5.924,0 -14.396,1.523 -19.956,-0.742 -6.899,-2.812 -6.033,-12.846 0.971,-14.824 m 0,32 c 8.259,-2.332 19.423,-0.434 27.985,-0.434 17.457,0 37.847,-2.941 54.996,0.228 6.993,1.293 9.558,10.843 2.895,14.593 -5.517,3.106 -15.725,1.179 -21.891,1.179 h -45 c -5.924,0 -14.396,1.523 -19.956,-0.742 -6.899,-2.812 -6.033,-12.846 0.971,-14.824 z"
       id="path3855" /></g></svg>
