<?xml version="1.0" encoding="UTF-8" standalone="no"?>
<!-- Created with Inkscape (http://www.inkscape.org/) -->

<svg
   width="141.79074mm"
   height="144.74684mm"
   viewBox="0 0 141.79074 144.74684"
   version="1.1"
   id="svg5"
   xml:space="preserve"
   xmlns:inkscape="http://www.inkscape.org/namespaces/inkscape"
   xmlns:sodipodi="http://sodipodi.sourceforge.net/DTD/sodipodi-0.dtd"
   xmlns="http://www.w3.org/2000/svg"
   xmlns:svg="http://www.w3.org/2000/svg"><sodipodi:namedview
     id="namedview7"
     pagecolor="#505050"
     bordercolor="#eeeeee"
     borderopacity="1"
     inkscape:showpageshadow="0"
     inkscape:pageopacity="0"
     inkscape:pagecheckerboard="0"
     inkscape:deskcolor="#505050"
     inkscape:document-units="mm"
     showgrid="false" /><defs
     id="defs2" /><g
     inkscape:label="Layer 1"
     inkscape:groupmode="layer"
     id="layer1"
     transform="translate(-323.60612,164.61085)"><path
       style="fill:#020202;stroke:none;stroke-width:0.282222"
       d="m 353.09401,-164.38719 c -16.56895,2.1819 -31.47606,15.78684 -29.27032,33.74689 1.17389,9.55831 7.18714,18.85753 12.65906,26.52889 4.01213,5.624973 8.19184,11.126895 12.69695,16.36889 1.67347,1.947051 3.53218,4.75234 6.45431,4.459111 2.62664,-0.263313 4.30925,-2.891084 5.85724,-4.741333 3.61329,-4.318846 7.14897,-8.683413 10.4298,-13.264448 5.98396,-8.35547 13.57659,-18.4974 14.7083,-29.06888 1.94451,-18.16083 -14.81808,-36.49393 -33.53534,-34.02912 m 0.84667,18.02325 c 13.77837,-1.69305 20.16054,17.38424 8.74889,24.79286 -1.79127,1.16303 -3.80605,1.86182 -5.92667,2.13811 -13.58638,1.76982 -20.5707,-16.91106 -9.31333,-24.5861 1.97157,-1.34417 4.13371,-2.0552 6.49111,-2.34487 m -16.08667,58.903643 c -1.35856,1.726071 -1.45316,4.929575 -1.94203,7.055555 -1.31713,5.728264 -2.55453,11.476284 -3.82219,17.215554 -1.53785,6.962704 -3.04659,13.935286 -4.64447,20.884444 -0.62927,2.736708 -1.85643,6.224128 0.83969,8.283504 2.51156,1.918264 5.10464,0.449297 7.31122,-1.108287 4.86052,-3.430975 9.81787,-6.724791 14.67556,-10.159999 21.00213,-14.852226 42.18234,-29.56193 63.5,-43.957238 6.09571,-4.116493 12.65202,-8.089335 18.34021,-12.752206 2.18355,-1.78986 2.83068,-5.0594 0.53904,-7.09564 -1.64084,-1.45767 -3.86052,-1.22569 -5.89703,-1.22569 h -12.7 -18.34445 c -1.85109,0 -5.63597,-0.72079 -7.22771,0.29013 -2.33567,1.48308 -4.28836,6.68274 -5.84849,9.02321 -3.60398,5.405681 -7.59178,10.454072 -11.64646,15.522218 -2.38224,2.977726 -4.87934,6.520744 -8.01511,8.736753 -5.47427,3.86842 -12.79409,3.102186 -17.47252,-1.692205 -2.7189,-2.786379 -5.30284,-5.91199 -7.64526,-9.020103 M 446.50956,-100.5746 c -3.97369,0.940083 -8.24964,5.227885 -11.57111,7.548881 -8.44014,5.897597 -16.99316,11.636021 -25.4,17.581314 -2.94104,2.079696 -10.12726,5.127695 -9.81428,9.432995 0.3556,4.896838 9.25943,7.370515 12.91873,9.432995 11.82736,6.666653 23.9886,13.053624 36.12444,19.141157 3.39203,1.701518 9.33817,6.6675 13.26444,5.65658 6.22808,-1.603587 2.07208,-11.226235 1.18816,-15.321844 -3.02881,-14.031241 -6.12225,-28.061918 -9.33902,-42.051109 -0.91157,-3.963528 -1.22174,-12.875539 -7.37136,-11.420969 m -60.67777,41.802754 c -4.43174,1.367931 -9.19819,6.051409 -12.98222,8.72744 -8.21719,5.810955 -16.61838,11.361701 -24.83556,17.172657 -3.07729,2.176215 -11.56832,6.263075 -7.50175,11.139592 1.77253,2.125698 4.75818,1.722967 7.21953,1.722967 h 17.49778 56.72666 16.08666 c 2.44546,0 5.60099,0.523804 7.90223,-0.418536 3.75186,-1.536417 3.40275,-6.235417 0.28109,-8.198272 -5.37351,-3.379047 -11.34957,-5.94868 -16.9322,-8.968175 -9.16743,-4.957798 -18.34924,-9.970347 -27.65778,-14.65834 -4.02675,-2.027766 -11.10629,-7.96939 -15.80444,-6.519333 z"
       id="path2297" /></g></svg>
