<?xml version="1.0" encoding="UTF-8" standalone="no"?>
<!-- Created with Inkscape (http://www.inkscape.org/) -->

<svg
   width="107.76228mm"
   height="133.409mm"
   viewBox="0 0 107.76228 133.409"
   version="1.1"
   id="svg5"
   xml:space="preserve"
   xmlns:inkscape="http://www.inkscape.org/namespaces/inkscape"
   xmlns:sodipodi="http://sodipodi.sourceforge.net/DTD/sodipodi-0.dtd"
   xmlns="http://www.w3.org/2000/svg"
   xmlns:svg="http://www.w3.org/2000/svg"><sodipodi:namedview
     id="namedview7"
     pagecolor="#505050"
     bordercolor="#eeeeee"
     borderopacity="1"
     inkscape:showpageshadow="0"
     inkscape:pageopacity="0"
     inkscape:pagecheckerboard="0"
     inkscape:deskcolor="#505050"
     inkscape:document-units="mm"
     showgrid="false" /><defs
     id="defs2" /><g
     inkscape:label="Layer 1"
     inkscape:groupmode="layer"
     id="layer1"
     transform="translate(-106.68804,159.04196)"><path
       style="fill:#020202;stroke:none;stroke-width:0.264583"
       d="m 157.21209,-158.82077 c -7.69725,1.01063 -15.01351,2.29947 -21.96041,6.05481 -5.5208,2.98436 -10.76061,6.8127 -14.89128,11.55999 -3.4947,4.01648 -6.60887,8.37035 -8.83957,13.22916 -11.47255,24.98884 -0.90665,49.810987 14.82762,70.114582 7.20434,9.296664 15.59322,17.822861 24.51364,25.4717 2.28071,1.955536 6.5323,7.017544 9.78959,6.74714 2.88581,-0.239713 6.10737,-4.039129 8.20208,-5.83221 6.8617,-5.872956 13.45724,-12.160779 19.38919,-18.978297 12.80451,-14.71586 24.72161,-32.062207 26.09533,-52.122915 1.78064,-25.99875 -17.88795,-50.23178 -43.10327,-55.24504 -4.46987,-0.88871 -9.47155,-1.59653 -14.02292,-0.99892 m 45.50833,54.92104 h -19.04999 v 27.516669 h 7.93749 c -2.39527,3.399896 -6.48149,6.119548 -10.05416,8.162396 -12.71297,7.268633 -29.01738,7.559939 -41.80417,0.264583 -3.75496,-2.142596 -8.05788,-4.842139 -10.58333,-8.426979 h 7.9375 v -27.516669 h -19.05 c 0,-6.92176 1.25016,-13.58212 4.30186,-19.84375 12.3407,-25.3194 45.58109,-30.57299 66.34189,-12.77164 4.29471,3.68241 7.94596,8.63409 10.20656,13.82998 2.63129,6.04811 3.81635,12.2047 3.81635,18.78541 m -62.44166,27.516669 h 12.7 V -88.28931 c 0,-1.6129 -0.38682,-3.820583 0.41619,-5.281083 1.53829,-2.798233 8.99213,-2.443163 11.75438,-1.751806 0.94483,0.236537 1.76265,0.901435 2.22991,1.751806 0.80301,1.4605 0.41619,3.668183 0.41619,5.281083 v 11.906249 h 12.7 v -40.216669 -10.58333 c 0,-1.48193 0.32464,-3.43879 -0.4916,-4.75747 -1.54808,-2.50103 -6.00101,-1.59253 -8.50424,-1.59253 h -22.75416 c -2.41909,0 -6.47647,-0.82859 -7.97507,1.59253 -0.81624,1.31868 -0.4916,3.27554 -0.4916,4.75747 v 10.58333 40.216669 m 6.61564,-52.805539 c 5.15938,-1.27344 5.57239,9.3771 1.58539,10.36108 -5.14774,1.27053 -5.5925,-9.37233 -1.58539,-10.36108 m 12.7,0 c 5.15938,-1.27344 5.57239,9.3771 1.58538,10.36108 -5.14773,1.27053 -5.59249,-9.37207 -1.58538,-10.36108 m 12.7,0 c 5.15938,-1.27344 5.57239,9.3771 1.58538,10.36108 -5.14773,1.27053 -5.59249,-9.37233 -1.58538,-10.36108 m -25.4,16.93333 c 5.15938,-1.27344 5.57239,9.3771 1.58539,10.36109 -5.14774,1.27052 -5.5925,-9.37207 -1.58539,-10.36109 m 12.7,0 c 5.15938,-1.27344 5.57239,9.3771 1.58538,10.36109 -5.14773,1.27052 -5.59249,-9.37207 -1.58538,-10.36109 m 12.7,0 c 5.15938,-1.27344 5.57239,9.3771 1.58538,10.36109 -5.14773,1.27052 -5.59249,-9.37234 -1.58538,-10.36109 z"
       id="path2295" /></g></svg>
