<?xml version="1.0" encoding="UTF-8" standalone="no"?>
<!-- Created with Inkscape (http://www.inkscape.org/) -->

<svg
   width="112.29792mm"
   height="123.78043mm"
   viewBox="0 0 112.29792 123.78043"
   version="1.1"
   id="svg5"
   xml:space="preserve"
   xmlns:inkscape="http://www.inkscape.org/namespaces/inkscape"
   xmlns:sodipodi="http://sodipodi.sourceforge.net/DTD/sodipodi-0.dtd"
   xmlns="http://www.w3.org/2000/svg"
   xmlns:svg="http://www.w3.org/2000/svg"><sodipodi:namedview
     id="namedview7"
     pagecolor="#505050"
     bordercolor="#eeeeee"
     borderopacity="1"
     inkscape:showpageshadow="0"
     inkscape:pageopacity="0"
     inkscape:pagecheckerboard="0"
     inkscape:deskcolor="#505050"
     inkscape:document-units="mm"
     showgrid="false" /><defs
     id="defs2" /><g
     inkscape:label="Layer 1"
     inkscape:groupmode="layer"
     id="layer1"
     transform="translate(-116.60469,358.55144)"><path
       style="fill:#020202;stroke:none;stroke-width:0.264583"
       d="m 154.2125,-335.00973 c 2.33521,-3.25091 5.17313,-6.32283 7.17656,-9.78958 0.82391,-1.42542 1.28058,-2.86028 1.43166,-4.49792 0.99483,-10.77185 -15.18788,-12.87717 -17.42705,-2.38125 -0.29527,1.38446 -0.23918,2.86954 0.12965,4.23333 0.6051,2.23708 1.99839,3.99989 3.36391,5.82084 1.62666,2.16881 3.16733,4.95908 5.32527,6.61458 m -1.32292,-21.61622 c 8.16689,-1.13795 10.29653,12.06857 2.11667,13.10055 -8.79713,1.10985 -10.99661,-11.86325 -2.11667,-13.10055 m 0.26458,2.70055 c -5.18186,0.76901 -3.91265,8.56398 1.32292,7.74663 4.88368,-0.76243 3.49912,-8.46222 -1.32292,-7.74663 m 16.93334,8.33234 c 2.56619,6.77037 10.8278,11.4927 5.36548,19.31458 -0.81835,1.17184 -1.69942,2.40824 -2.74346,3.39063 -3.16706,2.98053 -6.22538,0.82339 -9.76577,1.84521 -2.96307,0.8554 -3.92033,4.27011 -6.87917,5.31997 -3.27448,1.16179 -6.50319,-0.7366 -9.78958,-0.15001 -2.63578,0.47069 -4.54792,3.0943 -3.75709,5.73378 0.81148,2.70801 3.8915,8.1624 7.19667,7.82664 2.47306,-0.25135 4.45294,-2.38178 6.87917,-2.92814 1.49436,-0.33655 4.50638,0.56515 5.67266,-0.16696 1.18243,-0.74242 1.93199,-3.80814 2.91703,-4.99506 3.18453,-3.83752 8.87228,-5.2123 13.37072,-2.96175 5.18928,2.59636 8.12165,9.08341 5.96265,14.60235 -0.67918,1.7362 -3.53351,4.29154 -3.37185,6.08542 0.36248,4.02537 6.78101,5.86793 6.63443,10.31875 -0.14605,4.42277 -6.27618,6.48943 -8.9117,9.28423 -2.53021,2.6834 -2.55852,7.0649 -4.10421,10.29493 -1.07183,2.2397 -3.18559,3.7973 -4.17857,6.08542 -1.19327,2.74929 -0.9017,5.32606 -3.67241,7.23556 -3.0816,2.12381 -6.36244,-0.32279 -7.02469,-3.53139 -0.80989,-3.92298 -0.64558,-8.79872 -2.3794,-12.43542 -2.13386,-4.47543 -6.61088,-7.63058 -8.67516,-12.17083 -1.66925,-3.67162 -1.46076,-9.87028 -4.69952,-12.55924 -1.77007,-1.46923 -4.24472,-1.64121 -6.06081,-3.13822 -5.24722,-4.32515 -8.40706,-12.18248 -16.13959,-9.61443 -1.13874,0.37835 -3.40794,0.67363 -4.00079,1.83753 -1.19396,2.34368 -1.16705,6.33227 -1.28045,8.92228 -0.35944,8.20816 1.34289,16.51344 4.49056,24.07708 2.55,6.12748 6.4307,11.9671 11.1097,16.66875 23.26084,23.37355 62.5168,22.1615 83.34242,-3.96875 4.03172,-5.05857 7.12999,-10.80347 9.17337,-16.93333 2.11164,-6.33545 3.57664,-13.70569 2.73394,-20.37292 -1.79467,10e-4 -4.56909,-0.15319 -6.06055,0.96652 -1.93913,1.45574 -2.48496,4.2 -4.52279,5.77268 -2.8276,2.18176 -7.69911,2.68208 -11.11249,1.74652 -4.04443,-1.10861 -3.77085,-4.2082 -4.82204,-7.42712 -0.56065,-1.71768 -2.20212,-2.55191 -3.21124,-3.96902 -1.43272,-2.01189 -1.44331,-4.87442 -0.67046,-7.14375 1.14935,-3.37343 5.04957,-5.83882 7.6454,-8.0899 1.36631,-1.18454 2.99138,-2.4122 3.14987,-4.34551 0.47678,-5.80999 -8.00735,-4.09284 -9.88007,-8.99584 -1.74864,-4.57808 3.66765,-8.31109 4.61354,-12.43541 -10.87015,-5.07511 -20.30598,-8.99583 -32.54375,-8.99583 m -23.01875,5.82083 h -0.26459 l -8.46666,5.55625 c 0.38126,1.60893 1.17634,3.09007 1.2991,4.7625 0.42175,5.75045 -3.30861,9.6893 -6.55717,14.02291 -0.93609,1.24857 -3.07154,5.38798 -4.79896,5.38798 -2.19466,0 -3.62622,-4.67387 -5.55339,-5.65256 l -3.96875,10.84792 c 2.29571,-0.33788 4.53179,-1.66608 6.87917,-1.55999 6.18172,0.2794 9.1858,7.1808 13.49375,10.73336 2.78394,2.29578 6.32275,2.30875 8.3947,5.64329 2.27065,3.65469 1.95527,8.4328 4.01558,12.17084 2.30346,4.17882 6.30026,7.34165 8.41957,11.64166 1.52294,3.09034 1.60867,7.20857 2.16773,10.58333 0.20135,1.21524 0.17277,3.26232 1.38218,3.96108 3.24723,1.8759 3.81926,-3.85233 4.47808,-5.54858 0.98478,-2.53656 3.30173,-4.18994 4.42992,-6.61458 1.73963,-3.73935 1.71899,-8.05206 4.81621,-11.10218 1.92378,-1.89415 7.39563,-4.32938 7.80441,-7.15513 0.41248,-2.85326 -4.36192,-6.16241 -5.69172,-8.4656 -1.71635,1.31656 -3.1869,5.41178 -5.30198,5.88645 -1.5756,0.35374 -3.15357,-2.74135 -3.92483,-3.76979 -2.11826,-2.82416 -4.59872,-5.63218 -6.30079,-8.73125 -0.74877,-1.36339 -0.83344,-3.80814 -1.82906,-4.89108 -1.07818,-1.17317 -4.30742,-0.8255 -5.66209,-0.3728 -3.73353,1.24777 -6.62701,4.42621 -10.58227,1.57586 -5.40544,-3.8952 -9.14479,-13.74617 -1.32398,-17.16802 3.30439,-1.44542 6.67729,0.4826 10.05417,-0.022 3.04112,-0.45429 4.17274,-4.00156 6.87917,-5.22261 2.5773,-1.16285 5.06703,0.13652 7.67291,-0.46196 3.80815,-0.87498 6.25978,-6.40504 5.41549,-9.94992 -0.43709,-1.83515 -1.92325,-3.51923 -2.99693,-5.02709 -0.8718,-1.22438 -1.70286,-2.47684 -2.57096,-3.70416 -0.6223,-0.88014 -1.33429,-2.58938 -2.51804,-2.7812 -1.74783,-0.28316 -2.48285,1.33633 -3.30649,2.51661 -1.88516,2.70116 -3.91981,5.30252 -5.89571,7.9375 -0.67628,0.90144 -1.71927,2.98847 -2.95434,3.15913 -1.02976,0.14234 -1.80922,-1.14565 -2.33654,-1.83621 -1.60946,-2.1082 -3.14801,-4.27223 -4.79689,-6.35 m -18.52083,26.19375 c 2.17532,-3.02842 4.6048,-5.89942 6.68099,-8.99584 0.94086,-1.40361 1.69201,-3.05461 1.77509,-4.7625 0.0762,-1.56845 -0.0873,-3.03715 -0.68448,-4.49791 -4.1775,-10.22215 -19.24103,-4.23254 -16.52286,6.08541 0.61331,2.32807 2.27553,4.16984 3.64742,6.08542 1.37422,1.91876 2.97378,5.0038 5.10384,6.08542 m -2.11667,-21.3442 c 8.67278,-1.52374 11.34745,11.39084 2.64583,13.01829 -8.17329,1.52876 -10.85183,-11.57684 -2.64583,-13.01829 m 78.31666,0.17753 c -1.20782,2.58683 -5.52344,7.07866 -4.08173,10.0502 1.05569,2.17567 3.45308,1.97564 5.40465,2.67758 2.61276,0.93954 4.73022,3.76952 4.60401,6.5868 -0.35004,7.80997 -12.74021,8.79422 -11.15827,17.4625 0.37783,2.06878 2.91121,3.10198 3.76846,5.02709 0.72734,1.6338 0.263,3.89995 1.5367,5.23213 2.42253,2.53445 9.30989,1.25598 11.4808,-1.04775 1.6764,-1.77906 2.11746,-4.07696 4.32038,-5.47211 1.35282,-0.85646 5.83565,-0.40852 6.45398,-1.70683 0.46461,-0.97605 -0.0979,-2.85485 -0.26008,-3.88461 -0.54928,-3.48694 -1.43828,-6.88578 -2.22515,-10.31875 -0.71437,0.69982 -1.51871,2.21298 -2.64292,2.21298 -1.34382,0 -2.51275,-2.33998 -3.21151,-3.27131 -2.48127,-3.30835 -5.73194,-6.56617 -6.23888,-10.84792 -0.21352,-1.80393 1.60655,-4.5712 0.79349,-6.08542 -1.2827,-2.38918 -5.91397,-5.99096 -8.54393,-6.61458 m -78.05208,2.55402 c -4.60446,1.4441 -2.55272,8.84767 2.11667,7.55492 5.10169,-1.41261 2.96148,-9.14771 -2.11667,-7.55492 m 94.98541,20.72931 c 1.70815,-0.8673 2.80485,-2.99058 3.93515,-4.49791 1.11654,-1.48855 2.32331,-2.95672 2.88555,-4.7625 3.32369,-10.67329 -15.17968,-11.92927 -13.27203,-1.05834 0.22066,1.2581 0.64796,2.37517 1.35811,3.43959 1.58035,2.36881 3.43164,4.56618 5.09322,6.87916 m 0,-17.04551 c 7.27419,-0.0516 7.21942,11.2268 0,11.20378 -7.20169,-0.0233 -7.23212,-11.15272 0,-11.20378 m -1.05701,2.95434 c -3.45757,1.33799 -1.30042,6.65294 2.11138,5.31971 3.46234,-1.35308 1.34435,-6.65692 -2.11138,-5.31971 m -46.56798,37.37451 c 2.1754,-3.02842 4.60401,-5.89968 6.68099,-8.99584 0.90461,-1.34858 1.64095,-2.85829 1.76186,-4.49791 0.11298,-1.53379 0.001,-3.06123 -0.57335,-4.49792 -4.22328,-10.55767 -19.45667,-4.49024 -16.55842,6.08542 0.60722,2.21562 2.21192,4.01928 3.56314,5.82083 1.43166,1.90923 2.97127,4.99136 5.12578,6.08542 m -2.11667,-21.3442 c 8.64394,-1.51924 11.34798,11.37999 2.64583,13.01829 -8.21928,1.54755 -10.84633,-11.57711 -2.64583,-13.01829 m 0.26458,2.73155 c -4.77176,1.49675 -2.4503,8.94424 2.38125,7.51496 4.91543,-1.45388 2.47756,-9.03922 -2.38125,-7.51496 z"
       id="path2285" /></g></svg>
