<?xml version="1.0" encoding="UTF-8" standalone="no"?>
<!-- Created with Inkscape (http://www.inkscape.org/) -->

<svg
   width="135.66846mm"
   height="118.28813mm"
   viewBox="0 0 135.66846 118.28813"
   version="1.1"
   id="svg5"
   xml:space="preserve"
   xmlns:inkscape="http://www.inkscape.org/namespaces/inkscape"
   xmlns:sodipodi="http://sodipodi.sourceforge.net/DTD/sodipodi-0.dtd"
   xmlns="http://www.w3.org/2000/svg"
   xmlns:svg="http://www.w3.org/2000/svg"><sodipodi:namedview
     id="namedview7"
     pagecolor="#505050"
     bordercolor="#eeeeee"
     borderopacity="1"
     inkscape:showpageshadow="0"
     inkscape:pageopacity="0"
     inkscape:pagecheckerboard="0"
     inkscape:deskcolor="#505050"
     inkscape:document-units="mm"
     showgrid="false" /><defs
     id="defs2" /><g
     inkscape:label="Layer 1"
     inkscape:groupmode="layer"
     id="layer1"
     transform="translate(649.80031,344.36913)"><path
       style="fill:#020202;stroke:none;stroke-width:0.264583"
       d="m -584.84591,-344.1799 c -3.28533,0.4472 -6.41958,1.49482 -9.26041,3.22522 -2.51884,1.53426 -4.6736,3.54547 -6.4143,5.9227 -11.91683,16.27399 2.0791,38.86146 21.76013,36.43682 3.06996,-0.37835 6.09679,-1.43536 8.73125,-3.04932 16.92169,-10.36611 13.41887,-37.00073 -6.08542,-41.99218 -2.77653,-0.71059 -5.88592,-0.93056 -8.73125,-0.54324 m -46.03749,16.93701 c -14.25652,2.24391 -16.39787,22.77557 -2.91042,27.91219 2.49695,0.95118 5.30299,1.11575 7.9375,0.73184 14.97594,-2.18202 15.49638,-23.99215 1.5875,-28.22062 -2.07103,-0.62963 -4.47469,-0.76025 -6.61458,-0.42341 m 93.13332,0 c -14.25654,2.24391 -16.39781,22.77557 -2.91041,27.91219 2.49687,0.95118 5.30304,1.11575 7.9375,0.73184 14.97594,-2.18202 15.49638,-23.99215 1.5875,-28.22062 -2.07116,-0.62963 -4.47464,-0.76025 -6.61459,-0.42341 m -48.68333,37.83142 c -4.71752,0.61992 -9.15431,1.28138 -13.49375,3.39593 -15.53686,7.57158 -19.27992,24.56735 -17.77206,40.41272 0.54769,5.75495 -1.60972,12.49495 3.22104,16.90555 4.01241,3.66342 11.14187,2.40903 16.13852,2.40903 h 27.25209 c 5.33426,0 10.85003,0.37968 16.13958,-0.37782 1.42452,-0.204 2.92259,-0.40826 4.23333,-1.03188 5.19959,-2.47359 4.49792,-8.90958 4.49792,-13.67155 v -14.55208 c 0,-3.8616 -0.34555,-7.69329 -1.58856,-11.37708 -5.55493,-16.46211 -22.01413,-24.2951 -38.62811,-22.11282 m -39.15833,54.39198 c 0,-17.66252 -2.28526,-36.33496 11.37708,-50.00625 -2.56619,-3.32502 -7.68984,-4.23307 -11.64166,-4.23333 -7.11764,-5.3e-4 -13.74899,-0.0696 -19.02611,5.55731 -4.82539,5.14509 -4.78639,11.40327 -4.78639,17.99061 v 16.13958 c 0,3.97854 -0.93197,9.27735 2.16566,12.38673 3.70108,3.71475 10.80279,2.42993 15.56142,2.42993 2.12164,0 4.25686,0.12409 6.35,-0.26458 m 75.93542,-50.27083 v 0.26458 c 13.68583,13.6951 11.37708,32.30298 11.37708,50.00625 2.09312,0.38867 4.2283,0.26458 6.35,0.26458 4.57993,0 11.39904,1.20809 15.07066,-2.16561 3.40731,-3.13081 2.65642,-7.94914 2.65642,-12.12189 v -16.93333 c 0,-5.92137 0.0849,-11.43449 -3.67771,-16.40416 -4.57808,-6.04653 -11.00058,-6.87917 -18.01812,-6.87917 -5.09085,0 -9.72767,0.5334 -13.75833,3.96875 z"
       id="path2279" /></g></svg>
