<?xml version="1.0" encoding="UTF-8" standalone="no"?>
<!-- Created with Inkscape (http://www.inkscape.org/) -->

<svg
   width="122.70593mm"
   height="131.61539mm"
   viewBox="0 0 122.70593 131.61539"
   version="1.1"
   id="svg5"
   xml:space="preserve"
   xmlns:inkscape="http://www.inkscape.org/namespaces/inkscape"
   xmlns:sodipodi="http://sodipodi.sourceforge.net/DTD/sodipodi-0.dtd"
   xmlns="http://www.w3.org/2000/svg"
   xmlns:svg="http://www.w3.org/2000/svg"><sodipodi:namedview
     id="namedview7"
     pagecolor="#505050"
     bordercolor="#eeeeee"
     borderopacity="1"
     inkscape:showpageshadow="0"
     inkscape:pageopacity="0"
     inkscape:pagecheckerboard="0"
     inkscape:deskcolor="#505050"
     inkscape:document-units="mm"
     showgrid="false" /><defs
     id="defs2" /><g
     inkscape:label="Layer 1"
     inkscape:groupmode="layer"
     id="layer1"
     transform="translate(643.20308,158.13931)"><path
       style="fill:#020202;stroke:none;stroke-width:0.264583"
       d="m -582.20007,-158.13931 c -1.03135,1.93636 -1.58221,6.51246 -3.49912,7.66556 -2.11349,1.27149 -5.77162,0.23662 -8.14255,0.80111 l 6.0534,5.86594 -1.55548,8.42156 7.40833,-4.05164 7.40833,4.05164 -1.55548,-8.42156 6.0534,-5.86594 c -2.35188,-0.55996 -6.05764,0.4531 -8.14255,-0.80111 -1.91691,-1.15294 -2.46804,-5.72931 -3.49912,-7.66556 h -0.52916 m -41.53958,14.2875 6.14441,6.08928 -1.38191,8.19822 c 1.90896,-0.89244 5.32579,-4.43735 7.40833,-4.16393 2.75643,0.36187 4.46352,3.92501 7.40833,3.89935 -0.31459,-2.33442 -2.29711,-5.62311 -1.83436,-7.92708 0.37915,-1.88743 4.52438,-4.28133 6.06769,-5.30209 -0.81385,-2.45184 -6.03011,-0.5434 -7.90892,-1.59485 -1.88965,-1.05757 -2.80485,-5.70447 -3.46816,-7.66556 -2.76939,0.87198 -2.01745,5.79109 -4.07934,7.51326 -1.70048,1.42021 -6.18252,0.31091 -8.35607,0.9534 m 71.17291,-8.46666 c -0.66331,1.96109 -1.57851,6.60799 -3.46816,7.66556 -1.87881,1.05145 -7.09507,-0.85699 -7.90892,1.59485 1.54331,1.02076 5.68854,3.41469 6.06769,5.30209 0.46275,2.30397 -1.51977,5.59266 -1.83436,7.92708 2.94481,0.0257 4.6519,-3.53748 7.40833,-3.89935 2.0836,-0.27358 5.50942,3.26594 7.40833,4.16393 l -1.38191,-8.19822 6.14441,-6.08928 c -2.17355,-0.64249 -6.65559,0.46681 -8.35607,-0.9534 -2.06189,-1.72217 -1.30995,-6.64128 -4.07934,-7.51326 m -31.48542,21.29049 c -11.53451,2.17593 -8.04783,20.56183 3.43959,18.4986 12.50315,-2.24525 9.01382,-20.8481 -3.43959,-18.4986 m -27.51666,7.14375 c -8.84582,1.66872 -6.19205,15.28921 2.64583,13.81283 9.10696,-1.52135 6.36482,-15.51278 -2.64583,-13.81283 m 56.35625,0.0132 c -9.00272,1.92352 -5.81105,15.80858 3.175,13.74589 8.7794,-2.01533 5.57873,-15.6165 -3.175,-13.74589 m -28.04584,13.20429 c -8.29759,1.10226 -15.34848,6.41747 -16.98492,14.969067 -0.53578,2.799556 -0.89244,7.437437 1.65047,9.356195 2.24049,1.690158 6.0706,0.962554 8.71987,0.962554 7.23635,0 15.34319,1.036373 22.48958,-0.05636 5.54011,-0.847196 4.37145,-9.186597 3.01969,-12.908226 -2.70034,-7.43373 -10.71774,-13.40934 -18.89469,-12.32323 m -21.43125,16.556563 3.43959,-10.847913 c -5.36681,-3.24247 -11.75756,-4.35954 -17.19792,-0.39952 -2.48682,1.81028 -7.32988,7.331864 -4.17671,10.393358 1.31313,1.274762 3.55865,0.854075 5.23505,0.854075 h 12.69999 m 42.06875,-10.847913 3.43959,10.847913 h 12.69999 c 1.6764,0 3.92192,0.420687 5.23505,-0.854075 3.15013,-3.058583 -1.69148,-8.578318 -4.17698,-10.393358 -5.43242,-3.96716 -11.83772,-2.83898 -17.19765,0.39952 m -62.97083,40.216661 3.47663,6.614583 9.75254,17.462499 c 2.14683,-0.67945 4.0976,-2.908035 6.35,-3.094566 2.60826,-0.2159 5.91476,1.165225 8.46666,1.716087 6.26719,1.352815 12.52458,2.753784 18.78542,4.136496 3.43773,0.759354 7.02733,1.965325 10.58333,1.716087 4.23757,-0.296862 7.60228,-2.779183 11.1125,-4.897701 6.13648,-3.703638 12.16343,-7.595129 18.25625,-11.370469 4.32171,-2.677583 8.65743,-5.335058 12.96458,-8.036453 2.10371,-1.319477 4.50348,-2.408502 5.11149,-5.040313 1.81319,-7.845424 -7.30541,-7.399337 -11.99065,-5.328179 -6.25158,2.763573 -12.08643,6.775715 -17.99167,10.202862 -3.83381,2.225146 -7.39404,4.433359 -11.90625,4.869921 -4.88315,0.472546 -9.88351,-1.400175 -14.55208,-2.567252 -2.90116,-0.725487 -8.85534,-1.1684 -11.00058,-3.318404 -1.69069,-1.694392 0.34078,-3.729566 2.26933,-3.355181 5.61314,1.089025 11.19135,3.902075 16.93333,4.234127 2.86068,0.165364 5.411,-2.006335 5.18822,-5.002477 -0.42625,-5.729287 -10.23012,-5.945981 -14.44863,-7.32102 -6.25396,-2.03835 -13.42602,-6.109494 -20.10834,-5.61975 -3.83698,0.281252 -7.35991,2.5781 -10.58333,4.471193 -5.45359,3.203046 -10.94052,6.853502 -16.66875,9.52791 m -9.78979,-5.118629 c -1.78829,0.459846 -7.45863,3.173677 -7.79397,5.122598 -0.35491,2.062956 2.81427,5.909469 3.82543,7.668948 3.73562,6.500018 7.42161,13.033109 11.07554,19.579165 1.63015,2.920471 3.27747,5.836708 4.95278,8.73125 0.6018,1.040077 1.31961,2.485231 2.7571,2.196835 1.76873,-0.354806 7.83616,-3.436143 7.99729,-5.372893 0.18547,-2.228586 -2.89877,-5.762096 -3.94758,-7.671858 -3.65893,-6.661415 -7.52618,-13.207735 -11.23043,-19.843749 -1.53106,-2.742936 -3.12965,-5.450152 -4.64468,-8.202083 -0.67434,-1.224756 -1.33802,-2.633663 -2.99148,-2.208213 m -0.79354,4.268788 c 3.16836,0.181239 2.89965,5.132916 -0.26437,4.94321 -3.16746,-0.189706 -2.89875,-5.124185 0.26437,-4.94321 z"
       id="path2289" /></g></svg>
