<?xml version="1.0" encoding="UTF-8" standalone="no"?>
<!-- Created with Inkscape (http://www.inkscape.org/) -->

<svg
   width="142.11139mm"
   height="164.61774mm"
   viewBox="0 0 142.11139 164.61774"
   version="1.1"
   id="svg5"
   xml:space="preserve"
   xmlns:inkscape="http://www.inkscape.org/namespaces/inkscape"
   xmlns:sodipodi="http://sodipodi.sourceforge.net/DTD/sodipodi-0.dtd"
   xmlns="http://www.w3.org/2000/svg"
   xmlns:svg="http://www.w3.org/2000/svg"><sodipodi:namedview
     id="namedview7"
     pagecolor="#505050"
     bordercolor="#eeeeee"
     borderopacity="1"
     inkscape:showpageshadow="0"
     inkscape:pageopacity="0"
     inkscape:pagecheckerboard="0"
     inkscape:deskcolor="#505050"
     inkscape:document-units="mm"
     showgrid="false" /><defs
     id="defs2" /><g
     inkscape:label="Layer 1"
     inkscape:groupmode="layer"
     id="layer1"
     transform="translate(-323.52497,393.52956)"><path
       style="fill:#050505;stroke:none;stroke-width:0.321519"
       d="m 391.68699,-393.52957 v 17.36203 c 0,2.04216 0.66586,5.53572 -0.33052,7.3649 -0.8292,1.52282 -3.09655,2.42201 -4.49227,3.35239 -2.83451,1.88963 -5.58092,3.97085 -8.02543,6.35215 -7.72996,7.5303 -11.23259,17.50511 -12.55178,27.94322 h 56.58734 c -1.28607,-10.17736 -4.59322,-18.85613 -11.38981,-26.68576 -2.50206,-2.88241 -5.706,-5.27915 -8.86588,-7.395 -1.47095,-0.98507 -3.94086,-1.96416 -4.81379,-3.567 -1.03465,-1.89924 -0.33052,-5.55922 -0.33052,-7.68642 h 19.93418 v -17.04051 h -25.72152 m 22.82785,51.12152 v 5.78735 h -39.86836 v -5.78735 h 39.86836 m -56.90887,17.04051 v 5.46583 h 73.94938 v -5.46583 h -73.94938 m 0,11.25317 v 11.25316 h 73.94938 v -11.25316 h -73.94938 m -5.46582,17.04051 v 5.78734 h 5.46582 v -5.78734 h -5.46582 m 11.25316,0 v 5.78734 h 11.25317 v -5.78734 h -11.25317 m 17.04051,0 v 5.78734 h 28.29368 v -5.78734 h -28.29368 m 34.08102,0 v 5.78734 h 11.25317 v -5.78734 h -11.25317 m 17.04051,0 v 5.78734 h 5.46582 v -5.78734 h -5.46582 m -79.4152,11.57468 v 11.25317 h 5.46582 v -11.25317 h -5.46582 m 11.25316,0 v 11.25317 h 11.25317 v -11.25317 h -11.25317 m 17.04051,0 v 11.25317 h 28.29368 v -11.25317 h -28.29368 m 34.08102,0 v 11.25317 h 11.25317 v -11.25317 h -11.25317 m 17.04051,0 v 11.25317 h 5.46582 v -11.25317 h -5.46582 m -102.24305,17.04051 v 5.46582 h 130.53672 v -5.46582 H 329.3123 m 0,11.25317 v 17.0405 l 5.27182,-0.33052 0.51552,-4.17074 v -12.53924 h -5.78734 m 11.25316,0 v 12.53924 l 0.51553,4.17074 5.27182,0.33052 v -17.0405 h -5.78735 m 11.57469,0 v 17.0405 h 5.46582 v -17.0405 h -5.46582 m 11.25316,0 v 17.0405 h 5.46583 v -17.0405 h -5.46583 m 11.25317,0 v 12.53924 l 0.5154,4.17074 5.27194,0.33052 v -17.0405 h -5.78734 m 11.57469,0 v 17.0405 h 5.46582 v -17.0405 h -5.46582 m 11.25316,0 v 17.0405 h 5.46582 v -17.0405 h -5.46582 m 11.25317,0 v 17.0405 l 5.27194,-0.33052 0.5154,-4.17074 v -12.53924 h -5.78734 m 11.57468,0 v 17.0405 h 5.46583 v -17.0405 h -5.46583 m 11.25317,0 v 17.0405 h 5.46582 v -17.0405 h -5.46582 m 11.25316,0 v 17.0405 l 5.27195,-0.33052 0.5154,-4.17074 v -12.53924 h -5.78735 m 11.25317,0 v 12.53924 l 0.51539,4.17074 5.27195,0.33052 v -17.0405 h -5.78734 m -130.53672,28.29367 h 142.1114 l -0.51539,-5.45682 -6.87954,-0.33052 h -18.64811 -86.1671 -21.54177 l -7.84397,0.33052 z"
       id="path2287" /></g></svg>
