<?xml version="1.0" encoding="UTF-8" standalone="no"?>
<!-- Created with Inkscape (http://www.inkscape.org/) -->

<svg
   width="181.48457mm"
   height="136.79089mm"
   viewBox="0 0 181.48457 136.79089"
   version="1.1"
   id="svg5"
   xml:space="preserve"
   xmlns:inkscape="http://www.inkscape.org/namespaces/inkscape"
   xmlns:sodipodi="http://sodipodi.sourceforge.net/DTD/sodipodi-0.dtd"
   xmlns="http://www.w3.org/2000/svg"
   xmlns:svg="http://www.w3.org/2000/svg"><sodipodi:namedview
     id="namedview7"
     pagecolor="#505050"
     bordercolor="#eeeeee"
     borderopacity="1"
     inkscape:showpageshadow="0"
     inkscape:pageopacity="0"
     inkscape:pagecheckerboard="0"
     inkscape:deskcolor="#505050"
     inkscape:document-units="mm"
     showgrid="false" /><defs
     id="defs2" /><g
     inkscape:label="Layer 1"
     inkscape:groupmode="layer"
     id="layer1"
     transform="translate(208.57323,353.68358)"><path
       style="fill:#010101;stroke:none;stroke-width:0.352778"
       d="m -189.77311,-352.87257 c -8.68013,1.24347 -16.03363,7.27689 -17.83297,16.07669 -1.82108,8.90622 -0.51147,19.1463 -0.51147,28.22222 v 54.32777 c 0,10.18399 -1.98897,22.26451 5.6763,30.3336 9.54994,10.05311 28.35846,6.35529 40.89037,6.35529 h 78.66944 24.694444 c 4.769202,0 9.77018,0.44979 14.463888,-0.51153 8.884709,-1.81962 15.044914,-9.37577 16.126884,-18.18569 1.079852,-8.7951 0.100894,-18.29929 0.100894,-27.16389 v -53.62222 c 0,-10.46127 1.948039,-22.82507 -6.704189,-30.63042 -6.019094,-5.43017 -13.215055,-5.35291 -20.812477,-5.35291 h -20.813889 -76.199995 c -12.22234,0 -25.65686,-1.58094 -37.74723,0.15109 m 36.33611,29.93591 c 19.57035,-2.40453 27.55265,24.28558 11.99445,34.69746 -2.28565,1.52965 -5.03273,2.49132 -7.76111,2.84692 -19.46945,2.53612 -29.17254,-23.91269 -12.7,-34.57646 2.54035,-1.64465 5.47158,-2.59962 8.46666,-2.96792 m 55.033338,3.91866 c 5.159727,-1.16099 11.642724,-0.139 16.933333,-0.139 8.53193,0 18.423113,-1.39841 26.81111,0.11607 5.219348,0.94262 6.185959,8.32732 1.410759,10.6179 -3.283656,1.57551 -8.766175,0.55492 -12.34687,0.55492 h -22.577777 c -3.240617,0 -7.469011,0.71473 -10.58298,-0.22895 -5.306483,-1.60831 -5.095873,-9.69504 0.352425,-10.92094 m 0.705555,29.9533 c 7.438319,-1.11125 15.758936,-0.10619 23.283333,-0.10619 6.205714,0 13.293372,-0.95779 19.402778,0.11607 5.217936,0.91687 6.966655,8.35307 1.758597,10.72162 -3.106914,1.41323 -8.267347,0.4512 -11.636375,0.4512 h -23.988889 c -3.118908,0 -7.665861,0.83115 -10.58298,-0.35595 -5.371747,-2.18616 -3.485087,-10.04288 1.763536,-10.82675 m -68.791663,11.28324 c 4.82282,-0.57643 9.96032,-0.10054 14.81666,-0.10054 9.01771,0 18.48697,-1.24707 26.10556,4.55048 5.62504,4.28061 7.76111,10.86168 7.76111,17.67452 0,3.70876 -0.62054,7.239 -4.93889,7.99783 -4.57094,0.80327 -9.82345,0.11606 -14.46389,0.11606 h -28.92777 c -4.66655,0 -12.412,1.47285 -16.57537,-0.85266 -3.52323,-1.96815 -2.86675,-6.30979 -2.82604,-9.73067 0.12587,-10.58192 9.01132,-18.45451 19.04863,-19.65502 m 67.73333,19.08846 c 5.244041,-1.20509 11.902369,-0.139 17.286111,-0.139 8.55098,0 18.790708,-1.55822 27.163888,0.12101 5.133975,1.02975 5.545667,8.33931 1.056922,10.49055 -3.395486,1.62736 -8.656461,0.67733 -12.345811,0.67733 h -22.224999 c -3.382434,0 -7.692672,0.70379 -10.936111,-0.35031 -4.8828,-1.58714 -5.45571,-9.54546 0,-10.79958 z"
       id="path2283" /></g></svg>
