<?xml version="1.0" encoding="UTF-8" standalone="no"?>
<!-- Created with Inkscape (http://www.inkscape.org/) -->

<svg
   width="94.618927mm"
   height="107.20117mm"
   viewBox="0 0 94.618927 107.20117"
   version="1.1"
   id="svg5"
   xml:space="preserve"
   xmlns:inkscape="http://www.inkscape.org/namespaces/inkscape"
   xmlns:sodipodi="http://sodipodi.sourceforge.net/DTD/sodipodi-0.dtd"
   xmlns="http://www.w3.org/2000/svg"
   xmlns:svg="http://www.w3.org/2000/svg"><sodipodi:namedview
     id="namedview7"
     pagecolor="#505050"
     bordercolor="#eeeeee"
     borderopacity="1"
     inkscape:showpageshadow="0"
     inkscape:pageopacity="0"
     inkscape:pagecheckerboard="0"
     inkscape:deskcolor="#505050"
     inkscape:document-units="mm"
     showgrid="false" /><defs
     id="defs2" /><g
     inkscape:label="Layer 1"
     inkscape:groupmode="layer"
     id="layer1"
     transform="translate(412.07298,338.97198)"><path
       style="fill:#020202;stroke:none;stroke-width:0.264583"
       d="m -404.19712,-338.33457 c -9.84163,2.09968 -7.67292,14.42884 -7.67292,21.82342 v 56.88541 13.75833 c 0,3.36471 -0.1855,6.57649 1.73244,9.52474 4.12993,6.34894 14.28146,4.2336 20.75714,4.2336 h 43.39167 13.49375 c 2.39421,0 5.06915,0.3302 7.40833,-0.23813 9.64406,-2.34262 7.40833,-14.5915 7.40833,-21.98687 v -57.15 -13.49375 c 0,-3.39833 0.12727,-6.60011 -1.91056,-9.52399 -4.24074,-6.08513 -14.43143,-3.96976 -20.8436,-3.96976 h -43.12709 c -6.47382,0 -14.31263,-1.21237 -20.63749,0.137 m 35.98333,10.78667 c 3.56129,-0.43738 7.37949,-0.0945 10.84791,0.75229 3.14246,0.76713 6.04388,2.1517 8.73125,3.93552 17.3871,11.54112 16.61081,37.69809 -0.79375,48.76297 -3.38878,2.1545 -7.39457,3.5687 -11.37708,4.07723 -24.56788,3.13557 -41.69727,-24.61393 -27.90851,-45.16835 2.28944,-3.41286 5.38321,-6.19098 8.85851,-8.35421 3.50308,-2.1807 7.552,-3.50322 11.64167,-4.00545 m -3.70417,25.58883 h 14.2875 c -0.40402,-5.11889 -1.08135,-10.36717 -3.25676,-15.08125 -0.70141,-1.5195 -1.89918,-4.16269 -3.88699,-4.16269 -1.98781,0 -3.18558,2.64319 -3.88699,4.16269 -2.17541,4.71408 -2.85274,9.96236 -3.25676,15.08125 m -3.175,-16.93333 c -5.96609,3.65204 -11.58108,9.47552 -11.90625,16.93333 h 8.73125 l 1.68645,-11.37708 1.48855,-5.55625 m 20.37292,0 c 1.53696,5.63113 3.31734,11.00852 3.43958,16.93333 h 8.73125 c -0.30401,-6.97151 -5.84809,-14.28697 -12.17083,-16.93333 m -32.27917,23.28333 c 0.28866,6.61855 5.72373,14.89234 12.17083,16.93333 -1.79652,-5.52079 -3.31893,-11.08366 -3.43958,-16.93333 h -8.73125 m 15.08125,0 c 0.40905,5.18186 1.04775,10.62117 3.37503,15.34583 0.71384,1.44886 1.82086,4.02458 3.76872,4.02458 1.94786,0 3.05488,-2.57572 3.76872,-4.02458 2.32728,-4.72466 2.96598,-10.16397 3.37503,-15.34583 h -14.2875 m 20.6375,0 c -0.12277,5.94651 -1.89627,11.27972 -3.43958,16.93333 6.44551,-2.04046 11.88243,-10.32033 12.17083,-16.93333 h -8.73125 m 9.525,37.04167 v 12.17083 h -46.0375 v -12.17083 z"
       id="path2281" /></g></svg>
