<?xml version="1.0" encoding="UTF-8" standalone="no"?>
<!-- Created with Inkscape (http://www.inkscape.org/) -->

<svg
   width="136.2999mm"
   height="135.7571mm"
   viewBox="0 0 136.2999 135.7571"
   version="1.1"
   id="svg5"
   xml:space="preserve"
   xmlns:inkscape="http://www.inkscape.org/namespaces/inkscape"
   xmlns:sodipodi="http://sodipodi.sourceforge.net/DTD/sodipodi-0.dtd"
   xmlns="http://www.w3.org/2000/svg"
   xmlns:svg="http://www.w3.org/2000/svg"><sodipodi:namedview
     id="namedview7"
     pagecolor="#505050"
     bordercolor="#eeeeee"
     borderopacity="1"
     inkscape:showpageshadow="0"
     inkscape:pageopacity="0"
     inkscape:pagecheckerboard="0"
     inkscape:deskcolor="#505050"
     inkscape:document-units="mm"
     showgrid="false" /><defs
     id="defs2" /><g
     inkscape:label="Layer 1"
     inkscape:groupmode="layer"
     id="layer1"
     transform="translate(394.59342,-32.895606)"><path
       style="fill:#020202;stroke:none;stroke-width:0.264583"
       d="m -351.58703,33.160891 c -3.55838,0.472944 -5.80628,3.30512 -8.20208,5.70079 l -13.75833,13.758333 c -2.23719,2.238031 -4.64563,4.757631 -4.15351,8.202083 0.40619,2.842947 2.49526,4.691856 4.41809,6.614583 l 8.20209,8.202083 c 3.58748,3.587485 9.00509,11.764961 14.81666,10.992378 3.58643,-0.476514 5.78882,-3.287448 8.20208,-5.700712 l 13.22917,-13.229166 c 2.21298,-2.212975 5.04878,-4.722812 4.68207,-8.202083 -0.62257,-5.906214 -8.68971,-11.415897 -12.61957,-15.345833 -3.565,-3.564942 -9.04213,-11.75994 -14.81667,-10.992456 m 56.62084,0.0037 c -2.82708,0.533325 -4.99693,2.624589 -5.60414,5.432533 -0.58103,2.68806 -0.2167,5.726932 -0.2167,8.466666 v 15.61039 c 0,3.12711 -0.54319,6.811697 1.38219,9.514681 2.19789,3.085835 5.82638,2.920735 9.20114,2.920735 h 16.93334 c 2.90433,0 6.14733,0.399256 8.99583,-0.216694 2.80802,-0.607219 4.89929,-2.777066 5.43243,-5.604139 0.49106,-2.602177 0.12382,-5.558631 0.12382,-8.202083 V 44.947097 c 0,-3.266122 0.4916,-6.798415 -1.72746,-9.513566 -2.25558,-2.759618 -5.94334,-2.392683 -9.12046,-2.392683 h -16.66875 c -2.81013,0 -5.96556,-0.398021 -8.73124,0.123717 m 10.58333,23.159615 v 4.7625 h 14.02291 v 4.7625 h -12.43541 c -1.56395,0 -3.88541,0.42201 -5.23505,-0.531548 -2.21906,-1.567921 -1.14697,-7.885827 -1.11389,-10.316368 0.0145,-1.081591 0.13017,-2.186173 1.11389,-2.836704 1.18666,-0.784913 2.82734,-0.60288 4.17671,-0.60288 h 8.73125 v -4.497916 h -14.02291 v -4.7625 h 12.43541 c 1.56131,0 3.89917,-0.422063 5.26283,0.491596 2.19789,1.472591 1.11839,7.978854 1.08612,10.35632 -0.0143,1.053968 -0.11616,2.218346 -1.1139,2.826306 -1.05357,0.642064 -2.73076,0.348694 -3.91213,0.348694 h -8.99583 m -55.03333,8.466666 v 0.264584 l -3.175,3.175 h -0.26459 l -12.96458,-13.229166 h -0.26458 c -1.12342,2.042345 -0.79375,4.343585 -0.79375,6.614583 h -4.7625 c 0,-2.096294 -0.15743,-4.261459 0.0249,-6.35 0.20796,-2.382123 4.20132,-6.871017 6.85429,-5.548894 1.89971,0.946652 3.53854,3.266678 5.02709,4.755144 l 10.31875,10.318749 m -12.7,26.458332 c -6.97574,-0.569647 -9.51045,-7.603066 -14.81667,-10.952955 -1.47,-0.927894 -4.14136,-0.424127 -5.82083,-0.424127 -5.03373,0 -11.23614,-0.985573 -16.13958,0.139964 -2.87556,0.660136 -4.80233,3.101975 -5.21225,5.945452 -1.04946,7.279746 -0.0794,15.393988 -0.0794,22.754168 0,3.08239 -0.64988,7.04162 1.0569,9.78958 1.96787,3.16839 5.17036,3.175 8.4681,3.175 h 21.69583 c 3.46842,0 7.00379,0.4355 9.38424,-2.64689 1.89098,-2.44872 1.46368,-5.82904 1.46368,-8.73019 V 91.249178 m 4.7625,-0.529166 v 18.520828 c 0,2.70008 -0.60193,6.24655 0.64214,8.73125 1.83224,3.65813 5.32686,3.70417 8.88286,3.70417 h 20.6375 c 2.94534,0 6.4889,0.59134 8.98551,-1.30387 3.06996,-2.33071 2.65615,-5.84888 2.65615,-9.27946 V 89.926262 c 0,-3.293533 0.27358,-6.525948 -2.65615,-8.7503 -2.21774,-1.683543 -5.04349,-1.303866 -7.6626,-1.303866 h -15.875 c -6.69951,0 -9.28317,9.025201 -15.61041,10.847916 m 51.85833,-10.707952 c -2.84718,0.653521 -4.80563,3.123936 -5.21229,5.945452 -1.07368,7.448021 -0.0794,15.753028 -0.0794,23.283328 0,3.07446 -0.60192,6.85853 1.27,9.52474 2.18096,3.10621 5.40438,2.91068 8.78417,2.91068 h 18.25625 c 2.71912,0 6.10446,0.5379 8.73125,-0.20876 2.71912,-0.77258 4.55162,-3.12843 4.94771,-5.87666 1.08584,-7.53242 0.0794,-15.932145 0.0794,-23.547912 0,-3.067579 0.60616,-6.93658 -1.42716,-9.523941 -2.3585,-3.001698 -5.74331,-2.646891 -9.15617,-2.646891 h -17.4625 c -2.76146,0 -6.03462,-0.478896 -8.73125,0.139964 m -33.3375,9.385035 -1.5875,8.995833 h 6.35 v -9.260416 h 4.7625 v 9.260416 h 4.49792 v 4.762502 h -4.49792 v 9.26041 h -4.7625 v -9.26041 c -2.65933,0 -8.57224,1.10384 -10.7569,-0.53155 -1.13559,-0.85037 -0.93768,-2.47306 -0.72205,-3.701785 0.58897,-3.35624 1.02182,-7.129198 2.21853,-10.31875 l 4.49792,0.79375 m -51.32916,23.018745 v -4.7625 c 2.97206,0 6.92459,0.69189 9.7855,-0.11482 1.61544,-0.45535 2.19655,-2.32649 1.00177,-3.52902 -1.94844,-1.96082 -8.37499,0.84217 -8.37499,-3.23532 0,-4.077496 6.42655,-1.2745 8.37499,-3.235327 1.19478,-1.202531 0.61367,-3.073664 -1.00177,-3.529012 -2.86091,-0.806715 -6.81344,-0.114829 -9.7855,-0.114829 v -4.7625 c 3.99002,0 10.10345,-1.177925 13.49269,1.267089 2.22223,1.603111 3.34751,4.51485 2.73129,7.199577 -0.23998,1.045898 -1.14353,2.11164 -1.14353,3.175002 0,1.93463 1.55205,3.39725 1.24434,5.55625 -1.12131,7.86553 -10.61019,6.08541 -16.32479,6.08541 m 109.80207,-23.283328 v 4.7625 h -14.02291 v 4.497916 h 8.73125 c 1.2102,0 2.85273,-0.277019 3.95711,0.311944 2.49607,1.331388 1.36763,8.097048 1.3335,10.535968 -0.0148,1.05781 -0.15346,2.08783 -1.08612,2.75088 -1.22158,0.86809 -3.57002,0.42412 -4.99824,0.42412 h -12.7 v -4.7625 h 14.02291 v -4.49791 h -8.73125 c -1.20438,0 -2.8575,0.28099 -3.95419,-0.31195 -0.98161,-0.53075 -1.27424,-1.55786 -1.32689,-2.59847 -0.12144,-2.398446 -1.09326,-9.141882 1.07659,-10.651594 1.31419,-0.9144 3.7383,-0.460904 5.26283,-0.460904 h 12.43541 m -117.73957,37.422668 c -2.85647,0.45984 -5.07679,2.35717 -5.84003,5.17525 -0.70563,2.60535 -0.24539,5.78273 -0.24539,8.46666 v 16.40417 c 0,3.14722 -0.484,6.57198 1.53156,9.24983 2.19965,2.92232 5.80504,2.65642 9.05177,2.65642 h 16.93334 c 2.81013,0 5.96556,0.39793 8.73124,-0.12383 2.82708,-0.53313 4.99693,-2.6244 5.60414,-5.43242 0.58129,-2.68817 0.2167,-5.72691 0.2167,-8.46667 v -15.875 c 0,-3.16309 0.5199,-6.83604 -1.56845,-9.50118 -2.29738,-2.93185 -5.94492,-2.66965 -9.27947,-2.66965 -8.08074,0 -17.16344,-1.16708 -25.13541,0.11642 m 46.56666,0.007 c -2.71515,0.48948 -5.04851,2.41485 -5.68087,5.16864 -0.58261,2.53894 -0.13996,5.60334 -0.13996,8.20208 v 16.40417 c 0,3.00963 -0.62918,6.66882 1.22714,9.26015 2.21244,3.08874 5.69833,2.91068 9.09161,2.91068 h 17.19791 c 2.80459,0 5.98117,0.41063 8.73125,-0.17701 2.60588,-0.55668 4.80695,-2.46036 5.41629,-5.11466 0.58261,-2.53894 0.13996,-5.60334 0.13996,-8.20208 V 138.3454 c 0,-3.05223 0.62389,-6.70534 -1.4261,-9.25645 -2.33469,-2.90539 -5.8047,-2.6498 -9.15723,-2.6498 h -16.66875 c -2.82046,0 -5.9518,-0.37835 -8.73125,0.12303 m 46.83125,-0.007 c -2.83633,0.45667 -5.10752,2.34526 -5.80946,5.17525 -0.66146,2.66753 -0.27596,5.73484 -0.27596,8.46666 v 16.13959 c 0,3.18717 -0.51011,6.80164 1.53167,9.51441 2.19949,2.92232 5.80496,2.65642 9.05166,2.65642 h 16.93334 c 2.81014,0 5.96556,0.39793 8.73125,-0.12383 2.84559,-0.53684 4.99268,-2.60932 5.64065,-5.43242 0.5887,-2.56381 0.18018,-5.58059 0.18018,-8.20208 v -16.13959 c 0,-3.21442 0.52758,-6.77862 -1.53167,-9.51441 -2.23388,-2.9681 -6.02245,-2.65642 -9.31625,-2.65642 -8.08064,0 -17.16352,-1.16708 -25.13541,0.11642 m -69.05625,16.28775 h -4.7625 v -2.38125 h -9.26041 v 4.7625 h 8.73125 c 1.18197,0 2.88131,-0.30189 3.9571,0.27199 2.43946,1.30095 1.33827,7.43452 1.33456,9.78217 -0.002,1.04722 0.0788,2.25822 -0.66516,3.10118 -0.98822,1.12025 -2.75987,0.86757 -4.09734,0.86757 h -9.78958 c -1.32077,-5.3e-4 -2.90597,0.12462 -3.77235,-1.09352 -0.66778,-0.93901 -0.46098,-2.31802 -0.46098,-3.40439 v -7.9375 c 0,-2.39898 -1.07347,-8.39365 0.64389,-10.21451 1.04759,-1.11072 2.73793,-0.89799 4.11861,-0.89799 h 9.26041 c 1.26868,0 2.83713,-0.21379 3.86451,0.70194 1.52796,1.36181 0.89799,4.60295 0.89799,6.44181 m 41.80417,16.93333 -4.49792,-1.05833 3.96875,-18.25625 h -7.67292 l 1.32292,3.96875 -4.7625,1.32291 c -0.52599,-2.27303 -3.27263,-6.78524 -1.69254,-8.96064 0.93028,-1.28032 2.6842,-1.09352 4.07379,-1.09352 h 9.78958 c 1.32504,5.3e-4 2.92868,-0.11827 3.80921,1.09352 1.11998,1.54199 -0.0677,4.39499 -0.42519,6.05023 -1.19089,5.51735 -1.92166,11.65463 -3.91318,16.93333 m 49.74166,-12.43542 v 0.26459 c 1.2999,1.20438 1.89918,2.99852 1.84071,4.7625 -0.24316,7.32419 -11.18553,9.09214 -16.11763,5.31098 -2.99587,-2.29712 -3.67612,-7.41257 -0.80433,-10.07348 -0.9189,-1.20862 -1.55575,-2.44687 -1.77271,-3.96875 -1.14088,-8.00286 10.5963,-10.18276 15.79166,-6.55532 3.2041,2.23679 4.04495,7.49591 1.0623,10.25948 m -10.31769,-6.72756 c -1.83833,0.53473 -2.50322,2.94614 -0.76597,4.05792 1.47505,0.94429 4.97681,0.89058 6.58178,0.27993 1.87033,-0.712 2.04152,-3.22554 0.25691,-4.17751 -1.33906,-0.71438 -4.63497,-0.57864 -6.07272,-0.16034 m -95.25105,9.3734 v 4.49791 h 9.26041 v -4.49791 h -9.26041 m 94.73247,0.19632 c -1.78065,0.72575 -1.56237,3.15648 0,3.98965 1.30889,0.69823 4.96226,0.65669 6.33439,0.11562 1.6256,-0.64135 2.18122,-3.04588 0.50429,-3.98965 -1.32265,-0.74454 -5.44248,-0.68448 -6.83868,-0.11562 z"
       id="path2301" /></g></svg>
