<?xml version="1.0" encoding="UTF-8" standalone="no"?>
<!-- Created with Inkscape (http://www.inkscape.org/) -->

<svg
   width="144.62259mm"
   height="134.35165mm"
   viewBox="0 0 144.62259 134.35165"
   version="1.1"
   id="svg5"
   xml:space="preserve"
   xmlns:inkscape="http://www.inkscape.org/namespaces/inkscape"
   xmlns:sodipodi="http://sodipodi.sourceforge.net/DTD/sodipodi-0.dtd"
   xmlns="http://www.w3.org/2000/svg"
   xmlns:svg="http://www.w3.org/2000/svg"><sodipodi:namedview
     id="namedview7"
     pagecolor="#505050"
     bordercolor="#eeeeee"
     borderopacity="1"
     inkscape:showpageshadow="0"
     inkscape:pageopacity="0"
     inkscape:pagecheckerboard="0"
     inkscape:deskcolor="#505050"
     inkscape:document-units="mm"
     showgrid="false" /><defs
     id="defs2" /><g
     inkscape:label="Layer 1"
     inkscape:groupmode="layer"
     id="layer1"
     transform="translate(437.08549,159.43391)"><path
       style="fill:#010101;stroke:none;stroke-width:0.282222"
       d="m -410.49421,-126.68918 c -7.01083,0 -18.01269,-2.16154 -23.37545,3.41206 -3.93062,4.08517 -3.15344,10.02228 -3.15344,15.2146 v 34.431111 c 0,5.097779 -0.62663,10.764237 3.39798,14.649308 5.44923,5.260057 16.18008,3.130691 23.13091,3.130691 v 20.884443 c 0,2.70256 -0.63613,6.298917 1.47142,8.406271 1.59887,1.599071 3.78468,1.471506 5.86635,1.471506 h 12.13556 50.8 13.54666 c 2.16013,0 4.48282,0.194169 6.1485,-1.471506 2.10763,-2.107354 1.4715,-5.703711 1.4715,-8.406271 V -55.85141 c 6.95085,0 17.68179,2.129366 23.13093,-3.130691 4.02449,-3.885071 3.39796,-9.551529 3.39796,-14.649308 v -34.431111 c 0,-5.19232 0.77724,-11.12943 -3.15355,-15.2146 -5.36279,-5.5736 -16.36466,-3.41206 -23.37534,-3.41206 v -22.29556 c 0,-2.82242 0.72898,-6.77031 -1.4715,-8.9708 -1.59879,-1.59898 -3.7846,-1.47142 -5.86627,-1.47142 h -12.13556 -50.8 -13.54666 c -2.16013,0 -4.48282,-0.19417 -6.14858,1.47142 -2.20046,2.20049 -1.47142,6.14841 -1.47142,8.9708 v 22.29556 m 81.84444,-23.14223 v 23.14223 h -72.24889 v -23.14223 h 72.24889 m -8.46667,41.86174 c 3.38243,-0.61073 7.28839,-0.0929 10.72445,-0.0929 1.5779,0 3.37057,-0.22578 4.79749,0.58985 3.69316,2.11045 3.12505,7.840411 -1.12861,8.855564 -3.35788,0.801229 -7.55904,0.150142 -11.00666,0.150142 -1.57452,0 -3.37453,0.228883 -4.79665,-0.589844 -3.73662,-2.150532 -2.95713,-8.124332 1.40998,-8.912862 m 8.46667,33.773816 v 39.511109 h -72.24889 v -39.511109 h 72.24889 m -58.13778,7.488202 c -4.4941,1.092482 -4.82176,7.453771 -0.56444,9.12114 2.96954,1.163037 7.56073,0.323991 10.72444,0.323991 h 23.42445 c 3.22269,0 8.70994,1.045351 11.57082,-0.589845 3.80182,-2.172546 3.03276,-8.110502 -1.41083,-8.912859 -2.94442,-0.531425 -6.32347,-0.09285 -9.31333,-0.09285 h -18.34444 c -4.98235,0 -11.2474,-1.025878 -16.08667,0.150424 m 0,15.239717 c -4.4354,1.058616 -4.89429,7.491589 -0.56444,9.088684 3.06719,1.131429 7.48651,0.356729 10.72444,0.356729 h 23.42445 c 3.28111,0 8.62104,1.008662 11.57082,-0.603956 3.89044,-2.126544 2.96418,-8.115299 -1.41083,-8.898748 -2.94724,-0.527473 -6.32121,-0.09285 -9.31333,-0.09285 h -18.06222 c -5.08197,0 -11.42774,-1.0287 -16.36889,0.150142 z"
       id="path2291" /></g></svg>
