<?xml version="1.0" encoding="UTF-8" standalone="no"?>
<!-- Created with Inkscape (http://www.inkscape.org/) -->

<svg
   width="135.263mm"
   height="127.59078mm"
   viewBox="0 0 135.263 127.59078"
   version="1.1"
   id="svg5"
   xml:space="preserve"
   xmlns:inkscape="http://www.inkscape.org/namespaces/inkscape"
   xmlns:sodipodi="http://sodipodi.sourceforge.net/DTD/sodipodi-0.dtd"
   xmlns="http://www.w3.org/2000/svg"
   xmlns:svg="http://www.w3.org/2000/svg"><sodipodi:namedview
     id="namedview7"
     pagecolor="#505050"
     bordercolor="#eeeeee"
     borderopacity="1"
     inkscape:showpageshadow="0"
     inkscape:pageopacity="0"
     inkscape:pagecheckerboard="0"
     inkscape:deskcolor="#505050"
     inkscape:document-units="mm"
     showgrid="false" /><defs
     id="defs2" /><g
     inkscape:label="Layer 1"
     inkscape:groupmode="layer"
     id="layer1"
     transform="translate(642.47023,-16.932224)"><path
       style="fill:#020202;stroke:none;stroke-width:0.264583"
       d="m -605.79494,32.612506 c 0,2.319866 1.01256,7.73721 -0.27199,9.678987 -0.72073,1.089554 -3.05117,1.553633 -4.22592,1.962679 -2.99482,1.042458 -5.98647,2.083593 -8.99584,3.086893 -1.5276,0.509059 -3.34137,0.855927 -4.36216,2.216415 -1.33538,1.779587 -0.9295,4.521464 -0.9295,6.602941 0,5.38189 0.63658,10.53121 1.05833,15.874999 h -10.84792 c -1.73476,0 -3.89474,-0.338931 -5.55604,0.225955 -2.92289,0.993775 -3.40275,4.951676 -1.0469,6.804024 1.34033,1.053836 3.14844,0.907521 4.75086,0.907521 h 9.525 c 1.20875,0 3.36381,-0.408781 4.41769,0.271992 0.8535,0.551127 0.93639,2.007658 1.17856,2.903008 0.69734,2.577835 1.74033,5.075502 2.34125,7.672916 -3.47528,0 -9.26433,-1.108604 -12.43153,0.374915 -3.1505,1.47611 -2.97558,5.989637 0.2607,7.258843 3.0462,1.194594 7.86159,0.303742 11.1125,0.303742 1.18805,0 3.3729,-0.418836 4.32937,0.424127 1.72509,1.520827 2.60006,4.969667 3.68988,6.984207 2.55773,4.7289 5.57266,9.28343 8.91408,13.49375 h -11.1125 c -1.42796,0 -3.64546,0.41698 -4.97073,-0.15955 -1.36374,-0.59346 -2.19101,-3.23506 -3.25525,-4.32779 -3.01146,-3.09165 -7.80407,-4.15528 -11.88235,-2.91068 -12.30538,3.75603 -10.22065,21.38918 2.11666,23.15978 3.56688,0.51196 7.5624,-0.98187 10.00824,-3.60125 0.98115,-1.05092 1.70606,-3.49488 3.0127,-4.06347 1.63693,-0.71199 4.52147,-0.15954 6.29365,-0.15954 4.85007,0 11.18023,-1.093 15.87499,0.0841 1.93358,0.48471 3.64967,3.06625 5.02709,4.40981 3.52134,3.43535 7.41865,6.64051 11.37708,9.55966 1.64677,1.21417 3.39937,2.87152 5.55625,2.87152 2.15688,0 3.90948,-1.65735 5.55625,-2.87152 3.96266,-2.92206 7.8523,-6.12114 11.37708,-9.55966 1.37742,-1.34356 3.09351,-3.9251 5.02709,-4.40981 4.69476,-1.17714 11.02492,-0.0841 15.87499,-0.0841 1.77218,0 4.65667,-0.55245 6.29365,0.15954 1.30651,0.56859 2.03147,3.01255 3.01281,4.06347 2.44581,2.61938 6.44128,4.11321 10.00813,3.60125 12.3444,-1.77165 14.41582,-19.4056 2.11666,-23.15978 -4.12776,-1.25994 -8.81115,-0.1471 -11.88243,2.92391 -1.08797,1.08824 -1.88146,3.71687 -3.25517,4.31456 -1.3253,0.57653 -3.54277,0.15955 -4.97073,0.15955 h -11.1125 c 3.3409,-4.20979 6.35212,-8.76803 8.91408,-13.49375 1.09246,-2.0148 1.96347,-5.46206 3.68988,-6.984207 0.95647,-0.842963 3.1414,-0.424127 4.32937,-0.424127 3.25094,0 8.06636,0.890852 11.1125,-0.303742 3.23639,-1.269206 3.41128,-5.782733 0.26062,-7.258843 -3.16706,-1.483519 -8.95615,-0.374915 -12.43145,-0.374915 0.59822,-2.585508 1.57851,-5.115454 2.30452,-7.672916 0.25083,-0.883708 0.37783,-2.3622 1.21523,-2.903008 1.05384,-0.680773 3.20887,-0.271992 4.41775,-0.271992 h 9.525 c 1.60232,0 3.41048,0.146315 4.75086,-0.907521 2.35585,-1.852348 1.87589,-5.810249 -1.04696,-6.804024 -1.66132,-0.564886 -3.82111,-0.225955 -5.55598,-0.225955 h -10.84792 c 0.42148,-5.341937 1.05833,-10.496549 1.05833,-15.874999 0,-2.131218 0.38074,-4.773347 -0.96625,-6.602941 -1.00807,-1.369483 -2.79903,-1.707621 -4.32541,-2.216415 -3.00937,-1.0033 -6.00102,-2.044435 -8.99584,-3.086893 -1.17475,-0.409046 -3.50519,-0.873125 -4.22592,-1.962679 -1.28455,-1.941777 -0.27199,-7.359121 -0.27199,-9.678987 h 9.26041 c 1.13348,0 2.89984,-0.325411 3.9124,0.271938 1.05145,0.620263 1.49648,2.242291 2.26007,3.167645 1.74228,2.111983 4.08887,3.744118 6.79212,4.32091 11.97398,2.554552 19.44237,-12.678436 10.31875,-20.676075 -4.20529,-3.686387 -11.14055,-3.686149 -15.34584,0 -1.40361,1.230206 -2.64239,4.421187 -4.26111,5.083016 -1.23825,0.50628 -3.14986,0.159649 -4.47014,0.159649 h -9.78958 c -1.98305,0 -4.26376,-0.369226 -5.67319,1.350672 -2.20742,2.69367 -0.94139,9.344501 -0.94139,12.672244 -5.74675,-2.392521 -11.20061,-5.796226 -16.13958,-9.559501 -2.05132,-1.563052 -4.05263,-4.900718 -6.87917,-4.900718 -2.90195,0 -5.30966,3.675724 -7.40833,5.345377 -4.631,3.684058 -10.14995,6.841463 -15.61042,9.114842 0,-3.349572 1.31763,-10.31015 -1.14908,-12.908041 -1.45204,-1.52908 -3.82191,-1.114875 -5.73009,-1.114875 h -9.52499 c -1.32028,0 -3.23181,0.346631 -4.47017,-0.159649 -1.61874,-0.661829 -2.8576,-3.85281 -4.26108,-5.083016 -4.20548,-3.686254 -11.14036,-3.686254 -15.34584,0 -9.12209,7.99584 -1.66976,23.233802 10.31875,20.676075 2.70322,-0.576792 5.04987,-2.208927 6.7922,-4.32091 0.76338,-0.925354 1.20854,-2.547355 2.25999,-3.167645 1.01256,-0.597349 2.77881,-0.271938 3.9124,-0.271938 h 9.26041 m 28.83958,18.597297 c 7.88168,-1.024202 15.58423,3.851275 18.23244,11.300618 0.87471,2.459831 0.23813,4.992687 0.9017,7.380552 0.50509,1.817158 3.45572,2.757752 4.28651,4.790281 1.64333,4.020872 0.65644,9.748307 0.65644,14.022916 0,5.929576 2.11984,17.32862 -6.08542,18.69916 -2.86623,0.4789 -6.0915,0.0863 -8.99583,0.0863 h -17.4625 c -3.51473,0 -7.22101,0.4183 -9.6864,-2.64981 -2.95037,-3.67162 -1.69069,-10.415848 -1.69069,-14.812694 0,-4.631266 -1.12104,-10.996876 0.65644,-15.345832 0.83079,-2.032529 3.78169,-2.973123 4.28651,-4.790281 0.6059,-2.179902 0.0593,-4.587346 0.72946,-6.851385 1.87457,-6.332008 7.68032,-10.986294 14.17134,-11.829785 m -6.87916,18.973534 h 17.99166 c 0,-2.315104 0.0323,-4.532577 -1.15358,-6.614583 -3.15225,-5.535877 -11.0617,-5.873485 -14.97462,-1.034521 -1.82378,2.255044 -1.86346,4.898496 -1.86346,7.649104 m -4.7625,8.202083 v 21.166666 h 27.51666 V 78.38542 h -27.51666 m 13.49375,5.130535 c 5.63642,-0.426243 5.98514,10.392833 0.52916,10.715625 -5.69939,0.337343 -5.93539,-10.306843 -0.52916,-10.715625 z"
       id="path2299" /></g></svg>
