<?xml version="1.0" encoding="UTF-8" standalone="no"?>
<!-- Created with Inkscape (http://www.inkscape.org/) -->

<svg
   width="103.43272mm"
   height="123.46707mm"
   viewBox="0 0 103.43272 123.46707"
   version="1.1"
   id="svg5"
   xml:space="preserve"
   xmlns:inkscape="http://www.inkscape.org/namespaces/inkscape"
   xmlns:sodipodi="http://sodipodi.sourceforge.net/DTD/sodipodi-0.dtd"
   xmlns="http://www.w3.org/2000/svg"
   xmlns:svg="http://www.w3.org/2000/svg"><sodipodi:namedview
     id="namedview7"
     pagecolor="#505050"
     bordercolor="#eeeeee"
     borderopacity="1"
     inkscape:showpageshadow="0"
     inkscape:pageopacity="0"
     inkscape:pagecheckerboard="0"
     inkscape:deskcolor="#505050"
     inkscape:document-units="mm"
     showgrid="false" /><defs
     id="defs2" /><g
     inkscape:label="Layer 1"
     inkscape:groupmode="layer"
     id="layer1"
     transform="translate(176.60425,154.06146)"><path
       style="fill:#020202;stroke:none;stroke-width:0.264583"
       d="m -139.98447,-153.79368 c -2.78474,0.36578 -5.63801,0.41087 -7.56973,2.8022 -2.90989,3.60262 -1.05304,8.12768 -5.39485,11.16129 -4.26456,2.97965 -7.36971,-0.77031 -11.64167,-0.75658 -6.02006,0.0193 -11.30924,9.70034 -11.96075,14.99121 -0.79986,6.49579 7.76181,7.67847 7.4073,14.02292 -0.26387,4.72228 -4.4305,5.49963 -6.4629,8.99583 -3.03696,5.224463 2.12633,13.059833 5.53953,16.929364 5.32495,6.036469 11.2577,-1.969293 17.11849,1.847056 4.3008,2.800615 2.53285,6.966215 4.98739,10.592064 3.11627,4.602957 11.38502,3.7465 16.17927,3.0988 8.57832,-1.158875 4.71223,-9.867899 10.58334,-13.690864 5.69145,-3.706018 11.32337,3.837252 16.64493,-1.341702 3.66289,-3.564731 9.004832,-12.018432 6.202101,-17.170138 -1.959771,-3.60203 -6.659561,-4.66143 -6.659561,-9.525 0,-4.8006 4.71249,-5.94598 6.659561,-9.525 2.789766,-5.12736 -2.622281,-14.005 -6.453191,-17.40614 -5.29828,-4.70355 -10.77753,2.55135 -16.39384,-1.10572 -4.15872,-2.70793 -2.57837,-6.43035 -4.63894,-10.06313 -2.51063,-4.42627 -9.69195,-4.44162 -14.14648,-3.85646 m 0.79375,30.65875 c 4.56777,-0.65855 9.19454,0.98319 11.76126,4.9477 4.27514,6.60321 0.56621,16.4809 -7.52793,17.64771 -4.78419,0.689771 -9.62527,-1.1684 -12.0814,-5.47687 -3.76105,-6.59739 0.0214,-15.9901 7.84807,-17.11854 m 41.010415,38.674405 c -4.011875,0.710935 -3.649135,5.462587 -7.143745,6.541558 -2.65166,0.818621 -4.2471,-1.861344 -6.61459,-2.420408 -4.0767,-0.962819 -9.25009,4.123795 -10.54814,7.660481 -1.40309,3.824287 3.33137,6.074833 2.08941,9.524999 -0.96202,2.672292 -3.80365,2.602971 -5.50756,4.509294 -2.54053,2.841889 -0.82815,9.597495 1.17342,12.42298 2.56937,3.627173 6.22803,0.686594 9.07733,3.015721 2.65271,2.168525 0.71887,4.874419 1.74784,7.568671 1.33852,3.504141 8.27669,5.534818 11.75729,4.940035 3.990706,-0.682096 3.678233,-5.4102 7.143745,-6.5659 2.592917,-0.864658 4.296304,1.872985 6.614583,2.445015 4.021931,0.992716 9.336352,-4.191 10.554493,-7.698317 1.310482,-3.772958 -3.385079,-6.119547 -2.089149,-9.524735 0.983456,-2.584714 3.827462,-2.637366 5.500951,-4.509558 2.5654,-2.869935 0.734219,-9.93087 -1.413668,-12.678039 -2.433109,-3.111764 -5.900473,-0.497946 -8.582819,-2.505604 -3.08266,-2.307166 -0.877887,-4.881298 -2.002102,-7.823729 -1.328208,-3.475566 -8.320087,-5.51127 -11.757289,-4.902464 m -3.439585,20.599928 c 8.133029,-1.429279 11.154306,11.07731 2.910419,12.525904 -8.188329,1.439068 -11.141599,-11.079427 -2.910419,-12.525904 z"
       id="path2293" /></g></svg>
