<?xml version="1.0" encoding="UTF-8" standalone="no"?>
<!DOCTYPE svg PUBLIC "-//W3C//DTD SVG 1.1//EN" "http://www.w3.org/Graphics/SVG/1.1/DTD/svg11.dtd">
<svg xmlns="http://www.w3.org/2000/svg" version="1.1" viewBox="0 0 512 512">
<path fill="#000000" d="
  M 105.31 0.00
  L 106.81 0.00
  C 140.21 1.73 168.00 17.97 181.72 48.77
  C 203.03 96.62 178.50 151.35 127.47 164.88
  Q 124.32 165.71 121.21 166.65
  A 0.65 0.65 0.0 0 0 120.75 167.27
  L 120.75 208.24
  A 1.17 1.16 23.2 0 0 121.08 209.05
  C 138.95 227.50 149.54 246.37 150.61 272.43
  Q 151.04 282.84 150.61 298.43
  A 0.59 0.59 0.0 0 1 150.02 299.00
  L 61.24 299.00
  A 0.48 0.48 0.0 0 1 60.76 298.52
  Q 60.74 287.95 60.81 277.23
  Q 61.05 236.62 90.39 209.32
  A 1.11 1.11 0.0 0 0 90.75 208.50
  L 90.75 167.23
  A 0.78 0.78 0.0 0 0 90.13 166.47
  C 57.16 159.63 31.72 136.78 24.33 103.42
  C 20.33 85.34 22.28 65.51 29.97 48.52
  C 44.11 17.30 70.76 2.25 105.31 0.00
  Z"
/>
<path fill="#000000" d="
  M 302.31 0.00
  L 304.06 0.00
  Q 314.71 1.27 317.52 10.50
  C 320.27 19.51 315.13 24.36 308.28 30.89
  Q 290.81 47.54 273.33 64.17
  C 266.17 70.98 263.03 77.33 268.57 86.44
  Q 275.35 97.60 298.17 135.82
  C 299.21 137.56 299.73 140.84 299.73 143.21
  Q 299.77 175.73 299.74 208.33
  A 1.58 1.57 21.5 0 0 300.25 209.49
  Q 327.91 235.20 329.67 273.31
  Q 330.04 281.32 329.61 298.43
  A 0.59 0.58 0.5 0 1 329.02 299.00
  L 240.22 299.00
  A 0.45 0.44 0.0 0 1 239.77 298.56
  Q 239.71 287.34 239.80 276.02
  C 240.02 248.37 250.59 228.42 269.42 209.05
  A 1.19 1.16 67.5 0 0 269.75 208.23
  L 269.75 147.11
  A 1.70 1.68 -60.8 0 0 269.51 146.24
  Q 258.31 127.64 247.17 109.03
  Q 239.84 96.78 238.03 91.30
  C 232.74 75.23 236.93 57.89 249.62 45.62
  Q 271.73 24.23 294.04 3.05
  Q 296.50 0.71 302.31 0.00
  Z"
/>
<path fill="#000000" d="
  M 417.44 29.44
  Q 431.71 13.60 451.67 2.97
  Q 456.16 0.59 459.80 0.37
  C 472.18 -0.39 479.91 12.73 473.19 23.21
  Q 471.45 25.91 466.30 29.16
  C 446.30 41.79 422.99 57.69 428.24 85.23
  C 431.52 102.48 445.18 120.91 457.01 133.76
  C 458.99 135.92 459.73 141.18 459.73 144.65
  Q 459.77 176.44 459.74 207.88
  A 2.64 2.63 21.8 0 0 460.56 209.79
  Q 488.11 235.74 489.67 273.81
  Q 490.02 282.37 489.61 298.43
  A 0.59 0.58 0.5 0 1 489.02 299.00
  L 400.07 299.00
  A 0.31 0.30 90.0 0 1 399.77 298.69
  Q 399.72 287.47 399.78 276.25
  C 399.93 248.90 410.47 228.11 429.41 209.07
  A 1.14 1.12 68.3 0 0 429.75 208.26
  L 429.75 148.49
  A 1.27 1.26 24.3 0 0 429.43 147.65
  C 398.74 113.47 382.84 67.85 417.44 29.44
  Z"
/>
<rect fill="#000000" x="60.75" y="329.00" width="90.00" height="54.00" rx="0.57"/>
<rect fill="#000000" x="239.75" y="329.00" width="90.00" height="54.00" rx="0.57"/>
<rect fill="#000000" x="399.75" y="329.00" width="90.00" height="54.00" rx="0.57"/>
<path fill="#000000" d="
  M 137.19 512.00
  L 74.44 512.00
  C 64.12 510.20 60.77 503.43 60.76 493.65
  Q 60.73 453.59 60.76 413.45
  A 0.45 0.45 0.0 0 1 61.21 413.00
  L 150.30 413.00
  A 0.45 0.45 0.0 0 1 150.75 413.45
  Q 150.74 452.75 150.76 492.13
  C 150.76 502.70 148.37 509.90 137.19 512.00
  Z"
/>
<path fill="#000000" d="
  M 316.19 512.00
  L 253.44 512.00
  C 243.08 510.21 239.77 503.42 239.76 493.63
  Q 239.74 453.58 239.75 413.45
  A 0.46 0.45 -0.0 0 1 240.21 413.00
  L 329.30 413.00
  A 0.45 0.45 0.0 0 1 329.75 413.45
  Q 329.74 452.48 329.76 491.59
  C 329.76 502.42 327.66 509.84 316.19 512.00
  Z"
/>
<path fill="#000000" d="
  M 476.19 512.00
  L 413.44 512.00
  C 403.42 510.27 399.78 503.68 399.77 494.18
  Q 399.73 453.85 399.76 413.45
  A 0.45 0.45 0.0 0 1 400.21 413.00
  L 489.30 413.00
  A 0.45 0.45 0.0 0 1 489.75 413.45
  Q 489.74 451.35 489.76 489.33
  C 489.76 501.26 488.85 509.50 476.19 512.00
  Z"
/>
</svg>
