<?xml version="1.0" encoding="UTF-8" standalone="no"?>
<!DOCTYPE svg PUBLIC "-//W3C//DTD SVG 1.1//EN" "http://www.w3.org/Graphics/SVG/1.1/DTD/svg11.dtd">
<svg xmlns="http://www.w3.org/2000/svg" version="1.1" viewBox="0 0 512 512">
<path fill="#000000" d="
  M 170.56 0.00
  L 172.31 0.00
  C 182.21 1.09 188.94 10.46 185.54 19.92
  Q 184.43 23.02 180.29 27.24
  Q 168.63 39.12 156.73 50.84
  Q 155.96 51.61 157.05 51.59
  C 165.61 51.48 180.53 50.06 187.43 52.93
  C 196.82 56.83 198.80 69.62 191.39 77.14
  Q 166.39 102.52 141.19 127.69
  C 126.01 142.85 104.76 121.99 119.73 106.74
  Q 131.43 94.83 143.80 82.62
  Q 144.91 81.53 143.36 81.52
  C 135.06 81.48 120.45 82.98 113.55 80.04
  C 104.04 75.97 102.22 62.87 109.68 55.43
  Q 133.23 31.90 156.81 8.39
  C 161.26 3.95 163.87 0.97 170.56 0.00
  Z"
/>
<path fill="#000000" d="
  M 386.97 51.94
  Q 396.01 52.03 405.16 52.01
  Q 413.72 51.99 416.75 53.12
  C 423.91 55.78 427.85 64.84 425.18 72.09
  Q 424.02 75.23 419.70 79.59
  Q 395.21 104.28 370.49 128.74
  C 356.07 143.00 334.64 122.64 350.16 106.81
  Q 362.08 94.65 374.27 82.70
  Q 374.96 82.01 373.99 82.01
  C 365.61 81.99 350.37 83.56 343.43 80.51
  C 334.05 76.37 332.28 63.79 339.60 56.34
  Q 364.41 31.09 389.57 6.17
  C 395.57 0.23 403.81 -1.81 410.66 3.85
  C 419.30 10.99 417.34 20.69 410.22 27.88
  Q 398.55 39.65 386.73 51.34
  Q 386.13 51.93 386.97 51.94
  Z"
/>
<path fill="#000000" d="
  M 259.51 172.31
  Q 239.94 172.20 220.25 172.26
  Q 211.47 172.28 207.98 170.79
  C 200.73 167.68 197.17 157.69 201.00 150.48
  Q 202.24 148.15 206.49 143.90
  Q 238.10 112.26 269.73 80.64
  Q 274.62 75.76 277.61 74.39
  C 289.89 68.77 302.16 81.10 297.47 93.49
  Q 296.37 96.39 293.01 99.78
  Q 272.69 120.28 251.70 141.14
  Q 250.61 142.23 252.15 142.23
  Q 271.42 142.28 291.32 142.24
  Q 299.53 142.22 302.98 143.70
  C 312.37 147.74 314.35 160.38 306.90 167.90
  Q 273.95 201.15 240.88 234.27
  Q 236.52 238.64 233.22 240.05
  C 220.73 245.43 208.22 232.87 213.78 220.38
  Q 214.98 217.67 218.96 213.69
  Q 239.31 193.28 259.75 172.90
  Q 260.34 172.32 259.51 172.31
  Z"
/>
<rect fill="#000000" x="-14.96" y="-34.27" transform="translate(74.74,149.24) rotate(-32.7)" width="29.92" height="68.54" rx="14.47"/>
<rect fill="#000000" x="-14.95" y="-34.27" transform="translate(437.25,149.25) rotate(32.6)" width="29.90" height="68.54" rx="14.47"/>
<rect fill="#000000" x="-34.26" y="-14.96" transform="translate(32.17,201.74) rotate(31.3)" width="68.52" height="29.92" rx="14.46"/>
<rect fill="#000000" x="-34.28" y="-14.94" transform="translate(479.84,201.75) rotate(-31.2)" width="68.56" height="29.88" rx="14.44"/>
<path fill="#000000" d="
  M 336.19 512.00
  L 174.94 512.00
  C 164.19 510.12 161.28 503.13 161.26 492.99
  Q 161.21 475.69 161.29 458.24
  A 1.43 1.43 0.0 0 0 160.98 457.35
  Q 135.35 426.19 109.87 394.94
  C 86.06 365.73 75.86 336.81 75.77 298.96
  Q 75.72 276.60 75.75 254.25
  Q 75.76 239.82 77.21 234.89
  C 86.35 203.83 130.43 204.61 139.68 235.56
  Q 141.00 239.95 140.97 248.22
  Q 140.91 270.48 141.13 292.75
  Q 141.26 305.89 142.69 312.64
  C 147.46 335.19 161.23 348.36 177.18 363.66
  A 1.24 1.20 66.4 0 0 178.03 364.01
  C 184.51 364.01 249.67 364.36 250.07 363.86
  Q 250.30 363.58 249.93 363.54
  C 209.00 358.91 193.21 307.66 223.97 280.62
  C 243.45 263.49 272.74 265.03 290.45 283.88
  C 315.22 310.24 302.19 352.25 268.20 362.32
  C 266.36 362.86 264.22 362.74 262.19 363.26
  Q 261.59 363.41 262.09 363.79
  Q 262.35 363.99 262.81 363.99
  Q 297.89 364.01 332.97 364.00
  A 1.26 1.24 23.0 0 0 333.83 363.66
  Q 347.12 350.99 351.92 345.41
  Q 369.52 324.96 369.93 297.69
  Q 370.11 285.46 370.00 249.48
  Q 369.97 240.73 371.02 236.60
  C 379.33 203.98 425.06 203.68 433.99 236.08
  Q 435.31 240.86 435.28 249.55
  Q 435.22 272.77 435.25 295.99
  Q 435.27 309.49 434.68 315.97
  Q 430.79 358.81 403.78 391.79
  Q 376.92 424.58 350.05 457.37
  A 1.41 1.39 -25.6 0 0 349.73 458.26
  Q 349.75 474.96 349.76 491.58
  C 349.76 502.41 347.66 509.84 336.19 512.00
  Z"
/>
</svg>
