<?xml version="1.0" encoding="UTF-8" standalone="yes"?>
<!-- Created with sK1/UniConvertor (http://sk1project.org/) -->
<svg xmlns="http://www.w3.org/2000/svg" xmlns:xlink="http://www.w3.org/1999/xlink"
  width="512pt" height="512pt" viewBox="0 0 512 512"
  fill-rule="evenodd">
<g>
<g>
<path style="stroke:none; fill:#000000" d="M 51 256L 51 512L 256 512L 461 512L 461 314.7L 461 117.5L 402.2 58.7L 343.5 0L 197.2 0L 51 0L 51 256zM 380.5 80L 438.5 138L 380.2 138L 322 138L 322 80C 322 48.1 322.1 22 322.3 22C 322.4 22 348.6 48.1 380.5 80zM 292.2 149.3C 294.3 151.1 297.1 158.5 308 191.5C 315.3 213.5 321.4 231.7 321.6 231.8C 321.7 232 323.8 230.1 326.3 227.6L 330.7 223L 366.7 223C 402.5 223 402.7 223 406.1 225.3C 412.6 229.7 412.1 237.7 405 241.2C 401.9 242.8 398 243 369.9 243L 338.2 243L 331 251.9C 323 261.8 319.8 263.8 314.4 262C 312.6 261.4 310.5 259.9 309.7 258.6C 308.9 257.4 303.6 242.2 298 224.9C 292.4 207.7 287.6 193.3 287.4 193.1C 287.2 192.9 286.8 192.9 286.6 193.1C 286.3 193.3 280.5 214.7 273.6 240.5C 266.6 266.4 260.2 289 259.3 290.8C 256 297.2 248.7 298.5 244.1 293.6C 242.6 292 238.5 280.3 231.3 257.4C 225.6 238.7 220.5 223.1 220 222.7C 219.6 222.2 218.2 223.9 216.9 226.4C 213.7 232.5 208.1 239.4 204.8 241.4C 202.5 242.8 196.4 243 155.2 243L 108.2 243L 105.2 240.5C 101.6 237.5 100.7 233.6 102.6 229.2C 105.1 223.1 106.1 223 153 223L 195.1 223L 205.4 207.2C 211.1 198.6 216.4 190.9 217.1 190.3C 219.5 188.3 223.9 187.7 227 189C 231 190.7 232.5 194.2 241.5 223.5C 248.1 244.7 251 252.8 251 249.8C 251 248.4 276.1 155.4 277.2 152.7C 279.5 146.8 287.2 145 292.2 149.3zM 407.1 330.8C 411.1 335.2 411.1 340.1 407.1 344.1L 404.2 347L 256 347L 107.8 347L 104.9 344.1C 99.9 339 101 331.7 107.4 328.6C 110.2 327.2 126.7 327.1 257.3 327.3L 404.2 327.5L 407.1 330.8zM 407.1 419.9C 412.8 425.6 409.9 434.8 401.9 436.4C 397.8 437.2 114.2 437.2 110.1 436.4C 106.4 435.6 102.4 431.9 101.8 428.6C 101.2 425.4 103.2 420.6 106.1 418.6C 108.2 417.1 121.3 417 256.3 417L 404.2 417L 407.1 419.9z"/>
</g>
</g>
</svg>