<?xml version="1.0" encoding="UTF-8" standalone="no"?>
<!DOCTYPE svg PUBLIC "-//W3C//DTD SVG 1.1//EN" "http://www.w3.org/Graphics/SVG/1.1/DTD/svg11.dtd">
<svg xmlns="http://www.w3.org/2000/svg" version="1.1" viewBox="0 0 512 512">
<path fill="#000000" d="
  M 252.06 0.00
  L 260.06 0.00
  C 337.21 3.92 388.32 81.19 358.60 153.83
  C 339.44 200.66 289.67 228.63 239.57 221.15
  C 194.01 214.34 156.64 179.31 147.23 133.80
  C 133.19 65.97 183.37 3.22 252.06 0.00
  Z"
/>
<path fill="#000000" d="
  M 445.69 512.00
  L 65.94 512.00
  C 58.37 510.47 56.49 505.63 56.50 498.19
  Q 56.51 464.35 56.49 430.50
  Q 56.49 417.55 57.06 410.52
  C 62.40 345.42 101.11 287.99 159.80 258.96
  Q 160.33 258.70 160.12 259.26
  Q 140.02 313.12 131.74 370.05
  A 0.89 0.88 -4.2 0 1 131.11 370.77
  C 97.63 380.35 85.45 421.54 112.21 445.87
  C 140.85 471.91 188.11 449.69 185.25 410.64
  C 183.87 391.85 171.62 377.34 153.59 371.50
  A 0.49 0.48 13.6 0 1 153.26 370.97
  Q 162.55 307.04 188.03 247.76
  A 1.12 1.09 2.7 0 1 188.73 247.14
  Q 212.72 239.96 234.80 239.34
  C 258.01 238.68 289.37 238.08 317.43 245.68
  A 0.88 0.86 0.2 0 1 318.05 246.29
  Q 326.22 276.79 329.11 308.23
  Q 329.26 309.84 328.80 315.01
  A 0.88 0.86 -11.0 0 1 328.31 315.72
  C 307.00 325.83 285.56 339.91 269.35 358.34
  C 253.71 376.12 244.85 400.80 257.03 422.93
  C 261.26 430.59 280.31 454.37 289.90 439.46
  C 294.66 432.05 290.33 427.21 284.68 422.76
  Q 265.30 407.51 276.74 385.28
  C 287.73 363.93 313.62 346.49 335.08 336.15
  A 0.77 0.76 -37.9 0 1 335.91 336.25
  Q 356.04 353.54 369.66 376.27
  C 380.00 393.53 388.14 420.33 364.28 431.82
  C 359.12 434.30 351.19 436.25 351.38 443.76
  C 351.61 452.72 358.63 456.91 366.74 454.00
  C 386.97 446.73 401.34 429.76 401.25 407.74
  C 401.11 374.40 374.51 341.82 350.51 320.63
  A 1.19 1.18 22.4 0 1 350.11 319.68
  C 351.32 298.23 346.98 275.38 341.96 254.63
  Q 341.73 253.68 342.63 254.07
  C 412.38 284.84 455.28 350.32 455.46 427.07
  Q 455.55 462.57 455.49 498.07
  C 455.48 505.72 453.61 510.71 445.69 512.00
  Z"
/>
</svg>
