<?xml version="1.0" encoding="UTF-8" standalone="no"?>
<!DOCTYPE svg PUBLIC "-//W3C//DTD SVG 1.1//EN" "http://www.w3.org/Graphics/SVG/1.1/DTD/svg11.dtd">
<svg xmlns="http://www.w3.org/2000/svg" version="1.1" viewBox="0 0 512 512">
<path fill="#000000" d="
  M 8.81 0.00
  L 503.06 0.00
  Q 510.50 1.58 512.00 9.06
  L 512.00 365.56
  L 0.44 365.69
  A 0.37 0.36 -25.1 0 1 0.21 365.61
  L 0.00 365.44
  L 0.00 8.69
  Q 1.68 1.58 8.81 0.00
  Z
  M 356.44 219.31
  Q 356.56 243.54 356.48 267.76
  Q 356.44 280.93 355.02 286.99
  C 350.41 306.70 334.92 322.19 315.45 327.31
  C 308.59 329.12 300.65 329.22 293.25 329.25
  Q 266.15 329.34 239.07 329.27
  C 210.95 329.21 188.08 310.01 183.49 282.20
  A 0.66 0.65 -17.0 0 1 183.87 281.50
  Q 196.25 275.94 199.93 263.61
  C 201.62 257.96 201.26 250.27 201.31 243.85
  A 0.68 0.66 -8.1 0 1 201.80 243.21
  C 249.29 230.07 283.08 187.91 283.44 138.42
  Q 283.57 119.38 265.77 111.55
  A 0.79 0.77 -78.8 0 1 265.31 110.85
  Q 265.24 87.70 265.01 64.57
  C 264.86 49.28 253.93 37.21 238.52 36.69
  A 0.77 0.76 79.4 0 1 237.83 36.21
  C 237.31 34.94 237.50 33.32 237.16 32.20
  C 232.97 18.40 221.63 17.56 209.05 18.31
  C 177.33 20.21 173.27 65.55 204.66 72.49
  C 210.11 73.69 221.34 73.63 226.19 71.69
  Q 236.37 67.63 237.77 55.50
  A 0.52 0.51 5.8 0 1 238.33 55.05
  C 244.83 55.63 246.68 59.86 246.72 66.08
  Q 246.85 88.43 246.65 110.82
  A 0.81 0.80 78.4 0 1 246.18 111.54
  Q 229.51 119.15 228.50 137.04
  Q 228.13 143.76 228.12 143.82
  C 224.56 172.21 200.19 192.63 171.86 191.93
  C 146.21 191.30 125.95 172.91 120.10 148.56
  C 118.37 141.36 119.57 133.75 116.81 127.04
  Q 112.34 116.20 100.97 111.42
  A 0.74 0.74 0.0 0 1 100.52 110.74
  Q 100.46 89.23 100.53 67.73
  C 100.56 60.86 101.64 56.01 109.01 55.03
  A 0.50 0.49 -7.4 0 1 109.57 55.46
  C 111.09 67.80 119.10 72.96 130.73 73.24
  C 142.48 73.53 152.03 71.73 159.36 61.39
  C 169.83 46.60 163.50 26.69 147.15 20.27
  C 141.81 18.18 131.86 17.50 126.81 18.27
  Q 111.42 20.62 109.62 36.10
  A 0.62 0.62 0.0 0 1 109.03 36.65
  C 93.46 37.25 82.18 49.58 82.24 65.25
  Q 82.34 88.03 82.15 110.82
  A 0.79 0.77 78.8 0 1 81.69 111.52
  Q 62.95 120.00 64.08 141.44
  C 66.65 190.12 98.35 230.09 145.64 243.22
  A 0.70 0.70 0.0 0 1 146.14 243.86
  C 146.31 249.74 145.81 256.70 147.00 261.74
  Q 150.11 274.85 163.95 281.65
  A 2.15 2.12 -81.0 0 1 165.13 283.30
  C 168.93 313.91 192.33 339.56 222.86 345.87
  Q 229.72 347.28 242.76 347.39
  Q 267.97 347.60 293.19 347.50
  Q 306.78 347.45 313.14 346.43
  C 343.48 341.57 368.17 317.95 373.62 287.42
  Q 374.75 281.05 374.75 267.50
  Q 374.74 243.40 374.76 219.26
  A 0.60 0.59 -5.3 0 1 375.25 218.68
  C 423.58 210.02 447.22 154.33 415.41 115.17
  C 385.25 78.04 327.00 85.84 307.30 129.34
  C 289.63 168.37 314.80 211.24 355.94 218.72
  A 0.61 0.60 5.2 0 1 356.44 219.31
  Z"
/>
<path fill="#000000" d="
  M 141.12 37.59
  C 147.58 41.37 148.24 50.44 141.13 53.81
  C 137.89 55.35 132.60 54.72 128.60 54.80
  A 0.59 0.58 89.1 0 1 128.00 54.21
  L 128.01 37.02
  A 0.47 0.46 -89.4 0 1 128.48 36.55
  L 137.62 36.62
  Q 139.50 36.64 141.12 37.59
  Z"
/>
<path fill="#000000" d="
  M 219.19 36.70
  A 0.34 0.34 0.0 0 1 219.50 37.04
  L 219.50 54.14
  A 0.51 0.50 -1.2 0 1 219.01 54.64
  C 214.99 54.79 209.60 55.37 206.24 53.76
  C 199.66 50.60 199.51 41.21 205.97 37.76
  C 209.38 35.94 215.40 36.31 219.19 36.70
  Z"
/>
<path fill="#000000" d="
  M 411.35 155.42
  A 45.64 45.64 0.0 0 1 365.71 201.06
  A 45.64 45.64 0.0 0 1 320.07 155.42
  A 45.64 45.64 0.0 0 1 365.71 109.78
  A 45.64 45.64 0.0 0 1 411.35 155.42
  Z
  M 393.06 155.41
  A 27.36 27.36 0.0 0 0 365.70 128.05
  A 27.36 27.36 0.0 0 0 338.34 155.41
  A 27.36 27.36 0.0 0 0 365.70 182.77
  A 27.36 27.36 0.0 0 0 393.06 155.41
  Z"
/>
<path fill="#000000" d="
  M 159.88 208.97
  C 203.84 217.14 244.78 184.82 246.75 140.50
  C 246.89 137.47 246.69 134.98 248.23 132.49
  C 253.26 124.34 265.13 128.09 265.06 137.65
  C 264.74 181.50 234.47 217.42 191.97 226.78
  C 186.27 228.04 182.95 230.59 182.81 236.56
  Q 182.72 240.25 182.73 254.46
  C 182.73 268.61 165.15 267.97 164.56 256.18
  Q 164.41 253.26 164.50 238.22
  C 164.53 231.83 162.57 228.28 156.33 226.98
  C 114.36 218.27 84.26 183.61 82.34 140.29
  Q 82.14 135.72 83.46 133.06
  C 87.67 124.55 100.11 127.41 100.47 137.28
  C 101.73 172.33 124.80 202.45 159.88 208.97
  Z"
/>
<circle fill="#000000" cx="365.71" cy="155.41" r="9.06"/>
<path fill="#000000" d="
  M 512.00 384.03
  L 512.00 411.81
  C 510.41 418.92 505.89 420.50 498.84 420.50
  Q 255.52 420.50 12.21 420.50
  C 5.60 420.50 1.39 418.29 0.00 411.69
  L 0.00 384.03
  L 512.00 384.03
  Z"
/>
<path fill="#000000" d="
  M 323.62 439.00
  L 341.48 474.85
  A 0.45 0.45 0.0 0 1 341.07 475.50
  L 170.97 475.50
  A 0.45 0.45 0.0 0 1 170.57 474.85
  L 188.51 439.00
  A 0.45 0.45 0.0 0 1 188.91 438.75
  L 323.22 438.75
  A 0.45 0.45 0.0 0 1 323.62 439.00
  Z"
/>
<path fill="#000000" d="
  M 393.94 512.00
  L 117.69 512.00
  C 105.97 509.02 107.62 493.76 119.93 493.75
  Q 255.24 493.74 390.56 493.75
  C 396.67 493.75 402.17 495.85 402.14 502.70
  Q 402.09 510.22 393.94 512.00
  Z"
/>
</svg>
