<?xml version="1.0" encoding="UTF-8" standalone="no"?>
<!DOCTYPE svg PUBLIC "-//W3C//DTD SVG 1.1//EN" "http://www.w3.org/Graphics/SVG/1.1/DTD/svg11.dtd">
<svg xmlns="http://www.w3.org/2000/svg" version="1.1" viewBox="0 0 512 512">
<rect fill="#000000" x="68.29" y="17.25" width="16.94" height="50.90" rx="8.18"/>
<rect fill="#000000" x="187.78" y="17.26" width="16.94" height="50.88" rx="8.17"/>
<rect fill="#000000" x="307.28" y="17.27" width="16.94" height="50.88" rx="8.17"/>
<rect fill="#000000" x="426.77" y="17.26" width="16.94" height="50.88" rx="8.17"/>
<path fill="#000000" d="
  M 51.79 64.87
  C 57.91 90.87 94.39 92.62 101.49 66.15
  C 102.61 61.97 102.38 56.47 102.54 51.73
  A 0.49 0.49 0.0 0 1 103.03 51.25
  L 170.29 51.25
  A 0.44 0.44 0.0 0 1 170.73 51.68
  C 170.78 56.43 170.31 61.69 171.54 66.02
  C 178.94 92.20 216.18 91.34 221.35 64.55
  C 222.05 60.89 221.63 56.06 221.88 51.81
  A 0.60 0.59 -87.9 0 1 222.47 51.25
  L 289.47 51.25
  A 0.55 0.54 87.1 0 1 290.01 51.74
  C 290.43 56.31 289.87 61.34 290.80 65.33
  C 296.84 91.48 333.05 91.83 340.43 66.14
  C 341.67 61.82 341.14 56.63 341.39 51.81
  A 0.59 0.59 0.0 0 1 341.98 51.25
  L 409.23 51.25
  A 0.42 0.42 0.0 0 1 409.65 51.70
  Q 409.30 56.40 409.61 61.01
  C 411.63 90.66 453.09 94.17 460.20 64.90
  C 461.07 61.31 460.71 56.97 460.76 53.18
  A 1.05 1.05 0.0 0 1 462.12 52.20
  Q 492.39 61.51 495.04 93.24
  Q 495.48 98.44 494.72 119.03
  A 0.49 0.49 0.0 0 1 494.23 119.50
  L 17.50 119.50
  A 0.52 0.52 0.0 0 1 16.98 118.97
  C 17.09 108.38 16.12 95.49 17.89 86.40
  Q 22.93 60.56 49.86 52.22
  A 1.06 1.06 0.0 0 1 51.23 53.22
  C 51.28 57.02 50.95 61.28 51.79 64.87
  Z"
/>
<path fill="#000000" d="
  M 17.19 137.08
  A 0.58 0.57 -90.0 0 1 17.76 136.50
  L 494.48 136.50
  A 0.52 0.51 -0.0 0 1 495.00 137.01
  Q 495.01 293.90 494.99 450.75
  C 494.99 471.28 481.90 489.29 461.80 493.83
  Q 456.70 494.98 441.99 494.99
  Q 251.62 495.02 61.25 495.02
  C 41.13 495.02 23.48 482.53 18.52 462.81
  Q 17.06 457.04 17.04 442.94
  Q 16.83 290.05 17.19 137.08
  Z
  M 358.31 418.26
  C 379.92 415.95 375.20 395.80 375.60 380.13
  A 0.77 0.76 80.8 0 1 376.09 379.44
  C 434.73 356.63 448.97 276.21 451.84 222.63
  Q 452.53 209.68 451.10 203.42
  C 446.57 183.72 428.66 170.80 408.63 170.67
  A 0.77 0.76 78.2 0 1 407.93 170.21
  C 400.66 153.07 378.72 147.46 365.55 161.60
  C 353.17 174.89 357.69 196.00 374.65 203.02
  C 388.07 208.59 402.29 201.18 407.92 188.27
  A 0.80 0.78 11.0 0 1 408.63 187.80
  C 422.60 187.51 434.98 198.44 435.14 212.30
  Q 435.49 243.98 422.16 274.93
  C 407.04 310.06 376.40 328.64 337.82 323.40
  C 287.85 316.61 267.76 266.06 264.94 222.24
  Q 264.14 209.78 266.56 203.59
  C 270.35 193.87 280.57 187.51 291.22 187.77
  A 0.79 0.77 78.8 0 1 291.92 188.25
  C 299.39 206.14 322.15 210.76 335.13 195.88
  C 343.92 185.80 343.04 171.15 334.17 161.58
  C 321.06 147.44 299.10 153.10 291.84 170.20
  A 0.75 0.74 11.2 0 1 291.15 170.66
  C 271.37 170.65 253.72 183.50 248.89 202.62
  Q 247.19 209.36 247.91 222.49
  C 250.89 276.68 265.06 356.66 323.69 379.42
  A 0.74 0.73 10.2 0 1 324.16 380.09
  C 324.41 394.59 319.72 414.45 340.06 418.14
  A 0.55 0.54 11.2 0 1 340.50 418.79
  C 335.34 442.05 315.88 460.72 291.50 460.74
  Q 251.36 460.78 211.21 460.73
  Q 198.78 460.71 193.03 459.39
  C 168.73 453.78 153.56 432.13 153.54 407.50
  Q 153.48 353.03 153.51 298.84
  A 0.81 0.81 0.0 0 1 154.19 298.04
  Q 180.06 293.87 196.41 275.15
  C 225.69 241.63 215.44 190.25 176.44 169.78
  C 136.97 149.07 88.71 172.04 78.56 215.05
  C 69.41 253.87 96.12 292.17 135.84 297.92
  A 0.78 0.78 0.0 0 1 136.50 298.68
  Q 136.52 349.37 136.49 400.01
  Q 136.48 413.89 137.42 419.96
  C 141.77 447.93 163.39 471.15 191.57 476.55
  Q 197.86 477.75 211.50 477.75
  Q 247.62 477.75 283.75 477.75
  Q 297.16 477.75 303.66 476.46
  C 332.45 470.74 353.08 447.56 357.73 418.81
  A 0.67 0.66 1.1 0 1 358.31 418.26
  Z"
/>
<circle fill="#000000" cx="315.73" cy="179.20" r="8.43"/>
<circle fill="#000000" cx="384.00" cy="179.20" r="8.44"/>
<path fill="#000000" d="
  M 125.79 202.28
  C 101.81 219.04 108.17 254.80 136.03 263.17
  A 0.66 0.66 0.0 0 1 136.50 263.80
  L 136.50 280.22
  A 0.43 0.43 0.0 0 1 135.99 280.64
  C 97.30 273.56 80.57 227.17 106.18 197.31
  C 126.26 173.89 161.44 173.22 182.58 195.68
  C 210.25 225.08 193.61 273.19 154.09 280.67
  A 0.50 0.49 84.7 0 1 153.51 280.18
  L 153.50 264.00
  A 0.89 0.87 -8.5 0 1 154.13 263.16
  C 167.84 259.08 178.29 247.14 179.12 232.65
  C 180.74 204.43 149.06 186.02 125.79 202.28
  Z"
/>
<circle fill="#000000" cx="145.05" cy="230.39" r="17.01"/>
<path fill="#000000" d="
  M 309.22 351.27
  Q 293.28 336.62 285.23 316.38
  Q 285.05 315.92 285.41 316.26
  C 320.57 349.78 379.18 349.88 414.25 316.32
  Q 414.61 315.97 414.42 316.44
  Q 407.27 334.43 394.07 347.95
  C 371.23 371.36 333.87 373.92 309.22 351.27
  Z"
/>
<rect fill="#000000" x="-8.62" y="-8.61" transform="translate(349.87,392.38) rotate(0.1)" width="17.24" height="17.22" rx="0.30"/>
</svg>
