<?xml version="1.0" encoding="UTF-8" standalone="yes"?>
<!-- Created with sK1/UniConvertor (http://sk1project.org/) -->
<svg xmlns="http://www.w3.org/2000/svg" xmlns:xlink="http://www.w3.org/1999/xlink"
  width="512pt" height="512pt" viewBox="0 0 512 512"
  fill-rule="evenodd">
<g>
<g>
<path style="stroke:none; fill:#000000" d="M 304 15.9L 239.5 31.6L 239.2 67.8L 239 104L 165 104L 91 104L 91 141L 91 178L 256 178L 421 178L 421 141L 421 104L 347 104L 273 104L 273 81.7L 273 59.4001L 327 46.1001C 356.7 38.8001 381 32.6001 381 32.3001C 381 32.0001 379.1 24.6001 376.8 15.9001C 373.1 1.70007 372.5 9.15527e-05 370.6 0.100098C 369.4 0.100098 339.5 7.20001 304 15.9z"/>
<path style="stroke:none; fill:#000000" d="M 113.5 208.2C 113.8 209.5 122.8 272.8 133.5 349C 152.2 481.8 153.2 487.8 156.1 493.7C 159.4 500.5 164.5 505.5 171.9 509.2L 176.5 511.5L 255.5 511.5L 334.5 511.5L 338.8 509.2C 341.2 507.9 345.2 505 347.6 502.8C 356.6 494.5 355 503.1 377.1 347.2C 388 269.8 397 206.4 397 206.2C 397 206.1 333.1 206 255 206L 113 206L 113.5 208.2z"/>
</g>
</g>
</svg>