<?xml version="1.0" encoding="UTF-8" standalone="yes"?>
<!-- Created with sK1/UniConvertor (http://sk1project.org/) -->
<svg xmlns="http://www.w3.org/2000/svg" xmlns:xlink="http://www.w3.org/1999/xlink"
  width="512pt" height="512pt" viewBox="0 0 512 512"
  fill-rule="evenodd">
<g>
<g>
<path style="stroke:none; fill:#000000" d="M 143.8 2C 106.6 13.7 77.3 60.8 66.9 125.6C 64.3 142.2 63.2 175.7 64.9 186.5C 68.1 206.2 77.6 224.3 92.1 238.8C 99.4 246 112.2 255 119.9 258.1L 125 260.3L 125 265.9C 125 269 123.2 316.3 120.9 371C 116.4 478.9 116.4 478.1 121.5 488.6C 125.4 496.5 133.5 504.4 141.7 508.3C 148.1 511.3 149.1 511.5 160 511.5C 170.9 511.5 171.9 511.3 178.3 508.3C 186.5 504.4 194.6 496.5 198.5 488.6C 203.6 478.1 203.6 478.9 199.1 371C 196.8 316.3 195 269 195 265.9L 195 260.3L 199.5 258.5C 206.5 255.9 220.8 246 227.9 238.9C 242.5 224.3 251.9 206.1 255.1 186.5C 256.8 175.7 255.7 142.2 253.1 125.6C 247.2 88.7 234 54.5 217.7 33.5C 204.9 17 191 6.5 175.8 1.89999C 167.5 -0.599976 151.9 -0.599976 143.8 2z"/>
<path style="stroke:none; fill:#000000" d="M 292.6 10.2C 291.6 27.7 288 138.8 288 152.5C 288 166.1 289.4 174.2 293.2 184C 300 201.4 312.4 215.5 329.3 225L 335.2 228.3L 334.6 236.9C 334.3 241.6 331.9 296.1 329.4 358C 325.7 446.3 325 471.9 325.8 476.8C 328.1 490.4 337.2 502.3 349.7 508.3C 356.1 511.3 357.1 511.5 368 511.5C 378.9 511.5 379.9 511.3 386.3 508.3C 398.8 502.3 407.9 490.4 410.2 476.8C 411 471.9 410.3 446.3 406.6 358C 404.1 296.1 401.7 241.6 401.4 236.9L 400.8 228.3L 406.7 225C 423.6 215.5 436 201.4 442.8 184C 446.6 174.2 448 166.1 448 152.5C 448 138.8 444.4 27.7 443.4 10.2L 442.8 0L 429.1 0L 415.4 0L 413.2 69.2C 411.9 107.3 410.7 142 410.3 146.2L 409.7 154L 400 154L 390.3 154L 389.7 146.2C 389.3 142 388.1 107.3 386.8 69.2L 384.6 0L 368 0L 351.4 0L 349.2 69.2C 347.9 107.3 346.7 142 346.3 146.2L 345.7 154L 336 154L 326.3 154L 325.7 146.2C 325.3 142 324.1 107.3 322.8 69.2L 320.6 0L 306.9 0L 293.2 0L 292.6 10.2z"/>
</g>
</g>
</svg>