<?xml version="1.0" encoding="UTF-8" standalone="no"?>
<!-- Created with Inkscape (http://www.inkscape.org/) -->

<svg
   version="1.1"
   id="svg2"
   width="514.3504"
   height="511.28442"
   viewBox="0 0 514.3504 511.28442"
   sodipodi:docname="safe.png"
   inkscape:export-filename="safe.svg"
   inkscape:export-xdpi="96"
   inkscape:export-ydpi="96"
   xml:space="preserve"
   xmlns:inkscape="http://www.inkscape.org/namespaces/inkscape"
   xmlns:sodipodi="http://sodipodi.sourceforge.net/DTD/sodipodi-0.dtd"
   xmlns="http://www.w3.org/2000/svg"
   xmlns:svg="http://www.w3.org/2000/svg"><defs
     id="defs6" /><sodipodi:namedview
     id="namedview4"
     pagecolor="#ffffff"
     bordercolor="#000000"
     borderopacity="0.25"
     inkscape:showpageshadow="2"
     inkscape:pageopacity="0.0"
     inkscape:pagecheckerboard="0"
     inkscape:deskcolor="#d1d1d1"
     showgrid="false" /><g
     inkscape:groupmode="layer"
     inkscape:label="Image"
     id="g8"
     transform="translate(778.33301,-702.53101)"><path
       style="fill:#010101;stroke:none"
       d="m -506.29128,718.09203 h -84 c -12.203,0 -28.284,-2.7509 -39.999,0.8002 -11.793,3.5747 -14.775,19.9561 -3.908,26.6666 9.512,5.8732 27.084,2.5332 37.907,2.5332 v 30 c -7.914,0 -18.158,-1.7396 -24.671,3.8002 -7.665,6.5199 -5.329,19.2786 -5.329,28.1998 0,28.541 11.112,57.99199 45,57.99199 33.887,0 45,-29.41999 45,-57.99199 0,-8.9212 2.336,-21.6799 -5.329,-28.1998 -6.513,-5.5398 -16.757,-3.8002 -24.671,-3.8002 v -30 h 60 v 194.99999 h 30 v -157.99999 -48 c 0,-7.5362 1.404,-16.729 -0.8,-23.9992 -5.356,-17.66791 -27.773,-11.21821 -29.2,4.9992 m -241,405.99997 h 452 c 0,24.523 -3.988,52.885 0.329,77 2.149,12.003 17.541,17.464 25.871,7.671 4.853,-5.706 3.8,-13.726 3.8,-20.671 v -44 -126 c 0,-19.77598 3.153,-42.54598 -0.329,-61.99998 -2.742,-15.312 -24.27,-17.179 -28.871,-1.999 -2.373,7.829 -0.8,17.877 -0.8,25.999 v 52.99998 h -33 c -2.251,-27.557 -27.346,-50.77498 -53,-57.36998 -20.357,-5.234 -43.131,-2.63 -64,-2.63 h -116 v 14 c -9.19,0 -21.152,2.038 -30,-0.51 -6.713,-1.933 -12.646,-7.616 -19,-10.6 -14.483,-6.803 -30.436,-8.638 -46,-4.89 2.55,-13.15 2.512,-24.985 -4.338,-37 -22.4201,-39.328 -78.3602,-21.055 -83.662,20 -4.23,-4.142 -3,-10.438 -3,-16 0,-14.468 7.212,-52.567 -13,-55.656 -8.5998,-1.314 -15.7772,5.432 -16.81482,13.656 -2.64801,20.988 -0.18518,43.835 -0.18518,65 v 174.99998 47 c 0,7.23 -1.47828,16.345 2,22.96 6.43283,12.234 24.3811,8.975 27.4676,-3.96 1.9211,-8.051 0.5324,-17.752 0.5324,-26 v -52 m 1,-135.99998 c 20.7075,15.79998 46.465,32.86598 70,43.99998 v 1 h -71 c 0,-12.742 -3.91,-33.29898 1,-44.99998 z"
       id="path1032" /></g></svg>
