<?xml version="1.0" encoding="UTF-8" standalone="no"?>
<!-- Created with Inkscape (http://www.inkscape.org/) -->

<svg
   version="1.1"
   id="svg2"
   width="514.23096"
   height="513.30939"
   viewBox="0 0 514.23096 513.30939"
   sodipodi:docname="safe.png"
   inkscape:export-filename="safe.svg"
   inkscape:export-xdpi="96"
   inkscape:export-ydpi="96"
   xml:space="preserve"
   xmlns:inkscape="http://www.inkscape.org/namespaces/inkscape"
   xmlns:sodipodi="http://sodipodi.sourceforge.net/DTD/sodipodi-0.dtd"
   xmlns="http://www.w3.org/2000/svg"
   xmlns:svg="http://www.w3.org/2000/svg"><defs
     id="defs6" /><sodipodi:namedview
     id="namedview4"
     pagecolor="#ffffff"
     bordercolor="#000000"
     borderopacity="0.25"
     inkscape:showpageshadow="2"
     inkscape:pageopacity="0.0"
     inkscape:pagecheckerboard="0"
     inkscape:deskcolor="#d1d1d1"
     showgrid="false" /><g
     inkscape:groupmode="layer"
     inkscape:label="Image"
     id="g8"
     transform="translate(-839.45703,619.81708)"><path
       style="fill:#020202;stroke:none"
       d="m 968.80838,-405.50771 c 28.081,4.147 58.01802,17.372 85.00002,26.333 10.458,3.474 23.797,5.045 29.583,15.667 3.834,7.04 2.417,16.271 2.417,24 v 50 h 66 c 9.49,0 21.042,-1.951 28.985,4.394 12.54,10.018 8.015,33.383 8.015,47.606 v 131 h 36 v -366 -99 c 0,-11.0691 3.649,-30.2025 -2.09,-39.98456 -3.926,-6.69308 -10.988,-7.01278 -17.91,-7.01544 h -37 -146 c -12.531,0 -42.16202,-5.49982 -50.29702,6.04398 -3.612,5.12542 -2.703,12.03722 -2.703,17.95602 v 39 150 m 55.00002,-176.7106 c 12.027,-1.5675 36.717,-3.9186 46.985,3.3634 12.735,9.0316 9.165,30.6648 -6.985,33.1342 -12.348,1.8881 -40.39,4.1242 -50.96,-2.9205 -16.21202,-10.8049 -5.089,-31.4854 10.96,-33.5771 m 110,0 c 12.263,-1.5984 36.416,-3.7775 46.96,3.5648 12.798,8.9117 8.527,30.0447 -6.96,32.8163 -11.95,2.1386 -40.73,4.2134 -50.907,-2.804 -15.957,-11.0034 -5.258,-31.4702 10.907,-33.5771 m -115,74.1046 c 10.738,-2.417 24.001,-0.394 35,-0.394 5.497,0 11.047,-0.515 15.985,2.367 13.189,7.7 10.778,28.726 -3.985,32.995 -10.896,3.15 -25.681,0.638 -37,0.638 -5.228,0 -10.333,0.394 -14.96,-2.483 -12.814,-7.968 -10.331,-29.683 4.96,-33.123 m 110,-0.054 c 10.965,-2.118 23.839,-0.34 35,-0.34 5.512,0 11.074,-0.555 15.96,2.483 12.814,7.968 10.331,29.683 -4.96,33.123 -11.038,2.484 -24.694,0.394 -36,0.394 -5.637,0 -11.059,0.323 -15.96,-2.97 -12.359,-8.304 -9.23,-29.755 5.96,-32.69 m 133,401.66 h 91 v -248 -74 c 0,-10.249 2.463,-24.243 -0.854,-33.999 -2.147,-6.313 -7.858,-9.144 -14.146,-9.827 -15.97,-1.737 -32.933,-0.174 -49,-0.174 -6.573,0 -15.183,-1.121 -20.957,2.738 -7.948,5.313 -6.043,16.04 -6.043,24.262 v 66 273 m -242,-328.671 c 12.051,-2.156 40.628,-4.18 50.985,2.641 12.858,8.468 8.998,29.517 -5.985,32.906 -12.742,2.882 -40.812,5.033 -51.96,-2.73 -12.842,-8.942 -8.549,-30.041 6.96,-32.817 m 110,0 c 12.018,-2.15 39.331,-3.997 49.985,2.204 14.51,8.446 9.421,29.924 -5.985,33.448 -12.459,2.851 -40.071,4.757 -50.96,-2.835 -12.695,-8.852 -8.363,-30.074 6.96,-32.817 m 165,18 c 9.484,-1.697 26.196,-2.438 33.815,4.203 11.959,10.426 5.148,29.51 -9.815,32.139 -9.827,1.727 -26.055,2.214 -33.671,-5.15 -10.446,-10.102 -4.456,-28.663 9.671,-31.192 m -454.00002,74.671 c 0,46.644 -3.09937,94.477 0.0895,141 2.91043,42.461 34.86939,71.731 72.91049,85.95 9.3681,3.501 20.8761,8.333 31,8.46 22.477,0.284 50.743,-15.181 68.00003,-28.309 47.619,-36.225 36,-99.54 36,-152.101 v -39 c 0,-3.951 1.523,-11.987 -1.028,-15.272 -3.96,-5.102 -18.908,-6.869 -24.972,-8.753 -18.358,-5.705 -36.55003,-11.997 -55.00003,-17.399 -7.014,-2.054 -14.635,-6.206 -22,-6.443 -9.9055,-0.317 -21.6238,5.928 -31,8.842 -24.4788,7.607 -49.0333,17.249 -74,23.025 m 289.00003,-19.671 c 10.743,-1.939 23.09,-0.329 34,-0.329 5.471,0 11.225,-0.498 15.996,2.703 13.657,9.162 10.061,29.905 -5.996,33.616 -11.957,2.764 -40.716,4.346 -50.985,-2.971 -12.523,-8.923 -8.598,-30.205 6.985,-33.019 m 166,17.997 c 9.855,-1.662 25.145,-2.131 32.956,4.888 11.01,9.894 5.74,28.827 -8.956,31.457 -9.484,1.697 -26.196,2.439 -33.815,-4.203 -12.05,-10.505 -5.202,-29.611 9.815,-32.142 m -291,40.003 c 15.77,-2.841 27.678,13.702 19.387,27.671 -4.64,7.818 -13.012,13.633 -19.387,20 l -40.00003,40 c -6.904,6.904 -14.689,18.101 -25,19.657 -9.8862,1.491 -16.7304,-6.388 -23,-12.657 -12.0503,-12.049 -49.6168,-37.524 -29.8117,-56.786 14.4983,-14.102 29.9662,3.94 39.8117,13.786 2.6267,2.627 7.6736,9.929 12,8.793 5.377,-1.412 11.169,-9.962 15,-13.793 l 33,-33 c 5.158,-5.158 10.409,-12.303 18.00003,-13.671 m 292,32.972 c 9.527,-1.408 24.413,-2.088 31.895,4.913 10.774,10.081 5.93,28.804 -8.895,31.457 -9.378,1.678 -26.309,2.464 -33.895,-4.065 -12.676,-10.91 -4.234,-30.07 10.895,-32.305 m -211,18.699 c 0,33.387 2.21,65.683 -11.424,97 -4.533,10.411 -11.19,20.533 -18.75,29 -5.581,6.251 -13.533,10.983 -13.826,20 h 110 v -146 h -66 m 212,54.289 c 9.771,-1.285 24.509,-1.947 31.786,5.816 9.593,10.233 4.681,28.47 -9.786,30.682 -9.524,1.456 -26.26,2.454 -33.895,-4.177 -13.272,-11.527 -3.431,-30.304 11.895,-32.321 z"
       id="path1028" /></g></svg>
