<?xml version="1.0" encoding="UTF-8" standalone="no"?>
<!-- Created with Inkscape (http://www.inkscape.org/) -->

<svg
   version="1.1"
   id="svg2"
   width="510.87326"
   height="510.28372"
   viewBox="0 0 510.87326 510.28372"
   sodipodi:docname="safe.png"
   inkscape:export-filename="safe.svg"
   inkscape:export-xdpi="96"
   inkscape:export-ydpi="96"
   xml:space="preserve"
   xmlns:inkscape="http://www.inkscape.org/namespaces/inkscape"
   xmlns:sodipodi="http://sodipodi.sourceforge.net/DTD/sodipodi-0.dtd"
   xmlns="http://www.w3.org/2000/svg"
   xmlns:svg="http://www.w3.org/2000/svg"><defs
     id="defs6" /><sodipodi:namedview
     id="namedview4"
     pagecolor="#ffffff"
     bordercolor="#000000"
     borderopacity="0.25"
     inkscape:showpageshadow="2"
     inkscape:pageopacity="0.0"
     inkscape:pagecheckerboard="0"
     inkscape:deskcolor="#d1d1d1"
     showgrid="false" /><g
     inkscape:groupmode="layer"
     inkscape:label="Image"
     id="g8"
     transform="translate(878.62817,796.79144)"><path
       style="fill:#030303;stroke:none"
       d="m -624.19162,-796.71294 c -10.764,1.41333 -23.128,9.44993 -33,13.89963 -20.557,9.2658 -41.486,17.7161 -62,27.0749 -7.666,3.4974 -26.295,7.5749 -30.972,14.6489 -1.966,2.9728 -1.028,8.1941 -1.028,11.5818 v 29 71 c 0,16.071 -1.033,32.312 3.155,48 11.049,41.385 58.521,64.239 90.845,87.576 7.992,5.77 16.034,11.467 24,17.273 2.954,2.152 7.023,6.147 11,5.443 4.881,-0.863 10.063,-6.184 14,-9.002 11.038,-7.902 21.956,-15.974 33,-23.869 21.058,-15.054 47.934,-29.438 63.522,-50.421 24.217,-32.601 16.478,-78.818 16.478,-117 v -50 c 0,-5.155 1.905,-15.1458 -1.028,-19.5818 -3.303,-4.9953 -14.636,-7.528 -19.972,-9.8426 -16.353,-7.0933 -32.695,-14.2323 -49,-21.436 -13.649,-6.0304 -27.289,-12.0999 -41,-17.98915 -5.151,-2.21228 -12.242,-7.11175 -18,-6.35568 m -2,20.58483 c 6.826,-1.332 12.975,2.4239 19,5.0448 12.688,5.5194 25.343,11.1234 38,16.7152 12.639,5.5841 25.314,11.1051 38,16.5795 5.265,2.2719 12.884,4.2645 16.142,9.3357 3.268,5.0872 1.858,13.1806 1.858,18.9452 v 43 c 0,30.218 7.016,70.324 -10.09,97 -13.015,20.295 -38.633,33.64 -57.91,47.421 -11.021,7.879 -26.587,24.552 -40,27.17 -6.126,1.196 -11.395,-3.722 -16,-7.012 -11.711,-8.368 -23.281,-16.933 -35,-25.288 -17.041,-12.15 -38.382,-23.64 -50.251,-41.291 -18.341,-27.278 -10.749,-69.77 -10.749,-101 v -39 c 0,-5.4618 -1.264,-12.832 0.742,-17.9954 3.224,-8.2945 18.731,-11.9222 26.258,-15.1551 17.374,-7.4627 34.703,-15.0679 52,-22.7099 8.817,-3.8952 18.514,-9.9087 28,-11.76 m -88,57.6204 v 90 c 0,15.043 -2.527,32.267 4.901,46 11.832,21.875 43.25,37.139 63.099,51.291 5.727,4.083 15.725,14.821 23,14.987 6.889,0.157 17.544,-10.956 23,-14.857 20.069,-14.348 54.617,-30.879 64.535,-54.421 5.914,-14.036 3.465,-31.09 3.465,-46 v -87 l -66,-28.4244 -25,-10.0339 -26,10.5979 -65,27.8604 m 71,117 c 8.858,-23.37 29.784,-46.176 43.667,-67 7.454,-11.181 14.526,-26.708 24.517,-35.7215 7.339,-6.6203 18.235,0.2048 15.113,9.7215 -3.096,9.438 -11.805,18.763 -17.297,27 l -36.667,55 c -6.304,9.457 -12.964,24.876 -22.373,31.432 -5.225,3.64 -10.446,0.634 -14.96,-2.588 -9.141,-6.525 -18.041,-13.444 -27,-20.218 -3.855,-2.915 -8.782,-6.225 -8.782,-11.626 0,-6.705 6.853,-10.378 12.782,-8.272 10.987,3.901 21.544,15.48 31,22.272 m -44,223 c 0,-25.758 -1.333,-54.557 -23.004,-72.535 -14.061,-11.666 -33.654,-16.588 -48.996,-26.82 -16.907,-11.276 -32.0003,-32.15 -54,-19.645 10.6549,18.701 30.8778,33.871 46,49 5.268,5.27 15.187,14.699 4.895,20.896 -9.842,5.925 -25.7969,-16.798 -31.895,-22.896 -11.8284,-11.828 -24.8094,-23.094 -34.2539,-37 -10.087,-14.853 -15.9504,-32.598 -23.027,-49 -3.6056,-8.357 -7.9668,-26.191 -20.71447,-21.258 -10.4856,4.058 -5.74825,14.975 -2.58025,22.258 9.05462,20.816 18.81662,41.361 28.26702,62 13.077,28.56 35.3802,48.072 57.3086,70 7.1125,7.113 16.459,20.879 26,24.397 6.695,2.468 16.91,0.603 24,0.603 h 52 m 254,-119 c -22.07,-12.546 -36.986,8.304 -54,19.645 -15.343,10.228 -34.936,15.155 -48.996,26.82 -21.671,17.978 -23.004,46.777 -23.004,72.535 h 52 c 7.09,0 17.305,1.865 24,-0.603 9.541,-3.518 18.887,-17.284 26,-24.397 21.671,-21.671 43.624,-40.938 56.78,-69 9.789,-20.88 19.597,-41.854 28.796,-63 3.168,-7.283 7.905,-18.2 -2.581,-22.258 -12.747,-4.933 -17.109,12.901 -20.714,21.258 -7.077,16.401 -12.94,34.147 -23.027,49 -9.445,13.906 -22.426,25.172 -34.254,37 -6.099,6.099 -22.026,28.831 -31.945,22.257 -10.081,-6.681 0.57,-15.88 5.945,-21.257 14.823,-14.829 34.554,-29.667 45,-48 m -336,138 v 73 h 100 v -73 h -100 m 192,0 v 73 h 100 v -73 h -100 m -129.999,27.434 c 4.683,-1.29 12.932,-1.205 16.771,2.08 5.812,4.973 2.941,13.546 -3.776,15.682 -4.861,1.546 -12.728,1.666 -16.852,-1.71 -5.979,-4.895 -3.283,-14.086 3.857,-16.052 m 156,-0.09 c 4.704,-0.97 12.016,-1.173 15.855,2.09 6.414,5.451 2.799,14.649 -4.856,16.222 -5.033,1.034 -12.758,0.862 -16.566,-3.075 -5.284,-5.462 -1.151,-13.852 5.567,-15.237 z"
       id="path1030"
       inkscape:export-filename="..\..\hospital\insurance Classes.svg"
       inkscape:export-xdpi="96"
       inkscape:export-ydpi="96" /></g></svg>
