<?xml version="1.0" encoding="UTF-8" standalone="no"?>
<!-- Created with Inkscape (http://www.inkscape.org/) -->

<svg
   version="1.1"
   id="svg2"
   width="465.41638"
   height="448.48328"
   viewBox="0 0 465.41638 448.48328"
   sodipodi:docname="safe.png"
   inkscape:export-filename="safe.svg"
   inkscape:export-xdpi="96"
   inkscape:export-ydpi="96"
   xml:space="preserve"
   xmlns:inkscape="http://www.inkscape.org/namespaces/inkscape"
   xmlns:sodipodi="http://sodipodi.sourceforge.net/DTD/sodipodi-0.dtd"
   xmlns="http://www.w3.org/2000/svg"
   xmlns:svg="http://www.w3.org/2000/svg"><defs
     id="defs6" /><sodipodi:namedview
     id="namedview4"
     pagecolor="#ffffff"
     bordercolor="#000000"
     borderopacity="0.25"
     inkscape:showpageshadow="2"
     inkscape:pageopacity="0.0"
     inkscape:pagecheckerboard="0"
     inkscape:deskcolor="#d1d1d1"
     showgrid="false" /><g
     inkscape:groupmode="layer"
     inkscape:label="Image"
     id="g8"
     transform="translate(-811.92273,-793.16052)"><path
       style="fill:#010101;stroke:none"
       d="m 892.80838,969.49229 c 18.076,0 45.605,-5.137 62,3.403 23.986,12.494 22.905,45.81801 -1,57.60201 -8.576,4.227 -18.743,2.995 -28,2.995 h -50 c -4.2783,18.054 -20.3286,31.613 -39,32 v -16 c 9.2894,-0.76 17.6421,-5.217 21.6474,-14 2.6712,-5.857 1.2612,-14.455 8.368,-17.258 5.3863,-2.124 13.2726,-0.742 18.9846,-0.742 h 41 c 7.691,0 17.445,1.555 23.906,-3.569 9.041,-7.169 7.304,-21.56601 -2.91,-26.74301 -5.323,-2.698 -12.216,-1.688 -17.996,-1.688 -26.486,0 -56.9324,-4.209 -83,0.329 -11.7576,2.046 -22.4907,9.523 -34,12.671 v 76.00001 c 0,6.833 -2.8197,21.962 1.6034,27.482 15.7555,19.665 56.1562,11.518 78.3966,11.518 v 92 c 0,8.132 -3.495,27.199 2.653,33.347 3.757,3.758 10.533,2.653 15.347,2.653 h 38 155.00002 43 c 5.088,0 12.438,1.204 15.991,-3.394 5.059,-6.547 2.009,-22.682 2.009,-30.606 v -82 -215.00001 c 0,-35.471 2.005,-71.5945 -0.043,-107 -0.531,-9.1744 -7.253,-9.997 -14.957,-10 h -45 -150.00002 -40 c -5.317,0 -13.025,-1.3696 -17.786,1.4568 -4.445,2.6388 -4.206,8.0278 -4.214,12.5432 v 31 131 m 134.00002,-159.5949 c 10.628,-1.9477 27.397,9.8421 37,14.0193 10.707,4.6574 21.356,9.4714 32,14.27 4.063,1.8318 9.505,3.2342 11.821,7.4105 4.205,7.5831 1.179,23.3461 1.179,31.8951 0,26.709 0.078,50.548 -18.439,71.985 -8.005,9.268 -18.521,16.767 -27.561,25.015 -7.801,7.118 -22.251,25.442 -33,26.72801 -4.922,0.588 -8.589,-3.39401 -12,-6.30701 -8.131,-6.947 -16.078,-14.161 -24.00002,-21.346 -8.733,-7.921 -18.847,-15.158 -26.561,-24.09 -18.517,-21.437 -18.439,-45.276 -18.439,-71.985 0,-8.876 -2.612,-22.6836 0.742,-30.9568 2.576,-6.3533 13.522,-8.763 19.258,-11.3488 17.765,-8.0086 38.84502,-21.7789 58.00002,-25.2893 m 1,17.2292 c -15.263,2.0041 -32.84902,14.2564 -47.00002,20.3657 -4.163,1.797 -13.339,4.0224 -15.397,8.3904 -2.989,6.3456 -0.603,18.6366 -0.603,25.6096 0,10.586 -0.953,21.619 1.503,32 4.905,20.735 21.154,33.277 36.49702,46.576 5.563,4.821 18.431,21.219 26,21.219 3.281,0 6.722,-4.086 9,-6.08 7.394,-6.47 14.723,-13.039 22,-19.64 6.508,-5.903 13.933,-11.274 19.535,-18.076 13.975,-16.966 13.465,-36.271 13.465,-56.999 0,-6.23 2.612,-20.1513 -1.028,-25.3627 -2.223,-3.1834 -7.601,-4.423 -10.972,-5.9429 -8.314,-3.7478 -16.638,-7.4812 -25,-11.1188 -7.417,-3.2265 -19.814,-12.0162 -28,-10.9413 m 41,35.3657 11,11 v 1 l -33,33 c -4.382,4.382 -9.701,12.026 -16,13.551 -8.888,2.152 -18.631,-12.073 -23.995,-17.551 -2.832,-2.892 -6.365,-5.877 -3.628,-10 0.952,-1.435 2.336,-2.808 3.628,-3.937 11.003,-9.62 14.537,14.017 23.995,9.301 14.791,-7.374 24.384,-26.773 38,-36.364 m 136,75 h 32 c 0,-11.393 3.52,-29.903 -2.367,-39.985 -6.58,-11.268 -23.355,-10.029 -28.405,1.986 -4.326,10.293 -1.228,26.928 -1.228,37.999 m 48,0 v 16 h 8 v 72.00001 h 16 v -62.00001 c 0,-6.391 2.293,-18.402 -2.653,-23.347 -4.684,-4.685 -15.302,-2.653 -21.347,-2.653 m -48,16 v 224.00001 h 32 V 953.49229 h -32 M 956.80838,1065.4923 v 16 h -32 v -16 h 32 m 176.00002,0 v 16 H 972.80838 v -16 h 160.00002 m -176.00002,48 v 16 h -32 v -16 h 32 m 176.00002,0 v 16 H 972.80838 v -16 h 160.00002 m -176.00002,48 v 16 h -32 v -16 h 32 m 176.00002,0 v 16 H 972.80838 v -16 h 160.00002 m 75,32 12,37 h 2 l 12,-37 h -26 m -251.00002,16 v 16 h -32 v -16 h 32 m 176.00002,0 v 16 H 972.80838 v -16 z"
       id="path1026" /></g></svg>
