<?xml version="1.0" encoding="UTF-8" standalone="no"?>
<!-- Created with Inkscape (http://www.inkscape.org/) -->

<svg
   version="1.1"
   id="svg2"
   width="407.03442"
   height="513.65393"
   viewBox="0 0 407.03442 513.65393"
   sodipodi:docname="safe.png"
   inkscape:export-filename="safe.svg"
   inkscape:export-xdpi="96"
   inkscape:export-ydpi="96"
   xml:space="preserve"
   xmlns:inkscape="http://www.inkscape.org/namespaces/inkscape"
   xmlns:sodipodi="http://sodipodi.sourceforge.net/DTD/sodipodi-0.dtd"
   xmlns="http://www.w3.org/2000/svg"
   xmlns:svg="http://www.w3.org/2000/svg"><defs
     id="defs6" /><sodipodi:namedview
     id="namedview4"
     pagecolor="#ffffff"
     bordercolor="#000000"
     borderopacity="0.25"
     inkscape:showpageshadow="2"
     inkscape:pageopacity="0.0"
     inkscape:pagecheckerboard="0"
     inkscape:deskcolor="#d1d1d1"
     showgrid="false" /><g
     inkscape:groupmode="layer"
     inkscape:label="Image"
     id="g8"
     transform="translate(-1513.5168,39.51268)"><path
       style="fill:#020202;stroke:none"
       d="M 1695.8084,-8.507706 V 273.49229 l 34,9.722 35,-9.714 34,9.651 34,-9.62 36,9.683 24,-7.951 24,-0.771 c -7.411,-35.905 -27.389,-70.057 -56,-93.195 -9.068,-7.334 -18.566,-13.822 -29,-19.052 -4.468,-2.24 -13.318,-4.564 -15.972,-8.978 -2.154,-3.581 -1.028,-9.759 -1.028,-13.775 v -31 -116.999996 c 5.821,0 12.744,0.9808 17.985,-2.0895 8.968,-5.2549 9.456,-19.2487 0.972,-25.20756 -8.908,-6.25622 -27.507,-2.70294 -37.957,-2.70294 h -77 c -11.576,0 -25.734,-2.20618 -37,0.533173 -10.983,2.670567 -14.825,17.324027 -6.786,25.242327 5.478,5.3967 13.76,4.2245 20.786,4.2245 m -172,198.999996 h 141 c 0,-25.988 -2.262,-53.112 0.059,-78.985 0.902,-10.06 15.924,-14.220996 7.932,-26.974996 -6.337,-10.112 -21.877,-7.04 -31.991,-7.04 h -91 c -10.4226,0 -27.5546,-3.463 -33.9907,7.015 -7.9044,12.87 7.0203,16.799996 7.9321,26.999996 2.3132,25.876 0.059,52.994 0.059,78.985 m 262,25.341 c 19.038,-3.586 25.034,25.733 6,29.318 -19.038,3.586 -25.035,-25.733 -6,-29.318 m -262,4.659 v 27 c 10.4075,0 25.2243,-2.686 35,1.148 11.952,4.687 13.051,20.391 1.9961,26.762 -9.3053,5.363 -26.526,2.09 -36.9961,2.09 v 30 c 10.4701,0 27.6908,-3.273 36.9961,2.09 11.0549,6.371 9.9559,22.075 -1.9961,26.762 -9.7757,3.834 -24.5925,1.148 -35,1.148 v 30 c 10.4075,0 25.2243,-2.686 35,1.148 11.952,4.687 13.051,20.391 1.9961,26.762 -9.3053,5.363 -26.526,2.09 -36.9961,2.09 0,22.932 6.1829,43.153 24,58.816 31.644,27.817 84.485,20.385 106.536,-15.816 14.061,-23.084 10.464,-50.128 10.464,-76 v -144 h -141 m 172,83 c 0,36.897 4.77,77.614 -1.615,114 -2.427,13.832 -8.678,25.065 -13.385,38 70.659,41.085 167.938,10.535 211.645,-55 13.605,-20.399 23.238,-44.577 26.2,-69 0.686,-5.654 3.828,-18.364 0.127,-23.298 -2.744,-3.659 -11.778,-4.958 -15.972,-4.362 -12.988,1.846 -23.108,10.969 -37,9.486 -10.772,-1.149 -20.369,-9.275 -31,-9.559 -10.814,-0.289 -20.937,8.835 -32,9.643 -13.785,1.006 -24.024,-9.106 -37,-9.632 -11.093,-0.45 -21.611,8.853 -33,9.632 -13.474,0.923 -24.305,-7.255 -37,-9.91 m 46,31.341 c 19.038,-3.586 25.035,25.733 6,29.318 -19.038,3.586 -25.034,-25.733 -6,-29.318 m 55,30 c 19.038,-3.586 25.035,25.733 6,29.318 -19.038,3.586 -25.035,-25.733 -6,-29.318 z"
       id="path1024" /></g></svg>
