<?xml version="1.0" encoding="UTF-8" standalone="no"?>
<!-- Created with Inkscape (http://www.inkscape.org/) -->

<svg
   version="1.1"
   id="svg2"
   width="513.63831"
   height="514.71307"
   viewBox="0 0 513.63831 514.71307"
   sodipodi:docname="safe.png"
   inkscape:export-filename="safe.svg"
   inkscape:export-xdpi="96"
   inkscape:export-ydpi="96"
   xml:space="preserve"
   xmlns:inkscape="http://www.inkscape.org/namespaces/inkscape"
   xmlns:sodipodi="http://sodipodi.sourceforge.net/DTD/sodipodi-0.dtd"
   xmlns="http://www.w3.org/2000/svg"
   xmlns:svg="http://www.w3.org/2000/svg"><defs
     id="defs6" /><sodipodi:namedview
     id="namedview4"
     pagecolor="#ffffff"
     bordercolor="#000000"
     borderopacity="0.25"
     inkscape:showpageshadow="2"
     inkscape:pageopacity="0.0"
     inkscape:pagecheckerboard="0"
     inkscape:deskcolor="#d1d1d1"
     showgrid="false" /><g
     inkscape:groupmode="layer"
     inkscape:label="Image"
     id="g8"
     transform="translate(-799.98926,40.229897)"><path
       style="fill:#020202;stroke:none"
       d="m 1013.8084,-37.975296 c -12.264,2.92639 -17.30102,21.31929 -27.00002,28.94979 -6.759,5.3177 -14.557,8.5617 -23,10.0541 -6.976,1.2331 -14.115,0.0891 -18.867,6.6489 -7.774,10.7332 -3.133,35.0471 -3.133,47.8148 0,47.768996 -1.506,94.041996 27.424,134.999996 16.173,22.897 37.82402,41.752 63.57602,53.138 8.729,3.86 19.278,9.274 29,6.963 54.108,-12.862 94.988,-63.547 106.576,-116.101 4.623,-20.969 3.424,-42.674996 3.424,-63.999996 v -41 c 0,-6.4444 1.106,-14.0535 -2,-19.9599 -6.082,-11.5664 -27.3,-8.5426 -38,-15.1088 -6.178,-3.7915 -11.813,-8.9293 -15.907,-14.9313 -3.487,-5.1143 -5.713,-12.08853 -11.186,-15.4668 -6.927,-4.27545 -17.122,-2.5332 -24.907,-2.5332 -20.444,0 -46.132,-4.20862 -66,0.53241 m 28,151.467586 26,-25.999996 c 7.265,-7.265 15.352,-18.737 25,-22.772 11.748,-4.9129 22.692,4.662 20.786,16.772 -1.179,7.494 -8.742,12.956 -13.786,18 l -37,36.999996 c -5.406,5.406 -10.751,12.589 -19,12.953 -11.239,0.496 -18.818,-10.771 -26,-17.953 -6.522,-6.522 -17.51,-13.982 -17.95302,-24 -0.463,-10.487996 9.57302,-19.188996 19.95302,-14.990996 8.168,3.304 17.026,13.928996 22,20.990996 m -143.00002,90.428 c -9.3059,1.336 -18.1948,4.66 -26,9.932 -47.4654,32.055 -18.3375,111.802 39,104.351 9.213,-1.198 18.202,-4.36 26,-9.41 49.147,-31.832 19.303,-113.244 -39,-104.873 m 302.00002,0 c -9.306,1.336 -18.195,4.66 -26,9.932 -47.465,32.055 -18.338,111.802 39,104.351 9.213,-1.198 18.202,-4.36 26,-9.41 49.147,-31.832 19.303,-113.244 -39,-104.873 m -150,70.011 c -8.861,1.384 -16.917,4.481 -23.999,10.079 -36.12902,28.558 -10.136,91.249 35.999,84.043 8.861,-1.384 16.917,-4.481 23.999,-10.079 36.129,-28.558 10.136,-91.249 -35.999,-84.043 m -207.00002,49.561 c -35.47458,28.791 -43,63.476 -43,107 0,11.436 -4.37401,33.386 7.09336,40.467 9.69444,5.986 27.87124,2.533 38.90664,2.533 h 95 c 0,-33.261 -1.078,-64.338 16.604,-94 5.767,-9.673 13.172,-18.246 21.396,-25.91 2.956,-2.755 9.259,-6.26 7.418,-11.09 -1.984,-5.204 -14.257,-18.63 -20.418,-17.629 -4.05,0.658 -7.759,5.308 -11,7.587 -6.516,4.581 -13.519,8.269 -21,10.988 -22.241,8.083 -46.9055,6.257 -68,-4.316 -8.4358,-4.229 -15.0945,-10.686 -23,-15.63 m 328.00002,150 h 95 c 11.035,0 29.212,3.453 38.907,-2.533 11.467,-7.081 7.093,-29.031 7.093,-40.467 0,-43.396 -7.493,-78.378 -43,-107 -8.237,5.151 -15.203,11.793 -24,16.191 -20.463,10.232 -45.549,11.81 -67,3.744 -7.431,-2.794 -14.5,-6.407 -21,-10.977 -3.241,-2.279 -6.95,-6.929 -11,-7.587 -6.165,-1.001 -18.428,12.424 -20.418,17.628 -1.818,4.753 4.534,8.281 7.418,11.04 8.151,7.798 15.603,16.244 21.396,25.961 17.66,29.625 16.604,60.771 16.604,94 m -200.00002,0 h 170.00002 c 0,-27.146 2.492,-54.791 -12.204,-79 -3.444,-5.673 -8.139,-13.555 -13.966,-17.052 -5.386,-3.233 -10.865,4.213 -14.83,7.009 -11.13,7.847 -24.485,12.582 -38,13.873 -14.996,1.433 -29.848,-2.61 -43,-9.612 -5.35,-2.848 -12.947,-11.987 -18.961,-12.14 -6.79202,-0.173 -14.45002,13.912 -17.43502,18.922 -14.205,23.842 -11.604,51.386 -11.604,78 z"
       id="path1022" /></g></svg>
