<?xml version="1.0" encoding="UTF-8" standalone="no"?>
<!-- Created with Inkscape (http://www.inkscape.org/) -->

<svg
   version="1.1"
   id="svg2"
   width="679.40381"
   height="681.72412"
   viewBox="0 0 679.40381 681.72412"
   sodipodi:docname="safe.png"
   inkscape:export-filename="safe.svg"
   inkscape:export-xdpi="96"
   inkscape:export-ydpi="96"
   xml:space="preserve"
   xmlns:inkscape="http://www.inkscape.org/namespaces/inkscape"
   xmlns:sodipodi="http://sodipodi.sourceforge.net/DTD/sodipodi-0.dtd"
   xmlns="http://www.w3.org/2000/svg"
   xmlns:svg="http://www.w3.org/2000/svg"><defs
     id="defs6" /><sodipodi:namedview
     id="namedview4"
     pagecolor="#ffffff"
     bordercolor="#000000"
     borderopacity="0.25"
     inkscape:showpageshadow="2"
     inkscape:pageopacity="0.0"
     inkscape:pagecheckerboard="0"
     inkscape:deskcolor="#d1d1d1"
     showgrid="false" /><g
     inkscape:groupmode="layer"
     inkscape:label="Image"
     id="g8"
     transform="translate(-1397.4353,-579.10144)"><path
       style="fill:#050505;stroke:none;stroke-width:1.33333"
       d="m 1698.1417,759.49229 h -185.3333 c -27.0492,0 -61.8768,-5.83867 -88,1.236 -32.3106,8.752 -36.7784,51.872 -9.3334,69.25334 19.8882,12.59466 57.3051,5.51066 80,5.51066 v -20 c -18.5713,0 -48.088,5.63867 -65.3333,-1.34533 -15.1836,-6.14934 -17.5944,-26.69067 -1.3323,-33.30934 12.6571,-5.15066 33.0991,-1.34533 46.6656,-1.34533 h 108 v 36 h -66.6666 v 20 H 1647.475 V 951.4923 c -7.6466,0.76666 -14.7413,3.65866 -20,9.33333 h -1.3333 c -8.1413,-11.55733 -26.5747,-34.24533 -40,-39.196 -9.6107,-3.54267 -24.4787,-0.804 -34.6667,-0.804 h -77.3333 v 20 h 73.3333 c 8.764,0 22.6894,-2.61867 30.6667,1.37067 8.512,4.256 31.6693,25.06 33.172,34.62933 2.228,14.19867 -6.648,25.88267 -0.552,41.33337 3.7813,9.5866 10.612,18.1626 19.38,23.6373 4.7547,2.9693 14.164,4.3867 16.5293,9.888 4.3854,10.2067 0.804,28.7373 0.804,39.808 v 94.6667 h 20 v -97.3334 l 1.3707,-38.296 24.8947,-16.424 15.26,-23.1426 29.1413,-0.804 h 69.3333 v 54.6666 h 20 v -82.66664 c 0,-7.04933 -3.0186,-23.22533 3.0907,-28.10266 25.8347,-20.62534 36.1054,20.96133 56.9094,28.632 10.2933,3.79466 26.4106,0.804 37.3333,0.804 h 84 v -20 h -84 c -10.332,0 -24.9547,2.87733 -33.3333,-4.19734 -7.744,-6.54 -26.0107,-20.472 -28.4841,-30.46933 -1.588,-6.41467 3.7107,-15.776 3.8774,-22.66667 0.5547,-23.06533 -16.1054,-45.84267 -39.3934,-49.33333 v -21.33334 h 154.6667 c 21.9974,0 51.276,5.01867 72,-3.304 29.0534,-11.668 30.5094,-54.64133 2.6667,-68.69733 -11.336,-5.72267 -25.0613,-3.99867 -37.3333,-3.99867 h -69.3334 v 20 c 28.916,0 63.7067,-5.34267 92,0.45867 14.9054,3.056 19.5227,21.4 7.8747,30.98266 -10.4027,8.55867 -31.244,4.55867 -43.8747,4.55867 H 1891.475 v -36 h 38.6667 v -20 h -153.3333 c 0,-6.74667 -1.7054,-16.208 0.804,-22.54667 4.2466,-10.728 17.496,-18.192 22.7653,-29.45333 11.396,-24.35814 11.3973,-64.97187 0,-89.33334 -29.2507,-62.5216 -123.7653,-46.01481 -132.5173,21.33334 -2.568,19.76453 -3.048,46.78013 4.7826,65.33333 5.532,13.108 18.076,20.20934 24.128,32.02 3.148,6.14267 1.3707,15.90667 1.3707,22.64667 m 89.3333,-101.33334 -22.7186,-25.29626 -22.6147,-1.3704 h -52 c 9.304,-32.22094 51.6787,-43.09201 77.3333,-23.29427 16.4014,12.65666 20,30.40333 20,49.96093 m -353.3333,-42.66667 v 116.00001 h 20 v -96.00001 h 96 v -20 h -116 m 489.3333,0 v 20 h 97.3334 v 96.00001 h 18.6666 V 615.49228 h -116 m -236,36.00001 c 20.2427,0 47.072,-4.7084 66.6147,0.42386 5.0547,1.32774 7.9373,6.31894 10.888,10.2428 7.1587,9.52054 22.9,23.12107 17.8573,36 -11.9666,30.56534 -52.044,36.964 -76.688,18.76401 -7.524,-5.55707 -13.396,-13.88001 -16.3386,-22.76401 -4.396,-13.2724 -2.3334,-28.8588 -2.3334,-42.66666 m 69.3334,93.33333 c 0,6.68267 1.8866,16.78534 -2.1374,22.52667 -7.02,10.012 -28.7066,11.62133 -35.1586,0 -3.2614,-5.87333 -1.3707,-15.98533 -1.3707,-22.52667 h 38.6667 m 114.6666,34.66667 v 36 h -64 v 41.33334 c -34.4106,5.15733 -50.9266,48.37466 -31.1506,76 4.5506,6.356 10.9653,12.33733 17.8173,16.12667 3.724,2.05866 10.5053,2.968 12.5293,7.09866 4.06,8.288 0.804,24.91734 0.804,34.108 h -70.6666 c -7.8374,0 -21.6654,2.67734 -28.7747,-0.804 -4.888,-2.39466 -6.5093,-12.17733 -9.6107,-16.52933 -7.608,-10.676 -18.2026,-18.30667 -30.948,-21.33333 V 815.49229 h -64 v -36 l 96,0.19733 37.3334,15.564 37.3333,-15.564 97.3333,-0.19733 m -184,53.33334 v 53.33333 h 20 v -53.33333 h -20 m 122.6667,43.10533 c 39.2347,-7.02 51.6307,51.63867 12,58.93734 -36.6333,6.74533 -49.0387,-52.30801 -12,-58.93734 m -122.6667,30.228 v 20 c 18.0454,0 20,-1.95466 20,-20 h -20 m -37.3333,64.43867 c 39.3933,-7.04933 51.68,51.62937 12,58.93737 -36.5787,6.736 -49.0613,-52.30404 -12,-58.93737 m 77.3333,100.89467 v 189.3333 h 20 v -189.3333 h -20 m 80,13.3333 c 0,8.5774 3.264,25.5627 -1.3706,32.9627 -3.3667,5.376 -13.4947,7.0733 -18.6294,10.756 -13.0546,9.36 -19.9973,24.4413 -19.9973,40.2813 0,15.84 6.9427,30.9214 19.9973,40.2814 5.1347,3.6826 15.2627,5.38 18.6294,10.756 5.3826,8.5946 1.3706,29.6026 1.3706,39.6293 h 20 v -42.6667 c 23.7947,-2.0906 40.0627,-26.6626 39.2081,-49.3333 -0.2894,-7.6813 -7.6881,-21.5533 -3.8334,-28 20.6667,-34.5573 60.912,-25.3333 95.292,-25.3333 v -20 h -53.3333 l -25.3333,0.804 -34.6667,30.2426 -17.3334,-4.38 v -36 h -20 m -373.3333,20 v 116 h 116 v -18.6666 h -96 v -97.3334 h -20 m 586.6667,0 v 70.6667 l -2.1373,24.5293 -24.5294,2.1374 h -70.6666 v 18.6666 h 116 v -116 h -18.6667 m -210.6667,35.1054 c 40.2187,-7.068 51.0187,52.636 10.6667,58.9226 -36.036,5.6147 -46.9574,-52.5453 -10.6667,-58.9226 m -162.6667,66.228 v 53.3333 h 20 v -53.3333 z"
       id="path1034" /></g></svg>
