<?xml version="1.0" encoding="UTF-8" standalone="no"?>
<!-- Created with Inkscape (http://www.inkscape.org/) -->

<svg
   version="1.1"
   id="svg2"
   width="431.94922"
   height="464"
   viewBox="0 0 431.94922 464"
   sodipodi:docname="safe.png"
   inkscape:export-filename="safe.svg"
   inkscape:export-xdpi="96"
   inkscape:export-ydpi="96"
   xml:space="preserve"
   xmlns:inkscape="http://www.inkscape.org/namespaces/inkscape"
   xmlns:sodipodi="http://sodipodi.sourceforge.net/DTD/sodipodi-0.dtd"
   xmlns="http://www.w3.org/2000/svg"
   xmlns:svg="http://www.w3.org/2000/svg"><defs
     id="defs6" /><sodipodi:namedview
     id="namedview4"
     pagecolor="#ffffff"
     bordercolor="#000000"
     borderopacity="0.25"
     inkscape:showpageshadow="2"
     inkscape:pageopacity="0.0"
     inkscape:pagecheckerboard="0"
     inkscape:deskcolor="#d1d1d1"
     showgrid="false" /><g
     inkscape:groupmode="layer"
     inkscape:label="Image"
     id="g8"
     transform="translate(-12.480545,-753.49231)"><path
       style="fill:#020202;stroke:none"
       d="m 236.80838,801.49229 c -17.943,0 -49.983,-6.5466 -60.633,12 -6.819,11.873 -3.367,30.762 -3.367,44 h 224 c 0,-13.238 3.452,-32.127 -3.367,-44 -10.65,-18.5466 -42.69,-12 -60.633,-12 0,-12.3028 3.518,-30.613 -4.789,-40.8148 -5.64,-6.926 -14.047,-7.1852 -22.211,-7.1852 h -44 c -7.124,0.003 -14.471,0.6189 -19.66,6.1883 -9.137,9.8078 -5.34,29.4982 -5.34,41.8117 m 72,-24 v 24 h -48 v -24 h 48 m -136,104 v 46 c 0,9.75 -0.345,19.445 7.105,26.895 11.214,11.214 32.464,7.105 46.895,7.105 h 117 c 14.232,0 34.831,3.959 45.895,-7.105 7.45,-7.45 7.105,-17.145 7.105,-26.895 v -46 h -224 m -69,147.00001 29,105 c 11.158,-4.646 22.147,-10.42 33,-15.756 4.744,-2.332 10.57,-6.685 16,-6.731 6.689,-0.056 14.59,3.53 21,5.347 20.958,5.94 46.961,18.068 69,15.97 16.865,-1.605 30.323,-9.254 45,-17.05 21.076,-11.195 41.805,-23.072 63,-34.038 13.786,-7.134 27.479,-14.696 41,-22.318 6.119,-3.449 13.742,-6.225 18.471,-11.609 9.697,-11.042 5.046,-29.807 -8.471,-35.332 -11.273,-4.607 -26.035,2.269 -37,5.377 -13.982,3.963 -34.533,5.583 -46.775,13.419 -6.904,4.418 -10.584,17.522 -17.225,23.628 -13.892,12.773 -34.122,13.453 -52,14.104 -5.55,0.202 -11.615,2.188 -16.996,-0.02 -10.536,-4.324 -9.805,-18.916 0.997,-22.338 20.477,-6.487 63.3,5.244 60.908,-29.653 -0.287,-4.186 -1.483,-8.395 -3.674,-11.985 -10.361,-16.98301 -40.358,-11.01501 -57.235,-11.01501 -29.644,0 -62.151,-3.745 -91,4.152 -23.806,6.51601 -44.375,21.42801 -67,30.84801 m -91,189 c 26.2305,-10.979 52.2133,-26.604 77,-40.576 6.344,-3.575 21.429,-7.779 23.562,-15.467 2.433,-8.768 -4.434,-23.437 -6.852,-31.957 -6.789,-23.919 -13.059,-48.001 -19.559,-72 -2.262,-8.354 -3.514,-25.745 -10.3786,-31.482 -4.4824,-3.746 -10.228,-0.664 -14.7724,1.344 -11.7074,5.172 -23.3627,10.501 -35,15.829 -3.7892,1.735 -10.5116,3.218 -12.9722,6.807 -2.2409,3.27 -1.0278,9.725 -1.0278,13.502 v 32 z"
       id="path1020" /></g></svg>
