<?xml version="1.0" encoding="UTF-8" standalone="no"?>
<!-- Created with Inkscape (http://www.inkscape.org/) -->

<svg
   version="1.1"
   id="svg2"
   width="481.2619"
   height="482.5184"
   viewBox="0 0 481.2619 482.5184"
   sodipodi:docname="safe.png"
   inkscape:export-filename="safe.svg"
   inkscape:export-xdpi="96"
   inkscape:export-ydpi="96"
   xml:space="preserve"
   xmlns:inkscape="http://www.inkscape.org/namespaces/inkscape"
   xmlns:sodipodi="http://sodipodi.sourceforge.net/DTD/sodipodi-0.dtd"
   xmlns="http://www.w3.org/2000/svg"
   xmlns:svg="http://www.w3.org/2000/svg"><defs
     id="defs6" /><sodipodi:namedview
     id="namedview4"
     pagecolor="#ffffff"
     bordercolor="#000000"
     borderopacity="0.25"
     inkscape:showpageshadow="2"
     inkscape:pageopacity="0.0"
     inkscape:pagecheckerboard="0"
     inkscape:deskcolor="#d1d1d1"
     showgrid="false" /><g
     inkscape:groupmode="layer"
     inkscape:label="Image"
     id="g8"
     transform="translate(-35.865536,765.02612)"><path
       style="fill:#010101;stroke:none"
       d="m 68.808376,-346.50771 v 32 h -32 v 32 H 516.80838 v -32 h -32 v -32 c 8.217,0 19.06,1.965 25.906,-3.558 7.086,-5.716 6.094,-14.29 6.094,-22.442 v -50 -242 -66 c 0,-8.6389 2.071,-19.9275 -4.34,-26.8117 -7.458,-8.0078 -21.779,-5.1883 -31.66,-5.1883 h -84 c -114.178,0 -229.985,-5.6931 -344.000004,0.0401 -8.4009,0.4225 -15.1757,6.4342 -15.9059,14.9599 -2.2769,26.5843 -0.0941,54.3096 -0.0941,81 v 243 51 c 0,8.152 -0.9917,16.726 6.0941,22.442 6.8454,5.523 17.6886,3.558 25.9059,3.558 m 416.000004,-384 v 352 H 68.808376 v -352 H 484.80838 m -372,32.5579 c -19.729904,5.178 -12,46.9661 -12,62.4421 v 160 c 0,14.748 -6.014404,47.041 3.5579,58.906 5.9093,7.325 15.0429,6.094 23.4421,6.094 h 57 178 c 22.942,0 57.319,6.49 79,-0.854 18.521,-6.274 11,-46.727 11,-62.146 v -163 c 0,-14.362 6.08,-47.1657 -5.188,-57.6597 -6.35,-5.9138 -15.841,-4.3403 -23.812,-4.3403 h -58 -173 c -24.336,0 -56.505,-5.6084 -80,0.5579 m 308,31.4421 v 160 h -288 v -160 h 288 m -147,86 c -5.789,-9.909 -11.593,-30.742 -23,-35.106 -16.278,-6.229 -29.837,15.401 -43,21.017 -11.273,4.81 -30.792,1.089 -43,1.089 v 32 c 15.785,0 38.032,4.025 53,-1.108 8.305,-2.848 14.242,-10.028 22,-13.892 4.229,14.678 22.33,59.802 42,53.146 8.255,-2.793 10.523,-10.714 13,-18.146 5.672,-17.017 14.38,-35.258 17,-53 7.081,8.617 10.121,22.525 19.093,29.351 12.397,9.431 42.894,3.649 57.907,3.649 v -32 c -8.936,0 -31.536,4.069 -38.61,-1.603 -15.301,-12.268 -16.549,-49.377 -37.39,-54.839 -7.602,-1.992 -15.409,1.525 -19.004,8.446 -9.487,18.267 -13.623,41.409 -19.996,60.996 m 147,106 v 32 h -288 v -32 h 288 m 32,128 v 32 h -352 v -32 z"
       id="path1016" /></g></svg>
