<?xml version="1.0" encoding="UTF-8" standalone="no"?>
<!-- Created with Inkscape (http://www.inkscape.org/) -->

<svg
   version="1.1"
   id="svg2"
   width="457.90857"
   height="457.99429"
   viewBox="0 0 457.90857 457.99429"
   sodipodi:docname="safe.png"
   inkscape:export-filename="safe.svg"
   inkscape:export-xdpi="96"
   inkscape:export-ydpi="96"
   xml:space="preserve"
   xmlns:inkscape="http://www.inkscape.org/namespaces/inkscape"
   xmlns:sodipodi="http://sodipodi.sourceforge.net/DTD/sodipodi-0.dtd"
   xmlns="http://www.w3.org/2000/svg"
   xmlns:svg="http://www.w3.org/2000/svg"><defs
     id="defs6" /><sodipodi:namedview
     id="namedview4"
     pagecolor="#ffffff"
     bordercolor="#000000"
     borderopacity="0.25"
     inkscape:showpageshadow="2"
     inkscape:pageopacity="0.0"
     inkscape:pagecheckerboard="0"
     inkscape:deskcolor="#d1d1d1"
     showgrid="false" /><g
     inkscape:groupmode="layer"
     inkscape:label="Image"
     id="g8"
     transform="translate(856.13885,11.600832)"><path
       style="fill:#000000"
       d="m -652.19162,-10.603704 c -40.03514,4.4651698 -79.16919,19.9009398 -111.5,43.97932 -51.9971,38.72484 -84.45733,95.633684 -91.50466,160.424724 -1.2568,11.5546 -1.2568,35.4454 0,47 7.05363,64.84897 39.41186,121.57624 91.50466,160.417 73.78656,55.01578 175.28537,60.26252 253.5,13.10407 62.96012,-37.96095 103.10933,-100.64735 110.95092,-173.23166 2.14219,-19.82876 0.7619,-51.04153 -3.04139,-68.77568 l -1.05836,-4.93495 -6.67559,5.52873 c -8.07165,6.68497 -23.77899,14.64171 -34.67558,17.56533 -11.48687,3.082 -33.59295,3.07053 -45,-0.0233 -8.85942,-2.40289 -21.97311,-8.34836 -29.25941,-13.26559 -6.10966,-4.12315 -59.96509,-57.5102 -65.95754,-65.3839 -5.88036,-7.72642 -12.6862,-21.834224 -15.43733,-32.000004 -3.08865,-11.41296 -3.09777,-33.52353 -0.0186,-45 2.92362,-10.89659 10.88036,-26.6039302 17.56533,-34.67558016 l 5.52873,-6.67559004 -4.93495,-1.05836 c -17.22896,-3.6949398 -50.81962,-5.1321998 -69.98627,-2.9945098 z m 53.65994,192.546964 c 1.9042,0.9036 4.55971,3.25806 5.90112,5.23213 l 2.43894,3.58922 v 79.61998 79.61997 l -2.25,3.30594 c -3.83002,5.62746 -7.20506,7.48983 -13.57333,7.48983 -6.96693,0 -11.51795,-2.8385 -14.27124,-8.90107 -1.75596,-3.86652 -1.86275,-7.9404 -1.88347,-71.84892 l -0.022,-67.75 h -46.28811 c -46.01617,0 -46.31428,-0.0132 -50.74193,-2.25 -6.01348,-3.03792 -8.96996,-7.66212 -8.96996,-14.02985 0,-5.86343 2.51812,-10.57411 7.28428,-13.62681 3.15102,-2.01821 4.37956,-2.05999 61.06459,-2.07649 51.60874,-0.015 58.22234,0.16037 61.31107,1.62607 z m 68.71273,-191.7220742 c -24.37705,6.58909 -43.34188,25.8129102 -49.89775,50.5791502 -2.09822,7.9265 -2.09822,25.0735 0,33 3.62058,13.67754 11.23092,26.00411 23.45004,37.982364 l 6.10266,5.98237 48.97707,-48.969424 48.97707,-48.96941 -7.74088,-7.88006 c -16.00192,-16.2896202 -29.88438,-22.66165 -50.74088,-23.28998 -9.5575,-0.28794 -13.45071,0.0306 -19.12733,1.5649898 z m 51.13347,101.0730102 -48.96797,48.975614 5.48092,5.59317 c 15.35625,15.67076 29.76152,23.38843 47.33342,25.35903 29.46409,3.30427 57.17971,-12.20833 70.25115,-39.31998 4.93466,-10.23502 6.73652,-19.69542 6.18213,-32.458144 -0.83449,-19.21055 -7.8085,-33.87442 -23.48681,-49.38443 l -7.82488,-7.74088 z"
       id="path1018" /></g></svg>
