<?xml version="1.0" encoding="UTF-8" standalone="yes"?>
<!-- Created with sK1/UniConvertor (http://sk1project.org/) -->
<svg xmlns="http://www.w3.org/2000/svg" xmlns:xlink="http://www.w3.org/1999/xlink"
  width="512pt" height="512pt" viewBox="0 0 512 512"
  fill-rule="evenodd">
<g>
<g>
<path style="stroke:none; fill:#000000" d="M 122.2 1.89999C 113.1 5.60001 111.2 8.39999 78 66C 60.7 96 45.8 122 44.7 123.7L 42.8 127L 142.4 127L 242 127L 242 63.5L 242 0L 184.3 0.100006C 131.7 0.100006 126.1 0.300018 122.2 1.89999z"/>
<path style="stroke:none; fill:#000000" d="M 271 63.5L 271 127L 370 127C 424.5 127 469 126.8 469 126.7C 469 126.5 454.2 100.7 436.2 69.4C 411.6 26.9 402.2 11.4 398.7 8.00003C 390.4 -0.199951 392.2 3.05176e-05 327.8 3.05176e-05L 271 3.05176e-05L 271 63.5z"/>
<path style="stroke:none; fill:#000000" d="M 33.2 321.2L 33.5 486.5L 36.1 492C 39.4 499 46 505.6 53 508.9L 58.5 511.5L 256 511.5L 453.5 511.5L 459 508.9C 466 505.6 472.6 499 475.9 492L 478.5 486.5L 478.8 321.2L 479 156L 256 156L 33 156L 33.2 321.2zM 309.8 227.2C 314.2 229.9 316.2 233.2 316.3 237.8C 316.4 240.7 306.4 262.4 269.1 340C 243.2 394.2 220.8 439.6 219.6 440.9C 216.7 443.7 209.4 444.8 205 443C 201 441.3 197.2 436.8 196.4 432.6C 195.9 429.6 201.1 418 243 330.3C 269 276 291.1 230.3 292.2 228.8C 295.7 223.8 303.1 223.2 309.8 227.2zM 207 237C 218.3 239.2 227.4 246.3 231.2 255.9C 233.2 261 233.4 263.5 233.8 286.3C 234.3 319.7 233 326.5 224.6 335.2C 211.9 348.2 180.9 348.9 166.2 336.5C 162 333 158.5 326.1 157 318.5C 155.2 309.2 156.1 262.8 158.2 257.2C 164.7 240 183 232.4 207 237zM 333.5 325.2C 345.5 329.2 352.3 336.6 354.9 348.8C 355.5 351.9 356 364 356 377.5C 356 407.7 354.6 414.3 346.6 422.4C 338.9 430 323.8 433.9 309.5 431.9C 292.1 429.5 282.4 421.4 279.3 406.6C 277.7 399 277.6 357.8 279.1 349.5C 281.1 338.4 286.5 331.3 296.4 326.6C 306 322 322.1 321.4 333.5 325.2z"/>
<path style="stroke:none; fill:#000000" d="M 188 259.2C 181.6 261.5 181 264.2 181 290.3C 181 315.6 181.6 318.7 186.9 321.4C 190.9 323.5 198.7 323.4 203 321.2C 208.3 318.6 208.9 315.6 208.9 291C 209 267.9 208.3 262.9 204.5 260.4C 201.3 258.3 192.3 257.7 188 259.2z"/>
<path style="stroke:none; fill:#000000" d="M 309 346.8C 303.7 349.4 303.1 352.3 303.1 377.5C 303.1 391.9 303.5 400.7 304.3 403C 306.4 409.2 316.4 412 324.6 408.5C 330.4 406.1 331 403.3 331 377.5C 331 351.7 330.4 348.9 324.6 346.5C 319.9 344.5 313.3 344.6 309 346.8z"/>
</g>
</g>
</svg>