<?xml version="1.0" encoding="UTF-8" standalone="no"?>
<!-- Created with Inkscape (http://www.inkscape.org/) -->

<svg
   version="1.1"
   id="svg2"
   width="403.86945"
   height="433.41553"
   viewBox="0 0 403.86945 433.41553"
   sodipodi:docname="safe.png"
   inkscape:export-filename="safe.svg"
   inkscape:export-xdpi="96"
   inkscape:export-ydpi="96"
   xml:space="preserve"
   xmlns:inkscape="http://www.inkscape.org/namespaces/inkscape"
   xmlns:sodipodi="http://sodipodi.sourceforge.net/DTD/sodipodi-0.dtd"
   xmlns="http://www.w3.org/2000/svg"
   xmlns:svg="http://www.w3.org/2000/svg"><defs
     id="defs6" /><sodipodi:namedview
     id="namedview4"
     pagecolor="#ffffff"
     bordercolor="#000000"
     borderopacity="0.25"
     inkscape:showpageshadow="2"
     inkscape:pageopacity="0.0"
     inkscape:pagecheckerboard="0"
     inkscape:deskcolor="#d1d1d1"
     showgrid="false" /><g
     inkscape:groupmode="layer"
     inkscape:label="Image"
     id="g8"
     transform="translate(-187.89061,1880.1506)"><path
       style="fill:#020202;stroke:none"
       d="m 523.89648,-1585.7357 c -15.459,9.531 -28.6,12.23 -41,-4 -8.545,3.985 -15.386,13.386 -22,20 -15.235,15.235 -29.783,32.539 -46.17,46.471 -10.657,9.059 -28.906,10.061 -41.83,14.573 -6.229,2.175 -10.01,7.827 -16,10.423 -13.205,5.723 -28.411,-3.109 -32.072,-16.467 -3.645,-13.303 6.654,-18.312 11.079,-29 5.213,-12.59 5.323,-28.283 12.475,-39.985 9.921,-16.233 30.02,-30.517 43.518,-44.015 l 93,-93 27,-26.999 c 3.285,-3.269 9.591,-6.874 11.397,-11.185 3.042,-7.265 0.603,-19.976 0.603,-27.816 v -48 c 0,-8.3417 1.27,-17.8893 -0.927,-26 -7.291,-26.9126 -51.094,-18 -72.073,-18 h -179 -47 c -8.416,0 -17.397,-0.9998 -25,3.3665 -11.3079,6.4937 -12,18.0241 -12,29.6335 v 63 244 57 c 0,10.512 -0.5125,21.099 8.0432,28.787 7.1298,6.407 15.9858,6.213 24.9568,6.213 h 43 182 45 c 9.922,0 19.593,-0.037 26.787,-8.043 8.943,-9.952 6.213,-25.648 6.213,-37.957 v -93 m -283.985,-228.566 c 15.317,-4.326 37.046,-0.434 52.985,-0.434 h 117 c 12.861,0 28.413,-2.403 40.985,0.279 5.979,1.275 8.802,8.524 4.362,13.148 -3.499,3.645 -9.784,2.573 -14.347,2.573 h -38 -112 c -15.349,0 -36.232,3.732 -50.985,-0.434 -7.59,-2.143 -7.59,-12.989 0,-15.132 m 0,40 c 15.317,-4.326 37.046,-0.434 52.985,-0.434 h 117 c 12.861,0 28.413,-2.403 40.985,0.279 5.979,1.275 8.802,8.524 4.362,13.148 -3.499,3.645 -9.784,2.573 -14.347,2.573 h -38 -112 c -15.349,0 -36.232,3.732 -50.985,-0.434 -7.59,-2.143 -7.59,-12.989 0,-15.132 m 321.985,103.566 v 1 c -10.004,7.047 -18.353,17.353 -27,26 l -19,19 c -5.884,5.884 -16.056,12.917 -18.812,21 -2.075,6.089 3.542,12.29 9.812,10.091 7.977,-2.797 15.152,-13.243 21,-19.091 l 47,-47 c 5.277,-5.277 18.637,-14.282 16.667,-22.985 -2.763,-12.199 -13.196,-0.911 -18.667,-1.056 -3.874,-0.103 -7.951,-5.812 -11,-7.959 4.767,-4.982 9.658,-10.339 11.895,-17 6.747,-20.091 -9.844,-41.054 -30.895,-38.826 -11.365,1.202 -19.303,9.132 -27,16.826 -3.696,3.695 -16.873,13.052 -14.824,19 1.453,4.219 6.759,7.935 9.824,11 l 22,21.999 c 10.095,10.021 8.165,0.053 18,0.057 3.809,10e-4 8.013,5.84 11,7.944 m -321.985,-63.566 c 15.317,-4.326 37.046,-0.434 52.985,-0.434 h 117 c 12.861,0 28.413,-2.403 40.985,0.279 5.979,1.275 8.802,8.524 4.362,13.148 -3.499,3.645 -9.784,2.573 -14.347,2.573 h -38 -112 c -15.349,0 -36.232,3.732 -50.985,-0.434 -7.59,-2.143 -7.59,-12.989 0,-15.132 m 246.985,32.566 -117,117 v 1 l 30,30 c 2.803,2.803 7.626,9.793 12,9.793 3.17,0 5.977,-3.786 8,-5.794 l 19,-18.999 67,-67 c 4.84,-4.84 21.793,-16.891 21.793,-24 0,-4.374 -6.99,-9.197 -9.793,-12 -9.918,-9.918 -19.528,-21.919 -31,-30 m -246.985,7.434 c 9.107,-2.572 21.537,-0.434 30.985,-0.434 19.146,0 40.03,-2.386 58.996,0.133 7.202,0.957 10.69,10.344 3.79,14.549 -5.753,3.507 -17.239,1.318 -23.786,1.318 h -49 c -6.461,0 -15.902,1.725 -21.956,-0.742 -6.899,-2.812 -6.033,-12.846 0.971,-14.824 m 119.985,123.566 c -2.312,11.17 -4.922,27.228 -10.854,37 -3.017,4.97 -11.699,10.063 -7.963,16.891 2.06,3.765 7.076,4.93 10.817,3.08 4.173,-2.062 6.767,-6.33 11,-8.402 10.771,-5.272 23.789,-6.278 35,-10.569 -9.289,-13.187 -24.813,-28.711 -38,-38 z"
       id="path1859" /></g></svg>
