<?xml version="1.0" encoding="UTF-8" standalone="no"?>
<!-- Created with Inkscape (http://www.inkscape.org/) -->

<svg
   version="1.1"
   id="svg2"
   width="500.06763"
   height="495.3938"
   viewBox="0 0 500.06763 495.3938"
   sodipodi:docname="safe.png"
   inkscape:export-filename="safe.svg"
   inkscape:export-xdpi="96"
   inkscape:export-ydpi="96"
   xml:space="preserve"
   xmlns:inkscape="http://www.inkscape.org/namespaces/inkscape"
   xmlns:sodipodi="http://sodipodi.sourceforge.net/DTD/sodipodi-0.dtd"
   xmlns="http://www.w3.org/2000/svg"
   xmlns:svg="http://www.w3.org/2000/svg"><defs
     id="defs6" /><sodipodi:namedview
     id="namedview4"
     pagecolor="#ffffff"
     bordercolor="#000000"
     borderopacity="0.25"
     inkscape:showpageshadow="2"
     inkscape:pageopacity="0.0"
     inkscape:pagecheckerboard="0"
     inkscape:deskcolor="#d1d1d1"
     showgrid="false" /><g
     inkscape:groupmode="layer"
     inkscape:label="Image"
     id="g8"
     transform="translate(-105.89648,-2129.4421)"><path
       style="fill:#020202;stroke:none"
       d="m 117.89648,2196.2643 h 182 l 5,-49 h 54 l 3.025,35 2.578,12.9722 13.397,1.0278 h 34 133 c -5.437,-17.0634 -21.403,-34.1039 -31.333,-49 -3.237,-4.8544 -7.198,-14.0659 -12.841,-16.3966 -6.106,-2.5223 -16.271,-0.6034 -22.826,-0.6034 h -52 -180 -59 c -6.8912,0 -18.3309,-2.2032 -24.6744,0.6034 -5.5093,2.4375 -9.7552,12.5411 -12.9923,17.3966 -10.0731,15.1097 -24.8876,30.9943 -31.3333,48 m -12,17 v 335 h 237 l -5,-17 h -40 v -45 l 18,10.983 18,-9.983 c 0.583,-70.463 67.503,-131.961 136,-134.961 32.914,-1.441 57.985,9.414 87,22.961 v -162 h -192 v 62 l -17,-11.097 -16.576,10.37 -15.424,-10.137 -18,10.864 v -62 h -192 m 177,101.326 c 21.804,-3.643 46.878,-0.326 69,-0.326 10.648,0 23.957,-2.135 34,1.931 20.921,8.469 20.319,40.695 -2,47.13 -8.017,2.312 -17.725,0.939 -26,0.939 h -50 c -9.599,0 -22.067,2.105 -31,-1.905 -22.234,-9.98 -18.241,-43.72 6,-47.769 m 185,55.098 c -50.995,6.716 -95.032,36.967 -111.254,87.576 -26.961,84.112 42.911,177.519 133.254,166.715 64.319,-7.693 113.104,-58.477 115.961,-123.715 3.162,-72.219 -64.477,-140.252 -137.961,-130.576 m 76,63.906 c 15.181,-2.642 26.656,14.81 18.146,27.67 -7.338,11.088 -19.489,20.094 -29.146,29.09 -15.639,14.568 -30.888,29.798 -46,44.91 -7.903,7.903 -19.257,23.385 -31,24.814 -9.372,1.14 -15.784,-4.658 -22,-10.814 -12.511,-12.389 -27.714,-23.204 -38.722,-37 -5.558,-6.965 -5.355,-17.254 1.051,-23.671 16.132,-16.155 33.397,7.453 44.671,17.247 2.925,2.541 8.663,10.356 13,9.217 6.109,-1.604 12.328,-11.387 17,-15.508 16.57,-14.614 32.375,-30.66 48,-46.285 6.946,-6.946 14.713,-17.879 25,-19.67 z"
       id="path1857" /></g></svg>
