<?xml version="1.0" encoding="UTF-8" standalone="no"?>
<!-- Created with Inkscape (http://www.inkscape.org/) -->

<svg
   version="1.1"
   id="svg2"
   width="439.01184"
   height="535.57422"
   viewBox="0 0 439.01184 535.57422"
   sodipodi:docname="safe.png"
   inkscape:export-filename="safe.svg"
   inkscape:export-xdpi="96"
   inkscape:export-ydpi="96"
   xml:space="preserve"
   xmlns:inkscape="http://www.inkscape.org/namespaces/inkscape"
   xmlns:sodipodi="http://sodipodi.sourceforge.net/DTD/sodipodi-0.dtd"
   xmlns="http://www.w3.org/2000/svg"
   xmlns:svg="http://www.w3.org/2000/svg"><defs
     id="defs6" /><sodipodi:namedview
     id="namedview4"
     pagecolor="#ffffff"
     bordercolor="#000000"
     borderopacity="0.25"
     inkscape:showpageshadow="2"
     inkscape:pageopacity="0.0"
     inkscape:pagecheckerboard="0"
     inkscape:deskcolor="#d1d1d1"
     showgrid="false" /><g
     inkscape:groupmode="layer"
     inkscape:label="Image"
     id="g8"
     transform="translate(-126.05334,-1410.5299)"><path
       style="fill:#020202;stroke:none;stroke-width:1.16761"
       d="m 463.35904,1946.1037 c 0,-28.4784 9.0562,-73.9997 -11.0514,-96.8065 -12.59028,-14.2854 -29.65722,-15.2843 -47.3292,-15.2843 H 292.88769 c -19.79099,0 -39.97082,-1.0212 -54.33462,15.2843 -20.1076,22.8068 -11.05165,68.3281 -11.05165,96.8065 -42.36906,0 -81.03041,-20.7717 -94.9613,-63.0523 -6.20335,-18.8287 -5.45333,-38.8008 -5.45333,-58.3793 v -78.2319 -166.9679 c 0,-29.7116 -3.29648,-61.7445 1.8856,-91.0725 7.23533,-40.9479 42.99502,-76.0001 85.68517,-77.0462 75.01561,-1.8433 150.30897,-0.017 225.34899,-0.017 42.23505,0 83.15515,1.9677 108.32077,42.034 21.17345,33.7144 15.44611,76.3961 15.44611,114.4272 v 211.336 c 0,35.0869 5.9047,76.5828 -7.53449,109.7567 -15.81875,39.0524 -52.74444,57.2136 -92.88014,57.2136 m -198.49404,0 v -52.5431 c 0,-5.1986 -1.87815,-15.0924 1.87314,-19.2497 5.91965,-6.5611 26.20234,-2.9344 34.32419,-2.9344 h 91.07373 c 7.74598,0 26.31095,-3.3602 31.98897,2.9344 3.74931,4.1573 1.87067,14.0511 1.87067,19.2497 v 52.5431 H 264.86499 m 105.08509,-290.736 h -1.16823 c -1.84826,-21.195 -11.62008,-43.7677 -17.51431,-64.218 -2.77188,-9.62 -4.27912,-22.0694 -10.09863,-30.3568 -8.04014,-11.4531 -23.15247,-15.0897 -35.43687,-8.2872 -19.94866,11.0498 -18.63869,41.3789 -34.60565,55.4526 -11.9145,10.5016 -37.20841,-7.9859 -43.00324,15.8846 -6.93219,28.5532 36.97251,26.0049 54.25541,22.9661 17.31105,-3.0415 28.31338,-26.4435 32.69313,-41.648 14.30453,33.2387 14.31972,74.4707 31.5792,106.2471 8.77571,16.156 32.462,17.2595 43.91865,3.4897 9.9457,-11.9538 11.44249,-34.2324 15.14048,-49.021 1.20809,-4.8347 1.72121,-12.0087 4.93547,-15.9767 3.31715,-4.0925 10.6987,-2.705 15.34923,-2.705 15.09613,0 40.55816,2.1172 38.0421,-21.0183 -2.15214,-19.7754 -26.43125,-16.3453 -40.37733,-16.3453 -9.19593,0 -19.15582,-1.0711 -28.0227,1.8681 -18.38288,6.0879 -23.37066,26.4659 -25.68745,43.6681 z"
       id="path1853" /></g></svg>
