<?xml version="1.0" encoding="UTF-8" standalone="no"?>
<!-- Created with Inkscape (http://www.inkscape.org/) -->

<svg
   version="1.1"
   id="svg2"
   width="365.34247"
   height="512.19867"
   viewBox="0 0 365.34247 512.19867"
   sodipodi:docname="safe.png"
   inkscape:export-filename="safe.svg"
   inkscape:export-xdpi="96"
   inkscape:export-ydpi="96"
   xml:space="preserve"
   xmlns:inkscape="http://www.inkscape.org/namespaces/inkscape"
   xmlns:sodipodi="http://sodipodi.sourceforge.net/DTD/sodipodi-0.dtd"
   xmlns="http://www.w3.org/2000/svg"
   xmlns:svg="http://www.w3.org/2000/svg"><defs
     id="defs6" /><sodipodi:namedview
     id="namedview4"
     pagecolor="#ffffff"
     bordercolor="#000000"
     borderopacity="0.25"
     inkscape:showpageshadow="2"
     inkscape:pageopacity="0.0"
     inkscape:pagecheckerboard="0"
     inkscape:deskcolor="#d1d1d1"
     showgrid="false" /><g
     inkscape:groupmode="layer"
     inkscape:label="Image"
     id="g8"
     transform="translate(1167.1035,18.720688)"><path
       style="fill:#030303;stroke:none"
       d="m -1095.1035,19.264322 v 27 h 151.99998 v -27 c -8.142,0 -23.999,3.0269 -30.892,-1.7423 -5.429,-3.7566 -6.628,-12.8746 -10.213,-18.2577 -7.306,-10.96948 -20.78498,-17.815399 -33.89498,-17.981476 -14.582,-0.184723 -28.154,6.881016 -36.25,18.981476 -3.531,5.278 -4.323,13.5964 -9.805,17.2577 -7.076,4.7265 -22.669,1.7423 -30.945,1.7423 m 71,-30.67053 c 28.32098,-5.06809 38.29298,38.27983 10,43.34103 -27.926,4.9957 -38.055,-38.3206 -10,-43.34103 m 3.145,17.74223 c -5.44,2.8887 -0.527,10.8694 4.421,7.73 4.542,-2.8825 0.522,-10.3546 -4.421,-7.73 m -146.145,34.9283 V 429.26432 h 226.99998 c 0.313,-37.779 32.306,-70.261 69,-75 V 41.264322 h -54 c 0,7.6925 1.748,18.3341 -7.015,21.9908 -12.268,5.1186 -33.729,1.0092 -46.985,1.0092 h -84.99998 c -12.178,0 -28.255,2.7857 -40,-0.4337 -12.691,-3.4785 -2.71,-18.2195 -10.318,-21.9629 -4.025,-1.9808 -11.278,-0.6034 -15.682,-0.6034 h -37 m 137,38.2863 c 80.17098,-9.8459 135.26998,85.665698 85.57498,149.713698 -7.094,9.142 -15.585,17.192 -25.575,23.136 -10.716,6.376 -22.592,10.903 -34.99998,12.575 -81.038,10.922 -137.8335,-82.316 -88.844,-148.711 7.125,-9.656 16.488,-18.082998 26.844,-24.137998 11.352,-6.637 23.941,-10.972 37,-12.5757 m 2,17.1417 c -11.712,1.678 -23.09,5.352998 -33,11.927998 -8.343,5.535 -15.327,12.37 -20.971,20.644 -36.966,54.189 9.732,127.059 73.971,118.711 10.19398,-1.325 20.24698,-4.994 28.99998,-10.326 56.794,-34.594 42.77,-122.508 -20.99998,-139.228998 -8.833,-2.316 -18.948,-3.024 -28,-1.728 m 37.99998,47.571998 c 7.491,0 23.6,-3.028 29.721,1.742 3.667,2.857 3.272,8.113 3.279,12.258 0.015,9.273 4.311,34.035 -3.228,40.486 -6.383,5.461 -21.854,2.514 -29.772,2.514 0,7.918 2.947,23.389 -2.514,29.772 -6.458,7.547 -31.20598,3.232 -40.48598,3.228 -4.22,-0.002 -9.384,0.575 -12.258,-3.228 -4.745,-6.28 -1.742,-22.166 -1.742,-29.772 -8.087,0 -22.921,2.842 -29.786,-2.009 -3.667,-2.592 -4.154,-6.848 -4.21,-10.991 -0.133,-9.798 -4.325,-34.502 3.275,-41.682 7.275,-6.873 22.415,2.781 29.118,-3.921 6.702,-6.703 -2.952,-21.843 3.921,-29.118 7.18,-7.6 31.884,-3.408 41.682,-3.275 4.14298,0.056 8.39898,0.543 10.99098,4.21 4.851,6.865 2.009,21.699 2.009,29.786 m -39.99998,-16 c 0,8.489 3.136,24.489 -4.133,30.566 -6.305,5.271 -21.075,2.434 -28.867,2.434 v 22 c 8.219,0 23.128,-2.78 29.606,3.43 6.498,6.229 3.394,22.328 3.394,30.57 h 22 c 0,-8.677 -2.998,-24.243 4.144,-30.697 6.75098,-6.1 21.42398,-3.303 29.85598,-3.303 v -22 c -7.971,0 -23.321,2.93 -29.77498,-2.514 -7.273,-6.133 -4.225,-22.019 -4.225,-30.486 h -22 m -95,176 13,-13 c 4.721,-4.721 25.132,-20.394 23.872,-2 -0.713,10.403 -18.684,23.183 -25.872,29.957 -2.946,2.776 -6.626,6.07 -11,5.71 -5.675,-0.468 -10.29,-6.956 -14,-10.667 -3.7343,-3.735 -9.7824,-8.165 -9.7824,-13.999 0,-17.642 19.7804,-1.683 23.7824,3.999 m 54.015,-9.566 c 13.342,-3.768 32.111,-0.434 45.985,-0.434 h 98.99998 c 9.128,0 23.459,-2.72 31.956,0.742 5.299,2.16 6.573,9.657 2.471,13.605 -3.478,3.349 -9.012,2.653 -13.427,2.653 h -30 -91.99998 c -13.038,0 -30.437,3.05 -42.996,-0.434 -7.764,-2.153 -9.551,-13.714 -0.989,-16.132 m -54.015,54.566 13,-13 c 4.855,-4.853 26.632,-20.056 23.756,-1 -1.504,9.97 -17.86,21.196 -24.756,27.996 -3.035,2.993 -6.378,6.786 -11,6.786 -6.19,0 -11.047,-6.828 -15,-10.782 -3.7343,-3.735 -9.7824,-8.165 -9.7824,-13.999 0,-17.244 19.8574,-1.572 23.7824,3.999 m 54.015,-9.566 c 13.342,-3.768 32.111,-0.434 45.985,-0.434 h 100.99998 c 8.596,0 21.945,-2.522 29.956,0.742 5.656,2.305 6.7,10.825 1.816,14.516 -3.416,2.581 -8.762,1.742 -12.772,1.742 h -31 -92.99998 c -12.423,0 -30.149,3.248 -41.96,-0.653 -7.505,-2.478 -7.971,-13.669 -0.025,-15.913 m -27.015,31.015 c 8.162,-1.977 12.089,7.347 8.258,13.551 -5.221,8.453 -22.517,28.065 -32.258,30.562 -9.716,2.491 -33.6327,-20.747 -24.4275,-30.128 9.5065,-9.689 15.7025,9.388 23.4275,7.359 10.214,-2.682 14.301,-18.752 25,-21.344 m 225.99998,0.99 c -8.185,1.288 -16.005,4.398 -23,8.79 -52.875,33.203 -22.836,121.345 40,112.343 9.578,-1.372 18.945,-4.284 27,-9.792 53.021,-36.258 19.692,-121.366 -44,-111.341 m -198.95998,13.075 c 11.59,-3.665 28.805,-0.514 40.96,-0.514 27.452,0 56.73498,-2.943 83.99998,0.109 7.733,0.865 12.123,10.117 4.891,15.149 -7.019,4.884 -23.587,1.742 -31.891,1.742 h -68.99998 c -8.512,0 -22.004,2.565 -29.906,-0.742 -7.07,-2.959 -6.117,-13.511 0.946,-15.744 m 240.95998,17.924 c 8.808,-1.473 11.486,8.53 7.347,14.562 -8.376,12.209 -21.886,22.539 -32.347,33 -4.052,4.052 -8.848,10.605 -15,11.279 -4.319,0.472 -8.03,-2.657 -11,-5.373 -6.314,-5.773 -30.532,-23.914 -19.772,-33.472 12.884,-11.445 20.346,18.097 30.772,15.359 3.455,-0.907 6.582,-5.375 9,-7.793 7.651,-7.65 19.882,-25.702 31,-27.562 z"
       id="path1867" /></g></svg>
