<?xml version="1.0" encoding="UTF-8" standalone="no"?>
<!-- Created with Inkscape (http://www.inkscape.org/) -->

<svg
   version="1.1"
   id="svg2"
   width="384"
   height="448"
   viewBox="0 0 384 448"
   sodipodi:docname="safe.png"
   inkscape:export-filename="safe.svg"
   inkscape:export-xdpi="96"
   inkscape:export-ydpi="96"
   xml:space="preserve"
   xmlns:inkscape="http://www.inkscape.org/namespaces/inkscape"
   xmlns:sodipodi="http://sodipodi.sourceforge.net/DTD/sodipodi-0.dtd"
   xmlns="http://www.w3.org/2000/svg"
   xmlns:svg="http://www.w3.org/2000/svg"><defs
     id="defs6" /><sodipodi:namedview
     id="namedview4"
     pagecolor="#ffffff"
     bordercolor="#000000"
     borderopacity="0.25"
     inkscape:showpageshadow="2"
     inkscape:pageopacity="0.0"
     inkscape:pagecheckerboard="0"
     inkscape:deskcolor="#d1d1d1"
     showgrid="false" /><g
     inkscape:groupmode="layer"
     inkscape:label="Image"
     id="g8"
     transform="translate(648.10352,-13.264322)"><path
       style="fill:#020202;stroke:none"
       d="m -460.10352,13.264322 v 12 h -12 v 8 h 12 v 12 h 8 v -12 h 12 v -8 h -12 v -12 h -8 m 8,12 v 8 h -8 v -8 h 8 m -125,22 -5,5 v 1 c 6.71,6.7577 6.71,9.2423 0,16 v 1 l 5,5 h 1 c 6.758,-6.71 9.242,-6.71 16,0 h 1 l 5,-5 v -1 c -6.71,-6.7578 -6.71,-9.2423 0,-16 v -1 l -5,-5 h -1 c -7.465,7.4125 -9.118,5.5403 -17,0 m 224,0 -5,5 v 1 c 6.71,6.7577 6.71,9.2422 0,16 v 1 l 5,5 h 1 c 6.758,-6.71 9.242,-6.71 16,0 h 1 l 5,-5 v -1 c -6.71,-6.7578 -6.71,-9.2423 0,-16 v -1 l -5,-5 h -1 c -7.465,7.4124 -9.118,5.5402 -17,0 m -215,10.2068 c 4.842,0 4.841,7.5864 0,7.5864 -4.841,0 -4.842,-7.5864 0,-7.5864 m 224,0 c 4.841,0 4.842,7.5864 0,7.5864 -4.842,0 -4.841,-7.5864 0,-7.5864 m -163,27.7932 v 1 c 52.025,16.634998 106.759,30.793998 160,42.999998 -25.173,-35.734998 -75.617,-53.816698 -118,-51.960598 -14.575,0.6382 -27.939,4.7076 -42,7.9606 m -36,18.999998 c 11.81,8.425 33.945,10.189 48,13.884 32.567,8.563 65.027,19.292 98,26.116 l -2,8 c -35.877,-10.106 -72.165,-18.76 -108,-29 -10.61,-3.032 -21.304,-5.917 -32,-8.626 -3.76,-0.952 -9.129,-3.461 -13,-2.447 -4.009,1.05 -7.198,5.271 -10,8.073 -8.443,8.442 -16.856,18.125 -22,29 l 71,11 -1,8 c -17.987,-1.422 -36.188,-5.336 -54,-8.246 -4.801,-0.785 -16.128,-4.61 -20.363,-1.722 -7.716,5.261 -10.263,23.541 -12.637,31.968 l 289,39 -2,-30 c -61.522,-4.855 -122.361,-25.353 -184,-28 0.148,-2.692 0.191,-6.195 3.228,-7.307 3.308,-1.211 8.397,0.702 11.772,1.177 9.351,1.314 18.651,2.946 28,4.26 45.745,6.433 94.165,10.824 139,21.87 l -5.702,-17.297 -17.298,-5.703 -45,-12 2,-8 56,15 c -2.071,-7.187 -6.89,-18.751 -13.301,-23.062 -8.895,-5.982 -24.407,-6.997 -34.699,-9.938 -34.449,-9.844 -69.255,-19.133 -104,-27.873 -12.123,-3.049998 -29.562,-11.747998 -42,-10.551998 -7.979,0.767 -16.582,8.096 -23,12.424998 m -93,5 v 12 h -12 v 8 h 12 v 12 h 8 v -12 h 12 v -8 h -12 v -12 h -8 m 352,0 v 12 h -12 v 8 h 12 v 12 h 8 v -12 h 12 v -8 h -12 v -12 h -8 m -344,12 v 8 h -8 v -8 h 8 m 352,0 v 8 h -8 v -8 h 8 m -327,77 -1.985,29 0.741,18 -13.957,25 -29.799,52 38,10.116 15.062,6.109 5.564,18.775 9.95,37 6.152,18.972 18.272,1.028 h 51 v 47 c 38.196,-8.756 76.169,-19.615 114,-29.849 10.295,-2.785 20.655,-5.435 31,-8.024 3.908,-0.979 10.277,-1.555 13.397,-4.266 2.914,-2.533 1.603,-9.412 1.603,-12.861 v -36 -37 c 0,-5.565 -1.161,-12.694 0.728,-18 2.424,-6.813 8.47,-12.649 11.96,-19 9.7,-17.651 17.891,-38.59 18.312,-59 l -210,-28.282 z"
       id="path1847" /></g></svg>
