<?xml version="1.0" encoding="UTF-8" standalone="no"?>
<!-- Created with Inkscape (http://www.inkscape.org/) -->

<svg
   version="1.1"
   id="svg2"
   width="390.13135"
   height="448.55341"
   viewBox="0 0 390.13135 448.55341"
   sodipodi:docname="safe.png"
   inkscape:export-filename="safe.svg"
   inkscape:export-xdpi="96"
   inkscape:export-ydpi="96"
   xml:space="preserve"
   xmlns:inkscape="http://www.inkscape.org/namespaces/inkscape"
   xmlns:sodipodi="http://sodipodi.sourceforge.net/DTD/sodipodi-0.dtd"
   xmlns="http://www.w3.org/2000/svg"
   xmlns:svg="http://www.w3.org/2000/svg"><defs
     id="defs6" /><sodipodi:namedview
     id="namedview4"
     pagecolor="#ffffff"
     bordercolor="#000000"
     borderopacity="0.25"
     inkscape:showpageshadow="2"
     inkscape:pageopacity="0.0"
     inkscape:pagecheckerboard="0"
     inkscape:deskcolor="#d1d1d1"
     showgrid="false" /><g
     inkscape:groupmode="layer"
     inkscape:label="Image"
     id="g8"
     transform="translate(-1500.7098,-14.14374)"><path
       style="fill:#020202;stroke:none"
       d="m 1611.8965,180.26432 c -15.998,2.398 -32.425,14.584 -45,24.13 -36.2448,27.515 -59.767,69.843 -65.1551,114.87 -2.9091,24.311 -0.4127,48.468 17.2446,66.985 19.1724,20.106 44.2455,20.015 69.9105,20.015 h 87 c 0,-24.737 -6.577,-60.522 4.981,-83 8.062,-15.678 26.248,-24.816 33.84,-40 4.313,-8.626 2.101,-20.593 6.502,-30 14.707,-31.434 46.663,-38.154 76.677,-28 -2.934,-6.293 -8.817,-10.676 -14,-15.13 -13.902,-11.948 -33.468,-26.679 -52,-29.87 14.072,-19.977 28.098,-33.609 32.246,-59 1.894,-11.59 1.37,-24.598998 -1.376,-35.999998 -18.339,-76.1329 -119.688,-96.86975 -166.392,-34 -7.555,10.1706 -13.137,22.6295 -15.816,35 -2.877,13.286 -2.825,28.750998 0.225,41.999998 5.104,22.165 18.633,34.283 31.113,52 m 193,149 c 5.568,-24.286 8.737,-46.295 -10.04,-66 -9.027,-9.473 -21.34,-15.625 -33.96,-8.467 -17.579,9.972 -8.34,28.157 -17.069,42.467 -9.095,14.907 -26.404,24.167 -34.243,40 -3.818,7.709 -1.688,19.592 -1.688,28 v 62 c 0,9.01 -2.498,21.775 4.214,28.892 7.19,7.623 20.308,5.108 29.786,5.108 26.528,0 57.055,4.145 83,-1.665 34.478,-7.722 44.432,-39.779 57.306,-68.335 7.553,-16.754 14.677,-35.219 0.509,-50.985 -16.855,-18.757 -54.961,-11.015 -77.815,-11.015 z"
       id="path1851" /></g></svg>
