<?xml version="1.0" encoding="UTF-8" standalone="no"?>
<!-- Created with Inkscape (http://www.inkscape.org/) -->

<svg
   version="1.1"
   id="svg2"
   width="399.7038"
   height="472.4873"
   viewBox="0 0 399.7038 472.4873"
   sodipodi:docname="safe.png"
   inkscape:export-filename="safe.svg"
   inkscape:export-xdpi="96"
   inkscape:export-ydpi="96"
   xml:space="preserve"
   xmlns:inkscape="http://www.inkscape.org/namespaces/inkscape"
   xmlns:sodipodi="http://sodipodi.sourceforge.net/DTD/sodipodi-0.dtd"
   xmlns="http://www.w3.org/2000/svg"
   xmlns:svg="http://www.w3.org/2000/svg"><defs
     id="defs6" /><sodipodi:namedview
     id="namedview4"
     pagecolor="#ffffff"
     bordercolor="#000000"
     borderopacity="0.25"
     inkscape:showpageshadow="2"
     inkscape:pageopacity="0.0"
     inkscape:pagecheckerboard="0"
     inkscape:deskcolor="#d1d1d1"
     showgrid="false" /><g
     inkscape:groupmode="layer"
     inkscape:label="Image"
     id="g8"
     transform="translate(-156.02122,1314.7357)"><path
       style="fill:#020202;stroke:none"
       d="m 505.89648,-842.73568 c -9.782,-47.416 -20.267,-90.957 -6.573,-139 9.24,-32.41302 29.718,-57.51902 42.701,-88.00002 16.837,-39.529 17.8,-84.277 4.843,-125 -16.325,-51.311 -59.66,-94.6464 -110.971,-110.9714 -24.738,-7.8705 -49.275,-9.0286 -75,-9.0286 -49.07,0 -94.593,12.1702 -131,47.0394 -18.29,17.5174 -41.4578,47.2746 -41.9846,73.9606 -0.4524,22.919 10.6796,42.261 6.3704,66 -3.7572,20.698 -16.155,38.911 -26.2461,57 -4.3606,7.816 -12.3154,17.645 -12.0062,27 0.6613,20.009 31.5283,19.937 38.1057,39 5.37,15.56402 0.6605,34.77202 1.8511,51.00002 0.6444,8.784 5.7427,16.382 7.2937,25 1.616,8.977 0.752,17.105 6.405,24.999 14.013,19.568 46.312,13.001 67.211,13.001 5.166,0 12.104,-1.182 16.985,0.742 9.488,3.741 12.728,26.398 15.682,35.258 1.135,3.405 1.992,9.724 5.611,11.397 4.394,2.03 11.956,0.603 16.722,0.603 h 38 136 m -109,-209.00002 c -36.966,8.801 -51.286,-30.22 -76.184,-47.382 -3.858,-2.659 -9.571,-0.199 -13.816,0.212 -8.506,0.823 -17.734,0.182 -26,-1.986 -14.51,-3.805 -28.33,-10.91 -38.714,-21.934 -5.118,-5.433 -8.436,-12.426 -13.612,-17.697 -4.32,-4.4 -10.257,-6.535 -14.49,-11.228 -10.759,-11.929 -13.092,-29.481 -6.515,-43.985 4.587,-10.116 12.436,-13.48 20.147,-20.39 5.081,-4.553 9.684,-12.014 13.615,-17.61 8.536,-12.1507 6.038,-25.2049 20.569,-34.6126 7.698,-4.9839 16.897,-7.1277 26,-6.2169 3.637,0.3639 9.082,3.194 12.576,2.1929 7.395,-2.1189 13.564,-11.7982 21.424,-14.8989 12.418,-4.8987 21.988,-0.1028 34,-1.4383 9.972,-1.1086 18.039,-9.5033 29,-9.9868 10.236,-0.4515 20.258,2.003 29,7.4282 3.758,2.3326 6.824,6.396 11,7.929 12.999,4.7719 27.524,2.6949 41,8.9128 19.798,9.1352 30.274,24.2919 41.965,41.6756 3.017,4.486 7.673,7.375 10.567,12.016 6.64,10.647 11.085,28.553 13.029,40.999 2.404,15.39 -1.662,32.137 -10.31,45 -3.59,5.339 -10.435,10 -12.648,16 -1.938,5.258 -0.807,12.377 -1.864,18 -2.038,10.85 -6.913,21.187 -13.499,30 -4.906,6.565 -11.307,12.417 -18.24,16.771 -3.404,2.138 -9.95,4.126 -11.227,8.334 -2.345,7.733 1.293,20.868 2.057,28.895 1.564,16.433 2.17,33.49202 2.17,50.00002 0,6.651 2.147,17.951 -1.179,23.892 -3.971,7.094 -32.666,16.45 -37.657,7.999 -6.595,-11.17 -5.871,-32.063 -8.815,-44.891 -5.669,-24.70102 -17.574,-47.63202 -23.349,-72.00002 m 46,102.00002 c 13.121,-3.048 9.199,-17.188 8.17,-28 -1.784,-18.746 -2.247,-38.16902 -3.17,-57.00002 -0.292,-5.968 -3.519,-15.457 -0.806,-20.985 2.765,-5.635 9.693,-6.727 14.806,-9.285 7.025,-3.515 13.145,-8.556 17.985,-14.731 6.699,-8.548 10.799,-19.189 11.845,-29.999 0.482,-4.975 -1.631,-11.344 -0.048,-15.999 3.705,-10.902 17.461,-16.782 21.469,-29.001 5.155,-15.716 0.842,-27.249 -4.285,-42 -1.753,-5.044 -0.893,-10.249 -3.961,-14.96 -2.65,-4.07 -7.341,-6.023 -10.011,-10.08 -11.512,-17.4913 -20.665,-33.4246 -41.994,-40.6043 -11.205,-3.7717 -24.537,-1.1013 -35,-4.9591 -12.309,-4.5383 -16.613,-16.3602 -32,-15.3055 -10.803,0.7404 -17.583,11.5623 -27,12.3016 -10.733,0.8427 -18.218,-6.469 -30,-2.2885 -10.394,3.688 -13.912,17.0976 -23.015,20.1095 -5.953,1.9694 -13.706,-5.4286 -19.985,-6.0362 -10.657,-1.0313 -20.892,5.8651 -24.451,15.8225 -1.482,4.144 -0.64,9.126 -2.577,13 -3.644,7.289 -13.207,20.044 -19.185,25.725 -3.398,3.23 -8.228,4.328 -11.744,7.488 -8.352,7.506 -10.241,20.096 -4.676,29.787 4.243,7.39 11.994,8.305 17.243,14.133 4.529,5.028 7.201,11.681 11.69,16.863 9.1,10.506 22.155,17.215 35.7,19.743 13.146,2.454 29.031,-4.477 40.996,1.575 5.284,2.673 7.264,8.521 11.109,12.671 4.569,4.933 10.967,6.882 15.62,11.405 6.629,6.445 8.211,15.027 17.275,19.785 5.114,2.685 11.222,4.204 17,3.654 5.292,-0.504 11.241,-3.468 15.867,0.489 7.207,6.164 10.136,20.116 13.532,28.682 11.397,28.75 14.412,58.94202 23.601,88.00002 m -111,-301.00002 c 0,4.4054 2.151,14.896 -3,16 9.434,13.393 18.855,22.427 19,40 h -16 c -0.927,-11.345 -6.543,-20.692 -16,-27 -1.104,5.151 -11.595,3 -16,3 0.373,-17.993 14.007,-31.6266 32,-32 m 83,86 h 1 c 3.109,-7.467 9.108,-26.155 17.043,-29.254 12.165,-4.75 17.765,23.186 18.957,31.254 h 1 c 1.742,-6.368 4.691,-18.214 10.214,-22.258 7.524,-5.51 27.667,-1.742 36.786,-1.742 v 16 h -27 c -1.87,10.862 -7.776,25.452 -13.414,34.956 -2.547,4.294 -7.965,6.566 -12.361,3.302 -7.909,-5.872 -8.704,-23.678 -13.225,-32.258 -3.36,8.071 -12.288,35.029 -22.996,33.728 -6.797,-0.827 -7.386,-8.352 -8.393,-13.728 -2.731,-14.575 -7.305,-30.171 -7.611,-45 h -1 c -1.955,6.889 -3.224,20.788 -9.225,25.258 -4.39,3.269 -12.61,1.742 -17.775,1.742 h -43 v -16 h 36 c 3.72,0 10.359,1.253 13.272,-1.603 2.629,-2.577 3.178,-7.989 4.149,-11.397 l 8,-28 c 1.393,-4.886 2.223,-12.137 7.623,-14.254 9.067,-3.554 11.172,6.994 12.345,13.254 3.411,18.203 8.816,37.497 9.611,56 m -147,-22 c 1.784,13.184 10.816,22.216 24,24 v 16 c -22.16,-0.183 -39.817,-17.84 -40,-40 h 16 m 192,88 c -0.373,17.993 -14.007,31.627 -32,32 v -16 c 8.605,-1.853 14.607,-7.078 16,-16 z"
       id="path1855" /></g></svg>
