<?xml version="1.0" encoding="UTF-8" standalone="no"?>
<!-- Created with Inkscape (http://www.inkscape.org/) -->

<svg
   version="1.1"
   id="svg2"
   width="417.99146"
   height="418.3754"
   viewBox="0 0 417.99146 418.3754"
   sodipodi:docname="safe.png"
   inkscape:export-filename="safe.svg"
   inkscape:export-xdpi="96"
   inkscape:export-ydpi="96"
   xml:space="preserve"
   xmlns:inkscape="http://www.inkscape.org/namespaces/inkscape"
   xmlns:sodipodi="http://sodipodi.sourceforge.net/DTD/sodipodi-0.dtd"
   xmlns="http://www.w3.org/2000/svg"
   xmlns:svg="http://www.w3.org/2000/svg"><defs
     id="defs6" /><sodipodi:namedview
     id="namedview4"
     pagecolor="#ffffff"
     bordercolor="#000000"
     borderopacity="0.25"
     inkscape:showpageshadow="2"
     inkscape:pageopacity="0.0"
     inkscape:pagecheckerboard="0"
     inkscape:deskcolor="#d1d1d1"
     showgrid="false" /><g
     inkscape:groupmode="layer"
     inkscape:label="Image"
     id="g8"
     transform="translate(-846.95142,-28.03108)"><path
       style="fill:#020202;stroke:none"
       d="m 919.89648,29.689522 c -29.6759,4.0395 -55.7858,21.9022 -66.5748,50.5748 -9.7195,25.829998 -5.4252,56.868998 -5.4252,83.999998 v 159 c 0,30.038 -3.8711,62.047 14.439,88 22.3824,31.725 55.198,34 90.561,34 h 160.00002 c 27.654,0 57.701,3.284 85,-1.285 28.611,-4.789 53.206,-26.059 61.971,-53.715 8.162,-25.751 4.029,-56.279 4.029,-83 v -157 c 0,-30.722 3.626,-62.788998 -15.76,-88.999998 -23.108,-31.244 -57.045,-32 -92.24,-32 H 998.89648 c -25.698,0 -53.546,-3.0396 -79,0.4252 M 1071.8965,136.26432 c 12.5,0 29.474,2.764 41,-3 11.26,-5.631 19.035,-23.239 34,-17.736 20.882,7.678 4.898,28.964 -5,37.436 -20.397,17.458 -44.883,15.3 -70,15.3 v 42 c 17.526,0 43.586,4.838 60,-1.468 12.623,-4.85 21.131,-24.975 36.999,-18.304 23.082,9.704 0.23,33.449 -10.999,41.332 -23.77,16.688 -58.457,10.44 -86,10.44 v 43 h 57 c 9.213,0.004 17.908,1.725 26,6.338 6.627,3.778 12.181,9.268 16.3,15.662 30.617,47.529 -37.89,101.465 -76,58.961 -4.41,-4.919 -7.839,-10.706 -9.944,-16.961 -3.578,-10.629 -2.576,-21.239 -0.356,-32 h -58 c 2.22,10.761 3.222,21.371 -0.356,32 -2.105,6.255 -5.534,12.042 -9.944,16.961 -38.10202,42.499 -106.62502,-11.418 -76.00002,-58.961 4.174,-6.48 9.679,-11.621 16.3,-15.546 8.038,-4.766 16.769,-6.45 26,-6.454 h 57.00002 v -43 c -27.505,0 -62.25202,6.232 -86.00002,-10.44 -11.229,-7.883 -34.081,-31.628 -10.999,-41.332 15.868,-6.671 24.376,13.454 36.999,18.304 16.414,6.306 42.47402,1.468 60.00002,1.468 v -42 c -25.026,0 -49.65802,2.11 -70.00002,-15.3 -9.898,-8.472 -25.882,-29.758 -5,-37.436 15.076,-5.544 22.684,12.077 34,17.736 11.52602,5.764 28.50002,3 41.00002,3 0,-9.913 -2.789,-24.907 1.573,-33.999 5.444,-11.349998 22.085,-11.843998 28.337,-0.997 5.135,8.906 2.09,24.992 2.09,34.996 m -94.00002,181.53 c -20.162,4.564 -13.031,35.707 7,30.936 19.64302,-4.679 12.651,-35.384 -7,-30.936 m 149.00002,0.004 c -19.64,4.678 -12.625,35.514 7,30.933 20.129,-4.699 13.023,-35.702 -7,-30.933 z"
       id="path1845" /></g></svg>
