<?xml version="1.0" encoding="UTF-8" standalone="no"?>
<!-- Created with Inkscape (http://www.inkscape.org/) -->

<svg
   version="1.1"
   id="svg2"
   width="480.29102"
   height="480.02271"
   viewBox="0 0 480.29102 480.02271"
   sodipodi:docname="safe.png"
   inkscape:export-filename="safe.svg"
   inkscape:export-xdpi="96"
   inkscape:export-ydpi="96"
   xml:space="preserve"
   xmlns:inkscape="http://www.inkscape.org/namespaces/inkscape"
   xmlns:sodipodi="http://sodipodi.sourceforge.net/DTD/sodipodi-0.dtd"
   xmlns="http://www.w3.org/2000/svg"
   xmlns:svg="http://www.w3.org/2000/svg"><defs
     id="defs6" /><sodipodi:namedview
     id="namedview4"
     pagecolor="#ffffff"
     bordercolor="#000000"
     borderopacity="0.25"
     inkscape:showpageshadow="2"
     inkscape:pageopacity="0.0"
     inkscape:pagecheckerboard="0"
     inkscape:deskcolor="#d1d1d1"
     showgrid="false" /><g
     inkscape:groupmode="layer"
     inkscape:label="Image"
     id="g8"
     transform="translate(-116.12097,703.15289)"><path
       style="fill:#020202;stroke:none"
       d="m 325.89648,-702.49915 c -43.739,7.886 -33.676,76.5704 10,68.9205 44.894,-7.8634 34.74,-76.98696 -10,-68.9205 m 189,0 c -43.702,7.8794 -33.574,76.5526 10,68.9205 44.941,-7.8715 34.746,-76.98815 -10,-68.9205 m -93,25.9746 c -44.472,6.9286 -36.447,76.0469 8,69.1219 44.472,-6.929 36.447,-76.0466 -8,-69.1219 m -85,169.5609 c -5.286,-32.034 18.742,-69.632 47,-83 -4.916,-10.455 -19.569,-16.314 -30,-19.656 -28.932,-9.27 -61.115,0.772 -80.7,23.656 -10.917,12.756 -25.155,42.942 -13.651,58.985 7.416,10.342 22.569,14.31 34.351,16.804 14.341,3.037 28.419,3.211 43,3.211 m 131,-83 c 29.619,14.012 50.458,50.299 47,83 14.581,0 28.659,-0.174 43,-3.211 11.835,-2.506 26.762,-6.431 34.2,-16.804 11.535,-16.086 -2.501,-46.084 -13.501,-58.985 -19.535,-22.911 -51.805,-32.914 -80.699,-23.656 -10.348,3.316 -25.131,9.302 -30,19.656 m -50,3.428 c -30.384,4.351 -55.409,23.686 -64.279,53.572 -3.005,10.122 -5.87,25.038 1.808,33.711 7.08,7.996 18.451,11.646 28.471,14.162 23.096,5.801 47.529,6.175 71,2.7 14.479,-2.145 34.891,-6.396 43.437,-19.612 5.946,-9.198 2.053,-24.369 -1.108,-33.961 -10.599,-32.171 -45.143,-55.467 -79.329,-50.572 m -217,202.572 40,98 c 11.865,-4.94 23.67,-12.917 37,-12.921 33.726,-0.011 65.25,24.913 99,24.913 18.719,0 36.843,-8.041 54,-14.568 26.705,-10.158 53.439,-20.292 80,-30.823 23.061,-9.143 64.306,-15.823 75.124,-40.601 6.292,-14.411 0.961,-30.743 -16.124,-32.816 -19.911,-2.415 -39.19,4.565 -58,9.957 -15.687,4.497 -31.401,9.038 -47,13.834 -6.277,1.93 -15.173,2.851 -20.682,6.444 -3.273,2.135 -2.572,8.142 -3.474,11.581 -1.782,6.796 -5.029,12.882 -9.937,17.96 -21.284,22.019 -54.247,5.408 -78.907,-1.076 -11.671,-3.068 -23.373,-6.076 -35,-9.308 -4.527,-1.259 -10.6,-2.165 -13.164,-6.631 -2.286,-3.982 0.899,-8.644 5.169,-9.211 6.935,-0.922 16.294,3.707 22.995,5.393 21.858,5.498 45.546,15.973 68,17.78 12.237,0.984 23.729,-4.047 26.956,-16.907 7.657,-30.518 -35.025,-33.633 -54.956,-39.29 -9.115,-2.587 -19.48,-3.855 -28,-8.087 -15.025,-7.464 -27.426,-18.302 -45,-19.533 -36.608,-2.566 -64.731,26.326 -98,35.91 m -39,-23.47 c -11.4705,2.573 -40.3499,11.947 -44.8519,23.47 -3.7009,9.473 4.6767,22.422 8.2763,31 10.4754,24.964 20.9645,49.928 31.179,75 6.2259,15.282 11.3234,34.179 20.3904,47.96 3.4916,5.307 9.8208,7.878 16.0062,6.511 11.627,-2.571 40.277,-11.795 44.852,-23.471 3.742,-9.552 -4.277,-21.363 -7.841,-30 -10.467,-25.362 -21.263,-50.591 -31.6144,-76 -6.2259,-15.282 -11.3234,-34.179 -20.3904,-47.96 -3.4839,-5.295 -9.8282,-7.896 -16.0062,-6.51 z"
       id="path1841" /></g></svg>
