<?xml version="1.0" encoding="UTF-8" standalone="yes"?>
<!-- Created with sK1/UniConvertor (http://sk1project.org/) -->
<svg xmlns="http://www.w3.org/2000/svg" xmlns:xlink="http://www.w3.org/1999/xlink"
  width="512pt" height="512pt" viewBox="0 0 512 512"
  fill-rule="evenodd">
<g>
<g>
<path style="stroke:none; fill:#000000" d="M 255.5 1.5C 234.7 7.29999 217.1 25 211.5 46C 210.7 49 210 55.8 210 61C 210 66.2 210.7 73 211.5 76C 217.1 97.2 234.8 114.9 256 120.5C 263.1 122.4 278.9 122.4 286 120.5C 300.1 116.8 313.6 106.9 321.8 94.2C 334.4 74.7 334.4 47.3 321.8 27.8C 313.6 15.1 300.1 5.20001 286 1.50003C 279.1 -0.299988 262.3 -0.300049 255.5 1.5z"/>
<path style="stroke:none; fill:#000000" d="M 197.6 128.2C 192 135.8 186 147.8 182.8 158C 180.7 164.7 180.5 167.4 180.5 184.5C 180.5 201.9 180.7 203.7 182.5 206.2C 187.1 212.3 182.1 212 270.5 212C 360.2 212 354.7 212.4 359.1 205.3C 365.1 195.6 361.1 160 352 142C 348.4 134.9 339.3 122 337.9 122C 337.3 122 333.7 124.8 330 128.2C 305.5 150.9 269.9 157.2 237.6 144.8C 228.8 141.4 214.4 132.2 208.5 126.1C 206.4 123.8 204.1 122 203.5 122C 202.8 122 200.2 124.8 197.6 128.2z"/>
<path style="stroke:none; fill:#000000" d="M 165 237.4C 147.3 240.6 130.5 247.4 118.2 256.4C 114.8 258.9 111.7 261 111.4 261C 110.3 261 89 280.1 89 281.1C 89 281.6 108 320.3 131.2 367L 173.4 452L 267.9 451.8C 356.3 451.5 362.9 451.3 369 449.6C 377.5 447.2 390.3 441.2 397.6 436.3C 410 427.8 415 421.5 461.5 354.9C 486.3 319.5 507.8 288 509.3 285C 511.9 280 512.1 278.8 511.8 270.9C 511.5 263.7 510.9 261.6 508.4 256.9C 505 250.9 497.9 244.9 492 243.1C 490 242.5 485.2 242 481.4 242C 473.6 242 466.6 244.7 461.5 249.6C 459.8 251.2 440.1 275 417.8 302.6C 395.2 330.4 375.4 353.8 373.3 355.3C 364.4 361.5 364.1 361.5 321.5 361.5C 285.8 361.5 282.2 361.3 279.2 359.7C 269.6 354.4 269.6 339.6 279.2 334.3C 282.2 332.7 286.3 332.4 319 332C 354.5 331.5 355.6 331.4 359.7 329.2C 381.7 317.5 381.7 286.5 359.7 274.8C 355.6 272.5 354.9 272.5 309.5 272L 263.5 271.5L 259.4 268.5C 257.1 266.8 251.5 262.5 246.9 258.7C 234.4 248.6 219.1 241.6 202 238C 193.3 236.2 173.5 235.9 165 237.4z"/>
<path style="stroke:none; fill:#000000" d="M 34.9 290.6C 32 291.2 7.4 303.1 5 305.2C 1.5 308.2 1.90735e-06 311.5 1.90735e-06 316.7C 1.90735e-06 321.6 2.8 327.6 46 413.7C 71.2 464.2 92.5 506.2 93.2 507C 96.1 510.5 99.5 512 104.7 512C 109.2 512 111.9 511.1 121.3 506.4C 137.2 498.4 141.3 495.2 145 487.6C 147.7 482.2 148.2 480.1 148.2 473.5L 148.3 465.7L 107.7 384.5C 85.3 339.5 65.7 301.6 64 299.7C 57.9 292.8 45.2 288.8 34.9 290.6z"/>
</g>
</g>
</svg>