<?xml version="1.0" encoding="UTF-8" standalone="no"?>
<!-- Created with Inkscape (http://www.inkscape.org/) -->

<svg
   version="1.1"
   id="svg2"
   width="462.13892"
   height="443.3688"
   viewBox="0 0 462.13892 443.3688"
   sodipodi:docname="safe.png"
   inkscape:export-filename="safe.svg"
   inkscape:export-xdpi="96"
   inkscape:export-ydpi="96"
   xml:space="preserve"
   xmlns:inkscape="http://www.inkscape.org/namespaces/inkscape"
   xmlns:sodipodi="http://sodipodi.sourceforge.net/DTD/sodipodi-0.dtd"
   xmlns="http://www.w3.org/2000/svg"
   xmlns:svg="http://www.w3.org/2000/svg"><defs
     id="defs6" /><sodipodi:namedview
     id="namedview4"
     pagecolor="#ffffff"
     bordercolor="#000000"
     borderopacity="0.25"
     inkscape:showpageshadow="2"
     inkscape:pageopacity="0.0"
     inkscape:pagecheckerboard="0"
     inkscape:deskcolor="#d1d1d1"
     showgrid="false" /><g
     inkscape:groupmode="layer"
     inkscape:label="Image"
     id="g8"
     transform="translate(-2965.0383,-15.476795)"><path
       style="fill:#020202;stroke:none"
       d="m 3224.8965,35.264322 v -2 c -10.154,-4.7465 -23.484,-17.8833 -35,-17.787 -4.966,0.0415 -9.856,3.9902 -14,6.3657 l -27,15.5718 c -12.71,7.2556 -25.307,14.7135 -38,21.9992 -5.886,3.3787 -14.254,6.479 -18.486,11.9545 -5.082,6.5743 -2.514,20.0288 -2.514,27.8958 v 58.999998 c 0,7.994 -2.093,19.607 1.434,26.985 2.335,4.884 8.104,7.196 12.566,9.734 9.693,5.514 19.354,11.107 29,16.705 12.658,7.347 25.303,14.718 38,21.997 5.376,3.082 11.742,8.356 18,9.196 7.984,1.071 18.391,-7.819 25,-11.617 17.68,-10.161 35.457,-20.208 53,-30.603 6.361,-3.77 16.921,-7.441 21.258,-13.582 4.547,-6.44 1.742,-21.194 1.742,-28.815 v -57 c 0,-8.274998 1.81,-18.998998 -0.434,-26.985398 -2.412,-8.5901 -18.468,-13.9917 -25.566,-18.2152 -2.969,-1.7666 -6.337,-4.4286 -10,-3.9475 -7.278,0.9556 -15.68,8.2739 -22,11.8672 -17.396,9.8907 -34.605,20.1049 -52,29.9999 -6.525,3.712 -19.857,8.465998 -23.972,14.809998 -4.15,6.398 -1.028,22.934 -1.028,30.471 0,2.992 1.079,9.118 -1.603,11.264 -2.253,1.802 -5.412,-0.529 -7.397,-1.665 -5.678,-3.251 -16.883,-7.157 -19.397,-13.639 -3.315,-8.552 -0.603,-22.813 -0.603,-31.96 0,-3.224 -0.764,-7.753998 1.028,-10.620998 4.449,-7.12 18.856,-11.9402 25.972,-16.1784 23.435,-13.9565 47.296,-29.6666 72,-41.2006 m -150,360.999998 c 7.981,-2.348 15.628,-11.072 24,-11.196 9.307,-0.138 20.05,4.959 29,7.312 25.688,6.754 51.276,13.899 77,20.514 14.115,3.629 28.226,9.03 43,6.616 22.74,-3.715 43.863,-21.509 63,-33.565 35.645,-22.454 73.679,-42.564 107.96,-67.04 12.542,-8.955 10.919,-32.334 -4.96,-36.713 -9.397,-2.591 -19.13,0.306 -28,3.417 -21.146,7.417 -40.694,22.026 -60,33.231 -16.844,9.775 -34.494,23.356 -54,26.96 -20.897,3.862 -42.957,-3.39 -63,-8.96 -10.409,-2.893 -33.389,-4.219 -40.482,-12.801 -5.455,-6.599 2.89,-13.258 9.482,-11.745 19.979,4.585 45.393,17.787 66,15.793 13.254,-1.283 20.99,-16.353 13.297,-27.819 -8.433,-12.57 -35.541,-13.581 -49.297,-17.724 -22.217,-6.691 -49.487,-23.526 -73,-22.187 -22.568,1.286 -43.07,17.028 -62,27.907 -10.694,6.146 -21.299,12.444 -32,18.579 -3.0028,1.721 -9.4647,3.992 -10.554,7.631 -1.5971,5.335 8.0964,17.221 10.704,21.79 11.364,19.907 23.169,39.721 33.85,60 m -81.0008,-99.346 c -6.4594,1.661 -27.1274,11.583 -28.6628,18.389 -1.8317,8.121 9.7654,22.135 13.6644,28.957 14.0608,24.603 28.0481,49.257 41.8595,74 5.9733,10.701 12.0447,21.37 18.1405,32 2.4822,4.328 5.0652,9.793 10.9992,8.343 6.473,-1.583 28.469,-12.268 29.353,-19.358 1.042,-8.35 -10.503,-21.976 -14.503,-28.985 -14.048,-24.61 -27.7299,-49.431 -41.85,-74 -5.9194,-10.3 -11.6593,-20.699 -17.5787,-31 -2.6345,-4.585 -5.1788,-9.952 -11.4221,-8.346 m -3.9992,15.795 c 11.5517,-1.218 13.3143,16.591 1.9992,18.307 -12.2842,1.864 -14.334,-17.007 -1.9992,-18.307 z"
       id="path1865" /></g></svg>
