<?xml version="1.0" encoding="UTF-8" standalone="no"?>
<!-- Created with Inkscape (http://www.inkscape.org/) -->

<svg
   version="1.1"
   id="svg2"
   width="469.37753"
   height="479.73114"
   viewBox="0 0 469.37753 479.73114"
   sodipodi:docname="safe.png"
   inkscape:export-filename="safe.svg"
   inkscape:export-xdpi="96"
   inkscape:export-ydpi="96"
   xml:space="preserve"
   xmlns:inkscape="http://www.inkscape.org/namespaces/inkscape"
   xmlns:sodipodi="http://sodipodi.sourceforge.net/DTD/sodipodi-0.dtd"
   xmlns="http://www.w3.org/2000/svg"
   xmlns:svg="http://www.w3.org/2000/svg"><defs
     id="defs6" /><sodipodi:namedview
     id="namedview4"
     pagecolor="#ffffff"
     bordercolor="#000000"
     borderopacity="0.25"
     inkscape:showpageshadow="2"
     inkscape:pageopacity="0.0"
     inkscape:pagecheckerboard="0"
     inkscape:deskcolor="#d1d1d1"
     showgrid="false" /><g
     inkscape:groupmode="layer"
     inkscape:label="Image"
     id="g8"
     transform="translate(-121.03127,-697.26434)"><path
       style="fill:#030303;stroke:none"
       d="m 262.89648,718.26432 18,33 44,-13.9992 17.972,-3.6042 1.028,-10.3966 v -26 c -29.117,1.2504 -53.969,11.7957 -81,21 m 108,-21 v 26 c 0,2.9112 -0.911,7.9467 1.028,10.3966 2.173,2.7459 9.724,2.2676 12.972,2.7346 10.123,1.4555 20.371,4.1338 30,7.5609 27.276,9.7075 50.831,25.647 70.985,46.3079 28.538,29.255 46.996,72.011 48,113 0.179,7.29 2.253,21.352 -2.012,27.682 -3.069,4.555 -19.366,-0.541 -14.521,9.319 5.588,11.371 16.913,22.035 24.759,31.999 2.526,3.209 5.745,9.08 9.878,10.338 4.963,1.511 8.775,-5.129 11.261,-8.338 6.229,-8.044 12.567,-16.007 18.861,-24 2.718,-3.452 7.293,-7.51 8.166,-11.981 1.976,-10.114 -18.322,-0.199 -19.484,-9.078 -1.393,-10.657 0.539,-22.167 0.068,-32.941 -0.717,-16.353 -4.153,-33.385 -8.986,-49 -25.64,-82.8314 -103.503,-146.2437 -190.975,-150 m -191,95 c 7.4028,4.883 15.3264,8.984 23,13.424 2.408,1.394 5.825,4.289 8.816,3.698 4.896,-0.968 10.474,-11.459 13.612,-15.122 8.851,-10.33 19.714,-21.1782 31.572,-28 -2.554,-11.1606 -11.712,-23.467 -18,-33 -22.254,10.5275 -48.4724,36.7463 -59,59 m 179,-15.5363 c -6.773,1.1973 -13.226,3.6722 -19,7.4023 -44.968,29.05 -14.604,99.806 37,90.518 6.879,-1.238 13.208,-3.833 19,-7.744 43.319,-29.253 14.108,-99.2102 -37,-90.1763 m -194,39.5363 c -7.9847,27.717 -18.6777,51.573 -21,81 h 26 l 10.3974,-1.028 3.8024,-16.972 13.8002,-45 -33,-18 m 189,70.428 c -31.193,4.467 -59.161,23.376 -73.742,51.572 -3.906,7.555 -14.495,26.589 -5.125,33.397 3.648,2.65 9.617,1.603 13.867,1.603 h 32 92 c 13.791,0 30.507,2.596 43.985,-0.279 7.211,-1.538 7.379,-8.907 5.859,-14.721 -3.311,-12.666 -9.419,-24.727 -17.513,-35 -21.554,-27.355 -56.832,-41.512 -91.331,-36.572 m -210,37.572 c 2.3054,29.212 11.6926,53.666 21,80.99998 l 33,-17.99998 -13.9992,-45 -3.6042,-16.972 -10.3966,-1.028 h -26 m 44,120.99998 38,69 c 13.259,-2.245 24.049,2.04 37,5.37 21.042,5.411 42.027,11.108 63,16.781 12.03,3.254 24.362,7.729 37,5.703 17.565,-2.816 35.229,-17.869 50,-27.173 31.12,-19.602 62.561,-38.797 94,-57.884 6.625,-4.022 15.575,-7.895 20.606,-13.89 6.26,-7.462 4.245,-20.962 -4.61,-25.45 -7.894,-4.002 -19.387,-0.755 -26.996,2.405 -19.604,8.142 -37.605,20.788 -56,31.288 -16.885,9.64 -34.137,23.104 -53,28.422 -21.153,5.963 -44.588,-1.927 -65,-7.712 -8.004,-2.269 -17.586,-3.583 -24.985,-7.418 -7.596,-3.937 -6.697,-15.509 2.985,-15.008 18.23,0.942 35.498,12.716 54,13.527 10.695,0.468 19.521,-6.277 16.581,-17.957 -3.485,-13.848 -31.196,-14.711 -42.581,-18.348 -20.962,-6.698 -46.552,-21.592 -69,-18.356 -25.669,3.701 -47.657,26.642 -71,36.7 m -38,-14.363 c -8.271,2.337 -26.9089,11.275 -28.652,20.363 -1.6781,8.749 6.978,18.755 10.9576,26 11.7981,21.48 24.0841,42.739 36.2731,64 5.6732,9.896 15.6727,39.367 30.4213,35.359 8.518,-2.315 27.84,-11.848 29.373,-21.359 1.329,-8.236 -7.648,-19.206 -11.523,-26 -11.961,-20.967 -23.7338,-42.037 -35.6995,-63 -6.0028,-10.516 -15.6469,-39.742 -31.1505,-35.363 m -0.9954,21.841 c 9.377,-2.017 11.9709,12.441 2.9553,14.825 -9.6011,2.54 -12.7887,-12.711 -2.9553,-14.825 z"
       id="path1843" /></g></svg>
