<?xml version="1.0" encoding="UTF-8" standalone="no"?>
<!-- Created with Inkscape (http://www.inkscape.org/) -->

<svg
   version="1.1"
   id="svg2"
   width="446.44141"
   height="366.24423"
   viewBox="0 0 446.44141 366.24423"
   sodipodi:docname="safe.png"
   inkscape:export-filename="safe.svg"
   inkscape:export-xdpi="96"
   inkscape:export-ydpi="96"
   xml:space="preserve"
   xmlns:inkscape="http://www.inkscape.org/namespaces/inkscape"
   xmlns:sodipodi="http://sodipodi.sourceforge.net/DTD/sodipodi-0.dtd"
   xmlns="http://www.w3.org/2000/svg"
   xmlns:svg="http://www.w3.org/2000/svg"><defs
     id="defs6" /><sodipodi:namedview
     id="namedview4"
     pagecolor="#ffffff"
     bordercolor="#000000"
     borderopacity="0.25"
     inkscape:showpageshadow="2"
     inkscape:pageopacity="0.0"
     inkscape:pagecheckerboard="0"
     inkscape:deskcolor="#d1d1d1"
     showgrid="false" /><g
     inkscape:groupmode="layer"
     inkscape:label="Image"
     id="g8"
     transform="translate(1827.2728,-54.916737)"><path
       style="fill:#020202;stroke:none"
       d="m -1613.1035,55.703422 c -35.34,5.5194 -51.33,39.5559 -69.333,66.560898 -39.848,59.771 -80.153,119.229 -120.0003,179 -6.4439,9.666 -14.4941,19.365 -19.2277,30 -10.0845,22.658 -6.434,49.185 9.8612,67.996 23.9827,27.685 66.1288,20.004 98.6998,20.004 h 189 c 29.635,0 63.908,4.762 93,-0.805 36.869,-7.055 59.098,-45.684 46.921,-81.195 -4.27,-12.454 -13.015,-23.141 -20.254,-34 -11.583,-17.374 -22.987,-34.884 -34.947,-52 -33.303,-47.661 -64.353,-96.93 -97.064,-145 -18.798,-27.623398 -38.548,-56.512698 -76.656,-50.560898 m 5,29.8609 c 28.933,-4.16 46.146,36.918998 59.333,56.699998 29.814,44.72 59.753,89.347 89.668,134 14.613,21.812 31.291,43.078 44.122,66 10.307,18.411 -0.585,41.949 -21.123,46.331 -9.486,2.024 -20.331,0.669 -30,0.669 h -57 -180 -51 c -13.7626,0 -27.1842,-0.08 -36.4707,-12.004 -19.1701,-24.615 9.1571,-53.026 22.4707,-72.996 36.511,-54.767 73.363,-109.313 110.001,-164 12.108,-18.074 26.226,-51.281998 49.999,-54.699998 m 1,13.222 c -9.149,1.872998 -13.51,9.246998 -18.333,16.477998 l -24,36 c -33.846,50.769 -68.153,101.229 -102,152 -9.3203,13.98 -19.662,27.538 -28.2133,42 -4.1895,7.085 -6.4855,15.808 -1.0239,22.985 6.375,8.376 16.095,8.015 25.5702,8.015 h 57 177 55 c 8.922,0 19.339,1.46 28,-0.928 31.587,-8.709 -0.281,-44.499 -9.333,-58.072 -36.527,-54.763 -73.488,-109.232 -110,-164 -9.554,-14.331 -18.892,-28.837 -28.692,-43 -4.825,-6.972 -11.746,-13.366998 -20.975,-11.477998 m -13,49.867998 c 9.764,-2.127 33.426,-3.441 40.362,4.823 5.728,6.825 3.029,15.817 2.638,23.787 -1.047,21.372 -4.347,42.66 -5.911,64 -0.969,13.22 2.021,44.354 -15.089,47.66 -8.478,1.638 -19.029,0.167 -22.772,-8.664 -3.573,-8.431 -2.526,-19.984 -3.398,-28.996 -2.22,-22.941 -3.404,-46.153 -6.406,-69 -1.529,-11.643 -4.988,-30.218 10.576,-33.61 m 2.603,13.638 c -4.122,3.273 0.097,18.223 0.362,22.972 1.312,23.571 3.545,47.555 6.32,71 0.5,4.22 0.448,26.58 10.112,18.972 4.591,-3.615 3.218,-20.435 3.772,-25.972 2.126,-21.266 4.678,-42.661 5.866,-64 0.319,-5.72 3.856,-16.436 1.358,-21.682 -1.916,-4.023 -24.448,-3.944 -27.79,-1.29 m 3.397,147.273 c 9.885,-1.461 25.747,-2.168 32.351,6.742 7.728,10.427 6.283,38.277 -9.351,40.743 -9.375,1.479 -27.928,2.865 -34.606,-4.891 -10.57,-12.275 -5.796,-40.023 11.606,-42.594 m -0.682,14.727 c -3.755,2.506 -3.574,15.306 -0.576,18.369 2.979,3.042 18.4,2.932 21.824,0.575 3.668,-2.524 3.873,-15.326 0.831,-18.369 -3.067,-3.066 -18.561,-2.923 -22.079,-0.575 z"
       id="path1863" /></g></svg>
