<?xml version="1.0" encoding="UTF-8" standalone="no"?>
<!-- Created with Inkscape (http://www.inkscape.org/) -->

<svg
   version="1.1"
   id="svg2"
   width="669.43994"
   height="683.33606"
   viewBox="0 0 669.43994 683.33606"
   sodipodi:docname="safe.png"
   inkscape:export-filename="safe.svg"
   inkscape:export-xdpi="96"
   inkscape:export-ydpi="96"
   xml:space="preserve"
   xmlns:inkscape="http://www.inkscape.org/namespaces/inkscape"
   xmlns:sodipodi="http://sodipodi.sourceforge.net/DTD/sodipodi-0.dtd"
   xmlns="http://www.w3.org/2000/svg"
   xmlns:svg="http://www.w3.org/2000/svg"><defs
     id="defs6" /><sodipodi:namedview
     id="namedview4"
     pagecolor="#ffffff"
     bordercolor="#000000"
     borderopacity="0.25"
     inkscape:showpageshadow="2"
     inkscape:pageopacity="0.0"
     inkscape:pagecheckerboard="0"
     inkscape:deskcolor="#d1d1d1"
     showgrid="false" /><g
     inkscape:groupmode="layer"
     inkscape:label="Image"
     id="g8"
     transform="translate(-2121.2297,104.73843)"><path
       style="fill:#020202;stroke:none;stroke-width:1.33333"
       d="m 2443.8965,-103.50318 c -40.9307,5.376707 -79.9253,19.436027 -109.2133,50.120295 -88.1179,92.315203 -45.8467,251.819205 79.8799,283.144545 18.724,4.66533 39.404,6.75866 58.6667,4.456 80.0133,-9.56934 144.0294,-71.90534 151.7734,-152.95334 9.4293,-98.688137 -78.2881,-198.2741 -181.1067,-184.7675 m -122.6667,480.76751 c 35.9507,8.31733 65.7187,38.67067 73.78,74.66667 4.056,18.10933 2.22,37.55067 2.22,56 h -40 c 0,-14.736 1.7933,-30.80533 -0.8213,-45.33333 -9.0827,-50.46801 -78.8187,-66.02001 -106.5547,-21.33334 -8.4883,13.67467 -8.624,27.132 -8.624,42.66667 0,6.292 2.2525,18.14667 -1.3704,23.576 -4.8151,7.216 -30.6569,3.09067 -38.6296,3.09067 0,-39.91867 -1.6876,-77.56667 29.4527,-107.77334 9.1425,-8.86933 20.0686,-16.17067 31.8806,-20.956 4.7107,-1.908 15.412,-2.93467 17.8627,-7.844 3.936,-7.888 0.804,-24.00533 0.804,-32.76 v -82.66667 c -26.3547,12.32267 -50.2563,35.12667 -69.7664,56.22667 -69.4948,75.156 -90.2336,164.352 -90.2336,263.77334 h 314.6667 v -140 c 0,-19.19201 4.748,-45.60801 -0.684,-64.00001 -3.464,-11.73066 -15.5413,-23.308 -22.4373,-33.33333 -18.5347,-26.944 -37.9147,-53.35734 -56.8787,-80 -5.044,-7.08667 -19.9187,-33.38401 -31.576,-25.18801 -6.9667,4.89867 -3.0907,28.10134 -3.0907,35.85467 v 105.33334 m 154.6667,201.33334 h 314.6667 c 0,-28.984 1.0173,-57.924 -3.236,-86.66667 -9.3134,-62.91334 -37.852,-121.264 -79.0694,-169.33334 -18.0826,-21.088 -44.448,-49.92267 -71.028,-60 v 80 c 0,11.12667 -2.7346,26.37334 0.424,37.04934 1.8294,6.184 13.6187,10.55733 18.2374,15.004 11.4306,11.00533 19.1373,26.428 18.6146,42.61333 -1.308,40.5 -46.2293,68.35467 -82.6093,50.164 -42.056,-21.028 -43.728,-90.39333 5.3333,-104.83067 V 275.93099 c 0,-8.6 4.016,-31.42266 -3.0906,-37.34133 -15.5814,-12.97867 -28.968,10.74133 -36.5214,21.34133 l -55.0547,77.33334 c -8.1293,11.42133 -20.556,24.20933 -25.5426,37.33333 -6.3974,16.84 -1.124,44.66667 -1.124,62.66667 v 141.33334 m -62.6667,-306.66668 41.3333,61.33334 h 2.6667 l 42.6667,-61.33334 c -30.1187,3.82667 -56.5614,3.82534 -86.6667,0 m 198.6667,147.53867 c -21.6507,6.69334 -10.9107,39.69067 10.6653,32.92401 21.0774,-6.60934 10.4014,-39.43734 -10.6653,-32.92401 m -90.6667,55.62134 c 24.2774,-3.156 30.1773,35.936 5.3334,39.25333 -25.9214,3.46267 -31.5321,-35.84933 -5.3334,-39.25333 z"
       id="path1861" /></g></svg>
