<?xml version="1.0" encoding="UTF-8" standalone="no"?>
<!-- Created with Inkscape (http://www.inkscape.org/) -->

<svg
   width="118.50751mm"
   height="118.46215mm"
   viewBox="0 0 118.50751 118.46215"
   version="1.1"
   id="svg5"
   xml:space="preserve"
   xmlns:inkscape="http://www.inkscape.org/namespaces/inkscape"
   xmlns:sodipodi="http://sodipodi.sourceforge.net/DTD/sodipodi-0.dtd"
   xmlns="http://www.w3.org/2000/svg"
   xmlns:svg="http://www.w3.org/2000/svg"><sodipodi:namedview
     id="namedview7"
     pagecolor="#505050"
     bordercolor="#eeeeee"
     borderopacity="1"
     inkscape:showpageshadow="0"
     inkscape:pageopacity="0"
     inkscape:pagecheckerboard="0"
     inkscape:deskcolor="#505050"
     inkscape:document-units="mm"
     showgrid="false" /><defs
     id="defs2" /><g
     inkscape:label="Layer 1"
     inkscape:groupmode="layer"
     id="layer1"
     transform="translate(-7.485738,26.906778)"><path
       style="fill:#020202;stroke:none;stroke-width:0.264583"
       d="m 65.436145,-8.951855 c 5.337969,1.2236979 10.611644,2.9810603 15.875,4.4979165 1.655497,0.4770437 4.979722,0.7662333 6.190455,2.0380853 0.589492,0.6193895 1.608402,5.5004226 1.337998,6.3163976 -0.519641,1.5681853 -2.937668,3.1943144 -4.08887,4.3455165 l -8.466667,8.4666661 c -1.162314,1.162315 -2.428874,2.951692 -3.893343,3.722952 -1.236398,0.651404 -4.147873,-0.810419 -5.631656,-0.810419 -5.332941,0 -10.505545,3.558646 -12.054416,8.729133 -1.365515,4.558242 -0.345811,9.539023 3.069166,12.954 1.143529,1.143529 4.248415,2.179372 4.667779,3.729301 0.426509,1.576123 0.08414,3.649134 0.08414,5.277115 v 10.847916 c 0,1.470554 0.521229,4.198673 -0.271992,5.483754 -0.563562,0.913341 -2.044171,1.374775 -2.903008,1.979877 -1.623748,1.144323 -2.908035,2.620962 -3.704167,4.442618 L 32.627814,63.279391 C 34.206582,57.937983 29.505995,51.802032 24.690314,50.074038 19.777716,48.311384 14.22734,49.595407 10.71333,53.490867 5.0673333,59.74985 7.3097034,69.985256 14.900731,73.512416 c 3.194606,1.484312 7.094352,1.504156 10.31875,0.119327 1.280318,-0.549804 2.858822,-2.253985 4.233333,-2.271183 1.921139,-0.02381 4.5974,1.789641 6.349999,2.541852 l 14.2875,6.120077 c 1.242483,0.536045 3.123141,0.969697 4.085166,1.949449 1.458383,1.485371 1.814513,4.020609 3.347773,5.64515 3.555206,3.766608 9.199033,4.934215 13.99831,3.056202 7.607035,-2.976298 10.163439,-12.656608 5.544872,-19.191816 -1.329531,-1.881187 -5.868722,-3.678766 -6.058429,-5.822156 -0.422539,-4.769908 -0.01561,-9.760478 -0.01561,-14.550759 0,-1.795992 -0.542396,-4.647671 0.159544,-6.31481 0.509323,-1.209146 2.547673,-1.783292 3.544623,-2.556404 1.682749,-1.304661 3.063874,-3.169179 3.845718,-5.151702 0.772848,-1.958975 1.129242,-4.262967 0.800629,-6.35 -0.168539,-1.070769 -1.141677,-2.819135 -0.797718,-3.856566 0.491331,-1.482725 2.737908,-2.994554 3.824287,-4.080934 l 8.995833,-8.995832 c 1.040606,-1.040607 2.428875,-3.086629 3.856566,-3.559704 1.491721,-0.4945066 4.940563,0.91387 6.726763,0.91387 0.62892,4.258204 2.69584,8.616685 4.05686,12.7 0.44662,1.33985 1.70868,3.585897 1.46738,5.002477 -0.2249,1.32027 -2.74902,2.48232 -3.62347,3.465247 -2.1627,2.431256 -3.35174,5.739077 -3.21336,8.994775 0.56303,13.222551 19.55614,16.697324 24.47289,4.233333 1.97776,-5.013325 0.57574,-10.986029 -3.5814,-14.465828 -1.37398,-1.150409 -4.01663,-1.64465 -5.00406,-3.056202 -1.21788,-1.740429 -1.64624,-4.546336 -2.3159,-6.555052 -1.36631,-4.099454 -3.90842,-8.937096 -4.34604,-13.2291661 -0.16801,-1.6504708 1.94495,-3.4996436 2.54741,-5.0270831 1.71132,-4.3378436 0.91387,-9.3879454 -2.07989,-12.9643711 -3.44065,-4.1106987 -9.20645,-5.4787007 -14.20125,-3.6804867 -2.697162,0.971021 -3.902868,3.238103 -6.879166,2.394506 l -15.081249,-4.307628 c -2.26695,-0.642567 -5.316537,-0.993722 -7.348802,-2.19038 -1.529027,-0.900271 -2.213239,-4.053125 -3.52372,-5.441526 -3.968221,-4.203911 -10.56931,-5.155538 -15.58581,-2.295684 -3.44805,1.965696 -5.509419,5.334953 -6.187281,9.170987 -0.226483,1.281933 0.288396,3.10605 -0.346075,4.233334 -0.952235,1.69193 -2.948781,3.1321369 -4.31456,4.497916 L 27.865314,1.6314778 C 27.227933,2.2685945 26.482072,3.310259 25.596247,3.6036819 23.903893,4.1648631 20.895766,2.5030153 18.869481,2.7662757 12.231376,3.6290819 7.0397755,9.350167 7.5160784,16.18356 c 0.6845564,9.821333 12.4387236,15.442406 20.3492356,9.344819 3.312848,-2.553494 5.296164,-6.731794 5.00327,-10.932318 -0.09128,-1.31154 -1.29196,-3.438261 -0.890058,-4.6503169 0.491331,-1.4827249 2.737908,-2.994554 3.824287,-4.0809331 3.04165,-3.0416499 5.952596,-6.48149763 9.260417,-9.22946 1.564745,-1.2998978 4.948237,1.2379854 6.879166,1.6081374 5.195358,0.99589164 11.809412,-1.9092332 13.493749,-7.1953434 m -12.170832,-9.437608 c 5.374216,-0.944059 6.98156,7.344331 1.5875,8.291883 -5.374217,0.9440861 -6.981561,-7.34433 -1.5875,-8.291883 m 46.566664,12.6999204 c 5.374213,-0.9440333 6.981563,7.3443038 1.587503,8.2920412 -5.37422,0.9440333 -6.981563,-7.3443038 -1.587503,-8.2920412 M 19.398648,11.24379 c 5.374163,-0.944033 6.98156,7.344304 1.5875,8.292041 -5.374164,0.944033 -6.981613,-7.344304 -1.5875,-8.292041 m 46.566664,16.933332 c 5.374216,-0.944033 6.98156,7.344304 1.5875,8.292042 -5.374217,0.944033 -6.98156,-7.344304 -1.5875,-8.292042 m 46.566668,8.466667 c 5.37421,-0.944034 6.98156,7.344303 1.5875,8.292041 -5.37422,0.944033 -6.98156,-7.344304 -1.5875,-8.292041 M 19.398648,57.810454 c 5.374163,-0.944033 6.98156,7.344304 1.5875,8.292042 -5.374164,0.944033 -6.981613,-7.344304 -1.5875,-8.292042 m 46.566664,16.933333 c 5.374216,-0.944034 6.98156,7.344304 1.5875,8.292041 -5.374217,0.944033 -6.98156,-7.344304 -1.5875,-8.292041 z"
       id="path992" /></g></svg>
