<?xml version="1.0" encoding="UTF-8" standalone="no"?>
<!-- Created with Inkscape (http://www.inkscape.org/) -->

<svg
   width="121.43967mm"
   height="121.37065mm"
   viewBox="0 0 121.43967 121.37065"
   version="1.1"
   id="svg5"
   xml:space="preserve"
   xmlns:inkscape="http://www.inkscape.org/namespaces/inkscape"
   xmlns:sodipodi="http://sodipodi.sourceforge.net/DTD/sodipodi-0.dtd"
   xmlns="http://www.w3.org/2000/svg"
   xmlns:svg="http://www.w3.org/2000/svg"><sodipodi:namedview
     id="namedview7"
     pagecolor="#505050"
     bordercolor="#eeeeee"
     borderopacity="1"
     inkscape:showpageshadow="0"
     inkscape:pageopacity="0"
     inkscape:pagecheckerboard="0"
     inkscape:deskcolor="#505050"
     inkscape:document-units="mm"
     showgrid="false" /><defs
     id="defs2" /><g
     inkscape:label="Layer 1"
     inkscape:groupmode="layer"
     id="layer1"
     transform="translate(-276.70072,28.616302)"><path
       style="fill:#020202;stroke:none;stroke-width:0.264583"
       d="m 312.2249,-18.476855 c -0.85831,1.08257 -1.93437,2.262876 -2.05634,3.704167 -0.25162,2.973387 2.71436,5.2944181 5.49592,4.234762 1.62798,-0.620183 2.53339,-2.035387 3.42556,-3.441012 1.94786,-3.06914 8.74501,-10.775235 3.70655,-14.091099 -1.24963,-0.822325 -3.32211,-0.476965 -4.75086,-0.459978 -4.69873,0.05591 -9.70121,1.398958 -14.02292,3.176852 -12.28428,5.053673 -22.27791,15.8995787 -25.69519,28.8367241 -1.03645,3.9237706 -1.92966,8.3587159 -1.52913,12.4354159 0.19653,2.00025 1.80964,3.985154 3.94099,3.932502 1.96091,-0.04842 3.58521,-1.622425 4.20455,-3.403335 0.52951,-1.522677 0.18066,-3.188494 0.36891,-4.7625 0.41187,-3.4438165 1.24267,-6.8471517 2.57336,-10.0541662 4.33639,-10.4507765 13.62139,-17.3284348 24.3386,-20.1083328 m 9.78958,29.897916 c 6.43678,0 13.23949,-0.627592 19.57917,0.647964 2.23387,0.449527 4.6056,1.143794 6.61458,2.235994 12.33382,6.707187 10.31875,22.078155 10.31875,33.893123 5.53005,-0.436562 11.13155,-0.749035 15.02569,-5.291666 2.74875,-3.206485 3.49488,-8.082491 3.49514,-12.170833 V 14.331477 c 0,-6.0727161 -0.40349,-13.0643304 -5.29272,-17.4138156 -5.35041,-4.7595893 -13.21382,-4.0174331 -19.84269,-4.0174331 -10.50634,0 -25.5659,-2.1628364 -29.17164,10.8479161 -0.70273,2.5362957 -0.72628,5.0659768 -0.72628,7.6729166 m 11.64167,5.668433 c -9.55252,1.254389 -22.97854,-3.112558 -30.95599,3.905514 -7.07154,6.221148 -5.02734,18.281649 -5.02734,26.673968 0,3.698345 -0.22464,7.456487 0.4273,11.112499 0.6731,3.774546 2.16323,7.373937 5.39353,9.63877 4.29101,3.008313 9.55807,2.796646 14.55208,2.796646 6.9723,0 14.25099,0.591079 21.16667,-0.341048 1.79281,-0.241564 3.63405,-0.753798 5.29166,-1.478227 9.22338,-4.029868 8.46667,-15.462778 8.46667,-23.845307 0,-8.254735 1.75472,-21.327003 -6.87917,-26.111199 -1.9296,-1.069181 -3.92271,-1.657085 -6.08541,-2.036498 -1.99099,-0.349514 -4.34314,-0.578643 -6.35,-0.315118 m 28.31041,65.50448 c 0.89324,-1.459177 2.0656,-2.98741 2.10185,-4.7625 0.0609,-2.965714 -3.06599,-5.069416 -5.80496,-3.908425 -1.68619,0.714904 -2.5474,2.687373 -3.44064,4.173008 -1.93013,3.209925 -8.40634,10.823046 -3.17103,13.962591 1.80605,1.08294 4.62016,0.63844 6.61062,0.400315 4.81832,-0.576263 9.57394,-1.559454 14.02291,-3.596746 12.12612,-5.552281 20.91214,-16.155986 24.30092,-29.022409 1.16443,-4.421716 4.18968,-16.880416 -3.66342,-16.111801 -1.9468,0.1905 -3.26813,1.577181 -3.72983,3.411802 -1.28032,5.085821 -0.84402,10.04517 -2.99773,15.081249 -4.51591,10.559256 -13.39479,17.321212 -24.22869,20.372916 z"
       id="path994" /></g></svg>
