<?xml version="1.0" encoding="UTF-8" standalone="no"?>
<!-- Created with Inkscape (http://www.inkscape.org/) -->

<svg
   width="97.183777mm"
   height="79.735588mm"
   viewBox="0 0 97.183777 79.735588"
   version="1.1"
   id="svg5"
   xml:space="preserve"
   xmlns:inkscape="http://www.inkscape.org/namespaces/inkscape"
   xmlns:sodipodi="http://sodipodi.sourceforge.net/DTD/sodipodi-0.dtd"
   xmlns="http://www.w3.org/2000/svg"
   xmlns:svg="http://www.w3.org/2000/svg"><sodipodi:namedview
     id="namedview7"
     pagecolor="#505050"
     bordercolor="#eeeeee"
     borderopacity="1"
     inkscape:showpageshadow="0"
     inkscape:pageopacity="0"
     inkscape:pagecheckerboard="0"
     inkscape:deskcolor="#505050"
     inkscape:document-units="mm"
     showgrid="false" /><defs
     id="defs2" /><g
     inkscape:label="Layer 1"
     inkscape:groupmode="layer"
     id="layer1"
     transform="translate(436.28999,23.605207)"><path
       style="fill:#020202;stroke:none;stroke-width:0.264583"
       d="m -436.29,-23.605207 v 69.32083 h 28.83958 7.14375 c 0.90435,0 2.20874,0.236537 2.93582,-0.424127 2.62413,-2.384954 4.49394,-7.114381 6.3246,-10.159206 4.36933,-7.266516 8.79448,-14.521391 13.31356,-21.695832 2.70246,-4.2904833 4.99137,-10.1113164 10.76352,-10.583333 v -26.458332 h -30.95625 l -4.23333,12.964583 7.40833,4.4979161 -13.03919,14.8166659 -5.74623,6.879166 h -0.26458 l 3.96875,-23.2833318 c -1.91532,-0.7379229 -7.0948,-1.3260916 -8.25077,-3.0453542 -0.61806,-0.919427 0.77206,-2.737379 1.16497,-3.569229 1.40811,-2.98106 3.26337,-6.094147 4.17538,-9.260416 H -436.29 m 68.79166,30.8363922 c -3.4753,0.7381874 -5.8338,6.8598518 -7.5139,9.6448558 -5.23425,8.677539 -10.65927,17.240514 -15.87526,25.929165 -1.92035,3.199077 -5.3213,7.272867 -2.7694,11.101916 2.15239,3.228975 9.01489,1.862667 12.40023,1.862667 h 26.9875 c 3.63299,0 8.70267,0.916517 12.17083,-0.172773 4.98211,-1.564481 2.63552,-7.48612 0.84376,-10.41056 -5.89016,-9.613899 -11.68374,-19.299765 -17.69269,-28.839582 -1.73805,-2.759075 -4.38679,-10.0001909 -8.55107,-9.1156888 m 2.7e-4,12.1306158 c 1.58432,-0.357452 3.03979,0.453496 3.53113,2.012421 0.45323,1.437746 0.17277,3.269456 0.17277,4.762235 0,2.769658 0.46672,6.015831 -0.091,8.73125 -0.24236,1.179248 -1.10569,2.103702 -2.29023,2.372518 -1.58486,0.359569 -3.01678,-0.601927 -3.49144,-2.1082 -1.04405,-3.312318 -0.74375,-9.810484 -0.12568,-13.228901 0.22939,-1.267883 1.00515,-2.250281 2.29447,-2.541323 m -0.26459,23.547651 c 4.43177,-1.015735 6.28068,5.655469 1.85156,6.670675 -4.31721,0.989277 -6.22803,-5.667639 -1.85156,-6.670675 z"
       id="path988" /></g></svg>
