<?xml version="1.0" encoding="UTF-8" standalone="no"?>
<!-- Created with Inkscape (http://www.inkscape.org/) -->

<svg
   width="127.67932mm"
   height="127.84555mm"
   viewBox="0 0 127.67932 127.84555"
   version="1.1"
   id="svg5"
   xml:space="preserve"
   xmlns:inkscape="http://www.inkscape.org/namespaces/inkscape"
   xmlns:sodipodi="http://sodipodi.sourceforge.net/DTD/sodipodi-0.dtd"
   xmlns="http://www.w3.org/2000/svg"
   xmlns:svg="http://www.w3.org/2000/svg"><sodipodi:namedview
     id="namedview7"
     pagecolor="#505050"
     bordercolor="#eeeeee"
     borderopacity="1"
     inkscape:showpageshadow="0"
     inkscape:pageopacity="0"
     inkscape:pagecheckerboard="0"
     inkscape:deskcolor="#505050"
     inkscape:document-units="mm"
     showgrid="false" /><defs
     id="defs2" /><g
     inkscape:label="Layer 1"
     inkscape:groupmode="layer"
     id="layer1"
     transform="translate(216.26525,63.917364)"><path
       style="fill:#010101;stroke:none;stroke-width:0.264583"
       d="m -203.51411,-63.386676 c -15.88202,2.275205 -12.43542,21.086709 -12.43542,32.695011 0,5.514181 -0.81698,11.647222 2.5899,16.404166 6.15884,8.5994868 20.00049,5.8208327 29.1601,5.8208327 3.71872,0 7.70255,0.4008438 11.37708,-0.1994958 15.51411,-2.5347079 11.90625,-21.7543049 11.90625,-33.1380029 0,-5.374719 0.7292,-11.240531 -2.59,-15.874999 -6.13093,-8.560805 -19.76729,-5.820833 -28.89541,-5.820833 -3.6258,0 -7.52173,-0.401108 -11.1125,0.113321 m 71.96666,0 c -15.88214,2.275205 -12.43541,21.086709 -12.43541,32.695011 0,5.514181 -0.81704,11.647222 2.59,16.404166 6.15871,8.5994868 20.00038,5.8208327 29.15999,5.8208327 3.71872,0 7.70255,0.4008438 11.37709,-0.1994958 15.514105,-2.5347079 11.906247,-21.7543049 11.906247,-33.1380029 0,-5.374719 0.729192,-11.240531 -2.590006,-15.874999 -6.130925,-8.560805 -19.767281,-5.820833 -28.895411,-5.820833 -3.62585,0 -7.52184,-0.401108 -11.1125,0.113321 m -71.96666,71.9665839 c -15.88202,2.2754161 -12.43542,21.0867611 -12.43542,32.6950901 0,5.514181 -0.81698,11.647222 2.5899,16.404166 6.15884,8.599487 20.00049,5.820833 29.1601,5.820833 3.71872,0 7.70255,0.400844 11.37708,-0.199496 15.51411,-2.534708 11.90625,-21.754305 11.90625,-33.138002 0,-5.374746 0.7292,-11.240558 -2.59,-15.875 -6.13093,-8.5608576 -19.76729,-5.8208327 -28.89541,-5.8208327 -3.6258,0 -7.52173,-0.4011084 -11.1125,0.1132416 m 84.66666,-0.00106 c -4.74239,0.630502 -9.24771,1.9457451 -13.22916,4.7045561 -2.99297,2.073804 -5.67373,4.794514 -7.61233,7.88326 -12.41504,19.780778 4.4995,45.249568 27.45607,41.993341 3.75127,-0.532341 7.38214,-1.944687 10.58334,-3.953933 19.93344,-12.511087 14.867199,-44.143875 -7.9375,-49.8464387 -2.97048,-0.7426854 -6.20475,-1.1869208 -9.26042,-0.7807854 z"
       id="path990" /></g></svg>
