<?xml version="1.0" encoding="UTF-8" standalone="no"?>
<!-- Created with Inkscape (http://www.inkscape.org/) -->

<svg
   width="87.570801mm"
   height="119.3408mm"
   viewBox="0 0 87.570801 119.3408"
   version="1.1"
   id="svg5"
   xml:space="preserve"
   xmlns:inkscape="http://www.inkscape.org/namespaces/inkscape"
   xmlns:sodipodi="http://sodipodi.sourceforge.net/DTD/sodipodi-0.dtd"
   xmlns="http://www.w3.org/2000/svg"
   xmlns:svg="http://www.w3.org/2000/svg"><sodipodi:namedview
     id="namedview7"
     pagecolor="#505050"
     bordercolor="#eeeeee"
     borderopacity="1"
     inkscape:showpageshadow="0"
     inkscape:pageopacity="0"
     inkscape:pagecheckerboard="0"
     inkscape:deskcolor="#505050"
     inkscape:document-units="mm"
     showgrid="false" /><defs
     id="defs2" /><g
     inkscape:label="Layer 1"
     inkscape:groupmode="layer"
     id="layer1"
     transform="translate(627.89833,43.581572)"><path
       style="fill:#020202;stroke:none;stroke-width:0.264583"
       d="m -620.31347,-43.061474 c -10.2452,1.847189 -7.14375,17.808971 -7.14375,25.2771 v 62.97083 16.404166 c 0,3.168385 -0.30584,6.652948 1.26984,9.525 3.41249,6.220089 13.20577,4.233333 19.10307,4.233333 h 39.95208 c 6.28068,0 13.70621,1.082146 19.84375,-0.268552 3.00223,-0.660929 5.50254,-3.061229 6.21004,-6.081448 1.40758,-6.007364 0.40454,-13.168576 0.40454,-19.314582 v -63.235414 -16.404166 c 0,-3.112002 0.23522,-6.48417 -1.41631,-9.260416 -3.55441,-5.97572 -13.37178,-3.96875 -19.22118,-3.96875 h -39.6875 c -6.16691,0 -13.24901,-0.970729 -19.31458,0.122899 m 11.64166,25.541683 c 2.16932,-1.4351 4.11348,-3.298031 6.08542,-4.992687 1.67693,-1.440921 3.71633,-3.850931 5.82083,-4.600495 1.70656,-0.607854 3.36629,0.978773 2.71304,2.710047 -0.54134,1.434571 -2.3884,2.478881 -3.50679,3.443552 -3.0644,2.643452 -6.81434,7.190581 -10.58333,8.703468 -3.01784,1.211528 -5.82322,-5.667374 -7.05935,-7.645135 -0.57811,-0.924983 -1.36181,-2.024856 -0.94218,-3.169972 0.51911,-1.417373 2.23758,-1.867165 3.36656,-0.890323 1.68275,1.455473 3.23215,4.416689 4.1058,6.441545 m 22.75919,-4.118504 c 2.9263,-0.832643 7.00723,-0.114829 10.04914,-0.114829 h 21.43125 c 1.85129,0 4.60666,-0.509323 6.33836,0.196321 1.45256,0.591873 1.60417,2.394214 0.48048,3.393017 -1.82589,1.622689 -7.1321,0.643995 -9.46467,0.643995 h -19.57917 c -2.74426,0 -6.34788,0.619654 -8.99477,-0.114829 -1.96824,-0.545835 -2.44131,-3.383491 -0.26062,-4.003675 m -22.75919,27.9310031 c 2.09709,-1.3118041 3.94626,-3.117056 5.82083,-4.7281039 l 3.175,-2.680229 c 0.96362,-0.8310562 2.10688,-2.1500041 3.43959,-2.3092832 1.72852,-0.206375 2.83051,1.5978186 2.06904,3.09906439 -0.71067,1.40123331 -2.47518,2.47729361 -3.65654,3.46471861 -2.57493,2.1526499 -5.11863,4.3444581 -7.67292,6.5214496 -1.08479,0.9247184 -2.62414,2.5799524 -4.22275,1.9880794 -0.95303,-0.352954 -1.50415,-1.368425 -2.01507,-2.180696 -1.26735,-2.0155957 -4.72836,-5.7229372 -4.52199,-8.2018184 0.39688,-4.7606476 4.91067,0.5908146 5.73273,1.8518187 0.67151,1.0302875 1.33112,2.0605749 1.85208,3.1749998 m 22.76554,-4.1185039 c 2.90804,-0.8442854 7.01517,-0.1148292 10.04279,-0.1148292 h 21.96042 c 1.69386,0 4.54316,-0.5400145 6.05658,0.3119438 1.25359,0.7056437 1.38482,2.5897415 0.23309,3.4604852 -1.89785,1.4340416 -7.14772,0.4609041 -9.46467,0.4609041 h -19.84375 c -2.67917,0 -6.42779,0.6786563 -8.98446,-0.1359958 -1.89944,-0.605102 -1.95897,-3.4139186 0,-3.9825081 m -22.76554,27.9310028 c 2.23838,-1.292225 4.11745,-3.251994 6.08542,-4.9149 l 3.175,-2.68605 c 0.89588,-0.763587 1.9468,-1.896797 3.175,-2.056606 1.71847,-0.223308 2.81252,1.557338 2.06904,3.041915 -0.71226,1.422929 -2.46168,2.506133 -3.65654,3.505729 -2.57281,2.152385 -5.12869,4.328847 -7.67292,6.515099 -1.12871,0.969963 -2.56963,2.582863 -4.22936,1.953684 -0.98293,-0.372798 -1.50284,-1.345671 -2.03624,-2.183871 -1.28402,-2.018506 -4.70693,-5.702829 -4.49421,-8.201025 0.12436,-1.458912 1.81795,-2.235729 3.07631,-1.580885 1.23296,0.64135 1.93543,2.303727 2.64319,3.43191 0.65246,1.040606 1.34038,2.065073 1.86531,3.175 m 22.76554,-4.097337 c 2.84375,-0.905934 7.06015,-0.135996 10.04279,-0.135996 h 22.225 c 1.63142,0 4.33229,-0.509852 5.792,0.311944 1.25359,0.705643 1.38482,2.589741 0.23309,3.460485 -1.89785,1.434041 -7.14772,0.460904 -9.46467,0.460904 h -19.84375 c -2.67917,0 -6.42779,0.678656 -8.98446,-0.135996 -1.92458,-0.613304 -1.92458,-3.348037 0,-3.961341 m -22.76554,28.174419 c 3.13822,-2.546879 6.17299,-5.217848 9.26042,-7.825316 1.10569,-0.933715 2.61302,-2.599267 4.22169,-1.957652 2.30293,0.918369 1.01124,3.280568 -0.25427,4.415895 -3.606,3.235325 -8.05127,8.28966 -12.43409,10.3505 -3.2213,1.514739 -6.11029,-5.517091 -7.4213,-7.62926 -0.62944,-1.013883 -1.40229,-2.209271 -0.73316,-3.410744 0.68554,-1.231106 2.32834,-1.29831 3.3364,-0.443177 1.59755,1.354667 3.39434,4.522788 4.02431,6.499754 m 23.01981,-4.383087 c 2.94746,-0.817827 6.99532,-0.114829 10.05311,-0.114829 h 21.69583 c 1.72297,0 4.19311,-0.443971 5.79596,0.266964 1.40282,0.6223 1.76239,2.56249 0.49371,3.542242 -1.78673,1.379273 -6.99373,0.424127 -9.20009,0.424127 h -20.6375 c -2.47412,0 -6.41905,0.752739 -8.71669,-0.196321 -1.97724,-0.816769 -1.29884,-3.418946 0.51567,-3.922183 z"
       id="path986"
       inkscape:export-filename="path986.svg"
       inkscape:export-xdpi="96"
       inkscape:export-ydpi="96" /></g></svg>
