<?xml version="1.0" encoding="UTF-8" standalone="no"?>
<!-- Created with Inkscape (http://www.inkscape.org/) -->

<svg
   width="109.44193mm"
   height="127.00277mm"
   viewBox="0 0 109.44193 127.00277"
   version="1.1"
   id="svg5"
   xml:space="preserve"
   xmlns:inkscape="http://www.inkscape.org/namespaces/inkscape"
   xmlns:sodipodi="http://sodipodi.sourceforge.net/DTD/sodipodi-0.dtd"
   xmlns="http://www.w3.org/2000/svg"
   xmlns:svg="http://www.w3.org/2000/svg"><sodipodi:namedview
     id="namedview7"
     pagecolor="#505050"
     bordercolor="#eeeeee"
     borderopacity="1"
     inkscape:showpageshadow="0"
     inkscape:pageopacity="0"
     inkscape:pagecheckerboard="0"
     inkscape:deskcolor="#505050"
     inkscape:document-units="mm"
     showgrid="false" /><defs
     id="defs2" /><g
     inkscape:label="Layer 1"
     inkscape:groupmode="layer"
     id="layer1"
     transform="translate(-274.80176,248.44697)"><path
       style="fill:#030303;stroke:none;stroke-width:0.264583"
       d="m 305.42004,-248.22585 c -11.75835,1.5484 -21.89432,8.17031 -26.00899,19.73146 -7.09033,19.92207 9.36749,42.73259 31.03607,40.14126 14.31184,-1.71185 25.81434,-12.59946 27.2071,-27.17668 1.67905,-17.57084 -14.02053,-35.09453 -32.23418,-32.69604 m 26.19375,5.17938 c 1.72799,2.45523 3.83989,4.56755 5.4438,7.14375 0.70697,1.13564 1.35519,3.44202 2.41406,4.22598 2.19313,1.62367 6.78709,-0.54407 9.33503,0.46834 1.83409,0.72863 1.74492,3.01741 -0.006,3.76991 -2.13784,0.9185 -5.6224,0.26702 -7.92613,0.26702 l 1.05834,7.9375 c 6.43651,0 12.87859,-0.0786 19.31458,0.001 1.82721,0.0225 4.99083,1.53961 2.84983,3.62929 -1.2536,1.22369 -3.37053,0.86756 -4.9665,0.86756 h -12.17083 c -1.17819,0 -3.87297,-0.50085 -4.83076,0.272 -0.5969,0.48154 -0.54346,1.68354 -0.69506,2.37384 -0.45244,2.05899 -1.14459,4.03939 -1.61793,6.08541 h 20.6375 c 1.73461,0 6.53415,0.94854 3.89414,3.63035 -1.52797,1.55205 -5.08239,0.86757 -7.06914,0.86757 h -12.96458 c -1.87167,0 -4.26138,-0.3974 -6.07404,0.0841 -1.14247,0.30348 -1.72032,1.67111 -2.35559,2.56169 -1.54252,2.16218 -3.55044,3.93647 -5.06412,6.08542 h 26.45833 c 1.95739,0 8.08778,-0.95303 7.84833,2.38046 -0.12911,1.79652 -2.20054,2.0992 -3.615,2.1164 -4.14364,0.0508 -8.29125,10e-4 -12.43541,10e-4 -7.83167,0 -16.60737,-1.12316 -24.34167,0.0563 -2.94719,0.44953 -5.76368,2.50799 -8.73125,3.21019 -6.64792,1.57295 -12.49257,0.73634 -19.05,-0.62071 v 21.69583 c 5.40438,-1.71026 9.42393,-6.25157 15.34583,-6.83392 5.59409,-0.5506 10.84289,3.19246 16.13959,4.31562 6.17114,1.30889 13.79378,0.13705 20.10833,0.13705 4.70799,0 9.59855,-0.38417 14.2875,0.0249 1.84758,0.16113 2.81675,1.34885 2.64583,3.15013 l 8.99583,-4.48363 3.96135,-1.23216 0.27199,-4.07379 v -10.84792 -41.80416 c -4.09681,0 -11.99409,1.51183 -15.34187,-1.16245 -4.04018,-3.22749 -2.38521,-11.71215 -2.38521,-16.30005 h -29.36875 m 33.86666,0.26458 v 9.26042 l 0.42413,3.27993 3.28004,0.42424 h 9.26041 c -3.11996,-4.42926 -8.53545,-9.84454 -12.96458,-12.96459 m -61.38333,4.49792 c 0.49345,1.14654 0.63103,2.65388 1.49463,3.59963 1.09802,1.20277 2.87047,0.55049 3.2901,-0.9548 0.31088,-1.11498 -0.40005,-2.58011 -0.5514,-3.70316 1.00913,-0.32269 2.83554,-1.20526 3.83382,-0.52081 0.80407,0.55131 0.93371,2.03528 1.16258,2.90206 0.56409,2.13537 3.00037,6.86244 0.0294,7.82031 -2.33706,0.75356 -4.77943,1.22201 -7.14242,1.89251 -0.8808,0.24995 -2.1934,0.84844 -3.06123,0.29009 -0.71517,-0.46008 -0.81598,-1.57879 -1.00648,-2.33 -0.44264,-1.74365 -2.4929,-5.95003 -1.48008,-7.59923 0.6059,-0.98681 2.40771,-1.10836 3.43112,-1.3966 m -16.40295,5.14183 c 1.81012,-0.50464 7.22165,-0.74983 8.66971,0.52917 1.40547,1.24119 1.57136,4.23256 2.01136,5.97067 1.29699,5.12153 2.67176,10.22349 3.96875,15.34583 0.45482,1.79599 0.75486,5.40623 2.13149,6.69713 2.06427,1.93649 4.40769,0.94959 6.76539,0.29422 4.27223,-1.18719 9.85255,-3.6748 14.2875,-3.53642 2.07698,0.0648 6.95457,2.5781 3.67533,4.81436 -1.45442,0.99192 -4.40558,-0.42228 -6.32116,0.12065 -4.70932,1.33482 -10.3677,1.92378 -14.78915,4.00684 -1.18269,0.55722 -1.67667,1.90395 -2.9382,2.4175 -1.72852,0.70353 -3.77296,0.10213 -4.91596,-1.33191 -1.65708,-2.0791 0.007,-3.88646 -0.46461,-6.07404 -1.22793,-5.69066 -2.96359,-11.28633 -4.37515,-16.93333 -0.53287,-2.13122 -0.79295,-5.83652 -2.13386,-7.58881 -1.30757,-1.70902 -4.66884,0.20222 -6.32722,-1.03751 -1.41002,-1.0541 -0.8618,-3.24342 0.75578,-3.69435 m 22.22378,10.204 c 0.2712,1.31022 0.51144,3.15092 1.43669,4.17301 1.13136,1.24989 3.10436,0.69056 3.39011,-0.99907 0.21854,-1.29116 -0.59584,-2.96148 -0.85805,-4.23227 1.25625,-0.40164 3.97987,-1.70365 5.21785,-1.00039 0.82418,0.46831 0.97393,1.7608 1.20888,2.58789 0.64823,2.28044 1.19962,4.58973 1.81531,6.87916 0.24024,0.8935 0.80063,2.19075 0.21696,3.06123 -0.60881,0.90858 -2.4511,1.08321 -3.43191,1.33853 -3.14934,0.81994 -6.3201,1.96691 -9.52474,2.53418 -2.59847,0.45985 -2.93502,-4.60084 -3.40915,-6.40477 -0.38259,-1.45521 -1.99734,-4.84849 -1.08056,-6.23623 0.77867,-1.17872 3.72401,-1.43404 5.01861,-1.70127 m 2.38231,43.48268 c 4.15555,-0.86413 9.24587,-0.091 13.49269,-0.091 h 28.04584 c 2.97815,0 6.92335,-0.6821 9.78852,0.1516 1.50204,0.43683 2.39871,2.20239 1.20915,3.47239 -0.95065,1.01495 -2.59054,0.87339 -3.85392,0.87392 h -8.99584 -27.51666 c -3.71317,0 -8.89185,0.93292 -12.43145,-0.21272 -2.1934,-0.70988 -1.97168,-3.72983 0.26167,-4.19418 m -19.58022,22.92774 c 1.26259,4.37462 4.66196,8.7458 6.91885,12.69999 0.88583,1.55179 1.70365,3.97934 3.03848,5.17975 0.76306,0.68607 1.83673,-0.046 2.74267,0.0513 1.93992,0.20823 3.94388,1.01415 5.82083,1.53591 6.06319,1.68486 12.17004,3.24379 18.25625,4.84399 3.13875,0.82523 6.50293,2.1381 9.78958,1.44118 3.4171,-0.72469 6.33466,-2.84294 9.26042,-4.6355 l 13.75833,-8.46666 c 5.47635,-3.35518 10.9056,-6.79133 16.40417,-10.10973 2.37146,-1.4314 5.2496,-2.60324 5.50651,-5.71526 0.59504,-7.20964 -8.7376,-4.12856 -12.1211,-2.2995 -5.73299,3.09907 -11.29691,6.54897 -16.93333,9.82001 -3.91583,2.27277 -7.57184,4.80378 -12.17083,5.3684 -4.27699,0.52493 -9.15644,-1.0332 -13.22917,-2.19419 -2.53259,-0.72179 -6.59685,-1.04987 -8.67172,-2.7186 -1.77932,-1.43139 -0.25452,-3.85947 1.79256,-3.55414 4.74636,0.70802 9.19982,3.20648 14.02291,3.5634 2.5019,0.18521 4.94295,-1.16099 4.65164,-4.01663 -0.45693,-4.47755 -8.18382,-4.65746 -11.5308,-5.72982 -5.10355,-1.63513 -11.76311,-5.47926 -17.19792,-5.06915 -7.26757,0.54874 -13.71415,7.01992 -20.10833,10.00522 m 50.27083,-5.29167 c 2.04391,3.10303 2.94084,4.99216 2.64583,8.73125 6.09812,0 12.18618,-5.65838 17.4625,-8.46667 l -6.35,-0.26458 h -13.75833 m -60.58958,1.49172 c -2.29053,0.65722 -7.23591,3.05223 -7.57513,5.65203 -0.29154,2.2344 2.0628,5.03211 3.11703,6.87916 3.21628,5.63484 6.37479,11.30142 9.59665,16.93334 1.52419,2.66435 4.13721,10.40236 8.09061,9.31518 2.34554,-0.64505 7.56074,-3.17764 7.82559,-5.8756 0.21643,-2.20266 -2.16747,-5.04984 -3.21628,-6.87917 -3.17262,-5.53376 -6.38572,-11.06513 -9.43292,-16.66874 -1.59809,-2.939 -4.15259,-10.57672 -8.40555,-9.3562 m -0.26051,5.7785 c 2.55363,-0.55642 3.39315,3.42053 0.78846,3.98039 -2.48603,0.53472 -3.22302,-3.4499 -0.78846,-3.98039 m 77.51884,17.07144 v 0.26459 h 13.49375 c 1.36022,0 3.82429,0.47254 4.84108,-0.644 1.86584,-2.04814 0.71517,-8.36427 0.71517,-10.99767 l -6.08542,3.48959 z"
       id="path984" /></g></svg>
