<?xml version="1.0" encoding="UTF-8" standalone="no"?>
<!-- Created with Inkscape (http://www.inkscape.org/) -->

<svg
   width="135.46667mm"
   height="114.88687mm"
   viewBox="0 0 135.46667 114.88687"
   version="1.1"
   id="svg5"
   xml:space="preserve"
   xmlns:inkscape="http://www.inkscape.org/namespaces/inkscape"
   xmlns:sodipodi="http://sodipodi.sourceforge.net/DTD/sodipodi-0.dtd"
   xmlns="http://www.w3.org/2000/svg"
   xmlns:svg="http://www.w3.org/2000/svg"><sodipodi:namedview
     id="namedview7"
     pagecolor="#505050"
     bordercolor="#eeeeee"
     borderopacity="1"
     inkscape:showpageshadow="0"
     inkscape:pageopacity="0"
     inkscape:pagecheckerboard="0"
     inkscape:deskcolor="#505050"
     inkscape:document-units="mm"
     showgrid="false" /><defs
     id="defs2" /><g
     inkscape:label="Layer 1"
     inkscape:groupmode="layer"
     id="layer1"
     transform="translate(-24.731545,257.86565)"><path
       style="fill:#020202;stroke:none;stroke-width:0.264583"
       d="m 144.58779,-257.86564 -7.40833,9.525 5.82083,4.49792 v 0.26458 l -5.18583,6.08542 -8.94292,11.11249 -3.88673,4.55798 -3.57611,1.10252 -1.20597,4.92284 -4.71911,6.61458 c 1.62375,0.55245 2.33733,1.7616 3.175,3.175 l 2.38125,-2.64583 c 0.41328,1.45653 0.82577,2.88475 1.53062,4.23333 2.46062,4.70852 7.14719,4.80589 11.96313,4.4741 1.41367,-0.0971 3.14749,-0.86545 4.49766,-0.19314 2.31298,1.15146 2.75748,4.03728 0.51805,5.50995 -1.80922,1.18983 -4.76276,1.2311 -6.86779,1.32159 1.11522,4.31033 3.2856,12.1113 1.43828,16.39385 -0.80037,1.85526 -3.24935,3.37449 -4.48681,5.0374 -3.27316,4.3987 -5.50174,10.31584 -5.12974,15.875 0.22807,3.41365 0.50853,8.5807 2.73288,11.3657 2.07592,2.59901 6.77651,2.12355 7.679,-1.31154 0.75407,-2.8694 -1.11019,-5.88433 -1.39462,-8.73125 -0.37306,-3.7293 0.67072,-6.68946 2.07143,-10.05416 h 0.26458 c 0.15134,7.33319 4.30689,14.52721 10.31875,18.60788 2.86676,1.94627 9.08367,5.24695 10.44231,-0.35163 0.98742,-4.0685 -2.80855,-5.20039 -5.41523,-7.12364 -2.52677,-1.86452 -4.5839,-4.45612 -5.63589,-7.42845 -2.16244,-6.11055 0.20479,-10.57883 1.32027,-16.40416 1.31393,-6.86144 0.74428,-16.4174 -3.07975,-22.48932 -1.62745,-2.58392 -4.61115,-4.17486 -7.68588,-3.71104 -1.07473,0.16192 -2.07883,1.01335 -3.175,0.86862 -4.59687,-0.60695 -6.76222,-6.70295 -6.86752,-10.65159 -0.0796,-2.98 3.52266,-6.01398 5.28029,-8.20209 3.33084,-4.14707 6.67782,-8.28172 10.00098,-12.43541 1.69757,-2.1217 3.84122,-4.18809 5.08,-6.61458 l 5.82084,4.49791 h 0.26458 l 7.67292,-9.78958 -5.82084,-4.23333 2.38125,-2.91042 v -0.26458 l -3.96875,-2.91042 -2.11666,2.91042 c -1.69572,-1.56184 -3.82826,-3.88308 -6.08542,-4.49792 m -8.20208,36.63553 c -10.14228,1.80896 -8.0018,17.62892 2.11666,15.8533 10.20181,-1.79017 8.07562,-17.67152 -2.11666,-15.8533 m -111.654164,1.72905 v 76.46458 h 70.643747 v -48.94791 l -8.995833,0.52916 c 1.492514,-3.14986 2.881841,-6.34788 4.314295,-9.525 0.571236,-1.26735 1.646502,-2.85009 1.828006,-4.22936 0.126207,-0.96044 -0.740039,-1.55813 -1.381125,-2.12064 -2.839508,-2.49237 -4.740274,-0.72654 -7.40701,1.32292 0.662517,-1.19036 2.991379,-3.61341 2.564871,-5.02602 -0.413279,-1.36975 -2.582333,-1.82828 -2.725737,-3.28851 -0.147373,-1.49939 1.603904,-3.68353 2.01295,-5.17922 -4.055533,0 -12.764029,-1.78223 -12.883621,4.49792 -0.04154,2.19339 1.062303,4.72572 1.506538,6.87916 -1.449388,-1.17633 -5.755216,-3.63908 -5.989373,-5.56656 -0.211666,-1.74467 1.358371,-4.09205 1.75604,-5.81052 H 24.731546 m 61.912497,4.23333 c 2.036762,2.66304 5.358077,5.62928 8.202083,7.40834 l 0.529167,-8.20209 -8.73125,0.79375 m 27.520637,6.81197 c -4.35293,1.65417 1.23057,7.78351 2.90644,9.28158 4.3905,3.92536 10.15154,5.10064 15.875,5.07286 1.8087,-0.009 4.74795,-0.0572 6.3,-1.08189 1.719,-1.13479 1.22475,-3.83566 -0.7448,-4.35821 -1.47823,-0.39238 -3.25994,0.33708 -4.76145,0.40296 -4.05897,0.17753 -8.18488,-0.29528 -11.64166,-2.60641 -2.10159,-1.40494 -5.21467,-7.74383 -7.93353,-6.71089 m -2.6498,3.50678 -3.96875,5.55625 3.43958,2.64584 h 0.26458 c 0.90885,-0.94986 3.08134,-2.78765 2.94561,-4.23334 -0.1233,-1.31524 -1.61978,-2.73552 -2.15186,-3.96875 h -0.52916 m -13.758338,52.91667 c 0.623359,1.91214 1.638565,7.33927 3.309938,8.45555 0.66516,0.44424 1.78356,0.0778 2.5109,-0.0233 2.08571,-0.29051 4.33757,-0.41249 6.35,-1.02394 v -0.26458 l -12.170838,-7.14375 m 12.170838,5.82083 7.40833,2.64583 -2.91042,-6.35 -4.49791,3.70417 m 7.14374,-2.11667 5.29167,4.7625 0.52917,-5.29166 z"
       id="path982"
       inkscape:export-filename="purchase Requests.svg"
       inkscape:export-xdpi="96"
       inkscape:export-ydpi="96" /></g></svg>
