<?xml version="1.0" encoding="UTF-8" standalone="no"?>
<!-- Created with Inkscape (http://www.inkscape.org/) -->

<svg
   width="113.93735mm"
   height="133.37462mm"
   viewBox="0 0 113.93735 133.37462"
   version="1.1"
   id="svg5"
   xml:space="preserve"
   xmlns:inkscape="http://www.inkscape.org/namespaces/inkscape"
   xmlns:sodipodi="http://sodipodi.sourceforge.net/DTD/sodipodi-0.dtd"
   xmlns="http://www.w3.org/2000/svg"
   xmlns:svg="http://www.w3.org/2000/svg"><sodipodi:namedview
     id="namedview7"
     pagecolor="#505050"
     bordercolor="#eeeeee"
     borderopacity="1"
     inkscape:showpageshadow="0"
     inkscape:pageopacity="0"
     inkscape:pagecheckerboard="0"
     inkscape:deskcolor="#505050"
     inkscape:document-units="mm"
     showgrid="false" /><defs
     id="defs2" /><g
     inkscape:label="Layer 1"
     inkscape:groupmode="layer"
     id="layer1"
     transform="translate(-485.88279,188.32522)"><path
       style="fill:#020202;stroke:none;stroke-width:0.222493"
       d="m 496.25658,-168.77532 c 1.53714,-1.88828 3.98343,-3.20916 6.00732,-4.52627 6.04693,-3.93527 12.95779,-6.65102 20.02441,-8.06692 12.85166,-2.57501 26.49985,-0.89863 38.26887,4.98585 20.65539,10.32776 34.83,33.04701 33.81032,56.33339 -1.47202,33.610294 -31.16555,62.647461 -65.62688,59.367908 -11.66444,-1.110019 -22.57189,-5.037473 -32.03906,-12.011083 -1.9324,-1.423512 -6.89812,-7.189651 -9.02059,-3.077306 -1.59726,3.094883 3.42884,6.026456 5.4607,7.496247 7.15209,5.173194 14.98575,9.179187 23.5843,11.328919 24.46115,6.11523 51.22066,-2.054282 67.54055,-21.498424 22.15856,-26.400621 20.38752,-65.984421 -3.69361,-90.551561 -5.52073,-5.63211 -12.24204,-10.04731 -19.34825,-13.4016 -7.104,-3.35328 -15.10464,-5.18117 -22.91683,-5.71617 -17.53448,-1.20079 -32.97265,5.19124 -46.72361,15.55463 0,-4.21142 0.19741,-8.4762 -0.009,-12.68212 -0.076,-1.54968 -0.96399,-3.01047 -2.661,-3.08195 -2.61955,-0.11034 -2.89241,2.46293 -2.89241,4.41691 v 12.68212 c 0,1.82981 -0.41545,4.26066 0.19005,6.00398 0.74455,2.14395 3.11293,1.78329 4.9273,1.78329 h 14.23958 c 1.78956,0 4.4799,0.49683 5.33784,-1.56079 0.6103,-1.46428 -0.13083,-3.42647 -1.77817,-3.72823 -3.95858,-0.72516 -8.65324,-0.0508 -12.6819,-0.0508 m 23.36181,3.55989 c 2.22093,2.59272 6.82409,4.28122 9.78971,5.97395 7.14003,4.07541 14.21243,8.26963 21.35936,12.33303 2.38246,1.35454 4.76515,2.71798 7.11979,4.12013 0.90333,0.53799 2.24674,1.66514 3.33741,1.64401 1.27911,-0.0247 2.92089,-1.42129 4.00488,-2.04427 3.19567,-1.83646 6.4236,-3.63821 9.56721,-5.56234 -2.27076,-2.65078 -6.98362,-4.36465 -10.0122,-6.10099 -7.13225,-4.08898 -14.22912,-8.23982 -21.35937,-12.33265 -2.37801,-1.36504 -4.76091,-2.72855 -7.11979,-4.12643 -0.85148,-0.50453 -2.08009,-1.52717 -3.11491,-1.46216 -1.32094,0.083 -2.88062,1.44463 -4.00488,2.08912 -3.15918,1.81117 -6.27008,3.92737 -9.56721,5.4686 m -28.03417,16.24202 9.56721,5.65667 20.4694,11.83198 8.00976,4.63186 3.55989,1.8002 4.67237,-2.33885 8.67724,-5.02368 4.22737,-2.76359 -30.2591,-17.41701 -8.00976,-4.64321 -3.3374,-1.62442 -5.33985,2.81498 -12.23713,7.07507 m -2.66993,5.11735 v 34.04148 9.56722 l 0.13426,4.143049 2.98065,2.053392 7.56478,4.355085 20.02441,11.569656 10.90217,6.135477 v -34.041489 -9.56721 l -0.13416,-4.15418 -2.75825,-1.94147 -7.56478,-4.36154 -21.13687,-12.20376 -10.01221,-5.59571 m 74.98029,24.25178 -5.78483,-2.00244 -5.11735,8.00976 h -0.22249 v -15.79703 c -4.22271,1.21882 -8.43962,4.59893 -12.23714,6.80295 -1.18478,0.68751 -3.47357,1.45133 -4.22115,2.62854 -0.56736,0.89309 -0.22872,2.67482 -0.22872,3.69562 v 9.34472 34.931459 l 12.01464,-6.802957 18.91194,-10.908183 7.56478,-4.378225 2.98074,-2.024245 0.13417,-4.143049 v -9.56722 -34.04148 c -3.50628,1.03125 -7.08775,3.83178 -10.2347,5.69649 -0.97541,0.57804 -2.95404,1.26532 -3.42573,2.35999 -0.55045,1.278 -0.13416,3.4689 -0.13416,4.84813 z"
       id="path996" /></g></svg>
