<?xml version="1.0" encoding="UTF-8" standalone="no"?>
<!-- Created with Inkscape (http://www.inkscape.org/) -->

<svg
   width="118.38729mm"
   height="103.84903mm"
   viewBox="0 0 118.38729 103.84903"
   version="1.1"
   id="svg5"
   xml:space="preserve"
   xmlns:inkscape="http://www.inkscape.org/namespaces/inkscape"
   xmlns:sodipodi="http://sodipodi.sourceforge.net/DTD/sodipodi-0.dtd"
   xmlns="http://www.w3.org/2000/svg"
   xmlns:svg="http://www.w3.org/2000/svg"><sodipodi:namedview
     id="namedview7"
     pagecolor="#505050"
     bordercolor="#eeeeee"
     borderopacity="1"
     inkscape:showpageshadow="0"
     inkscape:pageopacity="0"
     inkscape:pagecheckerboard="0"
     inkscape:deskcolor="#505050"
     inkscape:document-units="mm"
     showgrid="false" /><defs
     id="defs2" /><g
     inkscape:label="Layer 1"
     inkscape:groupmode="layer"
     id="layer1"
     transform="translate(191.05985,246.6679)"><path
       style="fill:#010101;stroke:none;stroke-width:0.264583"
       d="m -187.88485,-233.57095 h 26.45833 c 3.33031,0 8.51932,0.99165 11.64166,-0.15955 1.54067,-0.56806 2.83501,-2.41088 3.96875,-3.54462 2.87629,-2.87623 6.38837,-5.66968 8.73125,-8.99583 h -26.45833 c -3.33031,0 -8.51932,-0.99158 -11.64166,0.15965 -1.54078,0.56808 -2.83501,2.41077 -3.96875,3.54451 -2.87624,2.87623 -6.38826,5.66968 -8.73125,8.99584 m 41.27499,16.93333 h 8.46667 v -9.26042 l 0.22701,-4.49791 3.9624,-4.7625 9.56892,-11.1125 -6.35,0.15965 -3.43958,3.01535 -6.61458,6.61458 -5.66129,6.08542 -0.15955,4.49791 v 9.26042 m 15.875,-16.93333 h 26.45834 c 3.33031,0 8.519314,0.99165 11.641661,-0.15955 1.540669,-0.56806 2.835011,-2.41088 3.96875,-3.54462 2.876285,-2.87623 6.388364,-5.66968 8.73125,-8.99583 h -26.458331 c -3.33031,0 -8.51932,-0.99158 -11.64167,0.15965 -1.54067,0.56808 -2.83501,2.41077 -3.96875,3.54451 -2.87628,2.87623 -6.38836,5.66971 -8.73125,8.99584 m 53.710417,-9.525 -8.466666,8.46666 c -1.20306,1.20306 -3.207014,2.60059 -3.809206,4.23334 -0.477044,1.29381 -0.159544,3.13451 -0.159544,4.49791 v 9.525 c 0,2.2434 -0.943239,7.25223 0.271992,9.15723 0.638439,1.00092 2.410354,1.50971 3.432175,2.02062 2.976298,1.48828 5.92402,3.15357 8.995833,4.43257 v -29.63333 c 0,-3.57585 1.112837,-9.41721 -0.264584,-12.7 m -114.035407,13.75833 v 76.19999 h 97.366658 v -20.10833 c 0,-2.08809 0.760942,-6.04784 -0.271992,-7.89146 -2.297906,-4.1021 -10.354206,-5.53614 -14.544676,-5.86687 v 8.73125 c -5.3e-4,1.27291 0.10636,2.69504 -1.08717,3.50679 -1.76318,1.19909 -4.18518,-1.37742 -5.52741,-2.33707 l -14.2875,-10.2026 -9.78958,-6.99531 c -1.0676,-0.76333 -3.05409,-1.75737 -3.05409,-3.28639 0,-1.52903 1.98649,-2.52307 3.05409,-3.28639 l 9.78958,-6.99532 14.2875,-10.2026 c 1.34223,-0.95964 3.76423,-3.53615 5.52741,-2.33706 1.19353,0.81174 1.08664,2.23387 1.08717,3.50678 v 8.73125 c 5.21811,0 9.748575,0.6903 14.816668,1.85209 v -23.01875 h -40.216668 v 10.84791 c 0,1.40865 0.37095,3.47028 -0.31194,4.75086 -0.7538,1.41314 -2.27356,1.33403 -3.65681,1.33456 h -8.99583 c -1.28376,-5.3e-4 -2.68102,0.10134 -3.50784,-1.08717 -0.84641,-1.21682 -0.46091,-3.32661 -0.46091,-4.73366 v -11.1125 h -40.21666 m 78.05208,14.81666 -17.4625,12.47246 c -1.09485,0.78449 -5.50148,3.01863 -5.50148,4.46088 0,1.44224 4.40663,3.67638 5.50148,4.46087 5.68272,4.07194 11.47286,9.36122 17.72708,12.47246 0,-2.38654 -1.01044,-7.86686 0.64399,-9.72926 1.50919,-1.69889 5.35173,-0.77708 7.29351,-0.42704 7.002196,1.2626 13.382358,5.0292 17.756714,10.68547 6.655594,8.60636 7.816585,20.09113 3.174736,29.89791 -1.307042,2.76172 -3.335602,4.93633 -5.056452,7.40833 3.269191,-1.54649 6.134364,-4.16163 8.466402,-6.87916 12.491243,-14.55473 9.668403,-37.7489 -6.349736,-48.54601 -4.917281,-3.3147 -10.304726,-4.92919 -16.139584,-5.61817 -2.40056,-0.28337 -6.66221,0.88292 -8.70241,-0.53631 -2.6916,-1.87272 -0.23283,-7.45569 -1.35175,-10.12243 m -48.41875,44.45 v 4.23334 h -25.4 v -4.23334 h 25.4 m 0,8.46667 v 4.23333 h -25.4 v -4.23333 z"
       id="path980" /></g></svg>
