<?xml version="1.0" encoding="UTF-8" standalone="no"?>
<!-- Created with Inkscape (http://www.inkscape.org/) -->

<svg
   width="110.27399mm"
   height="127.80872mm"
   viewBox="0 0 110.27399 127.80872"
   version="1.1"
   id="svg5"
   xml:space="preserve"
   xmlns:inkscape="http://www.inkscape.org/namespaces/inkscape"
   xmlns:sodipodi="http://sodipodi.sourceforge.net/DTD/sodipodi-0.dtd"
   xmlns="http://www.w3.org/2000/svg"
   xmlns:svg="http://www.w3.org/2000/svg"><sodipodi:namedview
     id="namedview7"
     pagecolor="#505050"
     bordercolor="#eeeeee"
     borderopacity="1"
     inkscape:showpageshadow="0"
     inkscape:pageopacity="0"
     inkscape:pagecheckerboard="0"
     inkscape:deskcolor="#505050"
     inkscape:document-units="mm"
     showgrid="false" /><defs
     id="defs2" /><g
     inkscape:label="Layer 1"
     inkscape:groupmode="layer"
     id="layer1"
     transform="translate(629.9825,264.37466)"><path
       style="fill:#010101;stroke:none;stroke-width:0.264583"
       d="m -549.49648,-141.44898 c -1.90765,0.35428 -3.63326,0.26908 -5.29167,-0.85328 -0.97605,-0.6604 -1.98173,-2.1254 -3.175,-2.32648 -2.37384,-0.39952 -4.19206,1.78144 -6.87917,0.76411 -2.84559,-1.07711 -2.94904,-4.12353 -5.13027,-5.51444 -1.9931,-1.27079 -4.41827,0.022 -6.51033,-1.88727 -1.27344,-1.16205 -2.14736,-2.46618 -2.33628,-4.20556 -0.10821,-0.9943 0.25956,-2.45559 -0.31802,-3.32898 -1.31948,-1.99549 -4.24366,-1.99179 -5.40888,-4.60852 -1.30307,-2.92629 1.17237,-4.82441 0.635,-7.40833 -0.47969,-2.30664 -3.20675,-3.38666 -3.39513,-6.08541 -0.22305,-3.19617 2.66065,-4.22805 3.34327,-6.87917 0.56541,-2.19604 -1.59914,-4.35504 -0.77999,-6.87917 1.03082,-3.17579 4.06823,-2.78527 5.60573,-4.93421 1.19909,-1.67561 0.0984,-4.46643 1.53908,-6.4389 2.2807,-3.12235 4.83023,-1.55019 7.66921,-2.80935 1.90077,-0.84296 2.31034,-4.26217 4.55745,-5.39697 2.98344,-1.5068 4.67307,0.85355 7.40833,0.49557 1.39568,-0.18283 2.53021,-1.86135 3.70417,-2.5527 1.64782,-0.97049 3.22289,-0.81651 5.02708,-0.58844 v -27.25208 c 0,-2.15151 -1.05278,-7.91535 1.59147,-8.78779 3.16838,-1.04529 2.64186,4.25551 2.64186,5.87738 v 21.43124 h 12.17083 c 2.45269,0 4.91173,0.11378 6.86779,-1.64385 3.08769,-2.77469 2.12805,-7.86633 2.12805,-11.58531 0,-9.5508 2.19207,-21.72642 -7.67292,-27.28494 -6.30872,-3.55472 -16.0274,-1.81923 -23.01875,-1.81923 h -51.85833 c -8.15869,0 -16.53124,-0.65434 -21.31121,7.40834 -3.4576,5.83215 -1.97212,14.39484 -1.97212,20.90208 v 46.83125 35.18958 c 0,4.03675 -1.25296,10.5828 1.22716,14.02186 3.26038,4.5212 12.67484,2.64689 17.55826,2.64689 h 45.77291 c 5.43269,0 13.03761,1.63936 15.61042,-4.49792 m -35.71875,-103.45208 c 1.89283,0 6.66353,-0.79261 6.27803,2.38025 -0.23098,1.89859 -2.16667,1.85256 -3.6322,1.85309 -2.72124,0.001 -7.97401,-0.99325 -8.83364,2.64583 -0.37756,1.59755 1.0578,3.08425 2.48364,3.53139 3.11547,0.97737 5.76765,-0.3601 8.44206,2.31405 4.47596,4.47622 1.44198,12.13591 -4.73789,12.67539 0,1.51289 0.45058,3.90816 -0.31195,5.26283 -0.76544,1.35996 -2.844,1.35996 -3.60944,0 -0.76253,-1.35467 -0.31195,-3.74994 -0.31195,-5.26283 -1.51288,0 -3.90816,0.45059 -5.26282,-0.31194 -1.35996,-0.76544 -1.35996,-2.84401 0,-3.60945 2.912,-1.63909 10.8749,2.05714 11.49694,-3.22236 0.42889,-3.64225 -4.02617,-3.24538 -6.23412,-3.48562 -3.1533,-0.3429 -6.0616,-3.08875 -6.32539,-6.30396 -0.23865,-2.90989 0.69056,-5.47579 3.15039,-7.19661 0.82815,-0.57942 2.3458,-0.7505 2.90301,-1.61486 0.95383,-1.47916 -0.38311,-3.67417 0.7329,-5.15102 0.87074,-1.15197 2.75484,-1.02055 3.46048,0.23294 0.76253,1.35467 0.31195,3.74989 0.31195,5.26288 m 57.14999,83.07916 c 2.16588,-0.38496 6.53495,-1.70312 6.08727,-4.49791 -0.25717,-1.60496 -2.00025,-3.68141 -1.63883,-5.29167 0.50403,-2.24446 4.22805,-3.18929 3.8862,-5.82083 -0.30294,-2.33151 -3.40307,-3.14008 -3.8862,-5.29167 -0.49556,-2.20715 2.38787,-4.24365 1.4404,-6.60294 -0.89721,-2.23388 -4.43945,-1.62454 -5.61684,-3.52398 -1.21867,-1.96559 0.97525,-5.55123 -1.12607,-7.13926 -1.84864,-1.397 -4.86013,0.48948 -6.70825,-0.73289 -1.98358,-1.31207 -1.14961,-5.52662 -4.0804,-5.88804 -2.08518,-0.25744 -4.08384,2.16059 -6.08436,1.71159 -2.24446,-0.50403 -3.18929,-4.22804 -5.82083,-3.8862 -2.32304,0.30189 -3.1332,3.42 -5.29167,3.85551 -2.28415,0.46064 -4.49315,-2.60932 -6.85059,-1.29434 -1.94945,1.08743 -1.44383,4.36562 -3.27633,5.50148 -1.93675,1.20068 -5.17737,-0.82047 -6.935,0.93715 -1.76159,1.76133 0.31724,5.00116 -0.93715,6.89716 -1.24725,1.88542 -4.89426,1.17184 -5.76368,3.56156 -0.84217,2.31484 2.08227,4.39764 1.58723,6.6032 -0.50403,2.24446 -4.22804,3.18929 -3.8862,5.82084 0.30295,2.3315 3.40307,3.14007 3.8862,5.29166 0.517,2.30267 -2.9173,4.74028 -1.17607,7.08422 1.23349,1.66026 4.29286,1.26762 5.35252,3.02948 1.1549,1.92008 -0.67231,4.89955 0.73289,6.75931 1.50998,1.99787 4.73869,-0.0431 6.57966,1.12607 1.92114,1.21973 1.84362,4.72096 4.08332,5.61684 2.34447,0.93794 4.37224,-1.85976 6.6032,-1.4097 2.22515,0.44873 3.05515,3.87455 5.55625,3.87455 2.50375,0 3.34407,-3.40836 5.55625,-3.90525 1.99152,-0.44714 3.95764,1.90924 6.08436,1.57269 2.51328,-0.39767 2.73394,-4.14311 4.40214,-5.597 1.42266,-1.23957 4.20528,0.0408 5.90312,-0.66066 2.23731,-0.92393 1.33746,-5.74993 1.33746,-7.70097 m -87.30852,-42.74766 c 3.00725,-0.84932 7.19031,-0.11483 10.31478,-0.11483 6.48494,0 13.40273,-0.6948 19.84348,0.0288 1.81795,0.20425 2.92815,2.4847 1.26286,3.74359 -1.61793,1.22264 -5.65997,0.4609 -7.61259,0.4609 h -16.66875 c -2.1336,0 -5.40623,0.61463 -7.39669,-0.19632 -1.82536,-0.74401 -1.59621,-3.39884 0.25691,-3.92218 m 72.49186,12.46161 c 3.75417,-0.25268 1.24169,4.34631 0.35269,5.67981 l -12.17083,18.25625 c -1.09591,1.64385 -2.82628,5.76315 -5.11519,5.76315 -3.96822,0 -0.94007,-4.61777 0,-6.02774 l 11.99435,-17.99166 c 1.07897,-1.61846 2.73288,-5.53138 4.93898,-5.67981 m -72.49186,0.23839 c 2.40956,-0.68051 5.69833,-0.11483 8.19811,-0.11483 5.10355,0 10.541,-0.54081 15.61015,0.0288 1.81795,0.20425 2.92815,2.4847 1.26286,3.74359 -1.41208,1.06706 -4.60216,0.4609 -6.28968,0.4609 h -13.22916 c -1.70947,0 -4.20741,0.45641 -5.80919,-0.19632 -1.82536,-0.74401 -1.59621,-3.39884 0.25691,-3.92218 m 54.50019,-0.0286 c 8.09334,-1.34885 10.25314,11.1715 2.11667,12.52749 -8.09334,1.34885 -10.25313,-11.1715 -2.11667,-12.52749 m 0.54055,4.33123 c -2.49106,0.67733 -1.4531,4.54184 1.03558,3.86503 2.49105,-0.67733 1.45309,-4.54183 -1.03558,-3.86503 m -55.04074,8.39734 c 2.40956,-0.6805 5.69833,-0.11482 8.19811,-0.11482 5.10355,0 10.541,-0.54081 15.61015,0.0288 1.81795,0.20425 2.92815,2.4847 1.26286,3.74358 -1.41208,1.06707 -4.60216,0.46091 -6.28968,0.46091 h -13.22916 c -1.70947,0 -4.20741,0.4564 -5.80919,-0.19632 -1.82536,-0.74401 -1.59621,-3.39884 0.25691,-3.92219 m 71.43353,4.19815 c 8.08646,-1.19168 10.29361,11.33554 2.11666,12.54072 -8.08646,1.19168 -10.29361,-11.33554 -2.11666,-12.54072 m 0.54054,4.33784 c -2.49105,0.67734 -1.45309,4.54184 1.03558,3.86504 2.49105,-0.67734 1.45309,-4.54184 -1.03558,-3.86504 m -71.97407,4.16401 c 2.40956,-0.6805 5.69833,-0.11483 8.19811,-0.11483 5.10355,0 10.541,-0.5408 15.61015,0.0288 1.81795,0.20426 2.92815,2.48471 1.26286,3.74359 -1.41208,1.06707 -4.60216,0.46091 -6.28968,0.46091 h -13.22916 c -1.70947,0 -4.20741,0.4564 -5.80919,-0.19632 -1.82536,-0.74401 -1.59621,-3.39884 0.25691,-3.92219 m 0,12.7 c 3.00725,-0.84931 7.19031,-0.11483 10.31478,-0.11483 6.48494,0 13.40273,-0.69479 19.84348,0.0288 1.81795,0.20426 2.92815,2.48471 1.26286,3.74359 -1.61793,1.22264 -5.65997,0.46091 -7.61259,0.46091 h -16.66875 c -2.1336,0 -5.40623,0.61462 -7.39669,-0.19632 -1.82536,-0.74401 -1.59621,-3.39884 0.25691,-3.92219 z"
       id="path976" /></g></svg>
