<?xml version="1.0" encoding="UTF-8" standalone="no"?>
<!-- Created with Inkscape (http://www.inkscape.org/) -->

<svg
   width="135.67148mm"
   height="135.46234mm"
   viewBox="0 0 135.67148 135.46234"
   version="1.1"
   id="svg5"
   xml:space="preserve"
   xmlns:inkscape="http://www.inkscape.org/namespaces/inkscape"
   xmlns:sodipodi="http://sodipodi.sourceforge.net/DTD/sodipodi-0.dtd"
   xmlns="http://www.w3.org/2000/svg"
   xmlns:svg="http://www.w3.org/2000/svg"><sodipodi:namedview
     id="namedview7"
     pagecolor="#505050"
     bordercolor="#eeeeee"
     borderopacity="1"
     inkscape:showpageshadow="0"
     inkscape:pageopacity="0"
     inkscape:pagecheckerboard="0"
     inkscape:deskcolor="#505050"
     inkscape:document-units="mm"
     showgrid="false" /><defs
     id="defs2" /><g
     inkscape:label="Layer 1"
     inkscape:groupmode="layer"
     id="layer1"
     transform="translate(330.51777,209.72048)"><path
       style="fill:#020202;stroke:none;stroke-width:0.264583"
       d="m -281.89521,-209.55654 c -5.62769,0.74794 -10.87411,2.45021 -15.34583,6.09582 -17.4035,14.18823 -11.72419,43.80185 10.58333,49.32 3.21733,0.79587 6.74872,1.14803 10.05416,0.75274 4.80193,-0.57441 9.21729,-2.15556 13.22917,-4.86463 19.57811,-13.22096 13.6861,-43.93633 -8.46667,-50.35768 -3.15118,-0.9134 -6.78656,-1.38054 -10.05416,-0.94625 m -7.9375,118.421047 c -0.54213,-2.370401 -1.25624,-4.691591 -0.90514,-7.143749 2.67044,-18.647308 25.55875,-17.243958 39.26972,-13.493748 4.64793,-7.96343 6.98447,-16.40708 17.19792,-18.52083 -3.50309,-5.6007 -10.04914,-9.51521 -16.40417,-10.93656 -6.69713,-1.4978 -14.07848,-0.70511 -20.90208,-0.70511 h -21.69584 c -10.86466,0 -21.32335,0.14684 -29.34506,8.73151 -8.14918,8.72093 -7.6966,19.31856 -7.6966,30.42682 0,3.466837 -1.29555,9.570774 2.64604,11.279982 3.0289,1.313392 8.10046,0.361685 11.37688,0.361685 h 26.45833 m 40.74583,0 h -0.26458 c -1.47638,-3.12076 -4.71964,-9.210147 -7.93856,-10.700547 -3.15198,-1.45944 -7.72372,-0.67654 -11.11144,-0.67654 -4.41114,0 -12.17719,-0.14075 -11.02545,6.614588 1.0234,6.001279 8.17483,4.762499 12.61295,4.762499 1.18612,0 3.11017,-0.365918 4.09628,0.424128 4.8506,3.886464 5.97349,13.129418 11.77872,15.893255 2.49766,1.189037 5.43216,0.434446 7.08527,-1.789112 2.61356,-3.515519 4.2508,-8.230394 6.20924,-12.147021 2.07169,-4.143374 5.00248,-8.513497 6.28465,-12.964587 h 0.52917 c 2.30029,5.338502 6.0571,10.360029 9.04875,15.345837 1.23798,2.063486 2.40427,4.870185 4.71064,5.938044 1.87087,0.866246 4.08278,0.676539 6.08436,0.676539 4.93368,0 17.0217,1.906588 16.08957,-6.349999 -0.69744,-6.176169 -7.97613,-5.027084 -12.38541,-5.027084 -1.30069,0 -3.33375,0.396346 -4.33652,-0.613304 -1.61554,-1.626658 -2.68763,-4.302918 -3.86556,-6.265862 l -7.9375,-13.229161 c -1.46817,-2.44661 -2.89348,-6.14469 -5.55625,-7.49089 -2.50401,-1.26629 -5.76156,-0.39581 -7.28451,1.94495 -2.17064,3.3364 -3.70099,7.2779 -5.48084,10.8376 -2.45057,4.90088 -5.23743,9.759157 -7.34298,14.816667 z"
       id="path1557" /></g></svg>
