<?xml version="1.0" encoding="UTF-8" standalone="no"?>
<!-- Created with Inkscape (http://www.inkscape.org/) -->

<svg
   width="135.34506mm"
   height="128.25443mm"
   viewBox="0 0 135.34506 128.25443"
   version="1.1"
   id="svg5"
   xml:space="preserve"
   xmlns:inkscape="http://www.inkscape.org/namespaces/inkscape"
   xmlns:sodipodi="http://sodipodi.sourceforge.net/DTD/sodipodi-0.dtd"
   xmlns="http://www.w3.org/2000/svg"
   xmlns:svg="http://www.w3.org/2000/svg"><sodipodi:namedview
     id="namedview7"
     pagecolor="#505050"
     bordercolor="#eeeeee"
     borderopacity="1"
     inkscape:showpageshadow="0"
     inkscape:pageopacity="0"
     inkscape:pagecheckerboard="0"
     inkscape:deskcolor="#505050"
     inkscape:document-units="mm"
     showgrid="false" /><defs
     id="defs2" /><g
     inkscape:label="Layer 1"
     inkscape:groupmode="layer"
     id="layer1"
     transform="translate(436.50465,257.39437)"><path
       style="fill:#030303;stroke:none;stroke-width:0.264583"
       d="m -315.6442,-250.50429 c -4.0685,7.14899 -7.19773,14.58987 -11.91287,21.43125 -15.50246,22.49197 -37.515,40.90432 -63.2288,50.52219 -11.01989,4.12168 -22.87116,7.40383 -34.66041,8.20869 -2.58339,0.17648 -10.62716,-0.52837 -11.04043,2.91704 -0.18942,1.57903 1.1515,2.54529 2.57376,2.63419 3.01091,0.18838 6.00372,-0.31962 8.99584,-0.52414 12.23195,-0.83529 24.52713,-4.13623 35.98333,-8.37565 33.59441,-12.43171 63.86565,-40.61434 77.52291,-73.90315 1.23825,2.32516 2.00925,4.95244 2.96042,7.40833 0.80989,2.09058 1.40732,5.42941 2.97101,7.06993 1.38642,1.45468 3.90684,0.74084 4.27249,-1.25015 0.31062,-1.69347 -0.98637,-3.74873 -1.55707,-5.29061 -1.54041,-4.16243 -3.22183,-8.27318 -4.7625,-12.43542 -0.5723,-1.5468 -1.14803,-4.4133 -2.83739,-5.09526 -1.77694,-0.71734 -3.92033,0.60954 -5.54488,1.21084 -4.07431,1.50794 -8.09969,3.14716 -12.17083,4.66492 -1.59861,0.596 -4.29207,1.11506 -5.42025,2.4539 -1.3126,1.55789 -0.30216,3.93705 1.71608,4.09268 2.4855,0.19167 5.91344,-1.89259 8.20209,-2.77913 2.60773,-1.0101 5.24086,-2.22287 7.9375,-2.96045 m -83.34375,0.90625 c -4.87521,0.66363 -9.40064,2.12463 -13.49375,4.92215 -2.76706,1.89117 -5.15437,4.42132 -7.10271,7.13619 -14.27731,19.89428 3.73512,47.10615 27.21104,44.11 3.93859,-0.5027 7.7515,-1.90923 11.1125,-4.00579 20.54887,-12.818 15.7615,-45.45584 -7.9375,-51.38208 -3.12949,-0.78258 -6.57225,-1.21843 -9.78958,-0.78047 m 4.7625,11.26459 c 3.01704,0 6.31561,-0.0639 8.29786,2.64969 1.18454,1.62174 2.43946,6.73613 -0.10742,7.73626 -1.05542,0.41434 -2.27515,-0.0886 -2.70245,-1.13718 -0.62442,-1.53247 0.24765,-3.14404 -1.2835,-4.35028 -1.99839,-1.57443 -8.64155,-1.0197 -11.08366,-0.57811 -1.0279,0.186 -1.96744,0.70934 -2.26642,1.769 -0.58076,2.05714 -0.62494,6.64395 1.23587,8.01211 3.72401,2.73791 9.90071,-0.79348 13.99514,1.80869 4.21243,2.67759 5.27156,12.50077 1.53855,16.01735 -2.13201,2.00845 -4.92998,1.67455 -7.62397,1.67455 0,1.21338 0.26908,2.8149 -0.19632,3.95711 -0.63421,1.55575 -2.82654,1.71291 -3.65151,0.24738 -0.66622,-1.18322 -0.3855,-2.89666 -0.3855,-4.20449 -3.07525,0 -5.98117,0.31194 -8.09784,-2.38231 -1.13453,-1.44383 -2.34844,-6.77572 -0.0754,-7.73986 1.12554,-0.47757 2.40163,0.0326 2.8792,1.13798 0.59161,1.37001 -0.24051,3.26072 1.12104,4.28995 0.90382,0.68289 2.31828,0.4609 3.37926,0.4609 2.47597,0 9.34429,1.24646 10.20392,-1.85314 0.60642,-2.18519 0.56144,-6.527 -1.49754,-7.89728 -3.86027,-2.56884 -9.89277,1.07368 -13.99805,-1.79837 -3.92959,-2.74902 -4.953,-12.3534 -1.46367,-15.84415 2.06533,-2.06637 4.84425,-1.9758 7.54909,-1.9758 0,-1.21923 -0.25876,-2.83144 0.34872,-3.93997 0.74983,-1.36874 2.85618,-1.39472 3.61262,-0.0133 0.58208,1.06283 0.27199,2.77696 0.27199,3.95325 m 66.14583,109.00832 h 15.08125 c 1.30493,0 4.40664,0.56568 5.39671,-0.42412 0.89667,-0.89694 0.42412,-3.4343 0.42412,-4.60296 v -12.96458 -44.45 -11.37708 c 0,-1.37795 0.40058,-3.54595 -0.4609,-4.72334 -0.90382,-1.23481 -2.96915,-0.83291 -4.3016,-0.83291 h -11.37708 c -1.30148,0 -3.59701,-0.44715 -4.41378,0.85407 -0.96784,1.54173 -0.34872,4.78526 -0.34872,6.55426 v 16.93333 21.43125 33.60208 m -34.66041,0 h 20.90208 v -35.71874 -8.99584 c 0,-1.08347 0.28046,-2.6924 -0.46091,-3.5933 -1.00912,-1.22608 -3.17023,-0.90461 -4.56617,-0.90461 h -11.64167 c -1.50469,5.3e-4 -3.36973,-0.0871 -4.03701,1.59252 -0.51144,1.2872 -0.19632,3.12897 -0.19632,4.49289 v 9.78959 33.33749 m -34.66042,0 h 20.90208 v -23.8125 c 0,-2.141 0.89059,-6.93314 -0.42412,-8.69209 -0.92049,-1.2311 -2.998,-0.8329 -4.33838,-0.8329 h -11.37708 c -1.42108,0 -3.5425,-0.40932 -4.34631,1.08717 -1.27264,2.36881 -0.41619,6.85906 -0.41619,9.49616 v 22.75416 m -13.49375,0 v -18.78541 c 0,-1.95474 0.70961,-5.69754 -0.49159,-7.34801 -0.93033,-1.2782 -3.16328,-0.85408 -4.53549,-0.85408 h -11.1125 c -1.18015,0 -3.1492,-0.36353 -4.11861,0.46091 -1.19769,1.01891 -0.64389,3.95129 -0.64389,5.35993 v 15.08125 c 0,1.2356 -0.62309,4.98395 0.42423,5.81342 1.05281,0.83397 4.10096,0.27199 5.3966,0.27199 z"
       id="path978" /></g></svg>
