<?xml version="1.0" encoding="UTF-8" standalone="no"?>
<!-- Created with Inkscape (http://www.inkscape.org/) -->

<svg
   width="102.25275mm"
   height="135.55151mm"
   viewBox="0 0 102.25275 135.55151"
   version="1.1"
   id="svg5"
   xml:space="preserve"
   xmlns:inkscape="http://www.inkscape.org/namespaces/inkscape"
   xmlns:sodipodi="http://sodipodi.sourceforge.net/DTD/sodipodi-0.dtd"
   xmlns="http://www.w3.org/2000/svg"
   xmlns:svg="http://www.w3.org/2000/svg"><sodipodi:namedview
     id="namedview7"
     pagecolor="#505050"
     bordercolor="#eeeeee"
     borderopacity="1"
     inkscape:showpageshadow="0"
     inkscape:pageopacity="0"
     inkscape:pagecheckerboard="0"
     inkscape:deskcolor="#505050"
     inkscape:document-units="mm"
     showgrid="false" /><defs
     id="defs2" /><g
     inkscape:label="Layer 1"
     inkscape:groupmode="layer"
     id="layer1"
     transform="translate(109.17982,219.51942)"><path
       style="fill:#020202;stroke:none;stroke-width:0.264583"
       d="m -102.37489,-219.42016 c -2.30677,0.60931 -1.59157,4.11721 -1.59157,5.90127 v 18.25625 60.85416 16.13958 c 0,1.49966 -0.60844,4.7326 0.27193,5.99731 0.7682,1.10358 2.39806,-0.25109 3.16765,-0.70273 2.223292,-1.30493 6.014507,-4.66566 8.731248,-4.01717 3.154363,0.75274 6.336771,5.2324 9.525,5.15964 3.848364,-0.0878 6.854825,-5.63959 10.847916,-5.26706 2.509308,0.23416 5.283464,2.61197 7.408333,3.86001 0.905669,0.53181 2.057135,1.5277 3.175,1.39594 3.681148,-0.43418 6.440752,-5.49169 10.318749,-5.23478 3.777456,0.25056 6.44525,4.58919 10.054166,5.21652 4.115065,0.7157 7.704931,-6.97653 12.170833,-4.8813 3.248554,1.52427 2.645833,5.30067 2.645833,8.2632 v 12.700004 c 0,2.107671 -0.352425,4.582583 0.279136,6.614583 1.355725,4.362714 5.9944,5.611283 10.039614,4.517231 11.2940035,-3.055408 7.9374995,-19.585248 7.9374995,-28.329728 v -78.05208 -20.10833 c 0,-1.95218 0.7617354,-5.99513 -0.4609041,-7.61249 -0.9387417,-1.24151 -2.4087664,-0.70555 -3.5078454,-0.0423 -2.27674,1.37404 -4.586288,3.7291 -7.14375,4.51467 -1.770062,0.54369 -3.779044,-0.92628 -5.291666,-1.68796 -2.517246,-1.26747 -5.489046,-3.76687 -8.466667,-3.3177 -3.86662,0.58329 -7.162535,5.13732 -11.112499,5.13732 -4.273814,0 -7.670271,-4.96112 -11.906249,-5.18203 -4.566179,-0.23812 -8.00444,4.75494 -12.435417,5.16835 -4.069026,0.37965 -7.592218,-4.80853 -11.641666,-5.1512 -4.340489,-0.3673 -8.019255,4.49011 -12.170832,5.14813 -3.904192,0.61883 -7.065698,-6.25529 -10.843842,-5.25735 m 15.606341,27.95164 c 5.082646,-0.97367 6.624902,6.60374 1.5875,7.70652 -4.928922,1.07897 -6.588654,-6.74846 -1.5875,-7.70652 m 35.983332,-0.003 c 4.484687,-0.80989 9.728199,-0.0871 14.287499,-0.0871 3.866356,0 8.375385,-0.64346 12.170833,0.09 3.706812,0.71623 4.275931,6.04758 0.792692,7.52263 -2.074863,0.87842 -5.187156,0.32491 -7.407275,0.32491 h -14.022916 c -2.024062,0 -4.703233,0.4535 -6.613525,-0.30374 -3.531658,-1.40018 -2.881047,-6.88314 0.792692,-7.54671 m -19.843749,1.0758 c 3.198283,-0.71914 5.6134,2.51036 4.499239,5.45173 -0.985837,2.60298 -3.136635,5.09985 -4.675716,7.40834 -2.872317,4.30874 -5.682192,8.65584 -8.554773,12.96458 -1.445947,2.16879 -2.940843,5.78829 -5.820833,6.21559 -3.179233,0.47175 -5.27976,-2.91544 -4.092574,-5.68642 3.000374,-7.00167 8.859307,-13.76469 13.088407,-20.10834 1.370542,-2.05581 2.91756,-5.65202 5.55625,-6.24548 m 19.843749,15.32837 c 4.156604,-0.75036 9.0043,-0.0871 13.229166,-0.0871 4.224866,0 9.072562,-0.66331 13.229166,0.0871 3.737239,0.67495 4.271698,6.05234 0.792692,7.52554 -2.139157,0.90567 -5.381361,0.32491 -7.671858,0.32491 h -13.49375 c -2.037027,0 -4.667779,0.4355 -6.614318,-0.22596 -3.710517,-1.26127 -3.345656,-6.92467 0.528902,-7.62449 m -18.785416,9.01303 c 5.18504,-1.19116 7.0358,6.51959 1.852083,7.69143 -4.75271,1.07421 -6.607439,-6.59897 -1.852083,-7.69143 m 18.520833,7.40833 c 4.877858,-1.12104 11.128903,-0.10425 16.139582,-0.10425 3.388783,0 7.544858,-0.65484 10.847916,0.10425 3.415242,0.78502 3.888581,5.81369 0.789782,7.32525 -2.164027,1.05569 -5.321565,0.508 -7.668948,0.508 h -13.758333 c -2.073539,0 -4.633118,0.39899 -6.614318,-0.29342 -3.479271,-1.21576 -3.513137,-6.67147 0.264319,-7.53983 m -36.512499,16.40417 c 5.271294,-1.21153 12.046214,-0.10425 17.4625,-0.10425 h 36.777081 c 2.804319,0 7.519193,-0.89932 10.053108,0.3855 2.389187,1.21126 2.827337,4.81753 0.738187,6.54658 -1.476904,1.22211 -3.449637,1.00542 -5.235045,1.00542 h -10.847916 -33.866665 c -4.524904,0 -11.066462,1.202 -15.345568,-0.29342 -3.493823,-1.22079 -3.533775,-6.66671 0.264318,-7.53983 m 55.562498,58.10408 c -1.446213,-5.287962 -1.5875,-9.843029 -1.5875,-15.345833 0,-1.252007 0.603779,-4.777847 -0.643996,-5.537467 -1.580356,-0.96229 -4.327789,2.22885 -6.235171,2.03094 -3.627437,-0.3765 -6.68893,-5.38903 -10.318749,-5.13767 -3.718983,0.2577 -6.459008,5.2951 -10.31875,5.1308 -3.744912,-0.15928 -7.193755,-5.79226 -10.847916,-5.25436 -3.728772,0.54874 -6.861439,5.74807 -10.847916,5.23028 -3.50176,-0.45482 -6.273006,-5.19615 -9.789583,-5.10223 -3.626379,0.0966 -6.455833,4.572 -10.054168,5.10884 -1.57686,0.23522 -5.03049,-2.89374 -6.07806,-1.6002 -0.83645,1.03294 -0.27194,4.1148 -0.27194,5.395651 0,5.568685 -0.0549,11.335808 5.82084,14.076891 3.8264,1.784879 8.855335,1.004358 12.964578,1.004358 h 25.929166 z"
       id="path1555" /></g></svg>
