<?xml version="1.0" encoding="UTF-8" standalone="no"?>
<!-- Created with Inkscape (http://www.inkscape.org/) -->

<svg
   width="118.42017mm"
   height="118.49738mm"
   viewBox="0 0 118.42017 118.49738"
   version="1.1"
   id="svg5"
   xml:space="preserve"
   xmlns:inkscape="http://www.inkscape.org/namespaces/inkscape"
   xmlns:sodipodi="http://sodipodi.sourceforge.net/DTD/sodipodi-0.dtd"
   xmlns="http://www.w3.org/2000/svg"
   xmlns:svg="http://www.w3.org/2000/svg"><sodipodi:namedview
     id="namedview7"
     pagecolor="#505050"
     bordercolor="#eeeeee"
     borderopacity="1"
     inkscape:showpageshadow="0"
     inkscape:pageopacity="0"
     inkscape:pagecheckerboard="0"
     inkscape:deskcolor="#505050"
     inkscape:document-units="mm"
     showgrid="false" /><defs
     id="defs2" /><g
     inkscape:label="Layer 1"
     inkscape:groupmode="layer"
     id="layer1"
     transform="translate(659.5406,-387.1765)"><path
       style="fill:#020202;stroke:none;stroke-width:0.264583"
       d="m -589.80376,399.80808 h 4.23334 c 0,-1.81618 -0.1196,-3.72149 0.96625,-5.29166 2.84824,-4.1184 8.74025,-4.16571 11.0916,0.52916 0.74586,1.48937 0.64215,3.14704 0.64215,4.7625 h 4.23333 c 0,-2.58707 -0.0976,-5.09706 -1.41235,-7.40833 -3.38481,-5.95016 -12.02954,-7.04869 -16.79786,-2.09278 -2.5617,2.66222 -2.95646,5.98885 -2.95646,9.50111 m -3.175,16.93333 h 9.26042 c 1.30598,0 2.88978,-0.23151 3.85392,0.85408 0.86228,0.97076 0.644,2.44501 0.644,3.64384 v 8.20208 h 14.55208 c 0,-7.07099 -1.25492,-14.10493 -1.32292,-21.16666 -0.0249,-2.59107 0.57388,-6.3386 -2.64583,-6.35 v 4.23333 h -4.23333 v -4.23333 h -12.7 v 4.23333 h -4.23334 v -4.23333 l -2.0693,0.42423 -0.38735,3.54452 -0.71835,10.84791 m -43.39166,-2.11666 v -4.23334 h -17.72708 c -1.72506,0 -5.44314,-0.5543 -5.44314,2.11667 0,2.67097 3.71805,2.11667 5.44314,2.11667 h 17.72708 m -4.23333,4.23333 v 59.26666 h 4.23333 v -59.26666 h -4.23333 m 25.39999,2.11667 v 4.23333 h 31.75 v -4.23333 h -31.75 m 0,8.46666 v 12.7 h 31.75 v -12.7 h -31.75 m 35.98334,4.23334 v 4.23333 h 29.63333 v -4.23333 h -29.63333 m 0,8.46666 v 35.98333 h 25.39999 v -35.98333 h -25.39999 m -42.33334,4.23334 v 31.74999 h 38.1 v -31.74999 h -10.58333 c 0,3.79227 0.0198,7.58507 -2.6e-4,11.37708 -0.007,1.38007 -0.31936,3.2975 -2.11667,3.31973 -2.40692,0.0296 -3.97748,-3.36259 -6.34974,-3.36259 -2.41273,0 -5.4692,5.27235 -7.82267,2.62837 -0.9517,-1.06918 -0.64399,-2.8538 -0.64399,-4.17301 v -9.78958 h -10.58334 m 14.81667,0 v 8.73125 l 4.23333,-2.26246 4.23334,2.26246 v -8.73125 h -8.46667 m 33.34147,17.04816 c 3.45546,-0.97579 8.3095,-0.11483 11.90228,-0.11483 1.31577,0 3.28295,-0.35587 4.46907,0.31194 1.91744,1.07924 1.85764,9.21703 -0.24738,10.07507 -3.27528,1.33456 -9.15035,0.19632 -12.68836,0.19632 -1.24328,0 -3.11653,0.33735 -4.17301,-0.4609 -1.74651,-1.32001 -1.57347,-9.35514 0.7374,-10.0076 m 2.64186,4.1185 v 2.11667 h 10.58333 v -2.11667 h -10.58333 m -69.84999,14.81667 v 4.23333 h 99.48332 v -4.23333 h -99.48332 m 24.07708,6.47303 c -10.76405,1.93992 -8.0735,18.61926 2.64583,16.68727 10.76404,-1.93993 8.0735,-18.61926 -2.64583,-16.68727 m 55.03333,0 c -10.76405,1.93992 -8.0735,18.61952 2.64583,16.68727 10.76404,-1.93993 8.0735,-18.61926 -2.64583,-16.68727 m -54.50417,4.19761 c 5.37422,-0.94403 6.98156,7.34431 1.5875,8.29204 -5.37421,0.94404 -6.98156,-7.3443 -1.5875,-8.29204 m 55.03333,0 c 5.37422,-0.94403 6.98156,7.34431 1.5875,8.29204 -5.37421,0.94404 -6.98156,-7.3443 -1.5875,-8.29204 z"
       id="path1739" /></g></svg>
