<?xml version="1.0" encoding="UTF-8" standalone="no"?>
<!-- Created with Inkscape (http://www.inkscape.org/) -->

<svg
   width="144.27199mm"
   height="151.65262mm"
   viewBox="0 0 144.27199 151.65262"
   version="1.1"
   id="svg5"
   xml:space="preserve"
   xmlns:inkscape="http://www.inkscape.org/namespaces/inkscape"
   xmlns:sodipodi="http://sodipodi.sourceforge.net/DTD/sodipodi-0.dtd"
   xmlns="http://www.w3.org/2000/svg"
   xmlns:svg="http://www.w3.org/2000/svg"><sodipodi:namedview
     id="namedview7"
     pagecolor="#505050"
     bordercolor="#eeeeee"
     borderopacity="1"
     inkscape:showpageshadow="0"
     inkscape:pageopacity="0"
     inkscape:pagecheckerboard="0"
     inkscape:deskcolor="#505050"
     inkscape:document-units="mm"
     showgrid="false" /><defs
     id="defs2" /><g
     inkscape:label="Layer 1"
     inkscape:groupmode="layer"
     id="layer1"
     transform="translate(378.71665,121.5239)"><path
       style="fill:#020202;stroke:none;stroke-width:0.338667"
       d="m -310.64464,-104.66061 v 6.434667 h -22.69066 c -0.0417,-3.530327 -6.83396,-4.678947 -9.33569,-2.504977 -1.34451,1.168226 -0.82499,3.969711 -0.82431,5.552977 6.7e-4,1.404789 -0.22251,2.850219 1.016,3.725333 -2.31276,6.836664 -5.04681,13.566308 -7.59426,20.319999 -1.2866,3.411727 -3.08153,7.105903 -1.95614,10.837332 0.61298,2.031661 2.17932,3.68808 4.13173,4.482253 1.93819,0.788755 4.04876,0.597747 6.096,0.597747 4.95876,0 13.47487,1.705186 16.47173,-3.388021 2.13428,-3.627459 0.80501,-7.235274 -0.53747,-10.835978 l -5.45253,-14.562666 c -0.95131,-2.551514 -3.55634,-6.736418 -1.67335,-9.37497 1.00042,-1.401741 4.25027,-0.785029 5.75428,-0.785029 h 16.59467 v 50.122663 h -12.86933 c -2.00017,0 -4.54762,-0.407755 -6.42112,0.415882 -2.06248,0.907288 -4.37896,6.638544 -2.18,8.379968 0.8294,0.657013 2.5356,0.348149 3.52112,0.348149 h 8.80533 26.416 c 3.52179,0 8.43009,0.893741 11.80321,-0.107696 3.02091,-0.896789 0.38032,-7.724309 -1.65676,-8.620421 -1.8735,-0.823637 -4.42095,-0.415882 -6.42112,-0.415882 h -12.86933 v -50.122663 h 16.59467 c 1.50401,0 4.75386,-0.616712 5.75428,0.785029 1.88299,2.638552 -0.72204,6.823456 -1.67335,9.37497 l -5.45253,14.562666 c -1.34248,3.600704 -2.67175,7.208519 -0.53747,10.835978 2.99686,5.093207 11.51297,3.388021 16.47173,3.388021 2.04724,0 4.15781,0.191008 6.096,-0.597747 1.95241,-0.794173 3.51875,-2.450592 4.13173,-4.482253 1.12539,-3.73109 -0.66954,-7.425605 -1.95614,-10.837332 -2.54745,-6.753691 -5.2815,-13.483335 -7.59426,-20.319999 1.23851,-0.875114 1.01533,-2.320544 1.016,-3.725333 6.8e-4,-1.583266 0.5202,-4.384751 -0.82431,-5.552977 -2.50173,-2.17397 -9.29403,-1.02535 -9.33569,2.504977 h -22.69066 v -6.434667 c 8.88052,-0.41263 2.80822,-10.57514 -0.35187,-13.88533 -0.85615,-0.89659 -2.33918,-2.97796 -3.71213,-2.97796 -1.37329,0 -2.8553,2.08158 -3.71213,2.97796 -3.15874,3.30474 -9.2395,13.47236 -0.35187,13.88533 m -27.432,14.224 9.48267,25.738665 h -19.304 l 6.07907,-16.594666 3.74226,-9.143999 m 63.33066,0 9.48267,25.738665 h -19.304 l 6.29107,-16.933332 3.53026,-8.805333 m -87.71466,15.239999 V -2.72195 h 29.80267 l 17.94933,0.15748 6.43467,2.55185313 V -31.508614 h -27.77067 c 0,-3.300984 -0.63398,-7.358211 0.52798,-10.498666 2.93828,-7.938008 14.83699,-5.418667 21.48535,-5.418667 v -27.770664 h -10.16 c 0.91,6.076018 5.42951,10.95993 2.24299,17.271999 -3.62949,7.189215 -11.42458,6.095999 -18.16032,6.095999 -2.77368,0 -5.83387,0.382016 -8.46666,-0.652611 -2.22267,-0.873082 -4.12124,-2.473621 -5.4864,-4.427388 -4.15375,-5.943939 0.38337,-12.333562 1.76106,-18.287999 h -10.16 m 63.33067,0 v 27.770664 c 6.6277,0 18.55215,-2.506133 21.48535,5.418667 1.16196,3.140455 0.52798,7.197682 0.52798,10.498666 h -27.77067 v 31.49599713 l 6.43467,-2.55185313 17.94933,-0.15748 h 29.80267 v -72.474661 h -10.16 c 1.40106,6.056714 5.83455,12.21977 1.74413,18.287999 -3.80289,5.641508 -9.64794,5.079999 -15.62947,5.079999 -6.33645,0 -13.09861,0.576072 -16.46698,-6.095999 -3.18618,-6.312069 1.33299,-11.195981 2.24299,-17.271999 h -10.16 m -79.58666,9.821332 v 95.503993 h 144.27198 v -95.503993 h -12.86933 V 17.259382 H -365.8473 v -82.634661 h -12.86933 m 24.72774,41.095165 c 1.34315,-0.284141 3.80729,-0.439589 5.0248,0.282787 1.54635,0.917787 0.8934,2.742522 -0.63365,3.179064 -1.36618,0.390821 -4.08703,0.448056 -5.33467,-0.299382 -1.71467,-1.026837 -0.60723,-2.833962 0.94352,-3.162469 m 12.53202,0.03048 c 3.01583,-0.862245 8.76097,-0.64245 11.84521,-0.06977 1.84573,0.342731 2.69172,2.545757 0.65904,3.396826 -2.58877,1.083734 -9.80711,0.875454 -12.50425,0.10431 -1.97307,-0.56388 -1.97307,-2.867491 0,-3.431371 m 20.32,0 c 1.34383,-0.384386 4.09753,-0.460586 5.31673,0.299382 1.40682,0.876808 0.79586,2.651421 -0.60046,3.084914 -1.34552,0.418253 -4.10769,0.532045 -5.34992,-0.205232 -1.54635,-0.917787 -0.8934,-2.742522 0.63365,-3.179064 m 24.72266,-0.03048 c 1.34079,-0.286173 3.80763,-0.438573 5.02345,0.282787 1.54635,0.917787 0.8934,2.742522 -0.63365,3.179064 -1.34383,0.384386 -4.09753,0.460586 -5.31673,-0.299382 -1.6195,-1.009565 -0.57336,-2.842429 0.92693,-3.162469 m 12.53067,0.03048 c 3.01583,-0.862245 8.76097,-0.64245 11.8452,-0.06977 1.84574,0.342731 2.69173,2.545757 0.65905,3.396826 -2.58877,1.083734 -9.80711,0.875454 -12.50425,0.10431 -1.97307,-0.56388 -1.97307,-2.867491 0,-3.431371 m 20.32,0 c 1.36618,-0.390821 4.08703,-0.448056 5.33467,0.299382 1.49928,0.897805 0.84125,2.639567 -0.61468,3.084914 -1.35127,0.413851 -4.10667,0.534755 -5.35364,-0.205232 -1.54635,-0.917787 -0.8934,-2.742522 0.63365,-3.179064 m -91.07051,10.894567 c 1.23579,-0.515789 4.5063,-0.548639 5.66962,0.143934 1.10134,0.655658 1.19786,2.213525 -0.0268,2.787226 -1.228,0.5747175 -4.39657,0.5672669 -5.64286,0.04707 -1.41258,-0.589957 -1.41258,-2.388277 0,-2.978235 m 12.86899,-0.05723 c 3.05749,-0.941832 9.3367,-0.680381 12.47885,-0.06977 1.52299,0.296334 2.25654,2.289726 0.61502,3.05816 -2.49766,1.1687388 -10.46988,0.8961122 -13.1108,0.10431 -1.64084,-0.491744 -1.60325,-2.593848 0.0169,-3.092704 m 20.32,0 c 1.29269,-0.398611 4.08805,-0.46736 5.3445,0.05723 1.41258,0.589958 1.41258,2.388278 0,2.978235 -1.24663,0.5205305 -4.41452,0.5276425 -5.64286,-0.04707 -1.41665,-0.663109 -1.10338,-2.556594 0.29836,-2.988394 m 24.38434,0.05723 c 1.24663,-0.52053 4.41452,-0.527642 5.64286,0.04707 1.22902,0.575395 1.22902,2.308691 0,2.884085 -1.22834,0.5747175 -4.39623,0.5676055 -5.64286,0.04707 -1.41258,-0.589957 -1.41258,-2.388277 0,-2.978235 m 12.86899,-0.05723 c 3.17602,-0.978747 8.84665,-0.491405 12.15001,-0.110067 1.39598,0.160867 2.86884,1.864699 1.25171,2.950464 -0.96114,0.6454986 -2.52205,0.399288 -3.6173,0.399288 -2.93827,3.39e-4 -6.97077,0.7200052 -9.78442,-0.146981 -1.60629,-0.494792 -1.60629,-2.597912 0,-3.092704 m 20.30307,0.05723 c 1.22123,-0.494114 4.14358,-0.508338 5.36143,0 1.41258,0.589958 1.41258,2.388278 0,2.978235 -1.24629,0.5201919 -4.41486,0.5276425 -5.64286,-0.04707 -1.40513,-0.658029 -1.00483,-2.410629 0.28143,-2.93116 M -362.46064,0.66471641 V 13.872715 h 54.18667 c 0,-3.157389 0.97942,-8.0003217 -1.41868,-10.4360121 -3.80864,-3.86825041 -10.2721,-2.77198649 -15.17599,-2.77198649 h -37.592 m 57.57333,13.20799859 h 54.18667 V 0.66471641 h -37.93067 c -4.98551,0 -11.40426,-1.06307459 -15.1235,3.10692779 -2.08584,2.3384931 -1.1325,7.1658478 -1.1325,10.1010708 z"
       id="path1733" /></g></svg>
