<?xml version="1.0" encoding="UTF-8" standalone="no"?>
<!-- Created with Inkscape (http://www.inkscape.org/) -->

<svg
   width="114.9332mm"
   height="119.40907mm"
   viewBox="0 0 114.9332 119.40907"
   version="1.1"
   id="svg5"
   xml:space="preserve"
   xmlns:inkscape="http://www.inkscape.org/namespaces/inkscape"
   xmlns:sodipodi="http://sodipodi.sourceforge.net/DTD/sodipodi-0.dtd"
   xmlns="http://www.w3.org/2000/svg"
   xmlns:svg="http://www.w3.org/2000/svg"><sodipodi:namedview
     id="namedview7"
     pagecolor="#505050"
     bordercolor="#eeeeee"
     borderopacity="1"
     inkscape:showpageshadow="0"
     inkscape:pageopacity="0"
     inkscape:pagecheckerboard="0"
     inkscape:deskcolor="#505050"
     inkscape:document-units="mm"
     showgrid="false" /><defs
     id="defs2" /><g
     inkscape:label="Layer 1"
     inkscape:groupmode="layer"
     id="layer1"
     transform="translate(622.82191,-169.59678)"><path
       style="fill:#020202;stroke:none;stroke-width:0.264583"
       d="m -617.68646,170.12373 c -2.30992,0.4365 -4.16642,2.1064 -4.81822,4.37419 -0.5592,1.94551 -0.20886,4.34039 -0.20886,6.35 v 12.17084 c 0,2.41299 -0.26816,4.81964 1.26719,6.86858 1.62957,2.17461 4.17463,2.39183 6.67031,2.39183 6.02721,0 13.4448,1.17449 19.31458,-0.18018 2.19631,-0.50668 3.92933,-2.14551 4.55375,-4.31774 0.55906,-1.94548 0.20875,-4.34048 0.20875,-6.34999 v -12.17084 c 0,-2.41302 0.26802,-4.81954 -1.26709,-6.86855 -1.72005,-2.29548 -4.32382,-2.39186 -6.93499,-2.39186 -5.97323,0 -12.91955,-0.98481 -18.78542,0.12372 m 32.02596,1.10733 c -1.88463,0.62714 -2.00289,3.37793 -0.006,3.94586 3.29883,0.93851 7.94068,0.11475 11.37206,0.11475 h 46.83124 13.75834 c 1.48537,0 4.0423,0.48641 5.20753,-0.64391 1.39964,-1.35774 0.16457,-3.37323 -1.50363,-3.56063 -4.8977,-0.55026 -10.14995,-0.0288 -15.08099,-0.0288 h -42.06874 -12.43542 c -1.85314,0 -4.30212,-0.41688 -6.07404,0.17272 m -0.24818,12.98826 c -1.95606,0.83011 -1.37054,3.4884 0.50536,3.93269 4.06505,0.96255 9.30936,0.10425 13.48978,0.10425 h 28.31041 9.78959 c 1.21311,0 2.85114,0.24526 3.79597,-0.70189 1.09617,-1.09874 0.58103,-2.99807 -0.89059,-3.4167 -2.92629,-0.83251 -7.00722,-0.11475 -10.04913,-0.11475 h -31.75 -8.99584 c -1.26391,0 -3.02074,-0.30646 -4.20555,0.1964 m -0.0132,12.96451 c -1.97432,0.81544 -1.34964,3.49038 0.51859,3.93276 2.96994,0.703 6.73523,0.10425 9.78561,0.10425 h 20.6375 c 2.42835,0 8.38173,1.07341 10.24493,-0.644 1.1639,-1.07288 0.69374,-2.82945 -0.72496,-3.39301 -1.75128,-0.69586 -4.4786,-0.19633 -6.34497,-0.19633 h -23.8125 c -2.89322,0 -7.62397,-0.91069 -10.3042,0.19633 m -31.76455,16.08031 c -2.22964,0.47625 -3.98732,1.91902 -4.73392,4.09628 -0.65836,1.92008 -0.29316,4.34446 -0.29316,6.35 v 12.43542 c 0,2.413 -0.26816,4.81965 1.26719,6.86858 1.62957,2.17461 4.17463,2.39183 6.67031,2.39183 5.98091,0 13.20615,1.11178 19.05,-0.13705 2.22964,-0.47625 3.98727,-1.91902 4.73392,-4.09628 0.65829,-1.92008 0.29316,-4.34446 0.29316,-6.35 V 222.3875 c 0,-2.413 0.26829,-4.81965 -1.26709,-6.86858 -1.62957,-2.17461 -4.17486,-2.39183 -6.67041,-2.39183 -5.9809,0 -13.20617,-1.11178 -19.05,0.13705 m 32.02596,1.09405 c -1.88463,0.62707 -2.00289,3.37794 -0.006,3.94573 3.29883,0.93848 7.94068,0.11483 11.37206,0.11483 h 46.83124 13.75834 c 1.48537,0 4.0423,0.48631 5.20753,-0.64399 1.39964,-1.35758 0.16457,-3.37317 -1.50363,-3.5605 -4.8977,-0.55033 -10.14995,-0.0288 -15.08099,-0.0288 h -42.06874 -12.43542 c -1.85314,0 -4.30212,-0.41698 -6.07404,0.17277 m 0,12.96459 c -1.92193,0.63949 -1.92193,3.24829 0,3.88778 3.61051,1.20148 9.14797,0.17278 12.95321,0.17278 h 29.36875 9.525 c 1.21311,0 2.85114,0.24527 3.79597,-0.70194 1.21232,-1.21497 0.4027,-3.11124 -1.15411,-3.44038 -3.18294,-0.67257 -7.06252,-0.091 -10.31478,-0.091 h -30.42708 c -4.03014,0 -9.92505,-1.09908 -13.74696,0.17278 m -0.26141,12.98813 c -1.97432,0.81571 -1.34964,3.49012 0.51859,3.93276 2.96994,0.70327 6.73523,0.10425 9.78561,0.10425 h 20.6375 c 2.42835,0 8.38173,1.07341 10.24493,-0.644 1.04749,-0.96546 0.84773,-2.75854 -0.48392,-3.36232 -1.7354,-0.78661 -4.70376,-0.22701 -6.58601,-0.22701 h -23.8125 c -2.89322,0 -7.62397,-0.9107 -10.3042,0.19632 m -31.76455,16.06708 c -2.30992,0.4363 -4.16642,2.10635 -4.81822,4.3741 -0.5592,1.94548 -0.20886,4.34048 -0.20886,6.34999 v 12.17084 c 0,2.413 -0.26816,4.81965 1.26719,6.86858 1.62957,2.17461 4.17463,2.39183 6.67031,2.39183 6.02721,0 13.4448,1.17449 19.31458,-0.18018 2.19631,-0.50667 3.92933,-2.1455 4.55375,-4.31773 0.55906,-1.94548 0.20875,-4.34049 0.20875,-6.35 v -12.17084 c 0,-2.41299 0.26802,-4.81964 -1.26709,-6.86858 -1.72005,-2.29552 -4.32382,-2.39183 -6.93499,-2.39183 -5.97323,0 -12.91955,-0.98478 -18.78542,0.12382 m 32.02596,1.10728 c -1.88463,0.62707 -2.00289,3.37794 -0.006,3.94574 3.29883,0.93847 7.94068,0.11483 11.37206,0.11483 h 46.83124 13.75834 c 1.48537,0 4.0423,0.4863 5.20753,-0.644 1.39964,-1.35758 0.16457,-3.37317 -1.50363,-3.5605 -4.8977,-0.55033 -10.14995,-0.0288 -15.08099,-0.0288 h -42.06874 -12.43542 c -1.85314,0 -4.30212,-0.41698 -6.07404,0.17277 m 0,12.96459 c -1.87722,0.62468 -1.97829,3.37158 0,3.94573 3.79624,1.10225 9.25936,0.11483 13.21779,0.11483 h 29.10417 9.525 c 1.1848,0 2.92285,0.30295 3.83275,-0.644 1.19777,-1.24619 0.3466,-3.12102 -1.19089,-3.48509 -3.12632,-0.7403 -7.103,-0.10425 -10.31478,-0.10425 h -30.42708 c -4.03014,0 -9.92505,-1.09907 -13.74696,0.17278 m -0.26141,12.98813 c -1.97432,0.81544 -1.34964,3.49012 0.51859,3.93276 3.048,0.72179 6.91911,0.10425 10.05019,0.10425 h 20.6375 c 2.35241,0 8.18356,1.04749 9.97374,-0.644 1.13056,-1.06812 0.67997,-2.83739 -0.71835,-3.39301 -1.81689,-0.72205 -4.67201,-0.19632 -6.60955,-0.19632 h -23.8125 c -2.82337,0 -7.42315,-0.8845 -10.03962,0.19632 z"
       id="path1735" /></g></svg>
