<?xml version="1.0" encoding="UTF-8" standalone="no"?>
<!-- Created with Inkscape (http://www.inkscape.org/) -->

<svg
   width="118.69533mm"
   height="127.64728mm"
   viewBox="0 0 118.69533 127.64728"
   version="1.1"
   id="svg5"
   xml:space="preserve"
   xmlns:inkscape="http://www.inkscape.org/namespaces/inkscape"
   xmlns:sodipodi="http://sodipodi.sourceforge.net/DTD/sodipodi-0.dtd"
   xmlns="http://www.w3.org/2000/svg"
   xmlns:svg="http://www.w3.org/2000/svg"><sodipodi:namedview
     id="namedview7"
     pagecolor="#505050"
     bordercolor="#eeeeee"
     borderopacity="1"
     inkscape:showpageshadow="0"
     inkscape:pageopacity="0"
     inkscape:pagecheckerboard="0"
     inkscape:deskcolor="#505050"
     inkscape:document-units="mm"
     showgrid="false" /><defs
     id="defs2" /><g
     inkscape:label="Layer 1"
     inkscape:groupmode="layer"
     id="layer1"
     transform="translate(141.58715,306.50158)"><path
       style="fill:#010101;stroke:none;stroke-width:0.264583"
       d="m -112.22048,-260.17219 h 0.52917 c 0.3564,17.17252 28.747773,17.17252 29.104167,0 h 0.529166 c 0.356394,17.17252 28.747772,17.17252 29.104166,0 h 0.529166 c 0.280988,13.54111 18.762662,17.21194 26.325247,7.40728 7.824522,-10.14413 -0.464344,-21.27938 -5.793581,-30.16144 -1.192742,-1.98795 -2.957777,-4.14073 -3.677973,-6.35 -1.534848,-4.70901 1.910556,-11.07813 -2.064808,-15.0535 -2.673879,-2.67377 -7.120202,-1.87984 -10.555552,-1.87984 h -25.929165 -38.364583 c -4.22381,0 -11.25918,-1.38528 -14.52433,1.87984 -3.46868,3.46871 -1.44208,9.8829 -1.90841,14.25975 -0.21659,2.03263 -2.01065,4.10408 -3.04067,5.82083 -4.80798,8.01343 -11.27167,15.76361 -9.24716,25.66458 3.18852,15.59375 28.64067,15.01987 28.98515,-1.5875 m -0.52916,-33.25032 c 5.46999,-0.98766 11.89963,-0.0872 17.462497,-0.0872 h 35.454165 c 2.618846,0 6.592094,-0.73686 8.995569,0.41606 2.76516,1.32649 3.156214,5.24764 0.782372,7.146 -1.42187,1.13702 -3.312583,0.90461 -5.015441,0.90461 h -10.31875 -33.602081 c -4.177511,0 -10.652651,1.22555 -14.552081,-0.3038 -3.83805,-1.50516 -3.24803,-7.34591 0.79375,-8.07569 m -16.13958,54.94615 v 42.8625 10.31875 c 1e-4,1.74704 -0.0211,3.6367 1.37945,4.92284 1.43791,1.3208 3.4308,1.16258 5.23513,1.16258 h 10.31875 v -42.33333 h 25.399997 v 42.33333 h 36.247915 c 3.451754,0 10.456333,1.33244 13.172545,-1.16258 1.400704,-1.28614 1.379537,-3.1758 1.379537,-4.92284 v -10.31875 -42.8625 c -3.89837,0 -7.471039,-0.34396 -11.112499,-1.85526 -1.621896,-0.67283 -4.162425,-3.13795 -5.820833,-3.13795 -1.550194,0 -3.818202,2.2598 -5.291667,2.91306 -3.589866,1.59173 -7.708105,2.47518 -11.641666,2.00475 -2.943754,-0.35216 -5.826918,-1.14142 -8.466666,-2.51328 -1.166019,-0.6059 -2.921529,-2.40453 -4.233333,-2.40453 -1.550194,0 -3.818202,2.2598 -5.291666,2.91306 -3.48324,1.54437 -7.29906,2.31775 -11.1125,2.05634 -3.004074,-0.20585 -6.042554,-1.08453 -8.731254,-2.42887 -1.24142,-0.62072 -3.12472,-2.54053 -4.49791,-2.54053 -1.65841,0 -4.19894,2.46512 -5.82083,3.13795 -3.64147,1.5113 -7.21421,1.85526 -11.1125,1.85526 m 76.199992,16.93334 v 16.93333 h -16.933333 v -16.93333 z"
       id="path1729" /></g></svg>
