<?xml version="1.0" encoding="UTF-8" standalone="no"?>
<!-- Created with Inkscape (http://www.inkscape.org/) -->

<svg
   width="135.46666mm"
   height="135.46666mm"
   viewBox="0 0 135.46666 135.46666"
   version="1.1"
   id="svg5"
   xml:space="preserve"
   xmlns:inkscape="http://www.inkscape.org/namespaces/inkscape"
   xmlns:sodipodi="http://sodipodi.sourceforge.net/DTD/sodipodi-0.dtd"
   xmlns="http://www.w3.org/2000/svg"
   xmlns:svg="http://www.w3.org/2000/svg"><sodipodi:namedview
     id="namedview7"
     pagecolor="#505050"
     bordercolor="#eeeeee"
     borderopacity="1"
     inkscape:showpageshadow="0"
     inkscape:pageopacity="0"
     inkscape:pagecheckerboard="0"
     inkscape:deskcolor="#505050"
     inkscape:document-units="mm"
     showgrid="false" /><defs
     id="defs2" /><g
     inkscape:label="Layer 1"
     inkscape:groupmode="layer"
     id="layer1"
     transform="translate(158.35848,94.839276)"><path
       style="fill:#000000;stroke-width:0.264583"
       d="M -158.35847,8.7450909 V -23.137199 h 31.88229 31.88229 V 8.7450909 40.627381 h -31.88229 -31.88229 z m 43.92083,0 V -3.2934502 h -12.03854 -12.03854 V 8.7450909 20.783632 h 12.03854 12.03854 z m 27.78125,0 V -23.137199 h 31.88229 31.88229 V 8.7450909 40.627381 H -54.7741 -86.65639 Z m 43.920831,0 V -3.2934502 H -54.7741 -66.812641 V 8.7450909 20.783632 H -54.7741 -42.735559 Z M -158.35847,-62.956989 v -31.88229 h 31.88229 31.88229 v 31.88229 31.88229 h -31.88229 -31.88229 z m 43.92083,0 V -74.99553 h -12.03854 -12.03854 v 12.038541 12.038541 h 12.03854 12.03854 z m 27.78125,0 v -31.88229 h 31.88229 31.88229 v 31.88229 31.88229 H -54.7741 -86.65639 Z m 43.920831,0 V -74.99553 H -54.7741 -66.812641 v 12.038541 12.038541 h 12.038541 12.038541 z"
       id="path1743" /></g></svg>
