<?xml version="1.0" encoding="UTF-8" standalone="no"?>
<!-- Created with Inkscape (http://www.inkscape.org/) -->

<svg
   width="135.46664mm"
   height="111.14615mm"
   viewBox="0 0 135.46664 111.14615"
   version="1.1"
   id="svg5"
   xml:space="preserve"
   xmlns:inkscape="http://www.inkscape.org/namespaces/inkscape"
   xmlns:sodipodi="http://sodipodi.sourceforge.net/DTD/sodipodi-0.dtd"
   xmlns="http://www.w3.org/2000/svg"
   xmlns:svg="http://www.w3.org/2000/svg"><sodipodi:namedview
     id="namedview7"
     pagecolor="#505050"
     bordercolor="#eeeeee"
     borderopacity="1"
     inkscape:showpageshadow="0"
     inkscape:pageopacity="0"
     inkscape:pagecheckerboard="0"
     inkscape:deskcolor="#505050"
     inkscape:document-units="mm"
     showgrid="false" /><defs
     id="defs2" /><g
     inkscape:label="Layer 1"
     inkscape:groupmode="layer"
     id="layer1"
     transform="translate(414.05589,-380.16524)"><path
       style="fill:#030303;stroke:none;stroke-width:0.264583"
       d="m -374.36841,380.29559 c -13.21541,2.08103 -10.5836,22.83166 2.64583,20.93725 2.14418,-0.30718 4.11851,-1.01071 5.81052,-2.40507 8.05312,-6.63633 1.69095,-20.13008 -8.45635,-18.53218 m -3.96478,9.02317 c 2.13889,-0.35965 2.64504,3.05768 0.52043,3.41714 -2.17725,0.36838 -2.71833,-3.04757 -0.52043,-3.41714 m 7.67371,1.32291 c 2.17725,-0.36835 2.71859,3.04803 0.52043,3.41715 -2.17831,0.36584 -2.66753,-3.0539 -0.52043,-3.41715 m -19.05476,26.05024 c 1.82173,0.61622 5.49962,3.00964 7.38452,2.45851 0.80909,-0.23627 1.46949,-1.17343 2.14048,-1.66476 0.11403,2.64795 1.00621,3.41022 3.43958,4.23333 -1.30572,2.79136 -2.07936,4.92205 -1.05834,7.9375 2.66145,-1.14697 5.1562,-2.83659 7.67292,-4.27302 1.2409,-0.70829 2.76596,-1.29857 3.46472,-2.61752 1.27767,-2.41194 2.0492,-5.48455 2.31114,-8.19071 0.1389,-1.43615 -0.29978,-2.93343 1.36789,-3.43958 -0.0103,3.78222 -0.71067,9.93431 -3.28559,12.91564 -2.20557,2.55349 -6.76143,4.13676 -9.67899,5.79543 -2.91412,1.65682 -5.82401,3.32131 -8.73125,4.99004 -1.58486,0.90937 -3.06692,1.80208 -3.16235,3.81556 -0.1387,2.92682 2.59402,4.699 5.27902,3.61077 5.51391,-2.23468 10.68096,-6.04018 15.87499,-8.93948 2.28124,-1.27318 5.39168,-2.40533 6.78604,-4.72572 3.24008,-5.39115 4.96358,-13.09132 4.09628,-19.31432 -0.31645,-2.27119 -0.77603,-5.58245 -2.94878,-6.85536 -2.40189,-1.40731 -6.71328,0.36698 -9.25645,0.87577 -3.72692,0.74534 -8.7839,0.92552 -12.17083,2.65986 -3.52082,1.80287 -7.31203,7.49141 -9.525,10.72806 m 83.60832,-12.96458 v 27.51666 h 27.51667 v -27.51666 h -27.51667 m -97.89582,8.46666 -10.05417,25.66459 25.66458,10.05416 c 0.5302,-1.13347 1.8161,-3.20278 1.59253,-4.4741 -0.44212,-2.51301 -3.17677,-3.25914 -1.80057,-6.37381 1.19282,-2.69955 4.29559,-2.9427 6.18921,-4.86569 2.02036,-2.05132 3.43033,-7.17471 4.073,-9.95098 l -25.66458,-10.05417 m 49.21249,4.23334 c -0.89217,4.60084 -2.1082,11.68135 -6.08568,14.65527 -3.28348,2.45507 -7.28768,4.2545 -10.84765,6.2865 -1.143,0.65246 -3.50996,1.43245 -4.07379,2.69319 -0.499,1.11628 -0.15954,2.94323 -0.15954,4.14629 v 8.99583 21.69583 c 0,3.60627 -0.44635,7.5483 0.11615,11.1125 0.71808,4.5503 5.92217,7.05459 9.64856,3.86556 2.70669,-2.31669 1.87695,-6.78894 1.87695,-9.95098 v -25.92916 c 0,-3.30994 -1.5912,-10.85665 2.38125,-11.64167 v 37.83542 c 0,4.45611 -0.63341,11.25167 5.82084,11.09795 7.95469,-0.18918 5.55625,-12.50077 5.55625,-17.71254 0,-14.99314 1.30413,-30.51995 -1.64042,-45.24374 -0.73766,-3.68856 -0.9689,-8.52805 -2.59292,-11.90625 m -54.76874,5.82083 c -2.97739,1.01653 -6.65239,4.70879 -2.38125,7.14375 0.86571,-1.64253 2.91623,-5.3295 2.38125,-7.14375 m 74.08333,10.84792 v 27.78125 h 27.51666 v -27.78125 h -27.51666 m 29.36874,0 v 27.78125 h 27.51667 v -27.78125 h -27.51667 m -29.36874,29.36875 v 27.78124 h 27.51666 v -27.78124 h -27.51666 m 29.36874,0 v 27.78124 h 27.51667 v -27.78124 z"
       id="path1741" /></g></svg>
