<?xml version="1.0" encoding="UTF-8" standalone="no"?>
<!-- Created with Inkscape (http://www.inkscape.org/) -->

<svg
   width="135.83026mm"
   height="124.04347mm"
   viewBox="0 0 135.83026 124.04347"
   version="1.1"
   id="svg5"
   xml:space="preserve"
   xmlns:inkscape="http://www.inkscape.org/namespaces/inkscape"
   xmlns:sodipodi="http://sodipodi.sourceforge.net/DTD/sodipodi-0.dtd"
   xmlns="http://www.w3.org/2000/svg"
   xmlns:svg="http://www.w3.org/2000/svg"><sodipodi:namedview
     id="namedview7"
     pagecolor="#505050"
     bordercolor="#eeeeee"
     borderopacity="1"
     inkscape:showpageshadow="0"
     inkscape:pageopacity="0"
     inkscape:pagecheckerboard="0"
     inkscape:deskcolor="#505050"
     inkscape:document-units="mm"
     showgrid="false" /><defs
     id="defs2" /><g
     inkscape:label="Layer 1"
     inkscape:groupmode="layer"
     id="layer1"
     transform="translate(393.46369,-145.20408)"><path
       style="fill:#020202;stroke:none;stroke-width:0.264583"
       d="m -336.92305,190.29248 h 31.75 c 8.81406,0 17.08599,-0.34237 24.87083,4.51511 6.26851,3.91134 11.10615,10.28488 12.99527,17.4453 0.74401,2.82046 0.57759,5.6732 1.15438,8.46667 0.45297,2.19313 2.65165,3.79068 4.90035,3.29856 4.80457,-1.05172 3.43958,-7.88114 3.43958,-11.50064 0,-11.93721 -4.26138,-23.84558 -12.96564,-32.26885 -7.42791,-7.18793 -17.00636,-11.42524 -27.25102,-12.40076 -4.767,-0.45402 -9.7626,-0.045 -14.55209,-0.045 h -24.34166 v -15.875 c 0,-2.20523 0.31194,-4.74083 -1.85605,-6.08317 -3.90843,-2.41977 -7.63826,2.62424 -10.0502,5.02462 -6.71751,6.68512 -13.78797,13.04023 -20.6375,19.5897 -2.20843,2.1119 -6.73256,5.11519 -6.84385,8.45634 -0.11456,3.43932 4.60418,6.40398 6.84385,8.49048 7.06411,6.58019 13.99143,13.33924 20.90208,20.08055 2.47306,2.41248 6.19072,7.19217 10.0293,4.50983 1.99813,-1.39647 1.61237,-3.96664 1.61237,-6.09336 v -15.61041 m 22.75416,56.35624 v 15.875 c 0,2.20531 -0.31194,4.74081 1.85605,6.0833 3.90843,2.41962 7.63826,-2.6244 10.0502,-5.0247 6.71751,-6.68522 13.78797,-13.04025 20.6375,-19.58975 2.20848,-2.1119 6.73259,-5.11519 6.84398,-8.45634 0.1143,-3.43932 -4.60428,-6.40398 -6.84398,-8.49048 -7.06411,-6.58019 -13.99143,-13.33924 -20.90208,-20.08055 -2.47306,-2.41248 -6.19072,-7.19217 -10.0293,-4.50983 -1.99813,1.39647 -1.61237,3.96664 -1.61237,6.09336 v 15.61041 h -31.75 c -8.81644,0 -17.06932,0.32756 -24.87083,-4.51538 -6.26933,-3.89149 -11.11051,-10.30128 -12.99519,-17.44503 -0.72456,-2.74638 -0.63286,-5.46021 -1.11469,-8.20209 -0.41487,-2.36087 -2.51571,-4.04786 -4.94012,-3.57637 -4.82515,0.93848 -3.43958,7.95391 -3.43958,11.51387 0,11.93721 4.26135,23.84558 12.96561,32.26885 7.3995,7.16068 17.03787,11.42815 27.25105,12.40076 4.767,0.45402 9.7626,0.045 14.55209,0.045 z"
       id="path1737" /></g></svg>
