<?xml version="1.0" encoding="UTF-8" standalone="no"?>
<!-- Created with Inkscape (http://www.inkscape.org/) -->

<svg
   width="101.69763mm"
   height="116.34186mm"
   viewBox="0 0 101.69763 116.34186"
   version="1.1"
   id="svg5"
   xml:space="preserve"
   xmlns:inkscape="http://www.inkscape.org/namespaces/inkscape"
   xmlns:sodipodi="http://sodipodi.sourceforge.net/DTD/sodipodi-0.dtd"
   xmlns="http://www.w3.org/2000/svg"
   xmlns:svg="http://www.w3.org/2000/svg"><sodipodi:namedview
     id="namedview7"
     pagecolor="#505050"
     bordercolor="#eeeeee"
     borderopacity="1"
     inkscape:showpageshadow="0"
     inkscape:pageopacity="0"
     inkscape:pagecheckerboard="0"
     inkscape:deskcolor="#505050"
     inkscape:document-units="mm"
     showgrid="false" /><defs
     id="defs2" /><g
     inkscape:label="Layer 1"
     inkscape:groupmode="layer"
     id="layer1"
     transform="translate(397.17167,300.86675)"><path
       style="fill:#020202;stroke:none;stroke-width:0.264583"
       d="m -370.13508,-263.87636 h 0.26458 c 0,-3.32845 -1.39885,-10.77198 1.3507,-13.12492 2.38681,-2.04231 7.02469,0.29766 9.7618,0.75486 7.71816,1.28879 15.80886,1.49939 23.54792,0.2204 2.72891,-0.45085 8.17351,-2.94587 10.57936,-1.20809 2.94058,2.12408 1.59147,9.04796 1.59147,12.29942 2.02433,-1.7354 2.76887,-5.13662 3.1959,-7.67292 0.67257,-3.99176 -0.34713,-7.08051 -1.36313,-10.84791 -1.37768,-5.11045 -2.16217,-9.02115 -6.85985,-12.31905 -11.84619,-8.31633 -34.02012,-6.52841 -42.46033,5.96905 -3.42874,5.0769 -4.00024,11.3067 -2.93582,17.19791 0.55642,3.07843 1.6002,6.11214 3.3274,8.73125 m 3.175,-11.1125 c 0,7.11994 -1.07553,15.21725 0.16272,22.225 2.69399,15.24715 21.16693,22.90154 33.43936,12.84156 6.63549,-5.43878 7.67292,-12.74181 7.67292,-20.77906 v -10.31875 c 0,-0.90884 0.39264,-3.06466 -0.42413,-3.6957 -0.77946,-0.60219 -2.20027,0.073 -3.01545,0.28681 -2.68394,0.70379 -5.4483,1.18507 -8.20209,1.5158 -6.16743,0.74031 -12.35419,0.7329 -18.52083,-0.0344 -3.68326,-0.45826 -7.43426,-1.9648 -11.1125,-2.04127 m 9.525,39.6875 c 0,2.09762 -0.44503,4.74213 0.69136,6.61062 3.83407,6.30343 16.42983,6.02086 20.57109,0.26749 1.40573,-1.95289 0.96255,-4.60348 0.96255,-6.87811 -7.93962,3.25729 -14.30258,3.29407 -22.225,0 m -2.64583,6.35 -4.7625,1.32292 v 19.05 h 37.04166 v -19.05 l -5.02708,-1.32292 c -2.76013,8.6442 -16.03692,9.14215 -22.48958,5.16811 -2.18123,-1.34329 -3.34672,-3.12896 -4.7625,-5.16811 m -7.67292,2.11667 c -10.66112,4.08093 -25.54967,3.75973 -28.77711,17.4625 -0.89353,3.79359 -0.59164,7.77504 -0.59164,11.64166 v 9.26042 c 0,0.99139 -0.31199,2.77442 0.64389,3.43218 1.40269,0.96546 5.09614,0.27199 6.76445,0.27199 h 17.99166 c 0,-6.45901 -0.75882,-13.43925 0.0489,-19.84375 0.28257,-2.23891 1.99575,-3.74333 4.18438,-3.96875 v -12.43542 l -0.26458,-5.82083 m 42.59792,0 v 18.25625 c 2.18863,0.22542 3.90181,1.72984 4.18438,3.96875 0.80804,6.4045 0.0489,13.38474 0.0489,19.84375 h 17.99166 c 1.6682,0 5.36179,0.69347 6.76434,-0.27199 0.95594,-0.65776 0.644,-2.44079 0.644,-3.43218 v -9.525 c 0,-4.25132 0.32676,-8.59234 -0.99113,-12.7 -3.84995,-11.99912 -18.25069,-13.2125 -28.6422,-16.13958 m -43.65625,42.06875 h 6.61458 v -8.99584 c 0,-1.456 -0.16351,-3.01598 0.898,-4.17671 1.57242,-1.71926 4.67915,-1.11495 6.77492,-1.11495 h 16.66875 c 2.0439,0 4.97575,-0.56304 6.51033,1.11495 1.06151,1.16073 0.898,2.72071 0.898,4.17671 v 8.99584 h 6.61458 v -15.08125 c 0,-1.30493 0.56568,-4.40664 -0.42412,-5.39671 -1.36261,-1.36234 -6.96463,-0.42413 -8.83629,-0.42413 h -25.66459 -6.87916 c -0.82048,0 -2.109,-0.21748 -2.75088,0.42413 -0.9898,0.99007 -0.42412,4.09178 -0.42412,5.39671 v 15.08125 m 9.525,-11.37709 v 4.7625 h 25.92916 v -4.7625 h -25.92916 m 0,7.67292 v 3.70417 h 25.92916 v -3.70417 z"
       id="path1727" /></g></svg>
