<?xml version="1.0" encoding="UTF-8" standalone="no"?>
<!-- Created with Inkscape (http://www.inkscape.org/) -->

<svg
   width="135.34555mm"
   height="135.84898mm"
   viewBox="0 0 135.34555 135.84898"
   version="1.1"
   id="svg5"
   xml:space="preserve"
   xmlns:inkscape="http://www.inkscape.org/namespaces/inkscape"
   xmlns:sodipodi="http://sodipodi.sourceforge.net/DTD/sodipodi-0.dtd"
   xmlns="http://www.w3.org/2000/svg"
   xmlns:svg="http://www.w3.org/2000/svg"><sodipodi:namedview
     id="namedview7"
     pagecolor="#505050"
     bordercolor="#eeeeee"
     borderopacity="1"
     inkscape:showpageshadow="0"
     inkscape:pageopacity="0"
     inkscape:pagecheckerboard="0"
     inkscape:deskcolor="#505050"
     inkscape:document-units="mm"
     showgrid="false" /><defs
     id="defs2" /><g
     inkscape:label="Layer 1"
     inkscape:groupmode="layer"
     id="layer1"
     transform="translate(645.35152,310.7795)"><path
       style="fill:#010101;stroke:none;stroke-width:0.264583"
       d="m -641.97119,-310.30215 c -4.1459,0.9893 -3.175,6.18407 -3.175,9.38413 0,7.83574 -0.88737,17.24289 8.46667,20.09801 2.54722,0.77735 5.18335,0.67046 7.67292,-0.27172 1.1253,-0.42572 2.5065,-1.65656 3.70416,-1.68408 2.37141,-0.054 4.9525,2.43761 7.67292,2.49132 1.82139,0.0357 3.63537,-0.38523 5.29167,-1.13691 0.87365,-0.39688 1.93119,-1.33192 2.91041,-1.35441 0.98002,-0.0222 2.04206,0.95912 2.91042,1.35441 1.6547,0.75326 3.47133,1.17263 5.29166,1.13691 2.80009,-0.0553 5.18372,-2.43443 7.67292,-2.49132 0.98002,-0.0222 2.04205,0.95912 2.91042,1.35441 1.56977,0.71463 3.29909,1.13876 5.02708,1.13876 2.93158,0 5.34591,-2.4339 7.9375,-2.49317 0.98002,-0.0222 2.04205,0.95885 2.91042,1.35441 1.56977,0.71463 3.29909,1.13876 5.02708,1.13876 2.93158,0 5.34591,-2.4339 7.9375,-2.49317 2.37146,-0.054 4.95247,2.43761 7.67292,2.49132 1.82139,0.0357 3.63537,-0.38523 5.29166,-1.13691 0.87366,-0.39688 1.9312,-1.33192 2.91042,-1.35441 0.98002,-0.0222 2.04205,0.95912 2.91041,1.35441 1.73541,0.79004 3.64755,1.21179 5.55625,1.13056 1.64254,-0.0701 3.28481,-0.55033 4.7625,-1.25571 0.84694,-0.40429 1.92379,-1.36287 2.91042,-1.20888 1.15623,0.18044 2.32569,1.24221 3.43958,1.6637 2.99138,1.13215 6.36085,1.075 9.26042,-0.31645 8.06371,-3.87021 6.87917,-12.55521 6.87917,-20.03901 0,-3.0303 0.83714,-7.64811 -2.91068,-8.78412 -3.61157,-1.09471 -8.66802,-0.21171 -12.43516,-0.21171 h -26.98749 -60.85417 -19.05 c -2.99005,0 -6.6117,-0.55431 -9.525,0.14087 m 4.7625,37.69454 v 53.71042 h 7.9375 v -53.71042 h -7.9375 m 111.125,0 v 53.71042 h 7.9375 v -53.71042 h -7.9375 m -54.23958,0.90991 c -2.23203,0.34872 -4.4495,1.18216 -6.35,2.41009 -14.6894,9.4906 -5.51233,32.84511 11.64166,30.16593 2.18255,-0.34078 4.17963,-1.12236 6.08542,-2.23255 15.40695,-8.97334 5.69701,-33.01021 -11.37708,-30.34347 m -27.51667,52.80051 h 14.55208 v -11.90625 c 0,-1.65682 0.41831,-3.98886 -0.15954,-5.55625 -0.3937,-1.06786 -1.44859,-1.84653 -2.21139,-2.64583 -0.71596,-0.75063 -1.45812,-2.19657 -2.4376,-2.60324 -1.719,-0.71332 -4.70324,2.79136 -5.59779,3.92615 -4.45215,5.64833 -4.14576,11.9851 -4.14576,18.78542 m 45.77292,0 h 14.55208 c 0,-6.80032 0.30639,-13.13709 -4.14576,-18.78542 -0.89455,-1.13479 -3.87879,-4.63947 -5.59779,-3.92615 -0.97948,0.40667 -1.72164,1.85261 -2.4376,2.60324 -0.7628,0.7993 -1.81769,1.57797 -2.21139,2.64583 -0.57785,1.56739 -0.15954,3.89943 -0.15954,5.55625 v 11.90625 m -23.28334,-13.22917 v 13.22917 h 15.34584 v -13.22917 c -5.49805,1.1348 -9.84779,1.1348 -15.34584,0 m -36.24791,57.15 c 0,-3.09906 -1.11157,-8.70902 1.37274,-11.02254 1.61149,-1.50045 4.09011,-0.83106 5.55934,-2.55826 1.66926,-1.96268 0.69242,-4.71646 3.38773,-6.08092 2.01877,-1.02182 5.19827,-0.44661 7.40727,-0.44661 h 16.93333 30.42709 c 3.6912,0 9.54563,-1.11178 12.96431,0.32491 2.97233,1.24936 1.91982,4.16665 3.65152,6.20262 1.46923,1.7272 3.94785,1.05781 5.55942,2.55826 2.48418,2.31352 1.37266,7.92348 1.37266,11.02254 h 13.49375 c 1.96797,0 4.37859,0.37227 5.99837,-1.00542 2.02803,-1.72508 1.40996,-5.1009 1.40996,-7.46125 0,-6.18648 -0.51726,-12.623 0.0156,-18.78435 0.23945,-2.77046 3.98383,-4.92602 0.6911,-7.72689 -2.24817,-1.91215 -6.94532,-1.00542 -9.70254,-1.00542 h -24.87083 -68.79166 -19.57917 c -2.60093,0 -6.31277,-0.66887 -8.72737,0.4056 -1.73947,0.77418 -2.72296,2.77786 -2.17322,4.62122 0.45873,1.53828 2.22813,2.07036 2.6144,3.46736 0.45336,1.63989 0.0841,3.83196 0.0841,5.52873 v 11.37709 c 0,2.70007 -0.89364,7.29138 1.19919,9.38424 1.54636,1.54622 3.95624,1.19909 5.94456,1.19909 h 13.75833 m 7.9375,0 h 72.76041 c 0,-1.25545 0.48789,-3.79412 -0.27199,-4.84505 -1.04272,-1.44224 -3.43958,-2.18731 -4.70641,-3.62188 -0.79983,-0.90593 -1.58565,-3.2676 -2.75405,-3.61977 -3.56711,-1.07526 -8.90508,-0.0841 -12.64046,-0.0841 h -28.04584 -11.37708 c -1.58247,0 -3.7121,-0.37412 -5.23213,0.0841 -1.1684,0.35217 -1.95422,2.71384 -2.75405,3.61977 -1.14009,1.29117 -4.13517,2.41088 -4.81886,3.81503 -0.57785,1.18718 -0.15954,3.34724 -0.15954,4.6519 z"
       id="path1725" /></g></svg>
