<?xml version="1.0" encoding="UTF-8" standalone="no"?>
<!-- Created with Inkscape (http://www.inkscape.org/) -->

<svg
   version="1.1"
   id="svg2"
   width="682.10681"
   height="682.10687"
   viewBox="0 0 682.10681 682.10687"
   sodipodi:docname="safe.png"
   inkscape:export-filename="safe.svg"
   inkscape:export-xdpi="96"
   inkscape:export-ydpi="96"
   xml:space="preserve"
   xmlns:inkscape="http://www.inkscape.org/namespaces/inkscape"
   xmlns:sodipodi="http://sodipodi.sourceforge.net/DTD/sodipodi-0.dtd"
   xmlns="http://www.w3.org/2000/svg"
   xmlns:svg="http://www.w3.org/2000/svg"><defs
     id="defs6" /><sodipodi:namedview
     id="namedview4"
     pagecolor="#ffffff"
     bordercolor="#000000"
     borderopacity="0.25"
     inkscape:showpageshadow="2"
     inkscape:pageopacity="0.0"
     inkscape:pagecheckerboard="0"
     inkscape:deskcolor="#d1d1d1"
     showgrid="false" /><g
     inkscape:groupmode="layer"
     inkscape:label="Image"
     id="g8"
     transform="translate(-1374.1698,692.00702)"><path
       style="fill:#040404;stroke:none;stroke-width:1.33333"
       d="m 1700.5567,-642.95349 v 82.66667 c 0.016,10.07333 1.48,23.85334 14.6666,23.85334 13.1867,0 14.6507,-13.78001 14.6667,-23.85334 v -82.66667 c 7.5653,7.56587 37.7533,38.02054 41.5213,9.33227 1.6294,-12.4032 -13.8613,-23.00614 -21.5213,-30.6656 -8.4707,-8.4708 -21.4627,-27.72018 -34.6667,-27.72018 -14.38,0 -54.024,40.47151 -56.156,54.38685 -2.9773,19.42293 18.7987,16.83 28.156,7.94653 4.5467,-4.31587 8.9014,-8.84747 13.3334,-13.27987 m -213.3334,85.33334 c 8.8292,6.22 40.968,31.556 40.8734,42.66667 -0.044,5.17867 -6.9427,10.824 -9.8934,14.66667 -8.4146,10.96 -16.0833,22.52266 -22.6724,34.66666 -7.3368,13.52267 -33.6564,57.65734 -14.9156,69.52267 18.243,11.54934 23.8218,-18.68 27.8747,-29.52266 17.2187,-46.06801 52.3427,-85.96534 93.4,-112.41067 14.3987,-9.27334 30.344,-17.30534 46.6667,-22.59548 8.16,-2.64506 18.9986,-3.98933 22.6493,-13.0144 8.9627,-22.15706 -21.356,-17.50173 -31.9827,-13.95893 -30.572,10.19253 -66.58,27.96693 -88,52.64614 h -1.3333 l -41.3333,-44.00001 c 11.4133,0 63.9866,4.92267 47.624,-21.08226 -7.444,-11.82947 -33.0467,-6.91774 -44.9574,-6.91774 -12.2309,0 -38.4528,-4.93813 -47.6954,4.30454 -5.5583,5.55826 -4.3046,13.8476 -4.3046,21.0288 0,17.1644 -6.8102,53.23734 2.9712,67.748 14.9194,22.13334 25.0288,-9.3 25.0288,-21.08133 v -22.66667 m 434.6667,-21.33334 -41.3333,44.00001 h -1.3334 c -21.42,-24.67907 -57.428,-42.45361 -88,-52.64614 -10.772,-3.59147 -40.6066,-8.27 -32.1373,13.95893 3.4333,9.00854 14.7867,10.41574 22.804,13.0144 16.3227,5.29014 32.268,13.32214 46.6667,22.59548 41.0573,26.44533 76.1813,66.34266 93.4,112.41067 4.0533,10.84266 9.632,41.072 27.8746,29.52266 18.784,-11.892 -7.6493,-55.94667 -14.92,-69.52267 -6.516,-12.168 -14.2653,-23.72266 -22.668,-34.66666 -2.9506,-3.84267 -9.8493,-9.488 -9.8933,-14.66667 -0.095,-11.11067 32.044,-36.44667 40.8733,-42.66667 v 22.66667 c 0,11.78133 10.1094,43.21467 25.0294,21.08133 9.7813,-14.51066 2.9706,-50.5836 2.9706,-67.748 0,-7.1812 1.2534,-15.47054 -4.304,-21.0288 -9.2426,-9.24267 -35.4653,-4.30454 -47.696,-4.30454 -11.9106,0 -37.5133,-4.91173 -44.9573,6.91774 -16.3627,26.00493 36.2107,21.08226 47.624,21.08226 m -254.6667,222.66668 v 1.33333 c -18.9293,10.53867 -36.6386,23.98001 -54.6666,36.00001 -25.6494,17.10133 -25.3334,32.53466 -25.3334,61.33333 0,8.83334 -1.8013,20.02267 2.7867,27.99467 5.5773,9.69467 18.22,16.14667 27.88,21.008 34.2653,17.24533 70.764,13.664 108,13.664 28.0907,0 55.3,1.552 81.3333,-11.01067 11.2934,-5.45066 26.7,-12.33866 33.2134,-23.66133 14.1853,-24.65334 3.3533,-71.988 -18.5467,-86.66 -19.3107,-12.93734 -38.3627,-27.364 -58.6667,-38.66801 15.9574,-16.676 22.6667,-34.48666 22.6667,-57.33333 0,-17.632 1.4653,-35.32 -5.3533,-52 -18.9427,-46.344 -82.7294,-56.97867 -116.7427,-21.10667 -19.9653,21.05733 -19.2373,46.02534 -19.2373,73.10667 0,20.61467 5.0373,43.024 22.6666,56 m 41.3334,-122.23334 c 61.3333,-10.04533 69.9213,104.33734 14.6666,112.49867 -63.372,9.36 -71.532,-103.18533 -14.6666,-112.49867 m -285.3334,142.23334 h 82.6667 c 10.0733,-0.016 23.8533,-1.48 23.8533,-14.66666 0,-13.18667 -13.78,-14.65067 -23.8533,-14.66667 h -82.6667 c 4.4324,-4.432 8.964,-8.78667 13.2799,-13.33334 8.8835,-9.35733 11.4764,-31.132 -7.9465,-28.156 -13.9154,2.132 -54.3869,41.776 -54.3869,56.15601 0,13.204 19.2494,26.196 27.7202,34.66666 7.6595,7.66 18.2625,23.15067 30.6656,21.52134 28.6883,-3.768 -1.7665,-33.956 -9.3323,-41.52134 m 584,-29.33333 h -82.6666 c -10.0734,0.016 -23.8534,1.48 -23.8534,14.66667 0,13.18666 13.78,14.65066 23.8534,14.66666 h 82.6666 c -4.432,4.432 -8.964,8.78667 -13.28,13.33334 -8.8826,9.35733 -11.476,31.13333 7.9467,28.156 13.9147,-2.132 54.3867,-41.776 54.3867,-56.156 0,-13.20401 -19.2494,-26.19601 -27.72,-34.66667 -7.66,-7.66 -18.2627,-23.15067 -30.6654,-21.52134 -28.688,3.768 1.7667,33.956 9.332,41.52134 m -312,27.27733 c 36.1667,-7.364 60.932,12.45467 89.3334,31.38934 8.3946,5.596 23.8426,12.096 29.296,20.69066 2.9013,4.572 1.3706,12.78934 1.3706,17.976 0,26.86801 -10.02,36.99601 -37.3333,43.11334 -15.6573,3.50667 -32.0587,2.22 -48,2.22 -34.9253,0 -83.6213,7.956 -111.576,-18.72 -5.9747,-5.70133 -3.0907,-20.332 -3.0907,-27.94667 0,-4.87733 -1.364,-12.33333 1.3707,-16.64267 3.9147,-6.16933 13.9867,-10.484 19.9627,-14.468 16.296,-10.864 39.452,-33.69866 58.6666,-37.612 m -164,151.38934 v 1.33333 l -44,41.33334 v -22.66667 c 0,-11.74667 -10.1674,-43.128 -25.0288,-21.08133 -9.7814,14.51066 -2.9712,50.584 -2.9712,67.748 0,7.18133 -1.2537,15.47067 4.3046,21.029327 9.2425,9.24267 35.4645,4.304 47.6954,4.304 11.9107,0 37.5134,4.912 44.9574,-6.917327 16.3626,-26.00533 -36.2107,-21.08267 -47.624,-21.08267 l 41.3333,-44 c 27.292,22.14934 55.6987,41.432 89.3333,52.64667 10.74,3.58 43.0534,7.192 31.5747,-15.256 -6.0933,-11.91733 -34.5493,-15.916 -46.2413,-21.72133 -29.7534,-14.77067 -56.3094,-35.48001 -77.6614,-61.00267 -14.724,-17.6 -27.696,-37.34667 -36.4026,-58.66667 -4.0678,-9.96134 -5.9878,-28.444 -15.4092,-34.65467 -22.382,-14.752 -19.9554,19.75867 -16.6132,30.65467 9.3348,30.43467 28.5005,66.95067 52.753,88 m 348,20 h 1.3334 l 41.3333,44 c -11.4133,0 -63.9867,-4.92266 -47.624,21.08267 7.444,11.829327 33.0467,6.917327 44.9573,6.917327 12.2307,0 38.4534,4.93867 47.696,-4.304 5.5574,-5.558657 4.304,-13.847997 4.304,-21.029327 0,-17.164 6.8107,-53.23734 -2.9706,-67.748 -14.8614,-22.04667 -25.0294,9.33466 -25.0294,21.08133 v 22.66667 l -44,-41.33334 c 21.8734,-26.95066 42.44,-55.708 52.7534,-89.33333 3.28,-10.69467 7.144,-43.21467 -15.3627,-31.38934 -12.1587,6.388 -15.76,34.12934 -21.72,46.056 -14.8627,29.74401 -35.444,56.27734 -61.004,77.66134 -17.676,14.788 -37.2773,27.46534 -58.6667,36.20134 -9.8266,4.012 -28.768,6.37333 -34.856,15.61066 -14.6413,22.21334 20.048,20.10934 30.856,16.50667 30.572,-10.19333 66.58,-27.968 88,-52.64667 m -178.6666,107.999997 c -4.432,-4.432 -8.7867,-8.964 -13.3334,-13.28 -9.3573,-8.88266 -31.1333,-11.476 -28.156,7.94667 2.132,13.91467 41.776,54.3866699 56.156,54.3866699 13.204,0 26.196,-19.2493299 34.6667,-27.7199999 7.66,-7.66 23.1507,-18.26267 21.5213,-30.66534 -3.768,-28.688 -33.956,1.76667 -41.5213,9.332 v -82.666657 c -0.016,-10.07334 -1.48,-23.85334 -14.6667,-23.85334 -13.1866,0 -14.6506,13.78 -14.6666,23.85334 z"
       id="path525" /></g></svg>
