<?xml version="1.0" encoding="UTF-8" standalone="no"?>
<!-- Created with Inkscape (http://www.inkscape.org/) -->

<svg
   version="1.1"
   id="svg2"
   width="466.71301"
   height="464.02948"
   viewBox="0 0 466.71301 464.02948"
   sodipodi:docname="safe.png"
   inkscape:export-filename="safe.svg"
   inkscape:export-xdpi="96"
   inkscape:export-ydpi="96"
   xml:space="preserve"
   xmlns:inkscape="http://www.inkscape.org/namespaces/inkscape"
   xmlns:sodipodi="http://sodipodi.sourceforge.net/DTD/sodipodi-0.dtd"
   xmlns="http://www.w3.org/2000/svg"
   xmlns:svg="http://www.w3.org/2000/svg"><defs
     id="defs6" /><sodipodi:namedview
     id="namedview4"
     pagecolor="#ffffff"
     bordercolor="#000000"
     borderopacity="0.25"
     inkscape:showpageshadow="2"
     inkscape:pageopacity="0.0"
     inkscape:pagecheckerboard="0"
     inkscape:deskcolor="#d1d1d1"
     showgrid="false" /><g
     inkscape:groupmode="layer"
     inkscape:label="Image"
     id="g8"
     transform="translate(-1857.5353,-904.57306)"><path
       style="fill:#010101;stroke:none"
       d="m 2002.8918,905.31988 c -13.192,1.8898 -25.3199,6.3817 -35.9999,14.4714 -55.817,42.2791 -18.947,138.83532 51.9999,128.67232 13.225,-1.895 25.317,-6.345 36,-14.471 55.703,-42.37202 19.043,-138.85012 -52,-128.67272 m 176,95.57172 h 48 c 0,-23.25452 6.823,-59.37722 -1.931,-81.00002 -6.709,-16.5737 -29.466,-19.8934 -40.679,-5.9846 -6.669,8.273 -5.39,19.0624 -5.39,28.9846 v 58.00002 m -160,-80.00002 v 18 c 9.995,2.3763 15.556,12.2802 16,22 l -32,-8 c 0.013,19.8577 17.452,12.9145 27.606,26.0008 7.523,9.6962 4.394,26.46722 4.394,37.99922 h -16 v 16 h -16 v -18 c -9.995,-2.376 -15.556,-12.28 -16,-22.00002 l 32,8.00002 c -0.013,-19.85802 -17.452,-12.91402 -27.606,-26.00082 -7.523,-9.6959 -4.394,-26.4675 -4.394,-37.9992 h 16 v -16 h 16 m 230.043,32.696 c -8.551,2.3254 -6.043,15.727 -6.043,22.304 v 68.00002 c 0,6.518 -1.69,23.471 9.957,20.304 8.551,-2.325 6.043,-15.727 6.043,-22.304 v -68.00002 c 0,-6.5179 1.69,-23.4712 -9.957,-20.304 m -288.0279,15.7531 c 9.835,-2.4595 13.739,12.6589 3.97,15.1019 -9.835,2.459 -13.739,-12.6587 -3.97,-15.1019 m 95.9999,0 c 9.835,-2.4595 13.739,12.6589 3.97,15.1019 -9.835,2.459 -13.739,-12.6587 -3.97,-15.1019 m 121.985,47.55092 v 81 c 0,6.598 -3.127,24.151 1.028,29.397 4.195,5.297 29.336,1.603 35.972,1.603 3.037,0 8.746,1.036 10.397,-2.318 3.689,-7.498 0.603,-23.339 0.603,-31.682 v -78 h -48 m -287.9999,48 v 208 h 191.9999 v -139 c 0,-19.631 3.533,-42.795 -12.09,-57.826 -14.782,-14.223 -36.137,-11.174 -54.91,-11.174 h -124.9999 m 207.9999,208 h 192 v -208 h -18 c -5.131,13.245 -17.257,16.611 -30,15 0,33.361 -0.053,58.613 -15.247,89 -5.821,11.641 -13.72,27.839 -29.753,23.211 -12.494,-3.607 -17.014,-17.744 -22.247,-28.211 -15.992,-31.985 -12.753,-64.084 -12.753,-99 -18.753,0 -39.836,-2.487 -53.699,13.039 -14.151,15.848 -10.301,39.376 -10.301,58.961 v 136 m -32,-192 v 176 h -159.9999 v -176 h 159.9999 m -207.9999,16 v 172 c 0,17.379 -6.2392,48.952 8.0432,61.787 12.6607,11.377 39.1527,6.213 54.9568,6.213 h 144.9999 c 0,8.201 -0.051,16.234 5.39,22.985 10.296,12.771 31.034,11.311 39.243,-2.985 3.585,-6.242 3.367,-13.054 3.367,-20 h 145 c 15.804,0 42.296,5.164 54.957,-6.213 14.282,-12.835 8.043,-44.408 8.043,-61.787 v -172 h -16 v 224 h -431.9999 v -224 h -16 m 64,0 v 16 h 32 v -16 h -32 m 48,0 v 16 h 79.9999 v -16 h -79.9999 m 303.9999,0 v 16 h -16 v -16 h 16 m -351.9999,32 v 112 h 32 v -112 h -32 m 48,0 v 112 h 15.9999 v -112 h -15.9999 m 31.9999,0 v 112 h 16 v -112 h -16 m 32,0 v 112 h 16 v -112 h -16 m 240,0 v 16 h -16 v -16 h 16 m -91,16 c 2.619,6.29 11.213,31.133 19,31.133 7.787,0 16.381,-24.843 19,-31.133 h -38 m 91,16 v 16 h -16 v -16 h 16 m 0,48 v 16 h -160 v -16 h 160 m -32,32 v 16 h -128 v -16 h 128 m 32,0 v 16 h -16 v -16 h 16 m -383.9999,48 v 16 h 191.9999 v -16 h -191.9999 m 207.9999,0 v 16 h 192 v -16 z"
       id="path695" /></g></svg>
