<?xml version="1.0" standalone="no"?>
<!DOCTYPE svg PUBLIC "-//W3C//DTD SVG 20010904//EN"
 "http://www.w3.org/TR/2001/REC-SVG-20010904/DTD/svg10.dtd">
<svg version="1.0" xmlns="http://www.w3.org/2000/svg"
 width="512.000000pt" height="512.000000pt" viewBox="0 0 512.000000 512.000000"
 preserveAspectRatio="xMidYMid meet">

<g transform="translate(0.000000,512.000000) scale(0.100000,-0.100000)"
fill="#000000" stroke="none">
<path d="M2505 5113 c-21 -5 -2271 -1016 -2360 -1060 -90 -44 -132 -103 -142
-197 -10 -93 53 -194 143 -232 50 -21 4778 -21 4828 0 90 38 153 139 143 232
-7 64 -37 125 -79 159 -30 24 -2242 1026 -2386 1081 -59 23 -102 28 -147 17z"/>
<path d="M495 3392 c-54 -18 -85 -60 -85 -115 0 -31 7 -46 34 -73 30 -30 40
-34 85 -34 l51 0 0 -1049 0 -1049 -64 -4 c-83 -5 -148 -44 -191 -112 -55 -89
-37 -213 42 -288 65 -62 -101 -58 2195 -58 l2093 0 45 24 c214 113 132 436
-110 436 l-50 0 0 1050 0 1050 49 0 c136 0 166 171 38 219 -31 12 -4096 14
-4132 3z m1245 -1272 l0 -1050 -345 0 -345 0 0 1050 0 1050 345 0 345 0 0
-1050z m1168 -2 l2 -1048 -350 0 -350 0 0 1050 0 1050 348 -2 347 -3 3 -1047z
m1162 2 l0 -1050 -350 0 -350 0 0 1043 c0 574 3 1047 7 1050 3 4 161 7 350 7
l343 0 0 -1050z"/>
<path d="M190 461 c-117 -24 -200 -137 -187 -252 7 -60 27 -98 74 -144 72 -70
-116 -65 2480 -65 1677 0 2357 3 2388 11 96 24 168 120 168 224 0 95 -50 172
-138 212 -38 17 -149 18 -2395 19 -1295 1 -2371 -1 -2390 -5z"/>
</g>
</svg>
