<?xml version="1.0" encoding="UTF-8" standalone="no"?>
<!-- Created with Inkscape (http://www.inkscape.org/) -->

<svg
   version="1.1"
   id="svg2"
   width="513.63708"
   height="513.64758"
   viewBox="0 0 513.63708 513.64758"
   sodipodi:docname="safe.png"
   inkscape:export-filename="safe.svg"
   inkscape:export-xdpi="96"
   inkscape:export-ydpi="96"
   xml:space="preserve"
   xmlns:inkscape="http://www.inkscape.org/namespaces/inkscape"
   xmlns:sodipodi="http://sodipodi.sourceforge.net/DTD/sodipodi-0.dtd"
   xmlns="http://www.w3.org/2000/svg"
   xmlns:svg="http://www.w3.org/2000/svg"><defs
     id="defs6" /><sodipodi:namedview
     id="namedview4"
     pagecolor="#ffffff"
     bordercolor="#000000"
     borderopacity="0.25"
     inkscape:showpageshadow="2"
     inkscape:pageopacity="0.0"
     inkscape:pagecheckerboard="0"
     inkscape:deskcolor="#d1d1d1"
     showgrid="false" /><g
     inkscape:groupmode="layer"
     inkscape:label="Image"
     id="g8"
     transform="translate(-1794.7404,-1597.6268)"><path
       style="fill:#020202;stroke:none"
       d="m 1846.3478,1604.6276 c -5.2254,28.1627 21.8272,63.582 36.0532,86 4.5478,7.166 10.8233,20.636 18.2468,24.972 5.43,3.172 16.53,1.028 22.7,1.028 0,-14.578 -0.866,-29.4526 0.044,-44 0.304,-4.8579 3.455,-10.4222 8.955,-10.5579 5.922,-0.146 8.787,5.4704 8.982,10.5579 0.563,14.6201 0.019,29.368 0.019,44 h 55 c 0,-14.578 -0.866,-29.4526 0.044,-44 0.307,-4.9006 3.472,-10.3564 8.956,-10.6381 6.377,-0.3275 9.252,6.373 9.826,11.6381 1.53,14.021 0.174,28.894 0.174,43 6.063,0 16.433,1.994 21.826,-1.028 6.083,-3.407 10.72,-13.294 14.507,-18.972 11.419,-17.1219 22.867,-35.0949 31.091,-54 2.586,-5.9424 16.064,-31.5222 7.973,-36.8789 -4.538,-3.0042 -14.718,5.251 -18.397,7.4267 -13.727,8.1169 -30.026,12.6657 -46.004,11.365 -22.015,-1.7921 -32.635,-24.4784 -53.996,-26.7392 -24.237,-2.5651 -36.671,23.9842 -60,26.6559 -26.5563,3.0412 -42.2496,-17.4491 -66,-19.8295 m 24,130.533 c -11.8568,2.883 -15.2229,20.438 -2.9961,25.458 12.3635,5.075 33.6681,1.009 46.9961,1.009 h 109 c 12.049,0 40.27,5.166 49.945,-2.434 7.528,-5.912 6.429,-18.142 -1.985,-22.566 -7.522,-3.955 -18.714,-2 -26.96,-2 h -118 c -17.349,0 -39.1479,-3.564 -56,0.533 m 214,76.467 c -5.208,-9.012 -18.012,-26.714 -28,-30.397 -7.975,-2.94 -20.533,-0.603 -29,-0.603 h -65 -61 c -7.0041,0 -18.9023,-2.264 -24.9992,1.603 -16.1576,10.25 -30.7467,33.696 -41.331,49.397 -47.0358,69.773 -65.119,192.666 14.3302,248.279 45.3785,31.763 113.889,35.587 167,26.64 11.978,-2.018 44.794,-5.486 51.972,-16.337 2.464,-3.724 1.028,-11.295 1.028,-15.582 v -40 -152 c 0,-21.922 -7.472,-58.002 15,-71 m -106,24 c 22.795,2.896 45.324,13.323 57.127,34 4.222,7.395 13.966,31.952 -1.128,33.836 -12.755,1.593 -11.07,-18.257 -16.104,-25.836 -8.607,-12.959 -24.468,-21.74 -39.895,-23 v 82 c 44.106,0.91 82.173,49.072 53.957,89 -8.129,11.503 -20.796,19.715 -33.957,24.305 -5.176,1.805 -13.226,1.825 -17.682,4.87 -6.138,4.194 0.633,14.809 -9.322,17.699 -13.67,3.969 -8.395,-13.717 -14.314,-17.861 -4.618,-3.233 -13.274,-3.222 -18.682,-5.242 -14.127,-5.278 -27.434,-14.567 -35.123,-27.771 -4.2,-7.211 -15.4655,-35.855 2.123,-35.188 10.852,0.412 10.228,19.927 15.221,27.188 8.944,13.008 23.832,19.1 38.779,22 v -82 c -11.923,-0.949 -23.823,-4.783 -34,-11.065 -31.3376,-19.342 -40.8234,-61.76 -10.996,-87.635 13.058,-11.328 29.903,-10.748 42.678,-19.475 6.26,-4.276 -0.344,-15.964 10.319,-18.159 11.241,-2.315 10.999,11.186 10.999,18.334 m 115.044,-8.258 c -9.456,3.854 -5.044,30.729 -5.044,39.258 v 122 85 c 0,8.095 -3.205,25.125 1.603,31.891 6.676,9.393 38.766,4.109 49.397,4.109 h 113 c 13.891,0 36.051,4.244 48.981,-0.894 10.568,-4.198 6.019,-29.862 6.019,-39.106 v -122 -84 c 0,-8.625 3.226,-25.602 -1.742,-32.941 -6.296,-9.301 -38.834,-4.059 -49.258,-4.059 h -114 c -13.637,0 -36.335,-4.401 -48.956,0.742 m 36.956,26.587 c 31.019,-5.451 67.467,-0.329 99,-0.329 11.42,0 29.554,-3.42 40,1.573 17.493,8.361 17.827,64.637 -2,70.627 -10.063,3.04 -23.536,0.8 -34,0.8 h -72 c -10.512,0 -27.695,3.257 -36.996,-2.228 -16.314,-9.622 -15.249,-66.71 5.996,-70.443 m -171,80.671 v -80 c -56.097,4.582 -57.196,77.506 0,80 m 178.109,-62.258 c -6.82,2.933 -6.911,32.786 0,35.655 7.313,3.035 20.01,0.603 27.891,0.603 h 64 c 7.408,0 23.398,3.015 29.682,-1.179 5.112,-3.411 4.413,-33.477 -1.791,-35.387 -8.035,-2.475 -19.503,-0.434 -27.891,-0.434 h -60 c -8.955,0 -23.621,-2.815 -31.891,0.742 m -12.109,81.559 c 7.935,-1.187 22.637,-2.386 29.985,1.133 8.275,3.963 6.798,15.125 -1.989,17.172 -7.392,1.722 -26.206,2.813 -32.952,-0.785 -9.69,-5.168 -3.712,-16.223 4.956,-17.52 m 64,0 c 7.935,-1.187 22.637,-2.386 29.985,1.133 8.275,3.963 6.798,15.125 -1.989,17.172 -7.392,1.722 -26.206,2.813 -32.952,-0.785 -9.69,-5.168 -3.712,-16.223 4.956,-17.52 m 64,0 c 7.935,-1.187 22.637,-2.386 29.985,1.133 8.275,3.963 6.798,15.125 -1.989,17.172 -7.393,1.722 -26.206,2.813 -32.952,-0.785 -9.69,-5.168 -3.712,-16.223 4.956,-17.52 m -275,0.699 v 81 c 28.758,-2.349 58.823,-31.258 38.945,-60 -9.262,-13.393 -24.127,-17.349 -38.945,-21 m 144.004,36.434 c 7.509,-2.084 25.782,-2.506 32.953,0.575 8.139,3.497 6.851,14.038 -0.961,16.959 -7.662,2.864 -26.516,3.025 -33.902,-0.621 -7.488,-3.696 -5.9,-14.747 1.91,-16.913 m 64,0 c 7.509,-2.084 25.782,-2.506 32.953,0.575 8.139,3.497 6.851,14.038 -0.961,16.959 -7.662,2.864 -26.516,3.025 -33.902,-0.621 -7.488,-3.696 -5.9,-14.747 1.91,-16.913 m 64,0 c 7.509,-2.084 25.782,-2.506 32.953,0.575 8.139,3.497 6.851,14.038 -0.961,16.959 -7.662,2.864 -26.516,3.025 -33.902,-0.621 -7.488,-3.696 -5.9,-14.747 1.91,-16.913 m -128.961,37.08 c 7.342,-2.339 26.773,-2.618 33.938,0.228 7.353,2.922 7.353,13.594 0,16.516 -6.724,2.671 -28.541,2.975 -34.937,-0.437 -6.532,-3.484 -6.411,-13.946 0.999,-16.307 m 64,0 c 7.342,-2.339 26.773,-2.618 33.938,0.228 7.353,2.922 7.353,13.594 0,16.516 -6.724,2.671 -28.541,2.975 -34.937,-0.437 -6.532,-3.484 -6.411,-13.946 0.999,-16.307 m 64,0 c 7.342,-2.339 26.773,-2.618 33.938,0.228 7.353,2.922 7.353,13.594 0,16.516 -6.724,2.671 -28.541,2.975 -34.937,-0.437 -6.532,-3.484 -6.411,-13.946 0.999,-16.307 m -126.042,35.83 c 7.839,-1.616 24.568,-2.509 31.956,0.665 8.717,3.746 6.406,15.007 -1.958,17.418 -7.393,2.132 -26.114,2.765 -32.955,-0.884 -7.993,-4.263 -5.456,-15.465 2.957,-17.199 m 64,0 c 7.839,-1.616 24.568,-2.509 31.956,0.665 8.717,3.746 6.406,15.007 -1.958,17.418 -7.393,2.132 -26.114,2.765 -32.955,-0.884 -7.993,-4.263 -5.456,-15.465 2.957,-17.199 m 64,0 c 7.839,-1.616 24.568,-2.509 31.956,0.665 8.717,3.746 6.406,15.007 -1.958,17.418 -7.393,2.132 -26.114,2.765 -32.955,-0.884 -7.993,-4.263 -5.456,-15.465 2.957,-17.199 z"
       id="path742" /></g></svg>
