<?xml version="1.0" encoding="UTF-8" standalone="no"?>
<!-- Created with Inkscape (http://www.inkscape.org/) -->

<svg
   version="1.1"
   id="svg2"
   width="479.37439"
   height="478.02039"
   viewBox="0 0 479.37439 478.02039"
   sodipodi:docname="safe.png"
   inkscape:export-filename="safe.svg"
   inkscape:export-xdpi="96"
   inkscape:export-ydpi="96"
   xml:space="preserve"
   xmlns:inkscape="http://www.inkscape.org/namespaces/inkscape"
   xmlns:sodipodi="http://sodipodi.sourceforge.net/DTD/sodipodi-0.dtd"
   xmlns="http://www.w3.org/2000/svg"
   xmlns:svg="http://www.w3.org/2000/svg"><defs
     id="defs6" /><sodipodi:namedview
     id="namedview4"
     pagecolor="#ffffff"
     bordercolor="#000000"
     borderopacity="0.25"
     inkscape:showpageshadow="2"
     inkscape:pageopacity="0.0"
     inkscape:pagecheckerboard="0"
     inkscape:deskcolor="#d1d1d1"
     showgrid="false" /><g
     inkscape:groupmode="layer"
     inkscape:label="Image"
     id="g8"
     transform="translate(-1133.2346,-1624.9047)"><path
       style="fill:#030303;stroke:none"
       d="m 1134.1559,2069.5136 h 35 v -320 h 387 v 116 c 0,9.996 -4.485,34.249 1.028,42.582 4.04,6.107 26.897,16.27 33.972,19.418 v -156 -41 c 0,-4.113 1.476,-11.846 -1.028,-15.351 -4.14,-5.796 -19.445,-8.6384 -25.972,-11.2493 -22.979,-9.1919 -46.022,-18.2095 -69,-27.3997 -30.288,-12.1137 -60.701,-23.9188 -91,-36 -11.696,-4.6636 -28.398,-15.3578 -41,-15.6049 -12.724,-0.2496 -31.171,11.2768 -43,16.0046 -32.983,13.1828 -66.021,26.2085 -99,39.4005 -20.2803,8.1123 -40.5414,16.4975 -61,24.1497 -6.3366,2.37 -20.8745,5.2251 -24.9722,10.7491 -3.6726,4.951 -1.0278,19.265 -1.0278,25.301 v 68 261 m 178.059,-376.3966 c 7.417,-2.9956 19.978,-0.6034 27.941,-0.6034 21.608,0 52.288,-5.6759 72.945,0.4337 7.347,2.1728 7.481,22.6973 1.827,26.6283 -6.151,4.276 -18.637,1.938 -25.772,1.938 h -53 c -7.227,0 -17.13,1.718 -23.941,-1.032 -6.471,-2.614 -6.563,-24.7143 0,-27.3646 m -100.059,75.3966 v 64 c 0,6.809 -2.5041,19.887 1.0278,25.852 3.1727,5.358 14.7012,3.148 19.9722,3.148 h 53 c 5.129,0 15.362,2.025 18.427,-3.228 3.927,-6.729 1.573,-19.225 1.573,-26.772 v -63 h -31 c 0,7.59 3.869,30.924 -1.603,36.397 -4.845,4.844 -23.774,1.603 -30.397,1.603 v -38 h -31 m 0,104 v 64 c 0,6.809 -2.5041,19.887 1.0278,25.852 3.1727,5.358 14.7012,3.148 19.9722,3.148 h 53 c 5.129,0 15.362,2.025 18.427,-3.228 3.927,-6.729 1.573,-19.225 1.573,-26.772 v -63 h -31 c 0,7.59 3.869,30.924 -1.603,36.397 -4.845,4.844 -23.775,1.603 -30.397,1.603 v -38 h -31 m 104,0 v 64 c 0,6.809 -2.504,19.887 1.028,25.852 3.014,5.091 12.992,3.148 17.972,3.148 h 53 c 4.855,0 16.662,2.156 19.821,-2.434 3.643,-5.292 1.179,-18.321 1.179,-24.566 v -66 h -31 v 38 h -31 v -38 h -31 m 199,47.424 c -20.679,2.749 -39.268,9.52 -54.999,23.747 -64.408,58.244 -12.56,169.051 72.999,158.543 14.224,-1.747 27.954,-6.616 40,-14.413 75.648,-48.968 34.942,-180.229 -58,-167.877 m 4,16.862 c 41.582,-4.722 79.24,35.467 77.957,75.714 -1.208,37.873 -30.227,69.225 -67.957,72.83 -57.581,5.502 -99.519,-57.828 -72.68,-108.83 12.795,-24.314 36.248,-36.712 62.68,-39.714 m -7,17.178 c -75.19,13.29 -52.451,128.268 22,114.275 73.154,-13.749 51.035,-127.185 -22,-114.275 m 2,96.536 c -9.202,-1.641 -24.409,-12.762 -20.243,-23.981 6.841,-18.423 33.79,27.436 40.531,2.938 2.24,-8.142 -11.259,-9.857 -16.288,-10.971 -16.251,-3.598 -30.1,-19.553 -19.146,-35.985 2.899,-4.349 18.477,-20.716 23.15,-20.834 6.679,-0.167 6.173,5.482 9.595,9.185 5.56,6.018 21.907,10.911 17.643,22.633 -5.526,15.195 -17.711,-4.392 -24.242,-6.142 -4.802,-1.286 -13.868,1.836 -12.863,8.145 1.101,6.922 11.689,7.158 16.863,8.49 13.769,3.546 26.632,15.001 21.779,30.522 -3.168,10.136 -35.491,39.524 -36.779,16 m -302,-75 v 65 c 0,6.809 -2.5041,19.887 1.0278,25.852 3.1727,5.358 14.7012,3.148 19.9722,3.148 h 52 c 4.979,0 15.446,1.993 18.91,-2.434 3.731,-4.767 2.09,-13.919 2.09,-19.566 v -50 c 0,-4.897 2.124,-16.418 -1.028,-20.397 -3.76,-4.747 -24.13,-1.603 -29.972,-1.603 0,7.751 3.973,31.82 -1.603,37.397 -4.845,4.844 -23.775,1.603 -30.397,1.603 v -39 h -31 m 104,0 v 65 c 0,6.809 -2.504,19.887 1.028,25.852 3.014,5.091 12.992,3.148 17.972,3.148 h 53 c 4.855,0 16.662,2.156 19.821,-2.434 3.757,-5.458 1.179,-19.113 1.179,-25.566 v -66 c -6.636,0 -24.136,-3.139 -29.397,1.028 -5.493,4.351 -1.603,31.026 -1.603,37.972 h -31 c 0,-6.946 3.89,-33.621 -1.603,-37.972 -5.261,-4.167 -22.761,-1.028 -29.397,-1.028 m 104,71 c 0,10.798 -3.087,22.95 11,23 z"
       id="path791" /></g></svg>
