<?xml version="1.0" encoding="UTF-8" standalone="no"?>
<!-- Created with Inkscape (http://www.inkscape.org/) -->

<svg
   version="1.1"
   id="svg2"
   width="514.14563"
   height="512.95483"
   viewBox="0 0 514.14563 512.95483"
   sodipodi:docname="safe.png"
   inkscape:export-filename="safe.svg"
   inkscape:export-xdpi="96"
   inkscape:export-ydpi="96"
   xml:space="preserve"
   xmlns:inkscape="http://www.inkscape.org/namespaces/inkscape"
   xmlns:sodipodi="http://sodipodi.sourceforge.net/DTD/sodipodi-0.dtd"
   xmlns="http://www.w3.org/2000/svg"
   xmlns:svg="http://www.w3.org/2000/svg"><defs
     id="defs6" /><sodipodi:namedview
     id="namedview4"
     pagecolor="#ffffff"
     bordercolor="#000000"
     borderopacity="0.25"
     inkscape:showpageshadow="2"
     inkscape:pageopacity="0.0"
     inkscape:pagecheckerboard="0"
     inkscape:deskcolor="#d1d1d1"
     showgrid="false" /><g
     inkscape:groupmode="layer"
     inkscape:label="Image"
     id="g8"
     transform="translate(-1543.2448,-178.11253)"><path
       style="fill:#020202;stroke:none"
       d="m 1822.2545,179.42365 c -29.545,4.65048 -52.088,37.64924 -72,57.56094 l -153,153 c -20.401,20.401 -56.1358,44.505 -53.9105,77 1.4604,21.326 16.7702,33.86 30.9105,48 l 73,73 75,75 c 14.941,14.941 29.854,30.718 53,27.711 19.9,-2.586 32.544,-17.255 46,-30.711 l 64,-64 115,-115 c 16.853,-16.853 42.822,-35.249 51.572,-58 5.418,-14.089 3.428,-30.18 3.428,-45 v -80 c 0,-30.7291 10.231,-82.3994 -14.09,-105.8264 -16.917,-16.29451 -40.376,-13.1736 -61.91,-13.1736 h -104 c -17.153,0 -36.054,-2.22833 -53,0.43906 m 136,79.92894 c 17.986,-2.3374 23.204,26.336 5,29.407 -19.98,3.372 -24.995,-26.8085 -5,-29.407 m -165,37.921 c 59.059,-7.693 73.332,84.861 14,93.411 -61.478,8.859 -75.96,-85.339 -14,-93.411 m 2,30.244 c -21.348,5.155 -13.467,37.745 8,33.077 21.442,-4.664 13.306,-38.221 -8,-33.077 m -95,92.796 c 23.466,-4.237 51.131,-0.329 75,-0.329 39.894,0 81.255,-3.183 121,0.093 13.466,1.11 19.595,19.03 7.957,27.204 -11.059,7.767 -37.809,2.703 -50.957,2.703 h -108 c -13.89,0 -35.015,3.962 -47.999,-1.148 -13.531,-5.325 -11.079,-25.98 2.999,-28.523 m 91,58.971 c 61.459,-8.856 75.904,85.346 14,93.411 -59.07,7.695 -73.426,-84.848 -14,-93.411 m 3,30.338 c -21.092,6.097 -10.807,38.984 10,32.559 20.924,-6.462 11.157,-38.675 -10,-32.559 z"
       id="path650" /></g></svg>
