<?xml version="1.0" encoding="UTF-8" standalone="no"?>
<!-- Created with Inkscape (http://www.inkscape.org/) -->

<svg
   version="1.1"
   id="svg2"
   width="515.91559"
   height="330.96942"
   viewBox="0 0 515.91559 330.96942"
   sodipodi:docname="safe.png"
   inkscape:export-filename="safe.svg"
   inkscape:export-xdpi="96"
   inkscape:export-ydpi="96"
   xml:space="preserve"
   xmlns:inkscape="http://www.inkscape.org/namespaces/inkscape"
   xmlns:sodipodi="http://sodipodi.sourceforge.net/DTD/sodipodi-0.dtd"
   xmlns="http://www.w3.org/2000/svg"
   xmlns:svg="http://www.w3.org/2000/svg"><defs
     id="defs6" /><sodipodi:namedview
     id="namedview4"
     pagecolor="#ffffff"
     bordercolor="#000000"
     borderopacity="0.25"
     inkscape:showpageshadow="2"
     inkscape:pageopacity="0.0"
     inkscape:pagecheckerboard="0"
     inkscape:deskcolor="#d1d1d1"
     showgrid="false" /><g
     inkscape:groupmode="layer"
     inkscape:label="Image"
     id="g8"
     transform="translate(40.59343,1114.5868)"><path
       style="fill:#010101;stroke:none"
       d="m 81.492267,-784.05728 c 0,-13.795 -5.233,-41.354 2.854,-52.96 6.962,-9.99 21.224003,-8.207 25.918003,2.961 5.533,13.166 1.228,35.775 1.228,49.999 h 260 68 c 8.531,0 20.492,2.171 27.815,-3.133 13.116,-9.501 6.185,-49.194 6.185,-63.867 v -190.00002 -50 c 0,-7.595 0.245,-15.9353 -7.093,-20.4668 -7.75,-4.7854 -20.167,-2.5332 -28.907,-2.5332 h -69 -256 c 0,13.503 5.32,41.731 -2.653,52.985 -7.074,9.986 -20.977003,8.035 -25.814003,-2.989 -5.788,-13.192 -1.533,-35.693 -1.533,-49.996 h -86 c -9.8018,0 -25.22461,-2.9842 -31.86651,6.1852 -9.4941,13.1068 -3.13349,47.0158 -3.13349,62.8148 0,12.157 -4.03241,33.274 2.53318,43.907 5.65332,9.15502 18.53092,6.59802 27.46682,9.79302 17.3064,6.187 29.9923,23.945 29.9923,42.3 0,18.355 -12.6859,36.113 -29.9923,42.3 -8.9359,3.195 -21.81352,0.638 -27.46682,9.793 -6.56559,10.633 -2.53318,31.75 -2.53318,43.907 0,15.799 -6.3606,49.708 3.13349,62.815 6.51785,8.998 21.24771,6.185 30.86651,6.185 h 86 M 242.49227,-1053.7683 c 57.7,-7.516 70.05,81.85902 12,89.42202 -57.7,7.516 -70.05,-81.85902 -12,-89.42202 m 123,0.052 c 12.47,-2.349 21.651,10.423 16.326,21.659 -7.969,16.818 -21.334,32.51202 -31.659,48.00002 l -64,96 c -7.772,11.657 -21.137,42.973 -36.667,43.891 -28.858,1.707 -8.769,-30.738 -2,-40.891 l 84,-126.00002 c 7.515,-11.272 19.755,-39.976 34,-42.659 m -272.000003,30 c 25.361003,-4.776 25.594003,55.62802 6,59.31802 -25.361,4.776 -25.594,-55.62802 -6,-59.31802 m 152.000003,0.195 c -18.628,4.216 -12.555,33.12702 6,28.92802 18.628,-4.216 12.555,-33.12702 -6,-28.92802 m -152.000003,89.80502 c 25.361003,-4.777 25.594003,55.628 6,59.318 -25.361,4.777 -25.594,-55.628 -6,-59.318 m 269.000003,-0.052 c 57.7,-7.516 70.05,81.859 12,89.422 -57.7,7.516 -70.05,-81.859 -12,-89.422 m 3,30.247 c -18.628,4.216 -12.555,33.127 6,28.928 18.628,-4.216 12.555,-33.127 -6,-28.928 z"
       id="path418" /></g></svg>
