<?xml version="1.0" standalone="no"?>
<!DOCTYPE svg PUBLIC "-//W3C//DTD SVG 20010904//EN"
 "http://www.w3.org/TR/2001/REC-SVG-20010904/DTD/svg10.dtd">
<svg version="1.0" xmlns="http://www.w3.org/2000/svg"
 width="512.000000pt" height="512.000000pt" viewBox="0 0 512.000000 512.000000"
 preserveAspectRatio="xMidYMid meet">

<g transform="translate(0.000000,512.000000) scale(0.100000,-0.100000)"
fill="#000000" stroke="none">
<path d="M613 4905 c-106 -32 -186 -106 -225 -204 -19 -51 -21 -75 -22 -271
l-1 -215 122 -3 121 -3 4 173 c3 197 12 224 87 266 l39 22 1470 -2 c1468 -3
1471 -3 1498 -24 15 -11 37 -33 48 -48 21 -27 21 -40 26 -737 l5 -709 123 123
123 123 -3 674 -3 675 -28 47 c-31 53 -79 94 -134 114 -56 19 -3187 19 -3250
-1z"/>
<path d="M756 4514 c-3 -9 -6 -81 -6 -160 l0 -144 50 0 c61 0 106 -18 142 -56
41 -45 48 -75 48 -220 0 -115 -3 -141 -20 -174 -29 -57 -71 -83 -149 -89 l-66
-6 -3 -187 -2 -188 56 0 c76 0 134 -33 163 -93 18 -38 21 -62 21 -182 0 -130
-2 -141 -25 -182 -33 -56 -86 -83 -160 -83 l-55 0 0 -190 0 -190 55 0 c74 0
127 -27 160 -83 23 -41 25 -52 25 -182 0 -120 -3 -144 -21 -182 -29 -60 -87
-93 -163 -93 l-56 0 2 -187 3 -188 66 -6 c78 -6 120 -32 149 -89 17 -33 20
-59 20 -175 0 -149 -8 -182 -56 -227 -38 -35 -74 -48 -135 -48 l-50 0 3 -157
3 -158 173 -3 172 -2 0 1970 0 1970 -169 0 c-145 0 -170 -2 -175 -16z"/>
<path d="M1240 2560 l0 -1970 1198 2 1197 3 3 565 2 565 -233 -233 -232 -232
-270 -97 c-349 -124 -398 -129 -494 -47 -59 51 -84 105 -84 179 0 52 14 94
103 320 56 143 107 269 112 280 6 11 255 265 554 565 l544 545 -2 760 -3 760
-1197 3 -1198 2 0 -1970z m1922 1488 c64 -49 69 -78 66 -379 l-3 -266 -28 -36
c-58 -76 -13 -72 -758 -72 l-665 0 -42 27 c-76 51 -77 57 -77 368 0 311 2 318
80 366 l40 24 676 -2 676 -3 35 -27z"/>
<path d="M1796 3924 c-3 -8 -6 -119 -6 -244 0 -216 1 -230 19 -240 31 -16
1242 -14 1264 3 16 11 17 35 15 252 l-3 240 -641 3 c-579 2 -642 1 -648 -14z"/>
<path d="M200 4044 c-13 -33 -13 -175 0 -208 l10 -26 317 2 318 3 3 119 c2 89
-1 121 -10 128 -7 4 -151 8 -321 8 l-307 0 -10 -26z"/>
<path d="M364 3657 c-2 -7 -3 -91 -2 -187 l3 -175 123 -3 122 -3 0 191 0 190
-120 0 c-89 0 -122 -3 -126 -13z"/>
<path d="M4565 3639 c-78 -10 -130 -43 -245 -155 l-105 -103 223 -223 223
-223 103 105 c125 128 148 168 154 271 6 99 -14 162 -74 228 -72 80 -168 114
-279 100z"/>
<path d="M3440 2605 l-675 -675 223 -222 222 -223 675 675 675 675 -223 223
-222 222 -675 -675z"/>
<path d="M200 3124 c-13 -33 -13 -175 0 -208 l10 -26 317 2 318 3 0 125 0 125
-318 3 -317 2 -10 -26z"/>
<path d="M364 2737 c-2 -7 -3 -91 -2 -187 l3 -175 123 -3 122 -3 0 191 0 190
-120 0 c-89 0 -122 -3 -126 -13z"/>
<path d="M200 2204 c-13 -33 -13 -175 0 -208 l10 -26 317 2 318 3 0 125 0 125
-318 3 -317 2 -10 -26z"/>
<path d="M3905 1990 l-120 -120 -5 -659 c-5 -647 -5 -660 -26 -687 -11 -15
-33 -37 -48 -48 -27 -21 -30 -21 -1498 -24 l-1470 -2 -39 22 c-75 42 -84 69
-87 266 l-4 173 -121 -3 -122 -3 1 -215 c1 -196 3 -220 23 -271 30 -80 88
-142 169 -181 l67 -33 1615 0 1615 0 48 28 c54 32 102 92 117 147 7 24 9 341
8 884 l-3 846 -120 -120z"/>
<path d="M364 1817 c-2 -7 -3 -91 -2 -187 l3 -175 123 -3 122 -3 0 191 0 190
-120 0 c-89 0 -122 -3 -126 -13z"/>
<path d="M2562 1567 c-112 -283 -113 -293 -65 -342 17 -17 37 -25 59 -25 25 0
301 92 536 179 14 5 -29 54 -205 229 l-222 222 -103 -263z"/>
<path d="M200 1284 c-13 -33 -13 -175 0 -208 l10 -26 307 0 c170 0 314 4 321
8 9 7 12 39 10 128 l-3 119 -318 3 -317 2 -10 -26z"/>
</g>
</svg>
