<?xml version="1.0" standalone="no"?>
<!DOCTYPE svg PUBLIC "-//W3C//DTD SVG 20010904//EN"
 "http://www.w3.org/TR/2001/REC-SVG-20010904/DTD/svg10.dtd">
<svg version="1.0" xmlns="http://www.w3.org/2000/svg"
 width="512.000000pt" height="512.000000pt" viewBox="0 0 512.000000 512.000000"
 preserveAspectRatio="xMidYMid meet">

<g transform="translate(0.000000,512.000000) scale(0.100000,-0.100000)"
fill="#000000" stroke="none">
<path d="M1470 5111 c-70 -23 -132 -75 -164 -139 -10 -18 -21 -66 -25 -106 -5
-40 -17 -90 -27 -111 -95 -201 -395 -187 -470 22 -11 32 -13 -262 -14 -1859
l0 -1898 1790 0 1790 0 0 1898 c-1 1597 -3 1891 -14 1859 -20 -55 -61 -103
-114 -134 -40 -24 -58 -28 -122 -28 -153 0 -242 86 -261 251 -10 89 -34 139
-94 192 -98 87 -246 80 -341 -15 -48 -48 -63 -83 -75 -174 -12 -98 -34 -144
-93 -196 -122 -108 -314 -73 -388 70 -10 21 -25 79 -33 128 -15 103 -41 152
-107 199 -107 78 -258 59 -343 -42 -39 -46 -53 -83 -63 -170 -15 -118 -60
-186 -152 -227 -87 -40 -192 -23 -266 42 -56 49 -82 99 -90 174 -13 127 -60
205 -149 248 -44 20 -135 29 -175 16z m2110 -1786 l0 -255 -1020 0 -1020 0 0
255 0 255 1020 0 1020 0 0 -255z m-510 -1020 l0 -255 -765 0 -765 0 0 255 0
255 765 0 765 0 0 -255z"/>
<path d="M260 352 c0 -150 1 -161 26 -210 14 -29 42 -65 62 -82 78 -64 -83
-60 2212 -60 2295 0 2134 -4 2212 60 20 17 48 53 62 82 25 49 26 60 26 210 l0
158 -2300 0 -2300 0 0 -158z"/>
</g>
</svg>
