<?xml version="1.0" encoding="UTF-8" standalone="no"?>
<!-- Created with Inkscape (http://www.inkscape.org/) -->

<svg
   version="1.1"
   id="svg2"
   width="507.72842"
   height="507.90808"
   viewBox="0 0 507.72842 507.90808"
   xmlns="http://www.w3.org/2000/svg"
   xmlns:svg="http://www.w3.org/2000/svg">
  <defs
     id="defs6" />
  <g
     id="g8"
     transform="translate(525.46802,4.9377108)">
    <path
       style="fill:#000000"
       d="m -477.85584,501.78667 c -5.91873,-2.17543 -10.32617,-6.12589 -13.14459,-11.78172 -2.17605,-4.36678 -2.60338,-6.58729 -2.60338,-13.52796 v -8.30366 h 36.09653 36.09653 l -0.34653,9.33193 c -0.30891,8.31889 -0.67507,9.86295 -3.37297,14.22356 -1.87164,3.02515 -4.89282,6.04643 -7.91778,7.91807 l -4.89135,3.02644 -18.08222,0.2462 c -13.40343,0.18249 -19.05305,-0.11063 -21.83424,-1.13286 z m 372,0 c -5.91873,-2.17543 -10.32617,-6.12589 -13.14459,-11.78172 -2.17605,-4.36678 -2.60338,-6.58729 -2.60338,-13.52796 v -8.30366 h 36.09653 36.09653 l -0.34653,9.33193 c -0.30891,8.31889 -0.67507,9.86295 -3.37297,14.22356 -1.87164,3.02515 -4.89282,6.04643 -7.91778,7.91807 l -4.89135,3.02644 -18.08222,0.2462 c -13.40343,0.18249 -19.05305,-0.11063 -21.83424,-1.13286 z m -401.75444,-50.54342 c -6.87244,-2.10219 -12.12903,-6.49797 -15.62937,-13.06992 -1.79912,-3.37788 -1.87406,-10.79243 -2.14785,-212.5 -0.22105,-162.854438 -0.0125,-209.993562 0.94464,-213.499997 1.59652,-5.8488637 9.64316,-14.0667011 15.45507,-15.7838834 5.98914,-1.769547 468.77882,-1.769547 474.76796,0 5.81191,1.7171823 13.85855,9.9350197 15.45507,15.7838834 0.95712,3.506435 1.16569,50.645559 0.94464,213.499997 -0.27379,201.70757 -0.34873,209.12212 -2.14785,212.5 -2.60912,4.89867 -6.45537,8.81598 -11.13584,11.34158 l -4,2.15842 -235,0.16831 c -129.25,0.0926 -236.12791,-0.1767 -237.50647,-0.59839 z m 426.64902,-35.78543 c 5.23949,-2.80216 10.69411,-9.12708 12.19689,-14.14293 1.69058,-5.64264 1.66328,-333.731601 -0.0282,-339.377373 -0.65384,-2.18232 -3.13413,-6.131531 -5.51175,-8.776023 -7.83022,-8.709042 9.95786,-7.988161 -197.11161,-7.988161 -138.83572,0 -184.4209,0.28914 -187.4237,1.188798 -2.18232,0.653839 -6.13153,3.134129 -8.77602,5.511754 -7.31565,6.577397 -7.98816,9.511359 -7.98816,34.849779 v 21.194046 l -3.97391,0.63546 c -4.53649,0.72541 -10.19238,5.19319 -11.95199,9.44128 -0.82046,1.98076 -1.08257,10.46174 -0.87323,28.2546 0.27768,23.6013 0.44253,25.61661 2.29913,28.1066 2.53677,3.40221 8.4914,6.81768 11.88616,6.81768 h 2.61384 v 50.5 50.5 h -2.59887 c -4.12888,0 -9.31642,2.98145 -11.96219,6.87505 -2.42804,3.57318 -2.43892,3.70328 -2.4352,29.10708 0.004,23.69892 0.14538,25.75019 1.99086,28.77701 2.29654,3.76662 7.09056,6.96766 11.7554,7.84924 l 3.25,0.6142 v 21.02269 c 0,13.06225 0.43946,22.48946 1.16056,24.89629 2.07448,6.92399 9.08158,13.55499 16.83297,15.92947 1.37856,0.4223 85.75647,0.69157 187.50647,0.59839 l 185,-0.16942 z m -374.27847,-14.45408 c -3.83317,-1.85605 -4.36408,-4.99063 -4.36408,-25.76617 v -19.84166 l 3.25,-0.6142 c 4.66484,-0.88158 9.45886,-4.08262 11.7554,-7.84924 1.84548,-3.02682 1.98739,-5.07809 1.99086,-28.77701 0.004,-25.4038 -0.007,-25.5339 -2.43519,-29.10708 -2.64578,-3.8936 -7.83332,-6.87505 -11.9622,-6.87505 h -2.59887 v -50.5 -50.5 h 2.61385 c 3.39475,0 9.34938,-3.41547 11.88615,-6.81768 1.8566,-2.48999 2.02145,-4.5053 2.29913,-28.1066 0.20934,-17.79286 -0.0528,-26.27384 -0.87322,-28.2546 -1.75962,-4.24809 -7.41551,-8.71587 -11.952,-9.44128 l -3.97391,-0.63546 V 87.00007 c 0,-20.875525 0.005,-20.922589 2.45455,-23.372192 l 2.45454,-2.454545 h 183.09091 183.09091 l 2.45454,2.454545 2.45455,2.454546 V 230.58082 c 0,118.42771 -0.31095,165.18087 -1.11027,166.93519 -0.61065,1.34022 -2.20683,2.9364 -3.54705,3.54705 -3.31658,1.51113 -363.85562,1.45285 -366.9786,-0.0593 z m 198.31356,-68.89995 c 38.29294,-5.23577 71.79764,-34.44015 82.69556,-72.0816 16.81927,-58.09384 -19.70995,-116.97145 -79.62356,-128.33687 -15.30199,-2.90274 -35.09389,-1.44611 -50.23722,3.69732 -44.25314,15.03057 -73.367,59.96348 -68.56929,105.82645 3.22239,30.80388 19.37643,57.61709 45.11097,74.87726 20.76986,13.93036 45.26177,19.48513 70.62354,16.01744 z m -31.70349,-16.87053 c -13.03137,-2.75023 -25.88902,-8.56579 -34.71815,-15.70315 l -2.756,-2.22792 6.94691,-7.03795 6.94691,-7.03796 3.05309,2.04427 c 6.16538,4.12817 17.55725,9.08066 23.47418,10.20513 l 6.07891,1.15525 v 10.2712 c 0,5.64916 -0.1125,10.23954 -0.25,10.20084 -0.1375,-0.0387 -4.08663,-0.88007 -8.77585,-1.86971 z m 25.02585,-8.44731 v -10.15502 l 6.07891,-1.15525 c 6.36226,-1.2091 19.21341,-6.81393 23.6809,-10.32805 l 2.61037,-2.05332 6.81491,6.76269 c 3.7482,3.71948 6.81491,7.09549 6.81491,7.50225 0,1.02338 -10.44089,8.00762 -16.5,11.03737 -6.53812,3.26926 -13.39835,5.47633 -22.2858,7.16975 l -7.2142,1.37461 z m -77.33067,-25.22838 c -7.18668,-9.90185 -13.57127,-25.55751 -15.14385,-37.13424 l -0.71316,-5.25 h 9.98255 9.98255 l 0.65982,3.75 c 1.25687,7.1432 4.66764,16.05016 8.71734,22.76466 l 4.06826,6.74526 -7.00428,7.00428 -7.00429,7.00429 z m 127.94893,-2.26506 -6.82809,-6.88082 4.06175,-6.73449 c 4.04392,-6.70491 7.45454,-15.61389 8.71084,-22.75387 l 0.65982,-3.75 h 9.98255 9.98255 l -0.71316,5.25 c -1.58144,11.64191 -7.94327,27.17152 -15.1565,36.9979 -1.9186,2.61366 -3.5746,4.7521 -3.68001,4.7521 -0.10541,0 -3.26429,-3.09637 -7.01975,-6.88082 z m -68.56182,0.8563 c -6.41053,-1.35217 -17.8494,-7.11366 -22.96798,-11.56845 -5.85132,-5.09248 -11.6471,-14.24032 -14.15068,-22.3349 -2.31143,-7.47329 -2.7331,-20.40483 -0.88871,-27.25436 4.67853,-17.37473 20.19235,-32.05123 37.75015,-35.71269 30.62524,-6.38649 59.23958,16.72947 59.28724,47.89492 0.0335,21.87525 -12.72779,40.1206 -32.98031,47.1535 -6.50133,2.25766 -19.63064,3.17595 -26.04971,1.82198 z m -74.51535,-61.72548 c 1.64401,-11.76705 9.89124,-30.86551 16.74618,-38.77982 l 2.21273,-2.55469 6.85492,6.92308 6.85491,6.92307 -4.13751,6.86009 c -3.737,6.19603 -9.07232,20.26891 -9.07232,23.92989 0,1.16854 -1.94396,1.44838 -10.06127,1.44838 h -10.06128 z m 148.96843,1.5 c -1.44144,-7.21396 -4.81198,-15.87777 -8.6576,-22.25387 l -4.06175,-6.73449 6.85491,-6.92307 6.85492,-6.92308 2.21273,2.55469 c 6.85494,7.91431 15.10217,27.01277 16.74618,38.77982 l 0.66364,4.75 h -9.98182 -9.98182 z m -112.53841,-47.30247 -6.47111,-6.55246 3.5,-2.97681 c 7.64132,-6.49908 25.37686,-13.76712 39.78478,-16.30384 l 3.28479,-0.57833 -0.28479,10.20623 -0.28478,10.20624 -4.01009,0.68262 c -6.44666,1.09738 -15.55558,4.62509 -21.64064,8.381 -3.1079,1.9183 -6.0459,3.48782 -6.52889,3.48782 -0.48298,0 -3.79016,-2.94861 -7.34927,-6.55247 z m 81.3814,2.67703 c -5.77043,-3.54944 -16.72336,-7.62491 -22.35251,-8.31713 -2.46221,-0.30278 -2.5043,-0.46209 -2.78478,-10.53939 l -0.28479,-10.23195 3.28479,0.57833 c 14.4648,2.54674 32.31044,9.83085 39.78478,16.23909 l 3.5,3.00078 -6.47111,6.57286 c -3.55911,3.61507 -6.93411,6.55168 -7.5,6.52581 -0.56589,-0.0259 -3.79526,-1.74865 -7.17638,-3.8284 z m 128.60805,110.89655 c 3.75891,-2.01171 4.03944,-5.84656 4.03944,-55.21999 0,-50.47398 -0.17005,-52.50119 -4.5448,-54.17994 -3.17514,-1.21841 -7.48671,-0.58967 -9.4552,1.37882 -1.94822,1.94822 -2,3.33333 -2,53.5 0,50.16667 0.0518,51.55178 2,53.5 2.14491,2.14491 6.94185,2.63667 9.96056,1.02111 z m -366.96056,32.47889 v -20.5 h 9 9 v 20.5 20.5 h -9 -9 z m 0,-174 v -20.5 h 9 9 v 20.5 20.5 h -9 -9 z"
       id="path212" />
  </g>
</svg>
