<?xml version="1.0" standalone="no"?>
<!DOCTYPE svg PUBLIC "-//W3C//DTD SVG 20010904//EN"
 "http://www.w3.org/TR/2001/REC-SVG-20010904/DTD/svg10.dtd">
<svg version="1.0" xmlns="http://www.w3.org/2000/svg"
 width="512.000000pt" height="512.000000pt" viewBox="0 0 512.000000 512.000000"
 preserveAspectRatio="xMidYMid meet">

<g transform="translate(0.000000,512.000000) scale(0.100000,-0.100000)"
fill="#000000" stroke="none">
<path d="M2406 4939 c-143 -21 -288 -73 -422 -152 -66 -39 -118 -81 -204 -167
-126 -126 -195 -228 -250 -372 -65 -169 -80 -266 -80 -540 l0 -208 85 0 85 0
0 194 c0 219 10 314 47 431 132 419 559 698 992 647 106 -12 236 -49 316 -90
200 -100 378 -293 454 -491 57 -147 63 -187 68 -448 l5 -243 85 0 85 0 -5 253
c-5 278 -18 354 -86 518 -70 168 -208 345 -360 460 -217 165 -542 248 -815
208z"/>
<path d="M1305 3321 c-98 -24 -194 -135 -195 -223 l0 -28 629 -2 c618 -3 630
-3 657 -24 54 -40 69 -70 74 -152 l5 -77 35 1 c19 1 83 -2 142 -7 360 -31 670
-245 828 -574 79 -164 95 -239 95 -440 0 -146 -3 -182 -23 -255 -30 -112 -106
-268 -170 -353 -29 -37 -52 -70 -52 -73 0 -2 153 -4 340 -4 l340 0 0 1008 c0
991 -1 1008 -21 1052 -25 55 -71 105 -124 133 l-40 22 -1245 2 c-685 0 -1258
-2 -1275 -6z"/>
<path d="M387 2904 c-114 -92 -207 -170 -205 -175 3 -9 405 -329 413 -329 3 0
5 25 5 55 0 46 4 60 25 80 l24 25 617 0 617 0 51 39 c80 62 183 118 278 152
l88 32 0 58 0 59 -815 0 c-575 0 -821 3 -838 11 -33 15 -46 43 -49 107 l-3 52
-208 -166z"/>
<path d="M2474 2638 c-188 -15 -357 -94 -503 -232 -110 -105 -176 -211 -227
-366 -25 -78 -28 -98 -28 -240 -1 -168 9 -227 61 -344 105 -239 303 -412 558
-487 109 -31 276 -36 399 -11 279 58 513 256 619 522 68 173 76 394 18 570
-93 286 -327 503 -613 569 -100 23 -176 28 -284 19z m143 -190 c11 -13 23 -35
26 -49 5 -19 16 -29 46 -38 55 -16 144 -100 176 -166 15 -31 29 -79 32 -112 5
-53 3 -62 -19 -88 -51 -58 -148 -22 -148 55 0 140 -173 218 -277 127 -63 -56
-79 -127 -44 -203 27 -60 68 -84 159 -96 102 -12 180 -48 238 -110 69 -74 89
-125 89 -233 0 -84 -2 -95 -34 -153 -40 -74 -104 -134 -167 -158 -36 -14 -46
-23 -51 -46 -7 -35 -47 -68 -83 -68 -36 0 -76 33 -83 68 -5 23 -15 32 -54 47
-60 23 -141 103 -172 170 -13 28 -26 78 -29 112 -4 56 -2 64 21 87 58 58 147
15 147 -71 0 -39 39 -103 79 -130 47 -32 135 -32 182 0 87 58 104 182 36 255
-34 37 -71 52 -150 62 -134 17 -218 72 -278 182 -32 58 -34 69 -34 153 0 78 4
97 28 147 34 69 122 153 178 169 30 9 41 19 46 38 10 43 42 71 83 71 25 0 43
-7 57 -22z"/>
<path d="M1110 1383 c0 -992 1 -1009 21 -1053 25 -55 71 -105 124 -133 l40
-22 1265 0 1265 0 40 22 c76 41 144 137 145 206 l0 27 -624 0 -623 0 -34 23
c-18 12 -44 38 -56 56 -21 30 -23 46 -23 147 l0 114 -94 0 c-199 0 -396 61
-573 176 -82 54 -222 196 -278 282 -108 168 -155 316 -162 517 -8 219 34 394
137 565 l48 80 -309 0 -309 0 0 -1007z"/>
<path d="M4520 1045 c0 -46 -4 -60 -25 -80 l-24 -25 -670 0 -669 0 -79 -42
c-43 -24 -112 -54 -153 -69 l-75 -27 -3 -101 -3 -101 820 0 819 0 31 -25 c26
-23 30 -33 33 -87 l3 -60 212 170 212 169 -201 159 c-110 88 -207 163 -214
167 -11 6 -14 -4 -14 -48z"/>
</g>
</svg>
