<?xml version="1.0" standalone="no"?>
<!DOCTYPE svg PUBLIC "-//W3C//DTD SVG 20010904//EN"
 "http://www.w3.org/TR/2001/REC-SVG-20010904/DTD/svg10.dtd">
<svg version="1.0" xmlns="http://www.w3.org/2000/svg"
 width="512.000000pt" height="512.000000pt" viewBox="0 0 512.000000 512.000000"
 preserveAspectRatio="xMidYMid meet">

<g transform="translate(0.000000,512.000000) scale(0.100000,-0.100000)"
fill="#000000" stroke="none">
<path d="M1990 5104 c-72 -31 -112 -89 -113 -163 0 -37 29 -117 156 -423 98
-234 157 -390 157 -411 0 -62 -71 -103 -128 -73 -32 16 -36 26 -218 464 l-67
162 -114 0 c-94 0 -121 -4 -153 -20 -73 -37 -112 -129 -88 -206 7 -23 92 -166
188 -318 l175 -276 775 1 775 0 165 260 c91 144 174 277 184 297 43 81 15 184
-63 233 -43 28 -50 29 -161 29 l-117 0 -67 -162 c-182 -438 -186 -448 -218
-464 -57 -30 -128 11 -128 73 0 21 59 177 156 410 126 303 156 385 156 423 0
75 -40 133 -114 165 -55 22 -1085 22 -1138 -1z"/>
<path d="M3934 4202 c-40 -6 -65 -45 -75 -118 -12 -91 -32 -149 -75 -220 -42
-71 -102 -134 -165 -175 l-46 -29 -1044 0 c-974 0 -1046 -1 -1078 -18 -105
-53 -105 -186 -1 -239 42 -22 56 -23 275 -23 241 -1 250 -2 273 -47 19 -34 14
-69 -12 -100 l-24 -28 -173 -5 -174 -5 -78 -100 c-209 -267 -396 -565 -552
-880 -278 -561 -385 -1029 -330 -1448 18 -139 44 -227 96 -328 80 -153 206
-276 363 -353 178 -87 73 -81 1446 -81 1155 0 1218 1 1285 19 283 75 498 281
584 560 27 87 51 271 51 389 0 549 -282 1266 -763 1940 -60 83 -133 182 -163
220 l-55 67 -529 0 -528 0 -31 26 c-41 34 -44 92 -6 129 l24 25 629 0 c690 0
679 1 789 -61 69 -40 154 -134 192 -213 33 -70 52 -86 101 -86 38 0 90 47 90
82 0 34 -51 135 -104 205 -73 97 -200 184 -324 223 -29 9 -54 19 -55 22 -1 3
21 25 50 47 135 108 240 318 245 489 1 52 -2 66 -21 86 -23 25 -51 34 -87 28z
m-1974 -2477 c34 -18 50 -43 50 -80 0 -76 -45 -95 -224 -95 l-135 0 -3 -381
-3 -381 -33 -29 c-36 -32 -60 -36 -101 -15 -49 26 -51 39 -51 436 l0 370 -135
0 c-145 0 -194 11 -214 48 -25 47 -4 113 43 132 11 5 191 9 399 9 318 1 383
-1 407 -14z m655 -10 c31 -19 409 -878 401 -911 -14 -55 -74 -86 -126 -64 -31
13 -41 31 -119 203 l-30 67 -182 -2 -183 -3 -51 -114 c-51 -114 -88 -161 -126
-161 -35 0 -76 28 -89 60 -16 38 -31 -3 203 526 162 365 175 390 208 406 34
18 58 16 94 -7z m737 -2 c10 -9 62 -83 115 -165 53 -82 100 -145 103 -141 4 5
53 76 108 159 111 167 135 188 192 164 17 -7 37 -22 45 -34 32 -45 20 -73
-111 -269 -69 -104 -123 -195 -120 -202 3 -8 59 -95 125 -194 85 -127 121
-189 121 -209 0 -38 -33 -79 -68 -87 -56 -12 -77 7 -188 175 l-107 160 -102
-152 c-56 -84 -110 -160 -120 -168 -10 -8 -35 -15 -57 -15 -31 0 -45 7 -64 28
-42 49 -34 71 97 268 66 100 123 188 126 196 3 7 -51 99 -121 204 -69 105
-126 199 -126 209 0 81 93 126 152 73z"/>
<path d="M2510 1308 c-25 -56 -46 -105 -48 -110 -2 -4 42 -8 98 -8 56 0 100 4
98 8 -28 69 -94 212 -98 212 -3 0 -26 -46 -50 -102z"/>
</g>
</svg>
