<?xml version="1.0" standalone="no"?>
<!DOCTYPE svg PUBLIC "-//W3C//DTD SVG 20010904//EN"
 "http://www.w3.org/TR/2001/REC-SVG-20010904/DTD/svg10.dtd">
<svg version="1.0" xmlns="http://www.w3.org/2000/svg"
 width="512.000000pt" height="512.000000pt" viewBox="0 0 512.000000 512.000000"
 preserveAspectRatio="xMidYMid meet">

<g transform="translate(0.000000,512.000000) scale(0.100000,-0.100000)"
fill="#000000" stroke="none">
<path d="M3385 4789 c-221 -43 -405 -163 -525 -340 -96 -140 -130 -255 -137
-461 l-5 -148 81 0 81 0 0 113 c1 218 56 364 189 498 252 251 651 252 901 0
134 -135 189 -281 190 -498 l0 -113 81 0 81 0 -5 148 c-7 198 -38 310 -127
445 -112 173 -271 287 -480 344 -68 18 -258 25 -325 12z"/>
<path d="M1471 4403 l-202 -318 126 -3 125 -3 0 -399 0 -400 160 0 160 0 0
400 0 399 125 3 126 3 -200 315 c-111 173 -205 316 -209 318 -5 1 -100 -140
-211 -315z"/>
<path d="M2425 3655 l-25 -24 0 -831 0 -831 25 -24 24 -25 1071 0 1071 0 24
25 25 24 0 831 0 831 -25 24 -24 25 -1071 0 -1071 0 -24 -25z m1218 -66 c429
-66 730 -472 668 -899 -84 -570 -719 -871 -1207 -571 -416 256 -509 814 -198
1192 175 214 459 321 737 278z"/>
<path d="M3382 3425 c-286 -62 -502 -331 -502 -625 0 -273 189 -529 450 -611
223 -70 469 -8 641 161 251 249 251 649 0 901 -156 155 -376 220 -589 174z
m193 -90 c21 -20 25 -34 25 -83 l0 -59 43 -12 c75 -22 142 -74 171 -132 33
-68 34 -112 1 -144 -47 -48 -120 -23 -134 45 -13 63 -103 101 -205 86 -53 -8
-110 -44 -114 -72 -6 -42 74 -83 164 -84 69 0 169 -32 221 -70 49 -36 93 -117
93 -170 0 -60 -44 -133 -103 -173 -29 -20 -71 -41 -94 -48 l-43 -12 0 -59 c0
-49 -4 -63 -25 -83 -32 -33 -78 -33 -110 0 -21 20 -25 34 -25 83 l0 59 -42 12
c-73 21 -144 76 -173 134 -32 66 -33 110 0 142 47 48 120 23 134 -45 13 -63
103 -101 205 -86 53 8 110 44 114 72 6 42 -74 83 -164 84 -69 0 -169 32 -221
70 -49 36 -93 117 -93 170 0 20 12 60 26 89 29 58 96 110 172 132 l42 12 0 59
c0 49 4 63 25 83 15 16 36 25 55 25 19 0 40 -9 55 -25z"/>
<path d="M720 3200 l0 -400 -121 0 c-66 0 -119 -4 -117 -8 8 -21 392 -562 398
-562 6 0 390 541 398 562 2 4 -51 8 -117 8 l-121 0 0 400 0 400 -160 0 -160 0
0 -400z"/>
<path d="M960 960 l0 -640 240 0 240 0 0 640 0 640 -240 0 -240 0 0 -640z"/>
<path d="M4575 1523 c-11 -2 -204 -111 -430 -241 l-410 -237 -6 -55 c-17 -161
-137 -277 -294 -288 -66 -4 -101 4 -490 108 -579 154 -584 156 -606 175 -30
28 -26 88 7 114 15 12 34 21 44 21 9 0 235 -58 501 -130 266 -71 502 -130 524
-130 116 0 191 127 136 230 -26 51 -65 72 -182 104 -57 15 -338 90 -625 167
-424 113 -533 139 -587 139 -49 0 -134 -17 -312 -61 l-245 -61 0 -424 0 -424
108 -54 c59 -29 132 -59 162 -65 40 -9 231 -12 715 -9 768 4 648 -16 950 157
1024 590 1189 688 1208 715 13 19 22 50 25 85 3 46 0 62 -20 90 -37 56 -113
88 -173 74z"/>
<path d="M320 960 l0 -480 240 0 240 0 0 480 0 480 -240 0 -240 0 0 -480z"/>
</g>
</svg>
