<?xml version="1.0" standalone="no"?>
<!DOCTYPE svg PUBLIC "-//W3C//DTD SVG 20010904//EN"
 "http://www.w3.org/TR/2001/REC-SVG-20010904/DTD/svg10.dtd">
<svg version="1.0" xmlns="http://www.w3.org/2000/svg"
 width="512.000000pt" height="512.000000pt" viewBox="0 0 512.000000 512.000000"
 preserveAspectRatio="xMidYMid meet">

<g transform="translate(0.000000,512.000000) scale(0.100000,-0.100000)"
fill="#000000" stroke="none">
<path d="M2863 5105 c-128 -35 -99 -8 -1156 -1063 -1068 -1068 -1038 -1035
-1022 -1119 6 -33 40 -72 245 -278 131 -132 243 -250 249 -262 6 -12 11 -41
11 -65 0 -106 -105 -176 -207 -137 -15 5 -134 115 -263 244 -129 129 -248 239
-263 244 -76 29 -122 4 -263 -141 -117 -120 -153 -175 -179 -275 -27 -102 -14
-216 36 -316 29 -59 1814 -1846 1879 -1881 132 -72 286 -73 425 -4 81 41 288
243 311 304 33 86 29 92 -236 359 -131 132 -243 253 -249 268 -39 102 31 207
137 207 24 0 53 -5 65 -11 12 -6 130 -118 262 -249 266 -264 273 -269 358
-236 62 23 2023 1987 2061 2063 71 142 72 290 5 426 -29 59 -1814 1846 -1879
1881 -98 53 -223 69 -327 41z m-22 -948 c19 -12 42 -38 51 -57 21 -40 440
-2136 440 -2193 -1 -21 -9 -52 -19 -70 -24 -43 -102 -81 -146 -73 -45 9 -94
40 -111 73 -21 42 -449 2191 -442 2225 20 101 142 152 227 95z m-577 -757 c83
-26 177 -96 229 -170 86 -124 103 -308 40 -443 -63 -134 -192 -232 -340 -257
-240 -40 -484 142 -511 382 -38 334 262 586 582 488z m1747 -22 c284 -141 347
-495 128 -720 -172 -176 -458 -177 -632 -2 -240 239 -143 638 181 745 43 15
80 18 153 16 88 -2 103 -6 170 -39z m-2484 -1349 c36 -13 478 -453 498 -495
35 -74 6 -161 -65 -196 -45 -23 -92 -23 -138 1 -47 25 -477 457 -491 494 -48
126 70 244 196 196z"/>
<path d="M2053 3104 c-69 -35 -97 -137 -56 -206 54 -92 198 -95 254 -5 16 25
19 45 16 90 -3 51 -8 62 -39 94 -31 31 -44 37 -90 40 -36 2 -63 -2 -85 -13z"/>
<path d="M3739 3097 c-44 -29 -74 -100 -65 -151 16 -82 105 -138 184 -116 47
13 64 26 91 70 79 130 -84 282 -210 197z"/>
</g>
</svg>
