<?xml version="1.0" encoding="UTF-8" standalone="no"?>
<!-- Created with Inkscape (http://www.inkscape.org/) -->

<svg
   width="135.90009mm"
   height="136.18448mm"
   viewBox="0 0 135.90009 136.18448"
   version="1.1"
   id="svg5"
   xml:space="preserve"
   xmlns:inkscape="http://www.inkscape.org/namespaces/inkscape"
   xmlns:sodipodi="http://sodipodi.sourceforge.net/DTD/sodipodi-0.dtd"
   xmlns="http://www.w3.org/2000/svg"
   xmlns:svg="http://www.w3.org/2000/svg"><sodipodi:namedview
     id="namedview7"
     pagecolor="#505050"
     bordercolor="#eeeeee"
     borderopacity="1"
     inkscape:showpageshadow="0"
     inkscape:pageopacity="0"
     inkscape:pagecheckerboard="0"
     inkscape:deskcolor="#505050"
     inkscape:document-units="mm"
     showgrid="false" /><defs
     id="defs2" /><g
     inkscape:label="Layer 1"
     inkscape:groupmode="layer"
     id="layer1"
     transform="translate(-81.082216,245.60835)"><path
       style="fill:#020202;stroke:none;stroke-width:0.264583"
       d="m 137.65518,-245.01182 c -3.24485,0.77427 -4.57755,5.64073 -7.14375,7.65963 -1.78832,1.40697 -3.85154,2.26528 -6.08541,2.66015 -1.84574,0.32625 -3.7346,0.0236 -4.9919,1.75918 -2.05687,2.83983 -0.82894,9.27288 -0.82894,12.651 0,12.63888 -0.39846,24.88195 7.25594,35.71875 4.2791,6.05816 10.0076,11.04688 16.82115,14.05943 2.30954,1.02129 5.10063,2.45374 7.67291,1.84229 14.31608,-3.40307 25.13224,-16.81347 28.19823,-30.71839 1.22317,-5.54804 0.90594,-11.29109 0.90594,-16.93333 v -10.84791 c 0,-1.70508 0.29263,-3.71833 -0.52917,-5.28106 -1.6092,-3.06028 -7.22312,-2.26023 -10.05417,-3.99754 -1.63459,-1.00316 -3.12552,-2.36254 -4.20872,-3.95057 -0.9226,-1.35316 -1.51157,-3.19842 -2.95963,-4.09226 -1.83277,-1.13121 -4.5302,-0.67024 -6.58998,-0.67024 -5.40914,0 -12.20576,-1.11353 -17.4625,0.14087 m 7.40834,40.07579 6.87916,-6.87916 c 1.9222,-1.9222 4.06188,-4.9575 6.61458,-6.02509 3.10833,-1.29987 6.00393,1.23348 5.49963,4.43759 -0.31194,1.98279 -2.31298,3.42794 -3.64754,4.7625 l -9.78959,9.78958 c -1.43033,1.43034 -2.84453,3.33084 -5.02708,3.42715 -2.97365,0.13123 -4.97893,-2.84983 -6.87916,-4.75007 -1.72562,-1.72561 -4.63286,-3.6994 -4.75007,-6.35 -0.1225,-2.77495 2.53286,-5.07708 5.27923,-3.96636 2.16112,0.87418 4.5048,3.68538 5.82084,5.55386 m -37.83542,23.92575 c -2.46219,0.35348 -4.81404,1.23295 -6.87917,2.62784 -12.558549,8.48122 -4.851793,29.58094 10.31875,27.60953 2.43761,-0.31697 4.81595,-1.15358 6.87917,-2.48973 13.00348,-8.42221 5.10725,-29.96247 -10.31875,-27.74764 m 79.90416,0 c -2.46221,0.35348 -4.81409,1.23295 -6.87916,2.62784 -12.55845,8.48122 -4.85193,29.58094 10.31875,27.60953 2.4376,-0.31697 4.81594,-1.15358 6.87916,-2.48973 13.00348,-8.42221 5.10725,-29.96247 -10.31875,-27.74764 m -39.68749,18.52374 c -2.34448,0.36618 -4.47596,1.1856 -6.34974,2.66673 -9.55913,7.55597 -2.68182,24.14297 9.52473,22.23638 2.34448,-0.36618 4.47596,-1.1856 6.34974,-2.66674 9.55913,-7.55597 2.68182,-24.14296 -9.52473,-22.23637 m -54.768752,13.11301 c -9.385982,7.61762 -11.377083,16.79469 -11.377083,28.31042 0,3.02577 -1.15729,8.83338 1.876785,10.70689 2.564987,1.5838 7.374265,0.67019 10.294048,0.67019 h 25.135412 c 0,-8.80031 -0.28522,-17.02276 4.39314,-24.87083 1.52586,-2.55932 3.4851,-4.82759 5.66103,-6.85536 0.78211,-0.72892 2.44978,-1.65629 1.96268,-2.93422 -0.52493,-1.3769 -3.77217,-4.92919 -5.40226,-4.66434 -1.07157,0.17409 -2.05291,1.4044 -2.91042,2.00739 -1.72403,1.21206 -3.5769,2.18784 -5.55625,2.90724 -5.8846,2.13863 -12.41041,1.6555 -17.991666,-1.14194 -2.231972,-1.11892 -3.993753,-2.82734 -6.085416,-4.13544 m 86.783332,39.6875 h 25.13541 c 2.91968,0 7.72901,0.91361 10.29415,-0.67019 3.03397,-1.87351 1.87668,-7.68112 1.87668,-10.70689 0,-11.48186 -1.98252,-20.73751 -11.37708,-28.31042 -2.17937,1.36287 -4.02246,3.12023 -6.35,4.28387 -5.41417,2.70722 -12.0515,3.12473 -17.72708,0.9906 -1.96612,-0.73925 -3.83646,-1.69518 -5.55625,-2.90433 -0.85751,-0.60299 -1.83885,-1.8333 -2.91042,-2.00739 -1.63115,-0.26485 -4.87574,3.28718 -5.40226,4.66407 -0.48101,1.25756 1.19962,2.19101 1.96268,2.921 2.15662,2.06322 4.12829,4.29789 5.66103,6.86885 4.67254,7.83828 4.39314,16.07899 4.39314,24.87083 m -52.91667,0 h 44.97917 c 0,-7.18238 0.65934,-14.49678 -3.22898,-20.90208 -0.91122,-1.50098 -2.15344,-3.58643 -3.69517,-4.51168 -1.42504,-0.85539 -2.8747,1.11469 -3.92377,1.85447 -2.94481,2.07618 -6.47832,3.32898 -10.05417,3.67056 -3.96769,0.37915 -7.89728,-0.69056 -11.37708,-2.54317 -1.41552,-0.75354 -3.42556,-3.17156 -5.01676,-3.21204 -1.79705,-0.0458 -3.82323,3.68088 -4.61301,5.00644 -3.75841,6.3082 -3.07023,13.59588 -3.07023,20.6375 z"
       id="path2867" /></g></svg>
