<?xml version="1.0" encoding="UTF-8" standalone="no"?>
<!-- Created with Inkscape (http://www.inkscape.org/) -->

<svg
   width="118.09592mm"
   height="125.94167mm"
   viewBox="0 0 118.09592 125.94167"
   version="1.1"
   id="svg5"
   xml:space="preserve"
   xmlns:inkscape="http://www.inkscape.org/namespaces/inkscape"
   xmlns:sodipodi="http://sodipodi.sourceforge.net/DTD/sodipodi-0.dtd"
   xmlns="http://www.w3.org/2000/svg"
   xmlns:svg="http://www.w3.org/2000/svg"><sodipodi:namedview
     id="namedview7"
     pagecolor="#505050"
     bordercolor="#eeeeee"
     borderopacity="1"
     inkscape:showpageshadow="0"
     inkscape:pageopacity="0"
     inkscape:pagecheckerboard="0"
     inkscape:deskcolor="#505050"
     inkscape:document-units="mm"
     showgrid="false" /><defs
     id="defs2" /><g
     inkscape:label="Layer 1"
     inkscape:groupmode="layer"
     id="layer1"
     transform="translate(313.29057,221.93858)"><path
       style="fill:#020202;stroke:none;stroke-width:0.264583"
       d="m -225.48952,-221.93858 -1.78462,3.4159 5.2242,4.83111 7.97454,9.48007 3.75418,5.51392 3.61711,-1.28058 c -1.8161,-6.29246 -7.90839,-12.45918 -12.43541,-16.93233 -1.78964,-1.76824 -3.9796,-4.11004 -6.35,-5.02809 m -45.24375,100.54166 -3.96875,-12.17083 h -14.02291 c -3.02657,0 -5.65177,0.22093 -7.92607,-2.12064 -3.20744,-3.30279 -1.86352,-10.0203 -1.86352,-14.28353 v -35.98333 c 0,-4.45743 -1.23497,-10.42961 2.38228,-13.73055 3.14593,-2.87105 9.52635,-1.61528 13.49272,-1.61528 h 35.18958 c 4.11745,0 11.02863,-1.35792 14.28644,1.61528 4.42119,4.03463 2.38231,14.28485 2.38231,19.81597 5.05249,0.21696 9.70492,2.3278 14.2875,4.23333 -0.11192,-5.41787 -2.30558,-11.09213 -4.69715,-15.875 -13.86469,-27.72912 -51.10744,-35.1189 -74.67784,-15.22965 -12.97845,10.95134 -19.44553,28.11989 -16.86066,44.86298 0.87974,5.69833 3.90793,10.61853 5.00523,16.13959 1.11601,5.61498 -2.70491,13.09422 -4.11776,18.52083 -0.45326,1.74096 -2.30357,5.36046 -0.13761,6.56696 1.63081,0.90858 3.8432,-0.76518 5.26288,-1.47453 3.73555,-1.86663 8.27839,-4.92945 12.43542,-5.54196 3.95922,-0.5834 6.85138,1.37531 10.31874,2.86438 4.01664,1.72508 8.82068,3.36947 13.22917,3.40598 m -4.49792,-16.40416 c 0,-22.52822 16.82486,-42.33334 40.21667,-42.33334 v -11.37708 c 0,-1.39038 0.37677,-3.48271 -0.53155,-4.65825 -1.44462,-1.86955 -6.86038,-0.898 -8.99345,-0.898 h -26.45833 v 21.16667 h -16.93333 v -21.16667 c -1.70498,0 -4.92919,-0.62918 -5.96451,1.11496 -0.64637,1.08876 -0.38549,2.70033 -0.38549,3.91212 v 8.20209 30.95625 10.05416 c 0,1.27106 -0.30031,3.05224 0.53154,4.12909 1.0504,1.35943 3.52478,0.898 5.02471,0.898 h 13.49374 m -8.46666,-59.26667 v 16.93333 h 8.46666 v -16.93333 h -8.46666 m 76.19999,5.02708 2.64584,8.20209 3.96875,-1.05834 -2.64584,-8.73124 -3.96875,1.58749 m -30.16249,16.25177 c -6.74556,0.88847 -12.92411,2.65377 -18.52084,6.69952 -17.58526,12.7119 -19.16086,37.62216 -5.21599,53.51329 7.73271,8.81169 19.9771,12.72382 31.40974,11.30142 4.65852,-0.57971 9.28344,-3.57294 14.02292,-2.74929 4.79795,0.83344 9.74301,3.42715 14.2875,5.15541 1.47399,0.56038 4.1693,2.186778 5.76051,1.80737 1.87801,-0.44794 -0.45694,-4.7035 -0.84561,-5.72532 -1.92352,-5.05619 -6.20633,-11.94832 -5.66341,-17.4625 0.22622,-2.30002 1.3298,-4.41166 1.95845,-6.61458 1.08294,-3.79519 1.68248,-7.95761 1.41208,-11.90625 -1.30546,-19.06614 -18.59968,-36.65353 -38.60535,-34.01907 m 6.87916,44.33782 c 1.30281,0 2.67573,-0.12304 3.96875,0.0497 2.84692,0.38047 4.39896,3.49435 3.19617,6.03567 -1.87008,3.95208 -6.99982,7.50782 -10.07533,10.58333 -2.27357,2.27357 -4.22037,4.76198 -7.67292,4.76198 -3.45255,0 -5.39935,-2.48841 -7.67292,-4.76198 -3.07551,-3.07551 -8.20525,-6.63151 -10.07533,-10.58333 -1.2028,-2.54132 0.34925,-5.6552 3.19617,-6.03567 1.29302,-0.17278 2.66567,-0.0497 3.96875,-0.0497 v -22.48959 c 0,-2.99587 -0.78529,-7.32525 0.64611,-10.05416 2.24869,-4.28705 7.22445,-3.43959 11.26014,-3.43959 1.73355,0 3.63907,-0.21775 5.29166,0.41355 1.29117,0.49345 2.46063,1.58776 3.17368,2.76145 1.57665,2.5961 0.79507,6.87044 0.79507,9.78959 v 23.01875 m -16.93333,4.23333 h -7.40833 c 2.54793,3.61685 6.39683,6.66141 9.525,9.78958 1.10199,1.10199 2.50613,3.11732 4.23333,3.11732 1.7272,0 3.13134,-2.01533 4.23333,-3.11732 3.12817,-3.12817 6.97706,-6.17273 9.525,-9.78958 h -7.40833 v -25.92917 c 0,-2.24049 0.98425,-7.66603 -0.70194,-9.35222 -0.78343,-0.78343 -1.98385,-0.70036 -3.00223,-0.70194 -2.19577,-0.004 -7.93644,-1.06548 -8.82306,1.59887 -0.99007,2.97577 -0.17277,7.44115 -0.17277,10.57196 v 23.8125 m 29.63333,-27.51667 v 4.23334 h -4.23333 v -4.23334 h 4.23333 m 6.87917,0.79375 3.175,2.38125 c -2.41803,6.28624 -8.87227,11.4763 -12.43542,17.19792 l -3.43958,-2.38125 4.7961,-6.87917 7.9039,-10.31875 m 1.5875,16.13959 v 4.23333 h -4.23334 v -4.23333 h 4.23334 m -64.02917,30.95624 h 0.26459 l 2.91041,-2.38125 c -0.4064,-1.20544 -1.65735,-3.44778 -2.93422,-3.90207 -0.97155,-0.34555 -3.03954,1.05331 -3.12024,2.0738 -0.10874,1.37346 2.07672,3.22051 2.87946,4.20952 m 13.75834,10.84792 1.85208,-3.439583 c -2.26272,-1.497277 -4.51273,-2.931057 -6.61458,-4.660637 -0.68898,-0.567 -1.67905,-1.89971 -2.64584,-1.89918 -1.26312,5.3e-4 -3.13266,2.17779 -2.2815,3.33984 1.80314,2.463 6.66724,6.113989 9.68984,6.65956 z"
       id="path2871" /></g></svg>
