<?xml version="1.0" encoding="UTF-8" standalone="no"?>
<!-- Created with Inkscape (http://www.inkscape.org/) -->

<svg
   width="116.29092mm"
   height="116.30717mm"
   viewBox="0 0 116.29092 116.30717"
   version="1.1"
   id="svg5"
   xml:space="preserve"
   xmlns:inkscape="http://www.inkscape.org/namespaces/inkscape"
   xmlns:sodipodi="http://sodipodi.sourceforge.net/DTD/sodipodi-0.dtd"
   xmlns="http://www.w3.org/2000/svg"
   xmlns:svg="http://www.w3.org/2000/svg"><sodipodi:namedview
     id="namedview7"
     pagecolor="#505050"
     bordercolor="#eeeeee"
     borderopacity="1"
     inkscape:showpageshadow="0"
     inkscape:pageopacity="0"
     inkscape:pagecheckerboard="0"
     inkscape:deskcolor="#505050"
     inkscape:document-units="mm"
     showgrid="false" /><defs
     id="defs2" /><g
     inkscape:label="Layer 1"
     inkscape:groupmode="layer"
     id="layer1"
     transform="translate(495.30677,217.12135)"><path
       style="fill:#020202;stroke:none;stroke-width:0.264583"
       d="m -459.65087,-212.94275 -3.90393,8.46667 -2.44739,3.39222 -3.96743,0.32237 -8.46667,0.51874 -0.51874,8.46667 -0.32237,3.96743 -3.39222,2.44818 -8.46667,3.90314 c 0.66633,2.88025 1.91511,5.70441 2.96125,8.46666 0.42505,1.12237 1.32791,2.74717 1.09304,3.96875 -0.76798,3.99468 -7.23974,5.95313 -8.19615,9.78959 -0.30734,1.23269 1.94405,2.87231 2.66665,3.70416 1.27252,1.46474 2.90251,3.87694 4.65042,4.75509 1.81121,0.91017 5.14112,0.272 7.14354,0.272 -1.43758,-11.31597 -0.27411,-22.15806 6.00472,-32.01459 15.74721,-24.71991 51.86071,-28.05961 71.14037,-5.55625 3.95975,4.62201 6.93473,9.8306 8.84423,15.61042 2.41485,7.30885 2.27779,14.44572 1.32318,21.96042 2.00236,0 5.33241,0.63817 7.14348,-0.272 1.7481,-0.87815 3.37794,-3.29035 4.65058,-4.75509 0.72258,-0.83185 2.97392,-2.47147 2.66647,-3.70416 -0.95646,-3.83646 -7.42817,-5.79491 -8.19599,-9.78959 -0.23495,-1.22158 0.66781,-2.84638 1.09299,-3.96875 1.04616,-2.76225 2.295,-5.58641 2.96122,-8.46666 l -8.46667,-3.90393 -3.39222,-2.44739 -0.32226,-3.96743 -0.51885,-8.46667 -8.46667,-0.51874 -3.96743,-0.32237 -2.44739,-3.39222 -3.90393,-8.46667 c -2.96465,0.6862 -5.88168,1.99729 -8.73125,3.06271 -1.13162,0.42312 -2.74849,1.32054 -3.96875,0.92279 -2.52624,-0.82338 -5.18609,-4.37658 -7.14375,-6.14709 -0.67707,-0.61235 -1.63671,-2.01702 -2.64583,-2.01702 -1.00912,0 -1.96876,1.40467 -2.64583,2.01702 -1.95766,1.77051 -4.61751,5.32371 -7.14375,6.14709 -1.25333,0.40854 -2.81676,-0.53202 -3.96875,-0.96279 -2.84851,-1.06524 -5.76686,-2.33688 -8.73125,-3.02271 m -16.93333,62.44167 h 78.84582 c 0.10266,-2.38972 0.73105,-4.74398 0.78979,-7.14375 0.16827,-6.85986 -1.30572,-14.03668 -4.57571,-20.10834 -13.1437,-24.404 -47.64563,-28.75436 -65.98761,-7.67291 -5.8965,6.7773 -9.46203,15.61862 -9.85573,24.60625 -0.15319,3.50017 0.51012,6.85403 0.78344,10.31875 m 50.00624,-31.75 c 3.07076,0 6.35609,-0.508 8.71961,1.86346 3.08054,3.09113 1.86373,9.21596 1.86373,13.21779 0,1.63883 0.18441,3.40704 -0.0863,5.02708 -0.26352,1.57798 -1.07818,2.88422 -2.29605,3.90922 -2.18731,1.84123 -5.28214,1.38245 -7.93644,1.38245 h -17.19792 c -0.71887,3.5306 -8.30897,2.11772 -11.1125,2.11666 -1.42081,-5.3e-4 -3.11467,0.09 -3.58934,-1.59147 -0.5326,-1.88568 -0.11483,-4.39367 -0.11483,-6.34603 v -13.49375 c 0,-1.94098 -0.65934,-5.38956 0.31195,-7.11491 0.69426,-1.23375 2.17831,-1.08664 3.39222,-1.08717 2.4675,-0.001 10.0031,-1.25756 10.84792,1.5875 2.94534,-0.87471 4.46167,-3.67771 4.49686,-6.61458 0.0172,-1.42452 -0.46355,-3.80365 0.64505,-4.91226 1.02208,-1.02235 3.07049,-0.64399 4.38309,-0.64399 1.15993,0 2.32145,-0.0394 3.43958,0.32411 5.28743,1.71794 4.23333,8.06927 4.23333,12.37589 m -8.46666,-8.46667 c 0,5.74093 -2.36617,10.98973 -8.46667,12.43542 v 17.19791 h 16.40417 c 1.69095,0 4.86886,0.60669 6.17722,-0.70194 1.56634,-1.56606 0.70194,-6.23173 0.70194,-8.29389 0,-1.8796 0.73925,-5.79437 -0.70194,-7.23556 -2.21509,-2.21536 -6.70877,0.71358 -9.02732,-1.34593 -2.77733,-2.46724 1.61211,-10.53042 -2.45295,-11.88324 -0.82391,-0.2741 -1.77879,-0.17277 -2.63445,-0.17277 m -19.05,10.58333 v 21.16667 h 6.35 v -21.16667 h -6.35 m -41.01042,33.86667 5.09241,10.31875 1.93866,4.49792 -1.93866,4.49791 -5.09241,10.31875 h 115.8875 l -5.09244,-10.31875 -1.9386,-4.49791 1.9386,-4.49792 5.09244,-10.31875 h -115.8875 m 24.07709,8.46667 v 4.23333 c 2.26351,0 5.31045,-0.5588 7.11517,1.11786 2.53471,2.35479 2.16826,9.92029 -1.29434,11.2784 -1.87299,0.73448 -6.84504,0.87127 -8.71961,0.10742 -1.43748,-0.58579 -1.7354,-2.62758 -0.48048,-3.57611 1.6211,-1.22502 5.65255,-0.4609 7.61259,-0.4609 v -4.23334 c -2.26351,0 -5.31045,0.5588 -7.11518,-1.11786 -2.5347,-2.35479 -2.16826,-9.92029 1.29435,-11.2784 1.87298,-0.73448 6.84503,-0.87127 8.7196,-0.10742 1.43748,0.58579 1.7354,2.62758 0.48049,3.57611 -1.62111,1.22502 -5.65256,0.46091 -7.61259,0.46091 m 14.81666,0 v 4.23333 c 1.51289,0 3.90816,-0.45059 5.26283,0.31194 1.35996,0.76544 1.35996,2.84401 0,3.60945 -1.35467,0.76253 -3.74994,0.31194 -5.26283,0.31194 v 4.23334 c 1.55416,0 9.21808,0.0757 5.706,3.58933 -1.34302,1.34382 -8.65213,1.28932 -9.62739,-0.44317 -0.69903,-1.24196 -0.31194,-3.35386 -0.31194,-4.73366 v -9.525 c 0,-1.35335 -0.32253,-3.21258 0.19632,-4.48628 0.81412,-1.99787 8.33331,-2.10132 9.74301,-0.69056 3.51208,3.51366 -4.15184,3.58934 -5.706,3.58934 m 12.7,12.7 3.175,2.6e-4 c 1.89071,0.01 4.76329,1.92617 2.32093,3.77216 -1.33747,1.01071 -7.53772,1.01071 -8.87519,0 -1.27106,-0.9607 -0.85407,-3.17685 -0.85407,-4.56617 v -10.58334 c 0,-1.31577 -0.35587,-3.28295 0.31194,-4.46907 0.76544,-1.35996 2.84401,-1.35996 3.60945,0 0.63605,1.12977 0.31194,2.95327 0.31194,4.20449 v 4.49792 7.14375 m 12.7,0 3.175,2.6e-4 c 1.89071,0.01 4.76329,1.92617 2.32092,3.77216 -1.33746,1.01071 -7.53771,1.01071 -8.87518,0 -1.27106,-0.9607 -0.85407,-3.17685 -0.85407,-4.56617 v -10.58334 c 0,-1.31577 -0.35587,-3.28295 0.31194,-4.46907 0.76544,-1.35996 2.84401,-1.35996 3.60945,0 0.63605,1.12977 0.31194,2.95327 0.31194,4.20449 v 4.49792 7.14375 m 12.7,-12.7 v 4.23333 c 1.51289,0 3.90816,-0.45059 5.26283,0.31194 1.35995,0.76544 1.35995,2.84401 0,3.60945 -1.35467,0.76253 -3.74994,0.31194 -5.26283,0.31194 v 4.23334 c 1.55416,0 9.21808,0.0757 5.706,3.58933 -1.4097,1.41076 -8.92889,1.30731 -9.74301,-0.69056 -0.51885,-1.2737 -0.19632,-3.13293 -0.19632,-4.48627 v -9.525 c 0,-1.37981 -0.38709,-3.49171 0.31194,-4.73366 0.97525,-1.7325 8.28437,-1.787 9.62739,-0.44318 3.51208,3.51366 -4.15184,3.58934 -5.706,3.58934 m 17.99166,7.40833 c 0.68422,2.3749 3.15252,4.91305 3.11838,7.40807 -0.0251,1.83859 -2.21324,2.70616 -3.54435,1.47293 -2.19023,-2.02882 -2.1127,-6.39233 -4.86569,-7.82267 v 3.96875 c 0,1.12316 0.26194,2.68711 -0.46091,3.64384 -0.94853,1.25492 -2.99032,0.957 -3.5761,-0.48048 -0.54584,-1.33985 -0.19632,-3.32608 -0.19632,-4.75086 v -10.31875 c 0,-1.51606 -0.41831,-3.8518 1.33455,-4.56618 2.67044,-1.08823 7.68668,-0.33231 9.65412,1.73541 2.66197,2.79743 2.18916,8.00179 -1.46368,9.70994 m -5.29166,-7.40833 v 4.23333 c 1.007,0 2.21456,0.15108 3.11838,-0.3855 1.42293,-0.84455 1.24407,-2.91518 -0.23575,-3.58087 -0.87339,-0.39264 -1.94971,-0.26696 -2.88263,-0.26696 m -57.41458,25.39999 3.175,7.40834 c 2.96439,-0.6858 5.88274,-1.95739 8.73125,-3.0226 1.15199,-0.43074 2.71542,-1.37134 3.96875,-0.96282 2.52624,0.82338 5.18609,4.37647 7.14375,6.14706 0.67707,0.61225 1.63671,2.01692 2.64583,2.01692 1.00912,0 1.96876,-1.40467 2.64583,-2.01692 1.95766,-1.77059 4.61751,-5.32368 7.14375,-6.14706 1.22026,-0.39793 2.83713,0.49953 3.96875,0.9226 2.84957,1.06548 5.7666,2.37649 8.73125,3.06282 l 3.175,-7.40834 z"
       id="path2873" /></g></svg>
