<?xml version="1.0" encoding="UTF-8" standalone="no"?>
<!-- Created with Inkscape (http://www.inkscape.org/) -->

<svg
   width="102.11511mm"
   height="131.2868mm"
   viewBox="0 0 102.11511 131.2868"
   version="1.1"
   id="svg5"
   xml:space="preserve"
   xmlns:inkscape="http://www.inkscape.org/namespaces/inkscape"
   xmlns:sodipodi="http://sodipodi.sourceforge.net/DTD/sodipodi-0.dtd"
   xmlns="http://www.w3.org/2000/svg"
   xmlns:svg="http://www.w3.org/2000/svg"><sodipodi:namedview
     id="namedview7"
     pagecolor="#505050"
     bordercolor="#eeeeee"
     borderopacity="1"
     inkscape:showpageshadow="0"
     inkscape:pageopacity="0"
     inkscape:pagecheckerboard="0"
     inkscape:deskcolor="#505050"
     inkscape:document-units="mm"
     showgrid="false" /><defs
     id="defs2" /><g
     inkscape:label="Layer 1"
     inkscape:groupmode="layer"
     id="layer1"
     transform="translate(103.49473,224.35943)"><path
       style="fill:#020202;stroke:none;stroke-width:0.264583"
       d="m -62.305713,-223.94296 c -8.831262,1.17372 -14.853443,8.69442 -20.902082,14.70417 -4.114535,4.08802 -8.5725,7.82867 -12.7,11.9054 -2.150612,2.12434 -4.277065,3.84995 -5.659965,6.61564 -2.75225,5.50439 -1.74837,12.28831 -1.74837,18.25625 v 36.24792 20.90208 c 0,5.68166 -0.24344,10.92623 3.563305,15.610414 5.879676,7.234766 14.530228,6.349999 22.89503,6.349999 h 39.952081 c 6.979443,0 14.540441,0.81333 21.431249,-0.339989 6.5206558,-1.091406 11.9184201,-6.190721 13.4313075,-12.624594 1.26947079,-5.39856 0.327025,-11.92689 0.327025,-17.4625 v -34.925 -39.42291 c 0,-6.5541 0.97472495,-13.45295 -3.1548915,-19.05 -3.1620353,-4.28551 -7.813675,-6.34182 -12.984691,-6.83424 -7.964223,-0.75841 -16.338549,-0.0449 -24.341666,-0.0449 -6.550818,0 -13.61678,-0.75049 -20.108332,0.11229 m 1.5875,10.73563 v 17.19792 c 0,4.25714 0.107421,8.25394 -3.443552,11.29082 -3.26681,2.79427 -6.884193,2.38681 -10.843947,2.21324 -5.88989,-0.2577 -11.834812,-0.80407 -17.727083,-0.80407 0.766234,-3.66368 3.79439,-5.94042 6.35,-8.4656 5.366279,-5.30252 11.068049,-10.27732 16.404166,-15.61148 2.676789,-2.67578 5.212556,-5.73683 9.260416,-5.82083 m 15.081249,8.81822 c 5.653088,-0.99346 12.247562,-0.087 17.991666,-0.087 2.574131,0 6.026944,-0.59558 8.466666,0.2999 4.682067,1.71855 4.609042,8.93062 -0.264583,10.33926 -2.018242,0.58314 -4.528343,0.20876 -6.614583,0.20876 h -12.964583 c -2.469091,0 -5.631656,0.51805 -7.937235,-0.52123 -4.514849,-2.03544 -3.487737,-9.39438 1.322652,-10.23972 m 0,21.69591 c 5.405967,-0.95012 11.705166,-0.0871 17.197916,-0.0871 2.769394,0 6.332273,-0.59161 8.995833,0.21167 4.737629,1.42901 5.086614,8.74553 0.264583,10.31213 -2.039672,0.66278 -4.496329,0.32412 -6.614583,0.32412 h -12.964582 c -2.460625,0 -5.617369,0.51832 -7.9375,-0.42678 -4.683389,-1.90791 -3.952875,-9.45356 1.058333,-10.33409 m 2.645834,54.41712 c 4.671747,-3.43853 8.546835,-9.37313 12.360803,-13.75834 1.821656,-2.09417 3.697817,-5.13371 6.689196,-5.5073 3.921124,-0.48948 7.195078,2.52651 5.791993,6.56564 -0.955146,2.74955 -3.81635,4.99083 -5.67981,7.14375 -4.386527,5.06835 -8.818298,10.11634 -13.321506,15.08124 -2.233083,2.46195 -4.462991,5.48958 -8.221926,4.62254 -2.842154,-0.6559 -4.237302,-3.13055 -5.668433,-5.41629 -2.851944,-4.55453 -6.585215,-8.89978 -8.88365,-13.75833 -5.030787,3.61844 -9.542991,9.67846 -13.713353,14.2875 -1.865048,2.06111 -3.938588,5.14853 -6.924146,5.50704 -3.950494,0.4744 -7.215452,-3.63405 -5.693039,-7.35912 1.207293,-2.95434 4.563797,-5.43428 6.747404,-7.67292 4.573322,-4.68815 8.928099,-9.59935 13.501686,-14.2875 2.302669,-2.36061 4.746361,-5.46126 8.462698,-4.65931 2.646098,0.57124 3.992562,2.84268 5.379773,4.9239 3.026039,4.53892 7.012251,9.28131 9.17231,14.2875 z"
       id="path2869" /></g></svg>
