<svg width="52" height="60" viewBox="0 0 52 60" fill="none" xmlns="http://www.w3.org/2000/svg">
<path d="M8.27697 46.3845C6.15444 46.5256 4.02116 46.4305 1.91856 46.1023L0 45.8017L0.424814 43.9092C1.18242 40.5582 3.38624 34.1983 9.6281 29.2339C16.4343 23.8248 24.8064 23.4629 27.7126 23.5703C27.7203 24.8585 27.3721 26.1222 26.705 27.2249C24.811 27.1651 18.0446 27.1804 11.8856 32.0711C8.43187 34.8255 5.86458 38.5369 4.50732 42.7406C8.16195 43.0258 11.8334 42.4737 15.2427 41.1257C17.7394 40.1288 19.8206 38.905 21.871 37.1076C22.2652 37.6934 22.7007 38.2486 23.1777 38.7685C23.5197 39.1442 23.8831 39.5 24.2635 39.8359C22.6133 41.2867 20.2147 43.0473 16.5892 44.4966C13.933 45.5563 11.1295 46.1943 8.27697 46.3845Z" fill="#D9D389"/>
<path d="M44.0273 45.0303C39.9969 45.3094 35.9558 44.6423 32.2291 43.0811C24.2098 39.7224 20.3052 33.3134 19.0046 30.7139C19.8926 29.8566 21.0198 29.2892 22.236 29.0837C23.1807 30.9271 24.3677 32.6356 25.7649 34.1631C27.9487 36.5724 30.6326 38.4741 33.6308 39.7347C37.7087 41.4355 42.1976 41.8956 46.5363 41.0613C45.0241 37.7211 42.7712 34.7704 39.9463 32.4316C37.9112 30.7354 35.5969 29.4073 33.1063 28.5055C33.5955 27.3584 33.9406 26.156 34.1323 24.9245C37.0861 26.0241 39.8313 27.6175 42.2513 29.6373C47.07 33.5987 49.5222 38.3989 50.7215 41.7284L51.3825 43.5534L49.5161 44.0917C47.7248 44.5963 45.8845 44.9107 44.0273 45.0303Z" fill="#D9D389"/>
<path d="M28.6083 34.6292C27.5777 33.9759 26.7035 33.1018 26.0502 32.0712C27.136 30.5191 30.3796 25.2895 29.6481 17.4557C29.2309 13.0573 27.5255 8.87815 24.7466 5.44283C22.5106 8.34752 20.9662 11.7246 20.2316 15.3163C19.701 17.9511 19.5583 20.5076 19.9479 23.2083C19.3482 23.259 18.7547 23.3556 18.1704 23.4982C17.5585 23.647 16.9588 23.8463 16.3791 24.0917C16.0295 21.7744 15.8822 18.54 16.6736 14.6016C17.902 8.48555 20.9815 4.06871 23.3587 1.43854L24.6592 0L26.0057 1.39407C28.3951 3.86167 32.5175 9.18641 33.2582 17.1199C34.0695 25.7772 30.286 32.2521 28.6083 34.6292Z" fill="#D9D389"/>
<path d="M24.6806 60L23.4552 58.9556C22.6225 58.2455 19.9064 55.597 19.8435 51.2952C19.7745 46.6651 22.8908 43.8065 23.5166 43.282L24.7481 42.2468L25.9228 43.3448C26.9074 44.2665 29.2078 46.8461 29.2983 50.8596C29.3996 55.3025 26.6942 58.1443 25.863 58.9096L24.6806 60ZM24.6208 47.4565C23.0994 49.6557 23.0856 52.565 24.587 54.778C26.021 52.5512 26.0332 49.6956 24.6208 47.4565Z" fill="#D9D389"/>
<path d="M10.8275 23.6117C9.14509 23.6117 6.47965 23.2222 4.08567 21.1886C0.558328 18.1919 0.458642 13.9637 0.473979 13.1463L0.506185 11.5313L2.10729 11.3718C3.45381 11.2369 6.9014 11.2031 9.98552 13.7812C13.3917 16.6291 13.7552 20.5383 13.7797 21.6701L13.8211 23.2789L12.2277 23.512C11.7645 23.578 11.2952 23.6117 10.8275 23.6117ZM4.34485 15.0648C4.99817 17.6582 7.17745 19.5844 9.83216 19.9126C9.10062 17.3668 6.96121 15.4774 4.34485 15.0648Z" fill="#D9D389"/>
<path d="M48.5607 11.424L50.1526 11.6571L50.1066 13.2659C50.0775 14.3977 49.7171 18.3069 46.3124 21.1548C43.239 23.7313 39.7792 23.6976 38.4388 23.5642L36.8377 23.4047L36.8055 21.7882C36.7886 20.9708 36.8868 16.7441 40.4172 13.7444C42.8112 11.7092 45.4751 11.3212 47.159 11.3212C47.6283 11.3212 48.096 11.3565 48.5607 11.424ZM43.989 18.3713C45.0257 17.4941 45.7818 16.3316 46.1637 15.028C43.509 15.3562 41.3297 17.2824 40.6763 19.8758C41.8956 19.678 43.0381 19.1581 43.989 18.3713Z" fill="#D9D389"/>
</svg>
