<svg width="255" height="85" viewBox="0 0 255 85" fill="none" xmlns="http://www.w3.org/2000/svg">
<path d="M82.1382 33.4681C82.1382 32.5238 82.3391 30.8793 82.579 29.894L85.2283 30.2354C85.0273 31.1992 84.8869 32.7442 84.8674 33.5481C84.7875 36.4999 85.7102 37.7035 87.9381 37.7035C89.9455 37.7035 90.6478 36.7397 90.6478 33.8895V32.0419C90.6478 29.2306 91.7326 28.3684 94.6217 28.3684C95.9075 28.3684 97.1306 28.4483 98.1743 28.5888L98.1937 31.1992C98.1937 33.3471 98.7556 33.8895 100.664 33.8895H100.904V36.6187H100.664C96.5493 36.6187 95.4645 35.5555 95.4645 31.1992V31.0998H94.6217C93.578 31.0998 93.4181 31.2597 93.3771 32.5043V33.8895C93.3771 38.5657 91.8515 40.4327 87.9575 40.4327C83.9058 40.4327 82.1382 38.3064 82.1382 33.4681ZM84.7291 42.3214C84.7291 41.5996 85.3104 40.9967 86.0538 40.9967C86.7971 40.9967 87.3784 41.6191 87.3784 42.3214C87.3784 43.0842 86.7971 43.687 86.0538 43.687C85.3104 43.687 84.7291 43.0842 84.7291 42.3214ZM87.8992 42.3214C87.8992 41.5996 88.4804 40.9967 89.2238 40.9967C89.9672 40.9967 90.5484 41.6191 90.5484 42.3214C90.5484 43.0842 89.9672 43.687 89.2238 43.687C88.4804 43.687 87.8992 43.0842 87.8992 42.3214ZM100.808 33.8895H103.419V26.9832H106.129V33.8895H108.819V36.6187H100.808V33.8895ZM103.497 39.6116C103.497 38.8898 104.078 38.2869 104.821 38.2869C105.565 38.2869 106.146 38.9093 106.146 39.6116C106.146 40.3744 105.565 40.9773 104.821 40.9773C104.078 40.9773 103.497 40.3744 103.497 39.6116ZM108.717 33.8895H110.705V22.1666H113.435V28.9518C115.021 27.6877 116.466 26.9854 118.171 26.9854C121.382 26.9854 122.649 28.833 122.649 31.8021C122.649 32.3444 122.608 32.8263 122.549 33.2477C122.75 33.7101 123.191 33.8895 124.075 33.8895H124.397V36.6187H124.075C122.75 36.6187 121.767 36.3789 121.065 35.8365C120.021 36.5582 118.537 36.6187 116.989 36.6187H108.72V33.8895H108.717ZM116.987 33.8895C119.777 33.8895 119.917 33.7685 119.917 31.8021C119.917 30.0366 119.556 29.7146 118.171 29.7146C116.927 29.7146 115.822 30.337 113.435 32.5649V33.8895H116.987ZM124.293 33.8895H124.533C126.441 33.8895 127.003 33.3471 127.003 31.1992V22.1666H129.732V31.1992C129.732 35.5555 128.647 36.6187 124.533 36.6187H124.293V33.8895ZM132.725 22.1666H135.454V36.6187H132.725V22.1666Z" fill="#BEC011"/>
<path d="M140.714 40.6942L141.637 38.3647C142.058 38.5462 142.319 38.5851 142.782 38.5851C143.765 38.5851 144.387 37.6819 144.387 36.1973V26.9832H147.117V33.8895H149.124V36.6187H147.097C146.937 39.4884 145.351 41.1955 142.821 41.1955C142.179 41.1955 141.477 41.0356 140.714 40.6942ZM149.025 33.8895H151.635V26.9832H154.345V33.8895H157.035V36.6187H149.025V33.8895ZM150.109 39.6505C150.109 38.9287 150.691 38.3258 151.434 38.3258C152.177 38.3258 152.759 38.9482 152.759 39.6505C152.759 40.4133 152.177 41.0162 151.434 41.0162C150.691 41.0162 150.109 40.4133 150.109 39.6505ZM153.28 39.6505C153.28 38.9287 153.861 38.3258 154.604 38.3258C155.348 38.3258 155.929 38.9482 155.929 39.6505C155.929 40.4133 155.348 41.0162 154.604 41.0162C153.861 41.0162 153.28 40.4133 153.28 39.6505ZM156.934 33.8895H164.281C165.344 33.8895 165.525 33.6885 165.525 32.5044C165.525 31.841 165.344 31.1387 165.044 30.5768C164.462 29.492 163.278 28.9907 161.21 28.9907C160.828 28.9907 159.965 28.9108 159.362 29.1722L157.817 27.1237L165.487 21.3217L167.112 23.4696L163.157 26.4603L163.68 26.5813C165.445 26.9832 166.632 27.867 167.433 29.3516C167.956 30.3154 168.257 31.4585 168.257 32.5022C168.257 35.6528 167.334 36.6166 164.283 36.6166H156.936V33.8895H156.934Z" fill="#245A40"/>
<path d="M175.12 33.4681C175.12 32.5238 175.321 30.8794 175.561 29.894L178.21 30.2354C178.009 31.1992 177.869 32.7442 177.849 33.5481C177.769 36.4999 178.692 37.7035 180.92 37.7035C182.927 37.7035 183.63 36.7397 183.63 33.8895V32.0419C183.63 29.2306 184.714 28.3684 187.603 28.3684C188.889 28.3684 190.112 28.4483 191.156 28.5888L191.175 36.6187H188.446V31.0976H187.603C186.56 31.0976 186.4 31.2575 186.359 32.5022V33.8874C186.359 38.5636 184.833 40.4306 180.939 40.4306C176.887 40.4327 175.12 38.3064 175.12 33.4681ZM177.711 42.3214C177.711 41.5996 178.292 40.9967 179.035 40.9967C179.779 40.9967 180.36 41.6191 180.36 42.3214C180.36 43.0842 179.779 43.6871 179.035 43.6871C178.292 43.6871 177.711 43.0842 177.711 42.3214ZM180.881 42.3214C180.881 41.5996 181.462 40.9967 182.205 40.9967C182.949 40.9967 183.53 41.6191 183.53 42.3214C183.53 43.0842 182.949 43.6871 182.205 43.6871C181.462 43.6871 180.881 43.0842 180.881 42.3214ZM192.524 40.1129L193.848 37.844C194.793 38.3064 195.575 38.5074 196.418 38.5074C197.883 38.5074 198.827 37.8051 199.028 36.6209H197.282C194.611 36.6209 192.725 34.594 192.725 31.7437C192.725 28.954 194.611 26.9854 197.282 26.9854C198.144 26.9854 198.929 27.2058 199.612 27.6078L199.873 26.9854H201.801V36.018C201.801 39.2097 199.774 41.1177 196.381 41.1177C194.953 41.1156 193.628 40.7742 192.524 40.1129ZM199.069 33.8895V31.7416C199.069 30.2765 198.367 29.4337 197.282 29.4337C196.158 29.4337 195.456 30.2765 195.456 31.7416C195.456 33.0857 196.178 33.8895 197.282 33.8895H199.069Z" fill="#245A40"/>
<path d="M207.432 37.6084V37.589C207.432 37.0293 207.469 35.7436 207.525 35.333C207.711 33.9543 208.793 34.084 209.221 34.084H209.39L207.972 30.9139V29.088C209.407 27.9513 211.235 27.3916 213.508 27.3916C216.063 27.3916 217.964 29.0685 217.964 31.3439C217.964 32.3877 217.759 33.319 217.368 34.084H218.785V36.6187H209.986V37.6063C209.986 38.65 210.695 39.2831 211.868 39.2831H213.435V41.8179H211.868C209.295 41.82 207.432 40.0502 207.432 37.6084ZM213.489 34.084C214.682 33.9349 215.427 32.9841 215.427 31.3439C215.427 30.4299 214.738 29.9091 213.506 29.9091C212.575 29.9091 211.38 30.1144 210.468 30.3931L212.108 34.084H213.489ZM222.364 35.9661C221.804 36.4329 220.929 36.6187 219.624 36.6187H218.692V34.084H219.624C220.518 34.084 220.704 33.9543 220.76 33.0575C220.724 32.7788 220.704 32.4979 220.704 32.1997C220.704 29.3667 222.55 27.3895 225.16 27.3895C227.788 27.3895 229.653 29.384 229.653 32.1997C229.653 32.7226 229.577 33.2261 229.467 33.6734C229.596 34.0083 229.877 34.084 230.491 34.084H231.18V36.6187H230.491C229.279 36.6187 228.44 36.4329 227.881 36.0418C227.135 36.582 226.204 36.8996 225.158 36.8996C224.06 36.8996 223.109 36.5647 222.364 35.9661ZM227.118 32.1824C227.118 30.6546 226.336 29.6649 225.16 29.6649C224.004 29.6649 223.239 30.6525 223.239 32.1824C223.239 33.6734 224.004 34.6242 225.16 34.6242C226.336 34.6242 227.118 33.6734 227.118 32.1824ZM231.09 34.084H236.775C238.547 34.084 239.011 33.8981 239.068 31.8647V31.6033C239.068 30.1684 238.005 29.5893 236.606 29.5893C235.563 29.5893 234.742 30.149 234.221 31.2121L232.04 29.9826C232.935 28.2668 234.688 27.2058 236.609 27.2058C239.292 27.2058 241.585 28.8287 241.605 31.586C241.605 33.5805 242.128 34.084 243.897 34.084H244.122V36.6187H243.897C242.274 36.6187 241.157 36.4329 240.412 35.9294C239.686 36.4696 238.53 36.6187 236.777 36.6187H231.092V34.084H231.09ZM234.201 39.3977C234.201 38.7256 234.742 38.1681 235.431 38.1681C236.12 38.1681 236.66 38.7451 236.66 39.3977C236.66 40.1064 236.12 40.6661 235.431 40.6661C234.744 40.6661 234.201 40.1064 234.201 39.3977ZM247.701 35.9661C247.141 36.4329 246.266 36.6187 244.96 36.6187H244.029V34.084H244.96C245.855 34.084 246.041 33.9543 246.097 33.0575C246.06 32.7788 246.041 32.4979 246.041 32.1997C246.041 29.3667 247.886 27.3895 250.497 27.3895C253.124 27.3895 254.989 29.384 254.989 32.1997C254.989 34.9591 253.124 36.8975 250.497 36.8975C249.397 36.8996 248.446 36.5647 247.701 35.9661ZM252.455 32.1824C252.455 30.6546 251.672 29.6649 250.497 29.6649C249.341 29.6649 248.576 30.6525 248.576 32.1824C248.576 33.6734 249.341 34.6242 250.497 34.6242C251.67 34.6242 252.455 33.6734 252.455 32.1824Z" fill="#245A40"/>
<path d="M94.436 46.8723L92.1843 55.8703H89.8267L88.4114 50.146L86.983 55.8703H84.6254L82.3738 46.8723H84.4569L85.3731 50.736L85.909 53.2512L86.4449 50.736L87.3612 46.8723H89.535L90.4901 50.736L91.0412 53.2512L91.5382 50.736L92.4544 46.8723H94.436Z" fill="#BEC011"/>
<path d="M97.1544 48.5361V50.3556H100.677V52.0195H97.1544V54.1415H101.347V55.8054H95.1383V46.8744H101.28V48.5383H97.1544V48.5361Z" fill="#BEC011"/>
<path d="M108.942 55.9351C105.969 55.9351 104.791 54.0097 104.791 51.3389C104.791 48.655 105.969 46.7426 108.942 46.7426C110.016 46.7426 110.999 46.9911 111.993 47.4492V48.9813C110.71 48.588 109.858 48.4044 109.165 48.4044C107.633 48.4044 106.807 49.3854 106.807 51.3389C106.807 53.2902 107.633 54.2734 109.165 54.2734C109.858 54.2734 110.71 54.0897 111.993 53.6964V55.2285C110.997 55.6866 110.016 55.9351 108.942 55.9351Z" fill="#BEC011"/>
<path d="M115.451 53.7612L114.835 55.8054H112.845L116.157 46.8074H117.808L121.017 55.8054H118.96L118.318 53.7612H115.451ZM115.805 52.268H117.979L116.905 48.9035H116.879L115.805 52.268Z" fill="#BEC011"/>
<path d="M129.216 55.8054H126.936L125.259 52.6354H123.924V55.8054H121.908V46.8744H125.771C127.632 46.8744 128.887 47.9613 128.887 49.7549C128.887 51.0385 128.271 51.9288 127.249 52.335L129.216 55.8054ZM126.871 49.7549C126.871 48.9035 126.281 48.5361 125.601 48.5361H123.924V50.9585H125.575C126.309 50.9585 126.871 50.6063 126.871 49.7549Z" fill="#BEC011"/>
<path d="M132.137 48.5361V50.3556H135.66V52.0195H132.137V54.1415H136.327V55.8054H130.119V46.8744H136.262V48.5383H132.137V48.5361Z" fill="#BEC011"/>
<path d="M139.897 46.8723H142.425L143.67 49.6361L144.586 51.797L145.451 49.6361L146.63 46.8723H149.198V55.8033H147.182L147.22 49.7916L145.15 54.4138H143.763L141.693 49.7916L141.745 55.8033H139.897V46.8723Z" fill="#245A40"/>
<path d="M152.653 48.5361V50.3556H156.175V52.0195H152.653V54.1415H156.843V55.8054H150.637V46.8744H156.78V48.5383H152.653V48.5361Z" fill="#245A40"/>
<path d="M157.971 46.8723H161.39C164.192 46.8723 165.437 48.6658 165.437 51.3259C165.437 53.9968 164.192 55.8054 161.39 55.8054H157.971V46.8723ZM163.406 51.3259C163.406 49.4005 162.738 48.5362 161.39 48.5362H159.987V54.1415H161.39C162.738 54.1415 163.406 53.2513 163.406 51.3259Z" fill="#245A40"/>
<path d="M166.647 46.8723H168.663V55.8033H166.647V46.8723Z" fill="#245A40"/>
<path d="M174.106 55.9351C171.133 55.9351 169.955 54.0097 169.955 51.3389C169.955 48.655 171.133 46.7426 174.106 46.7426C175.18 46.7426 176.161 46.9911 177.158 47.4492V48.9813C175.874 48.588 175.023 48.4044 174.329 48.4044C172.797 48.4044 171.971 49.3854 171.971 51.3389C171.971 53.2902 172.797 54.2734 174.329 54.2734C175.023 54.2734 175.874 54.0897 177.158 53.6964V55.2285C176.161 55.6866 175.18 55.9351 174.106 55.9351Z" fill="#245A40"/>
<path d="M180.615 53.7612L179.999 55.8054H178.009L181.322 46.8074H182.973L186.182 55.8054H184.124L183.483 53.7612H180.615ZM180.969 52.268H183.143L182.069 48.9013H182.043L180.969 52.268Z" fill="#245A40"/>
<path d="M189.088 54.1415H193.055V55.8054H187.07V46.8744H189.086V54.1415H189.088Z" fill="#245A40"/>
<path d="M200.482 55.9351C197.509 55.9351 196.331 54.0097 196.331 51.3389C196.331 48.655 197.509 46.7426 200.482 46.7426C201.556 46.7426 202.537 46.9911 203.534 47.4492V48.9813C202.25 48.588 201.399 48.4044 200.705 48.4044C199.173 48.4044 198.347 49.3854 198.347 51.3389C198.347 53.2902 199.173 54.2734 200.705 54.2734C201.399 54.2734 202.25 54.0897 203.534 53.6964V55.2285C202.54 55.6866 201.556 55.9351 200.482 55.9351Z" fill="#245A40"/>
<path d="M204.739 51.3259C204.739 48.655 205.984 46.7426 208.787 46.7426C211.577 46.7426 212.821 48.655 212.821 51.3259C212.821 54.0097 211.577 55.9351 208.787 55.9351C205.984 55.9351 204.739 54.0097 204.739 51.3259ZM210.803 51.3259C210.803 49.3876 210.122 48.4044 208.787 48.4044C207.438 48.4044 206.758 49.3854 206.758 51.3259C206.758 53.0806 207.322 54.2734 208.787 54.2734C210.241 54.2734 210.803 53.0806 210.803 51.3259Z" fill="#245A40"/>
<path d="M214.111 46.8723H216.639L217.884 49.6361L218.8 51.797L219.665 49.6361L220.845 46.8723H223.412V55.8033H221.396L221.435 49.7916L219.364 54.4138H217.977L215.907 49.7916L215.959 55.8033H214.111V46.8723Z" fill="#245A40"/>
<path d="M226.867 55.8054H224.851V46.8744H228.715C230.575 46.8744 231.831 48.0132 231.831 49.7959C231.831 51.6025 230.586 52.7305 228.715 52.7305H226.867V55.8054ZM228.518 51.0514C229.264 51.0514 229.815 50.7251 229.815 49.7938C229.815 48.8905 229.251 48.5361 228.518 48.5361H226.867V51.0514H228.518Z" fill="#245A40"/>
<path d="M234.988 54.1415H238.955V55.8054H232.97V46.8744H234.986V54.1415H234.988Z" fill="#245A40"/>
<path d="M241.89 48.5361V50.3556H245.412V52.0195H241.89V54.1415H246.08V55.8054H239.872V46.8744H246.015V48.5383H241.89V48.5361Z" fill="#245A40"/>
<path d="M250.678 52.5835L249.931 53.9319L248.844 55.8054H246.76L249.55 51.1681L246.918 46.8723H249.185L250.101 48.3654L250.901 49.7527L251.674 48.3525L252.565 46.8723H254.739L252.107 51.1681L255 55.8054H252.694L251.489 53.9319L250.678 52.5835Z" fill="#245A40"/>
<path d="M11.6624 65.3566C8.67172 65.5555 5.6659 65.4215 2.7033 64.959L0 64.5355L0.598571 61.8689C1.66606 57.1474 4.77128 48.1861 13.5662 41.1912C23.1563 33.5697 34.9527 33.0597 39.0476 33.211C39.0584 35.0262 38.5679 36.8067 37.6279 38.3604C34.9592 38.2762 25.4252 38.2978 16.747 45.1889C11.8807 49.0699 8.26331 54.2993 6.35091 60.2223C11.5003 60.6243 16.6736 59.8463 21.4773 57.9469C24.9952 56.5423 27.9276 54.8179 30.8167 52.2853C31.3721 53.1108 31.9858 53.893 32.6578 54.6256C33.1397 55.155 33.6518 55.6563 34.1877 56.1296C31.8626 58.1738 28.4829 60.6545 23.3745 62.6966C19.6318 64.1898 15.6817 65.0887 11.6624 65.3566Z" fill="#245A40"/>
<path d="M62.0353 63.4486C56.3565 63.8419 50.6625 62.9019 45.4115 60.7021C34.1121 55.9697 28.6104 46.9392 26.778 43.2765C28.0291 42.0686 29.6174 41.269 31.331 40.9795C32.6621 43.5769 34.3346 45.9841 36.3032 48.1364C39.3804 51.5312 43.162 54.2107 47.3865 55.987C53.1324 58.3834 59.4574 59.0317 65.5706 57.8561C63.4399 53.1497 60.2655 48.9921 56.2851 45.6967C53.4176 43.3068 50.1568 41.4354 46.6475 40.1648C47.3368 38.5484 47.823 36.8543 48.0931 35.1191C52.2551 36.6685 56.1231 38.9136 59.533 41.7595C66.3226 47.3412 69.7779 54.1048 71.4677 58.7961L72.399 61.3676L69.7692 62.1261C67.2453 62.837 64.6522 63.28 62.0353 63.4486Z" fill="#245A40"/>
<path d="M40.3096 48.7933C38.8575 47.8727 37.6258 46.641 36.7052 45.1889C38.2351 43.0021 42.8055 35.6334 41.7747 24.5954C41.1869 18.398 38.784 12.5095 34.8684 7.66906C31.7178 11.7618 29.5418 16.5201 28.5067 21.581C27.7591 25.2934 27.5581 28.8957 28.107 32.701C27.2621 32.7723 26.4258 32.9085 25.6025 33.1094C24.7403 33.319 23.8954 33.5999 23.0785 33.9457C22.5858 30.6806 22.3784 26.1232 23.4934 20.574C25.2243 11.9563 29.5634 5.73289 32.9128 2.02693L34.7453 0L36.6425 1.96426C40.0092 5.44116 45.8178 12.9438 46.8615 24.1222C48.0046 36.3205 42.6736 45.4439 40.3096 48.7933Z" fill="#245A40"/>
<path d="M34.7755 84.5412L33.0489 83.0696C31.8755 82.0691 28.0486 78.3372 27.96 72.2759C27.8627 65.7521 32.2537 61.7242 33.1353 60.9852L34.8705 59.5266L36.5258 61.0738C37.9131 62.3725 41.1545 66.0071 41.282 71.6622C41.4246 77.9224 37.6127 81.9265 36.4415 83.0048L34.7755 84.5412ZM34.6912 66.8672C32.5476 69.9659 32.5281 74.0651 34.6437 77.1833C36.6641 74.0457 36.6814 70.0221 34.6912 66.8672Z" fill="#245A40"/>
<path d="M15.2561 33.2694C12.8855 33.2694 9.12989 32.7205 5.75672 29.8551C0.786629 25.6327 0.64617 19.6751 0.667779 18.5233L0.713158 16.2479L2.96915 16.0232C4.86642 15.833 9.72414 15.7855 14.0697 19.4179C18.8691 23.4307 19.3812 28.9389 19.4158 30.5336L19.4742 32.8004L17.229 33.1289C16.5764 33.2218 15.9151 33.2694 15.2561 33.2694ZM6.12191 21.2266C7.04246 24.8807 10.1131 27.5948 13.8536 28.0572C12.8229 24.4701 9.80842 21.8079 6.12191 21.2266Z" fill="#245A40"/>
<path d="M68.4231 16.0966L70.6661 16.4251L70.6013 18.6919C70.5602 20.2866 70.0524 25.7948 65.2552 29.8076C60.9247 33.4379 56.0497 33.3904 54.1611 33.2024L51.9051 32.9776L51.8597 30.7C51.8359 29.5483 51.9742 23.5928 56.9486 19.3661C60.3218 16.4986 64.0753 15.9518 66.448 15.9518C67.1092 15.9518 67.7683 16.0015 68.4231 16.0966ZM61.9814 25.8855C63.4422 24.6495 64.5075 23.0115 65.0456 21.1748C61.305 21.6372 58.2344 24.3513 57.3138 28.0054C59.0318 27.7266 60.6416 26.9941 61.9814 25.8855Z" fill="#245A40"/>
</svg>
