<svg width="32" height="38" viewBox="0 0 32 38" fill="none" xmlns="http://www.w3.org/2000/svg">
<path d="M5.15473 28.8873C3.83286 28.9752 2.5043 28.916 1.19484 28.7116L0 28.5244L0.264565 27.3458C0.73639 25.2588 2.10888 21.298 5.99618 18.2063C10.235 14.8376 15.4489 14.6122 17.2588 14.6791C17.2636 15.4814 17.0468 16.2684 16.6313 16.9551C15.4518 16.9179 11.2378 16.9274 7.4021 19.9733C5.2512 21.6886 3.65234 24 2.80707 26.618C5.0831 26.7956 7.36963 26.4518 9.49284 25.6122C11.0478 24.9914 12.3438 24.2292 13.6208 23.1098C13.8663 23.4747 14.1375 23.8204 14.4346 24.1442C14.6476 24.3782 14.8739 24.5998 15.1108 24.809C14.0831 25.7125 12.5893 26.809 10.3314 27.7116C8.67718 28.3715 6.93123 28.7689 5.15473 28.8873Z" fill="#BFB411"/>
<path d="M27.4193 28.044C24.9092 28.2178 22.3925 27.8023 20.0716 26.83C15.0773 24.7383 12.6456 20.7469 11.8357 19.128C12.3887 18.5941 13.0907 18.2407 13.8481 18.1127C14.4365 19.2608 15.1757 20.3248 16.0458 21.276C17.4059 22.7765 19.0773 23.9609 20.9446 24.746C23.4842 25.8052 26.2798 26.0917 28.9818 25.5721C28.0401 23.4919 26.637 21.6543 24.8777 20.1977C23.6103 19.1414 22.169 18.3142 20.6179 17.7526C20.9226 17.0382 21.1375 16.2894 21.2569 15.5225C23.0964 16.2073 24.8061 17.1996 26.3133 18.4575C29.3142 20.9246 30.8414 23.9141 31.5883 25.9876L32 27.1242L30.8376 27.4594C29.722 27.7737 28.5759 27.9695 27.4193 28.044Z" fill="#BFB411"/>
<path d="M17.8166 21.5664C17.1748 21.1595 16.6304 20.6151 16.2235 19.9733C16.8997 19.0067 18.9198 15.7498 18.4642 10.8711C18.2044 8.13181 17.1423 5.52913 15.4116 3.38969C14.0191 5.19866 13.0573 7.30182 12.5998 9.53868C12.2693 11.1796 12.1805 12.7717 12.4231 14.4537C12.0497 14.4852 11.68 14.5454 11.3161 14.6342C10.935 14.7268 10.5616 14.851 10.2006 15.0038C9.9828 13.5607 9.89111 11.5463 10.3839 9.0936C11.149 5.28462 13.0669 2.53391 14.5473 0.895893L15.3572 0L16.1958 0.868195C17.6839 2.40497 20.2512 5.72111 20.7125 10.6619C21.2178 16.0535 18.8615 20.086 17.8166 21.5664Z" fill="#BFB411"/>
<path d="M15.3705 37.3668L14.6074 36.7163C14.0888 36.2741 12.3973 34.6247 12.3581 31.9456C12.3151 29.0621 14.2559 27.2818 14.6456 26.9551L15.4126 26.3104L16.1442 26.9943C16.7574 27.5683 18.19 29.1748 18.2464 31.6743C18.3094 34.4413 16.6246 36.2111 16.1069 36.6877L15.3705 37.3668ZM15.3333 29.5549C14.3858 30.9246 14.3772 32.7364 15.3123 34.1146C16.2053 32.7278 16.2129 30.9494 15.3333 29.5549Z" fill="#BFB411"/>
<path d="M6.74305 14.7049C5.6953 14.7049 4.03532 14.4623 2.54439 13.1958C0.347636 11.3295 0.285554 8.69628 0.295105 8.1872L0.315162 7.18147L1.3123 7.08214C2.15088 6.99809 4.29797 6.97708 6.2187 8.58262C8.34 10.3563 8.56636 12.7908 8.58164 13.4957L8.60743 14.4976L7.61507 14.6428C7.32663 14.6839 7.03436 14.7049 6.74305 14.7049ZM2.7058 9.38205C3.11268 10.9971 4.46989 12.1968 6.12319 12.4012C5.6676 10.8157 4.33522 9.63897 2.7058 9.38205Z" fill="#BFB411"/>
<path d="M30.2426 7.11465L31.234 7.25983L31.2054 8.26174C31.1872 8.96661 30.9628 11.4012 28.8424 13.1748C26.9284 14.7794 24.7737 14.7584 23.9389 14.6753L22.9417 14.576L22.9217 13.5693C22.9112 13.0602 22.9723 10.4279 25.171 8.55973C26.6619 7.2923 28.3209 7.05066 29.3696 7.05066C29.6619 7.05066 29.9532 7.07263 30.2426 7.11465ZM27.3954 11.4413C28.0411 10.895 28.512 10.171 28.7498 9.35916C27.0965 9.56355 25.7393 10.7632 25.3324 12.3783C26.0917 12.2551 26.8033 11.9313 27.3954 11.4413Z" fill="#BFB411"/>
</svg>
